<svg width="24" height="24" viewBox="0 0 24 24" fill="none" xmlns="http://www.w3.org/2000/svg">
<path d="M17.6733 9.47307C17.8557 9.10119 17.7021 8.65184 17.3302 8.46942C16.9584 8.287 16.509 8.44059 16.3266 8.81247L14.8663 11.7895C14.4136 12.7123 13.0833 12.6672 12.6941 11.7159C11.8149 9.56689 8.80949 9.46509 7.78692 11.5497L6.32658 14.5268C6.14416 14.8986 6.29775 15.348 6.66964 15.5304C7.04152 15.7128 7.49087 15.5592 7.67329 15.1874L9.13362 12.2103C9.58626 11.2875 10.9166 11.3326 11.3058 12.2839C12.1849 14.4329 15.1904 14.5347 16.213 12.4501L17.6733 9.47307Z" fill="#2D264B"/>
<path fill-rule="evenodd" clip-rule="evenodd" d="M15.0667 1.79551C14.2621 1.72362 13.279 1.72363 12.0351 1.72363H11.9647C10.7209 1.72363 9.73775 1.72362 8.93318 1.79551C8.10672 1.86936 7.41546 2.0224 6.76215 2.35755C6.59292 2.44437 6.4281 2.53953 6.26829 2.64268C5.65139 3.04089 5.17323 3.56301 4.69604 4.24182C4.2315 4.90266 3.73993 5.7541 3.11803 6.83127L3.0828 6.89228C2.46089 7.96945 1.96931 8.82088 1.62929 9.5536C1.28001 10.3063 1.06692 10.9814 1.03051 11.7148C1.02108 11.9048 1.02108 12.0951 1.03051 12.285C1.06692 13.0184 1.28001 13.6936 1.62929 14.4462C1.96931 15.1789 2.46089 16.0304 3.08279 17.1075L3.11803 17.1686C3.73992 18.2457 4.2315 19.0972 4.69604 19.758C5.17323 20.4368 5.65139 20.9589 6.2683 21.3571C6.4281 21.4603 6.59292 21.5555 6.76215 21.6423C7.41547 21.9774 8.10672 22.1305 8.93318 22.2043C9.73774 22.2762 10.7209 22.2762 11.9647 22.2762H12.0351C13.2789 22.2762 14.2621 22.2762 15.0667 22.2043C15.8932 22.1305 16.5844 21.9774 17.2377 21.6423C17.407 21.5555 17.5718 21.4603 17.7316 21.3571C18.3485 20.9589 18.8266 20.4368 19.3038 19.758C19.7684 19.0972 20.2599 18.2457 20.8818 17.1686L20.9171 17.1076C21.539 16.0304 22.0306 15.179 22.3706 14.4462C22.7199 13.6936 22.9329 13.0184 22.9694 12.285C22.9788 12.0951 22.9788 11.9048 22.9694 11.7148C22.9329 10.9814 22.7199 10.3063 22.3706 9.5536C22.0306 8.82087 21.539 7.96943 20.917 6.89225L20.8819 6.83129C20.26 5.75411 19.7684 4.90266 19.3038 4.24182C18.8266 3.56301 18.3485 3.04089 17.7316 2.64268C17.5718 2.53953 17.407 2.44437 17.2377 2.35755C16.5844 2.0224 15.8931 1.86936 15.0667 1.79551ZM7.44681 3.69218C7.86803 3.4761 8.35086 3.35352 9.06668 3.28956C9.7968 3.22432 10.7131 3.22363 11.9999 3.22363C13.2867 3.22363 14.2031 3.22432 14.9332 3.28956C15.649 3.35352 16.1318 3.4761 16.5531 3.69218C16.6781 3.75635 16.8 3.82668 16.9181 3.90293C17.3158 4.15967 17.6634 4.51653 18.0767 5.10446C18.4983 5.70414 18.957 6.49738 19.6004 7.61177C20.2438 8.72616 20.7014 9.52009 21.01 10.185C21.3125 10.8369 21.4477 11.3163 21.4712 11.7892C21.4782 11.9296 21.4782 12.0702 21.4712 12.2107C21.4477 12.6835 21.3125 13.1629 21.01 13.8148C20.7014 14.4797 20.2438 15.2737 19.6004 16.3881C18.957 17.5024 18.4983 18.2957 18.0767 18.8954C17.6634 19.4833 17.3158 19.8402 16.9181 20.0969C16.8 20.1731 16.6781 20.2435 16.5531 20.3076C16.1318 20.5237 15.649 20.6463 14.9332 20.7103C14.2031 20.7755 13.2867 20.7762 11.9999 20.7762C10.7131 20.7762 9.7968 20.7755 9.06668 20.7103C8.35086 20.6463 7.86803 20.5237 7.44681 20.3076C7.32172 20.2435 7.1999 20.1731 7.08179 20.0969C6.68405 19.8402 6.33648 19.4833 5.92318 18.8954C5.50162 18.2957 5.04285 17.5024 4.39945 16.3881C3.75606 15.2737 3.29848 14.4797 2.98992 13.8148C2.6874 13.1629 2.55214 12.6835 2.52867 12.2107C2.52169 12.0702 2.52169 11.9296 2.52867 11.7892C2.55214 11.3163 2.6874 10.8369 2.98992 10.185C3.29848 9.52009 3.75606 8.72616 4.39945 7.61177C5.04285 6.49738 5.50162 5.70414 5.92318 5.10446C6.33648 4.51653 6.68405 4.15967 7.08179 3.90293C7.1999 3.82668 7.32173 3.75635 7.44681 3.69218Z" fill="#2D264B"/>
</svg>
