<svg width="24" height="24" viewBox="0 0 24 24" fill="none" xmlns="http://www.w3.org/2000/svg">
<path fill-rule="evenodd" clip-rule="evenodd" d="M12.6779 8.82237C12.6874 8.92765 12.6956 9.03695 12.7028 9.15036C12.7989 9.07476 12.8988 9.00006 13.0022 8.92576C13.6482 8.46137 14.5276 7.94476 15.6385 7.29214L15.7072 7.2518C16.8179 6.59928 17.6974 6.08263 18.4158 5.74551C19.1377 5.40677 19.8108 5.19163 20.4876 5.26401C21.5193 5.37434 22.4524 5.92451 23.0575 6.77193C23.4528 7.32544 23.6054 8.01873 23.6779 8.82237C23.75 9.62256 23.75 10.6547 23.75 11.961V12.0388C23.75 13.3452 23.75 14.3774 23.6779 15.1776C23.6054 15.9812 23.4527 16.6745 23.0575 17.228C22.4524 18.0755 21.5193 18.6256 20.4876 18.7359C19.8108 18.8083 19.1377 18.5932 18.4158 18.2544C17.6974 17.9173 16.818 17.4007 15.7072 16.7482L15.6385 16.7078C14.5276 16.0552 13.6482 15.5386 13.0022 15.0742C12.8988 14.9999 12.7989 14.9252 12.7028 14.8496C12.6956 14.963 12.6874 15.0723 12.6779 15.1776C12.6054 15.9812 12.4528 16.6745 12.0575 17.228C11.4524 18.0755 10.5193 18.6256 9.4876 18.7359C8.81079 18.8083 8.13767 18.5932 7.41581 18.2544C6.6974 17.9173 5.81796 17.4007 4.70723 16.7482L4.63854 16.7078C3.52758 16.0552 2.64816 15.5386 2.00217 15.0742C1.3519 14.6067 0.836661 14.1237 0.563162 13.4986C0.145613 12.5444 0.145613 11.4556 0.563163 10.5013C0.836662 9.87628 1.3519 9.39323 2.00217 8.92576C2.64816 8.46137 3.52757 7.94476 4.63853 7.29214L4.7072 7.2518C5.81794 6.59928 6.69739 6.08263 7.41581 5.74551C8.13767 5.40677 8.81079 5.19163 9.4876 5.26401C10.5193 5.37434 11.4524 5.92451 12.0575 6.77193C12.4528 7.32544 12.6054 8.01873 12.6779 8.82237ZM5.43252 8.56538C6.58536 7.88814 7.40506 7.40749 8.05302 7.10344C8.70494 6.79752 9.0695 6.72785 9.32809 6.75551C9.92823 6.81969 10.4775 7.14036 10.8368 7.64359C10.9944 7.86434 11.1182 8.22783 11.1839 8.95707C11.2492 9.68076 11.25 10.6433 11.25 11.994L11.25 12.006C11.25 13.3567 11.2492 14.3192 11.1839 15.0429C11.1182 15.7721 10.9944 16.1356 10.8368 16.3564C10.4775 16.8596 9.92823 17.1803 9.32809 17.2445C9.06949 17.2721 8.70494 17.2024 8.05302 16.8965C7.40506 16.5925 6.58536 16.1118 5.43252 15.4346C4.27977 14.7574 3.46071 14.2753 2.87773 13.8563C2.29243 13.4355 2.04642 13.1466 1.93736 12.8973C1.68755 12.3264 1.68755 11.6736 1.93736 11.1026C2.04642 10.8534 2.29243 10.5645 2.87773 10.1437C3.46071 9.72462 4.27977 9.24257 5.43252 8.56538ZM12.9374 12.8973C12.8126 12.6121 12.7501 12.3065 12.75 12.0009V11.9991C12.7501 11.6934 12.8126 11.3878 12.9374 11.1026C13.0464 10.8534 13.2924 10.5645 13.8777 10.1437C14.4607 9.72462 15.2798 9.24257 16.4325 8.56538C17.5854 7.88814 18.4051 7.40749 19.053 7.10344C19.7049 6.79752 20.0695 6.72785 20.3281 6.75551C20.9282 6.81969 21.4775 7.14036 21.8368 7.64359C21.9944 7.86434 22.1182 8.22783 22.1839 8.95707C22.2493 9.68183 22.25 10.6461 22.25 12C22.25 13.3538 22.2493 14.3181 22.1839 15.0429C22.1182 15.7721 21.9944 16.1356 21.8368 16.3564C21.4774 16.8596 20.9282 17.1803 20.3281 17.2445C20.0695 17.2721 19.7049 17.2024 19.053 16.8965C18.4051 16.5925 17.5854 16.1118 16.4325 15.4346C15.2798 14.7574 14.4607 14.2753 13.8777 13.8563C13.2924 13.4355 13.0464 13.1466 12.9374 12.8973Z" fill="#2D264B"/>
</svg>
