<svg width="24" height="24" viewBox="0 0 24 24" fill="none" xmlns="http://www.w3.org/2000/svg">
<path d="M12.7498 7C12.7498 6.58579 12.414 6.25 11.9998 6.25C11.5856 6.25 11.2498 6.58579 11.2498 7V13C11.2498 13.4142 11.5856 13.75 11.9998 13.75C12.414 13.75 12.7498 13.4142 12.7498 13V7Z" fill="#2D264B"/>
<path fill-rule="evenodd" clip-rule="evenodd" d="M14.3385 1.74711C12.8498 1.0843 11.1498 1.0843 9.66106 1.74711C8.73024 2.16154 7.97857 2.95575 7.20235 4.05442C6.42857 5.14963 5.56202 6.65055 4.44253 8.58957L4.40162 8.66043C3.28212 10.5994 2.41556 12.1004 1.85397 13.3181C1.29061 14.5396 0.978635 15.5877 1.08514 16.601C1.25548 18.2217 2.1055 19.694 3.42388 20.6518C4.24819 21.2507 5.31183 21.5046 6.65142 21.6275C7.98677 21.75 9.71987 21.75 11.9588 21.75H12.0407C14.2797 21.75 16.0128 21.75 17.3482 21.6275C18.6878 21.5046 19.7514 21.2507 20.5757 20.6518C21.8941 19.694 22.7441 18.2217 22.9144 16.601C23.021 15.5877 22.709 14.5396 22.1456 13.3181C21.584 12.1004 20.7175 10.5994 19.5979 8.66037L19.557 8.58948C18.4375 6.65051 17.571 5.14961 16.7972 4.05442C16.021 2.95575 15.2694 2.16154 14.3385 1.74711ZM10.2712 3.11743C11.3715 2.62752 12.6281 2.62752 13.7284 3.11743C14.2817 3.36379 14.8406 3.88446 15.5722 4.91996C16.3015 5.95228 17.1343 7.39321 18.2785 9.375C19.4227 11.3568 20.2542 12.7985 20.7835 13.9463C21.3145 15.0976 21.486 15.8419 21.4227 16.4442C21.2968 17.6421 20.6685 18.7303 19.694 19.4383C19.204 19.7943 18.4737 20.0179 17.2111 20.1338C15.9524 20.2492 14.2882 20.25 11.9998 20.25C9.71142 20.25 8.04714 20.2492 6.78846 20.1338C5.52588 20.0179 4.79556 19.7943 4.30555 19.4383C3.3311 18.7303 2.70283 17.6421 2.57692 16.4442C2.51361 15.8419 2.68512 15.0976 3.2161 13.9463C3.74544 12.7985 4.57693 11.3568 5.72111 9.375C6.86529 7.39321 7.69809 5.95228 8.42743 4.91997C9.15904 3.88446 9.71784 3.36379 10.2712 3.11743Z" fill="#2D264B"/>
<path d="M12.9998 16C12.9998 16.5523 12.5521 17 11.9998 17C11.4476 17 10.9998 16.5523 10.9998 16C10.9998 15.4477 11.4476 15 11.9998 15C12.5521 15 12.9998 15.4477 12.9998 16Z" fill="#2D264B"/>
</svg>
