<svg width="24" height="24" viewBox="0 0 24 24" fill="none" xmlns="http://www.w3.org/2000/svg">
<g clip-path="url(#clip0_311_3224)">
<path fill-rule="evenodd" clip-rule="evenodd" d="M20.0907 1.70903C14.7407 0.736313 9.25925 0.736313 3.90932 1.70903C1.79028 2.09431 0.25 3.93989 0.25 6.09367V14.4286C0.25 17.3013 2.78473 19.5139 5.63113 19.1257C7.49602 18.8714 9.37234 18.7293 11.25 18.6994V21.5842C10.6256 21.6279 10.0041 21.7262 9.39274 21.879L7.8181 22.2727C7.41625 22.3731 7.17193 22.7803 7.27239 23.1822C7.37285 23.584 7.78006 23.8284 8.1819 23.7279L9.75655 23.3342C10.493 23.1501 11.2465 23.0581 12 23.0581C12.7535 23.0581 13.507 23.1501 14.2435 23.3342L15.8181 23.7279C16.2199 23.8284 16.6271 23.584 16.7276 23.1822C16.8281 22.7803 16.5837 22.3731 16.1819 22.2727L14.6073 21.879C13.9959 21.7262 13.3744 21.6279 12.75 21.5842V18.6994C14.6277 18.7293 16.504 18.8714 18.3689 19.1257C21.2153 19.5139 23.75 17.3013 23.75 14.4286V6.09367C23.75 3.93989 22.2097 2.09431 20.0907 1.70903ZM4.17764 3.18483C9.35015 2.24438 14.6499 2.24438 19.8224 3.18483C21.2282 3.44043 22.25 4.66482 22.25 6.09367V14.4286C22.25 16.3923 20.5173 17.9048 18.5715 17.6395C16.3911 17.3421 14.1956 17.1935 12 17.1935C9.80444 17.1935 7.60888 17.3421 5.42846 17.6395C3.4827 17.9048 1.75 16.3923 1.75 14.4286V6.09367C1.75 4.66482 2.77185 3.44043 4.17764 3.18483Z" fill="#2D264B"/>
</g>
<defs>
<clipPath id="clip0_311_3224">
<rect width="24" height="24" fill="white"/>
</clipPath>
</defs>
</svg>
