<svg width="24" height="24" viewBox="0 0 24 24" fill="none" xmlns="http://www.w3.org/2000/svg">
<path fill-rule="evenodd" clip-rule="evenodd" d="M17.7312 1.49136C16.5355 0.996097 15.3748 1.30521 14.5492 2.03477C13.7428 2.74739 13.25 3.85581 13.25 5.03346V5.99919C13.25 8.89868 15.6005 11.2492 18.5 11.2492H19.4657C20.6434 11.2492 21.7518 10.7564 22.4644 9.95C23.194 9.1244 23.5031 7.96369 23.0078 6.76802C22.5178 5.5851 21.7997 4.51027 20.8943 3.6049C19.9889 2.69952 18.9141 1.98134 17.7312 1.49136ZM14.75 5.03346C14.75 4.25918 15.0777 3.56952 15.5425 3.15879C15.9881 2.76499 16.5495 2.62547 17.1571 2.87718C18.1581 3.29178 19.0676 3.89947 19.8336 4.66556C20.5997 5.43164 21.2074 6.34111 21.622 7.34205C21.8737 7.94972 21.7342 8.51109 21.3404 8.95673C20.9297 9.42154 20.24 9.74919 19.4657 9.74919H18.5C16.4289 9.74919 14.75 8.07025 14.75 5.99919V5.03346Z" fill="#2D264B"/>
<path fill-rule="evenodd" clip-rule="evenodd" d="M11.75 6.49919C11.75 5.03983 10.5133 3.61334 8.85109 3.98894C7.69088 4.25111 6.58234 4.72475 5.58319 5.39236C3.97982 6.4637 2.73013 7.98644 1.99218 9.76802C1.25422 11.5496 1.06114 13.51 1.43735 15.4013C1.81355 17.2926 2.74215 19.0299 4.10571 20.3935C5.46928 21.757 7.20656 22.6856 9.09787 23.0618C10.9892 23.438 12.9496 23.245 14.7312 22.507C16.5127 21.7691 18.0355 20.5194 19.1068 18.916C19.7744 17.9168 20.2481 16.8083 20.5102 15.6481C20.8858 13.9859 19.4594 12.7492 18 12.7492H16C13.6528 12.7492 11.75 10.8464 11.75 8.49919V6.49919ZM9.1817 5.45206C9.67431 5.34074 10.25 5.7494 10.25 6.49919V8.49919C10.25 11.6748 12.8244 14.2492 16 14.2492H18C18.7498 14.2492 19.1584 14.8249 19.0471 15.3175C18.8253 16.2992 18.4245 17.2372 17.8596 18.0826C16.9531 19.4393 15.6646 20.4968 14.1571 21.1212C12.6497 21.7456 10.9909 21.909 9.39051 21.5907C7.79017 21.2723 6.32016 20.4866 5.16637 19.3328C4.01259 18.179 3.22685 16.709 2.90853 15.1087C2.5902 13.5083 2.75358 11.8495 3.378 10.342C4.00242 8.83456 5.05984 7.54608 6.41655 6.63956C7.26198 6.07467 8.19996 5.6739 9.1817 5.45206Z" fill="#2D264B"/>
</svg>
