<svg width="24" height="24" viewBox="0 0 24 24" fill="none" xmlns="http://www.w3.org/2000/svg">
<path fill-rule="evenodd" clip-rule="evenodd" d="M8.53429 6.59994C9.02366 6.32465 10.1196 5.89694 11.0816 6.76893C11.6257 7.26212 11.8045 7.89602 11.7359 8.5116C11.6715 9.09072 11.3947 9.63379 11.0718 10.0757C10.7439 10.5245 10.3282 10.9244 9.90681 11.2178C9.51234 11.4925 9.00368 11.75 8.5 11.75C7.99633 11.75 7.48767 11.4925 7.09319 11.2178C6.67178 10.9244 6.25611 10.5245 5.9282 10.0757C5.60534 9.63379 5.32852 9.09072 5.26406 8.5116C5.19555 7.89602 5.37435 7.26212 5.91842 6.76893C6.88037 5.89694 7.97633 6.32465 8.4657 6.59994C8.4657 6.59994 8.46829 6.6008 8.47076 6.60141C8.47784 6.60315 8.488 6.60463 8.49999 6.60463C8.51198 6.60463 8.52215 6.60315 8.52923 6.60141C8.5317 6.6008 8.53429 6.59994 8.53429 6.59994ZM9.72579 7.7512C9.58676 7.76025 9.42554 7.81943 9.26854 7.90795C8.80346 8.17019 8.19653 8.17019 7.73145 7.90795C7.57445 7.81943 7.41324 7.76026 7.2742 7.75121C7.16152 7.74388 7.05216 7.76578 6.92584 7.88028C6.77729 8.01494 6.73357 8.15439 6.75486 8.34567C6.78021 8.57341 6.90552 8.8707 7.13935 9.19072C7.36811 9.50381 7.66368 9.78726 7.95027 9.98679C8.09268 10.0859 8.22163 10.1565 8.32767 10.2003C8.38006 10.2219 8.42215 10.235 8.45363 10.2424C8.48453 10.2496 8.49999 10.25 8.49999 10.25C8.49999 10.25 8.51441 10.2499 8.54638 10.2424C8.57786 10.235 8.61994 10.2219 8.67233 10.2003C8.77838 10.1565 8.90732 10.0859 9.04974 9.98679C9.33632 9.78726 9.63189 9.50381 9.86066 9.19072C10.0945 8.8707 10.2198 8.57341 10.2451 8.34567C10.2664 8.15439 10.2227 8.01494 10.0742 7.88028C9.94784 7.76577 9.83848 7.74387 9.72579 7.7512Z" fill="#2D264B"/>
<path fill-rule="evenodd" clip-rule="evenodd" d="M15.5343 6.59994C16.0237 6.32465 17.1196 5.89694 18.0816 6.76893C18.6257 7.26212 18.8045 7.89602 18.7359 8.5116C18.6715 9.09072 18.3947 9.63379 18.0718 10.0757C17.7439 10.5245 17.3282 10.9244 16.9068 11.2178C16.5123 11.4925 16.0037 11.75 15.5 11.75C14.9963 11.75 14.4877 11.4925 14.0932 11.2178C13.6718 10.9244 13.2561 10.5245 12.9282 10.0757C12.6053 9.63379 12.3285 9.09072 12.2641 8.5116C12.1955 7.89602 12.3743 7.26212 12.9184 6.76893C13.8804 5.89695 14.9763 6.32465 15.4657 6.59994L15.4682 6.60135C15.4661 6.60015 15.4657 6.59994 15.4657 6.59994V6.59994C15.4657 6.59994 15.4683 6.6008 15.4708 6.60141C15.4778 6.60315 15.488 6.60463 15.5 6.60463C15.512 6.60463 15.5222 6.60315 15.5292 6.60141C15.5317 6.6008 15.5343 6.59994 15.5343 6.59994ZM16.7258 7.7512C16.5868 7.76025 16.4255 7.81943 16.2685 7.90795C15.8035 8.17019 15.1965 8.17019 14.7315 7.90795C14.5745 7.81943 14.4132 7.76026 14.2742 7.75121C14.1615 7.74388 14.0522 7.76578 13.9258 7.88028C13.7773 8.01494 13.7336 8.15439 13.7549 8.34567C13.7802 8.57341 13.9055 8.8707 14.1393 9.19072C14.3681 9.50381 14.6637 9.78726 14.9503 9.98679C15.0927 10.0859 15.2216 10.1565 15.3277 10.2003C15.3801 10.2219 15.4221 10.235 15.4536 10.2424C15.4845 10.2496 15.5 10.25 15.5 10.25C15.5 10.25 15.5144 10.2499 15.5464 10.2424C15.5779 10.235 15.6199 10.2219 15.6723 10.2003C15.7784 10.1565 15.9073 10.0859 16.0497 9.98679C16.3363 9.78726 16.6319 9.50381 16.8607 9.19072C17.0945 8.8707 17.2198 8.57341 17.2451 8.34567C17.2664 8.15439 17.2227 8.01494 17.0742 7.88028C16.9478 7.76577 16.8385 7.74387 16.7258 7.7512ZM15.5343 6.59994L15.5318 6.60135C15.5339 6.60015 15.5343 6.59994 15.5343 6.59994V6.59994Z" fill="#2D264B"/>
<path fill-rule="evenodd" clip-rule="evenodd" d="M7.16061 15.0995C7.44582 14.5935 7.99806 14.25 8.64496 14.25H15.355C16.0019 14.25 16.5542 14.5935 16.8394 15.0995C17.131 15.6169 17.1294 16.2868 16.7134 16.8366C16.2105 17.5013 15.5545 18.217 14.7758 18.7722C13.9974 19.3272 13.0555 19.75 12 19.75C10.9445 19.75 10.0026 19.3272 9.22423 18.7722C8.44548 18.217 7.78949 17.5013 7.28657 16.8366C6.87062 16.2868 6.86898 15.6169 7.16061 15.0995ZM8.45607 15.8751C8.4563 15.8793 8.4573 15.8979 8.48277 15.9315C8.92718 16.5189 9.47824 17.1111 10.095 17.5509C10.7122 17.9909 11.3542 18.25 12 18.25C12.6458 18.25 13.2878 17.9909 13.905 17.5509C14.5218 17.1111 15.0728 16.5189 15.5172 15.9315C15.5427 15.8979 15.5437 15.8793 15.5439 15.8751C15.5443 15.8678 15.543 15.8545 15.5327 15.836C15.5121 15.7995 15.458 15.75 15.355 15.75H8.64496C8.54203 15.75 8.48793 15.7995 8.46734 15.836C8.45697 15.8545 8.45568 15.8678 8.45607 15.8751Z" fill="#2D264B"/>
<path fill-rule="evenodd" clip-rule="evenodd" d="M1.25 12C1.25 6.06294 6.06294 1.25 12 1.25C17.9371 1.25 22.75 6.06294 22.75 12C22.75 17.9371 17.9371 22.75 12 22.75C6.06294 22.75 1.25 17.9371 1.25 12ZM12 2.75C6.89137 2.75 2.75 6.89137 2.75 12C2.75 17.1086 6.89137 21.25 12 21.25C17.1086 21.25 21.25 17.1086 21.25 12C21.25 6.89137 17.1086 2.75 12 2.75Z" fill="#2D264B"/>
</svg>
