<svg width="24" height="24" viewBox="0 0 24 24" fill="none" xmlns="http://www.w3.org/2000/svg">
<path d="M9.99952 17.0697C9.58531 17.0697 9.24952 17.4054 9.24952 17.8197C9.24952 18.2339 9.58531 18.5697 9.99952 18.5697H13.9995C14.4137 18.5697 14.7495 18.2339 14.7495 17.8197C14.7495 17.4054 14.4137 17.0697 13.9995 17.0697H9.99952Z" fill="#2D264B"/>
<path fill-rule="evenodd" clip-rule="evenodd" d="M12.2103 1.25387C12.0698 1.24871 11.9292 1.24871 11.7887 1.25387C10.8613 1.28789 10.0263 1.60323 9.11066 2.12818C8.21839 2.63974 7.19116 3.38608 5.88778 4.33305L5.81693 4.38453C4.51353 5.33149 3.48627 6.07783 2.72402 6.76835C1.94183 7.47693 1.38386 8.17368 1.06493 9.04515C1.01662 9.17717 0.973165 9.31091 0.934655 9.44611C0.680434 10.3386 0.722297 11.2303 0.938607 12.2633C1.14941 13.27 1.54179 14.4776 2.03964 16.0098L2.06671 16.0931C2.56455 17.6253 2.95692 18.8329 3.37809 19.7712C3.81028 20.7341 4.30051 21.4801 5.03078 22.0527C5.1414 22.1394 5.25517 22.2221 5.37185 22.3005C6.14211 22.8181 7.00306 23.0538 8.05235 23.1673C9.0749 23.2779 10.3446 23.2779 11.9557 23.2779H12.0433C13.6544 23.2779 14.9241 23.2779 15.9467 23.1673C16.996 23.0538 17.8569 22.8181 18.6272 22.3005C18.7439 22.2221 18.8576 22.1394 18.9683 22.0527C19.6985 21.4801 20.1888 20.7341 20.6209 19.7712C21.0421 18.8329 21.4345 17.6253 21.9323 16.093L21.9594 16.0097C22.4572 14.4776 22.8496 13.2699 23.0604 12.2633C23.2767 11.2303 23.3186 10.3386 23.0644 9.44611C23.0259 9.31091 22.9824 9.17717 22.9341 9.04515C22.6152 8.17368 22.0572 7.47693 21.275 6.76835C20.5128 6.07782 19.4855 5.33149 18.1821 4.38452L18.1112 4.33303C16.8079 3.38607 15.7806 2.63973 14.8884 2.12818C13.9728 1.60323 13.1377 1.28789 12.2103 1.25387ZM11.8437 2.75286C11.9475 2.74905 12.0515 2.74905 12.1553 2.75286C12.7508 2.7747 13.3438 2.97167 14.1423 3.42948C14.9561 3.89603 15.9184 4.59396 17.265 5.57232C18.6116 6.55068 19.5728 7.25026 20.268 7.88002C20.9501 8.49798 21.3207 9.00112 21.5255 9.56067C21.5612 9.65824 21.5933 9.75709 21.6218 9.85703C21.785 10.4301 21.7809 11.055 21.5923 11.9558C21.4 12.874 21.0336 14.0049 20.5193 15.5879C20.0049 17.1709 19.6366 18.3012 19.2525 19.157C18.8756 19.9967 18.5116 20.5046 18.0427 20.8723C17.9609 20.9364 17.8768 20.9975 17.7906 21.0555C17.296 21.3878 16.7005 21.577 15.7854 21.676C14.8528 21.7768 13.664 21.7779 11.9995 21.7779C10.335 21.7779 9.14625 21.7768 8.21366 21.676C7.29856 21.577 6.70301 21.3878 6.20845 21.0555C6.1222 20.9975 6.03811 20.9364 5.95635 20.8723C5.48747 20.5046 5.12347 19.9967 4.74656 19.157C4.36244 18.3012 3.99411 17.1709 3.47976 15.5879C2.96541 14.0049 2.59902 12.874 2.40677 11.9558C2.21812 11.055 2.21405 10.4301 2.37727 9.85703C2.40574 9.7571 2.43786 9.65824 2.47357 9.56067C2.67834 9.00112 3.04893 8.49798 3.73108 7.88002C4.42627 7.25026 5.38742 6.55068 6.73402 5.57232C8.08061 4.59396 9.04296 3.89603 9.85673 3.42948C10.6552 2.97167 11.2483 2.7747 11.8437 2.75286Z" fill="#2D264B"/>
</svg>
