<svg width="24" height="24" viewBox="0 0 24 24" fill="none" xmlns="http://www.w3.org/2000/svg">
<path d="M7.30263 9.8578C7.30263 9.44359 7.63842 9.1078 8.05263 9.1078H12.0526C12.4668 9.1078 12.8026 9.44359 12.8026 9.8578C12.8026 10.272 12.4668 10.6078 12.0526 10.6078H8.05263C7.63842 10.6078 7.30263 10.272 7.30263 9.8578Z" fill="#2D264B"/>
<path d="M7.30263 13.8578C7.30263 13.4436 7.63842 13.1078 8.05263 13.1078H16.0526C16.4668 13.1078 16.8026 13.4436 16.8026 13.8578C16.8026 14.272 16.4668 14.6078 16.0526 14.6078H8.05263C7.63842 14.6078 7.30263 14.272 7.30263 13.8578Z" fill="#2D264B"/>
<path fill-rule="evenodd" clip-rule="evenodd" d="M4.42179 4.3986C8.61993 0.200466 15.4265 0.200466 19.6246 4.3986C23.8227 8.59674 23.8227 15.4033 19.6246 19.6014C18.391 20.835 16.4956 21.963 14.3837 22.4682C12.2612 22.9759 9.86434 22.8653 7.7012 21.5286C7.58895 21.4592 7.51709 21.4149 7.46282 21.3832C7.42597 21.3618 7.40959 21.3536 7.40624 21.3519C7.36979 21.3377 7.35751 21.3362 7.35644 21.336C7.35473 21.3357 7.34107 21.3336 7.2994 21.3368C7.30669 21.3362 7.29928 21.3359 7.25502 21.3459C7.20801 21.3566 7.14614 21.3725 7.04175 21.3996L7.01526 21.4064C6.40886 21.5636 5.91692 21.6911 5.5209 21.7658C5.1226 21.8409 4.73607 21.881 4.36424 21.8053C3.28298 21.5852 2.43794 20.7402 2.21789 19.659C2.14222 19.2871 2.18228 18.9006 2.25739 18.5023C2.33207 18.1063 2.45958 17.6143 2.61675 17.0079L2.62362 16.9814C2.65069 16.877 2.66663 16.8152 2.67725 16.7682C2.68724 16.724 2.68691 16.7166 2.68635 16.7239C2.68951 16.6827 2.68737 16.6689 2.68704 16.6668C2.68673 16.6647 2.68479 16.6517 2.67106 16.6166C2.66936 16.6132 2.66119 16.597 2.63987 16.5606C2.60834 16.5068 2.56416 16.4356 2.49487 16.3241C1.15629 14.1701 1.01696 11.7994 1.51457 9.68213C2.00958 7.57586 3.14212 5.67827 4.42179 4.3986ZM18.5639 5.45926C14.9516 1.84691 9.09481 1.84691 5.48245 5.45926C4.39374 6.54798 3.40392 8.19937 2.97478 10.0253C2.54824 11.8402 2.68299 13.785 3.76889 15.5323C3.77874 15.5482 3.78861 15.564 3.79847 15.5798C3.90188 15.7457 4.00426 15.91 4.06289 16.0572C4.16781 16.3207 4.20365 16.5559 4.18196 16.8386C4.16987 16.9962 4.12723 17.1598 4.08636 17.3166C4.08277 17.3304 4.07919 17.3441 4.07564 17.3578C3.90997 17.997 3.7956 18.4399 3.73141 18.7803C3.66657 19.1241 3.67123 19.2786 3.68776 19.3598C3.78779 19.8513 4.17189 20.2354 4.66337 20.3354C4.74461 20.352 4.89907 20.3566 5.24294 20.2918C5.58333 20.2276 6.02618 20.1132 6.6654 19.9475C6.67909 19.944 6.69284 19.9404 6.70665 19.9368C6.86335 19.896 7.02673 19.8534 7.18384 19.8413C7.46619 19.8194 7.69967 19.8547 7.96297 19.959C8.10987 20.0172 8.27478 20.1194 8.44177 20.2229C8.45775 20.2328 8.47374 20.2427 8.48974 20.2526C10.2364 21.332 12.2031 21.4475 14.0347 21.0093C15.8768 20.5687 17.5259 19.5788 18.5639 18.5407C22.1763 14.9284 22.1763 9.07161 18.5639 5.45926Z" fill="#2D264B"/>
</svg>
