<svg width="24" height="24" viewBox="0 0 24 24" fill="none" xmlns="http://www.w3.org/2000/svg">
<path d="M4.25 14C4.25 13.5858 4.58579 13.25 5 13.25H11C11.4142 13.25 11.75 13.5858 11.75 14C11.75 14.4142 11.4142 14.75 11 14.75H5C4.58579 14.75 4.25 14.4142 4.25 14Z" fill="#2D264B"/>
<path fill-rule="evenodd" clip-rule="evenodd" d="M11.9664 1.25H14.0336C15.4053 1.25 16.4807 1.24999 17.3451 1.32061C18.2252 1.39252 18.9523 1.54138 19.6104 1.87671C20.6924 2.42798 21.572 3.30762 22.1233 4.38956C22.4586 5.04769 22.6075 5.77479 22.6794 6.65494C22.75 7.51928 22.75 8.59471 22.75 9.96642V14.2283C22.75 16.7256 20.7256 18.75 18.2283 18.75H17.6266C17.3781 18.75 17.2082 19.001 17.3005 19.2317C17.9871 20.9484 16.0101 22.5003 14.5056 21.4257L12.649 20.0995C12.2333 20.2472 11.7907 20.3368 11.331 20.3588C11.2208 20.3641 11.0831 20.3641 10.866 20.3641H10.8392L10.7818 20.3642C10.1437 20.3683 9.5211 20.5702 8.99767 20.944L8.96034 20.971L6.92977 22.4412C5.59144 23.4102 3.92216 21.9916 4.49917 20.5294C4.51593 20.487 4.51021 20.4467 4.48713 20.4121C4.46435 20.378 4.43527 20.3641 4.40154 20.3641H3.93351C1.88962 20.3641 0.25 18.6874 0.25 16.6406L0.25 13.2745C0.249995 12.1982 0.24999 11.3453 0.305408 10.6578C0.362065 9.95485 0.480278 9.35954 0.753761 8.81548C1.19712 7.93347 1.90555 7.21449 2.77921 6.76327C2.95691 6.67149 3.14008 6.59686 3.33083 6.53596C3.40645 5.70722 3.5576 5.01585 3.87671 4.38955C4.42798 3.30762 5.30762 2.42798 6.38955 1.87671C7.04769 1.54138 7.77479 1.39252 8.65494 1.32061C9.51929 1.24999 10.5947 1.25 11.9664 1.25ZM4.86815 6.28791C5.49847 6.24993 6.24344 6.24996 7.13855 6.25L8.81111 6.25C9.87186 6.24999 10.7144 6.24999 11.3939 6.30626C12.0896 6.36388 12.6806 6.48428 13.2208 6.76327C14.0945 7.21449 14.8029 7.93347 15.2462 8.81548C15.5197 9.35954 15.6379 9.95485 15.6946 10.6578C15.75 11.3453 15.75 12.1983 15.75 13.2745V15.4574C15.75 15.6562 15.75 15.7827 15.7448 15.8936C15.6814 17.2526 15.0487 18.461 14.0794 19.2779L15.3774 20.2051C15.6629 20.409 16.038 20.1145 15.9077 19.7888C15.4213 18.5728 16.3169 17.25 17.6266 17.25H18.2283C19.8972 17.25 21.25 15.8972 21.25 14.2283V10C21.25 8.58749 21.2494 7.57322 21.1844 6.77708C21.12 5.9897 20.9964 5.48197 20.7868 5.07054C20.3793 4.27085 19.7291 3.62068 18.9295 3.21322C18.518 3.00359 18.0103 2.87996 17.2229 2.81563C16.4268 2.75058 15.4125 2.75 14 2.75H12C10.5875 2.75 9.57322 2.75058 8.77708 2.81563C7.9897 2.87996 7.48197 3.00359 7.07054 3.21322C6.27085 3.62068 5.62068 4.27085 5.21322 5.07054C5.04989 5.3911 4.93949 5.76818 4.86815 6.28791ZM7.22222 7.75C5.71785 7.75 4.82539 7.75298 4.17398 7.87088C3.87884 7.9243 3.65679 7.99827 3.46753 8.09601C2.87771 8.40064 2.39629 8.88773 2.09397 9.48916C1.94359 9.78832 1.84987 10.1665 1.80056 10.7783C1.75057 11.3985 1.75 12.191 1.75 13.3071V16.6406C1.75 17.8782 2.73713 18.8641 3.93351 18.8641H4.40154C5.55185 18.8641 6.3081 20.0318 5.89446 21.0801C5.87698 21.1243 5.88158 21.1481 5.88545 21.161C5.89107 21.1798 5.90527 21.2034 5.93018 21.2232C5.95512 21.2431 5.97819 21.2492 5.9912 21.2499C5.99759 21.2503 6.01547 21.2513 6.05009 21.2262L8.08066 19.756L8.12582 19.7234C8.89973 19.1707 9.82312 18.8704 10.772 18.8642L10.8392 18.8641C11.0917 18.8641 11.1899 18.8639 11.2591 18.8606C11.6763 18.8405 12.0709 18.7385 12.4286 18.57C13.459 18.085 14.1893 17.0474 14.2465 15.8236C14.2498 15.7524 14.25 15.6637 14.25 15.4348V13.3071C14.25 12.191 14.2494 11.3985 14.1994 10.7783C14.1501 10.1665 14.0564 9.78832 13.906 9.48916C13.6037 8.88773 13.1223 8.40064 12.5325 8.09601C12.2408 7.94536 11.8714 7.85094 11.2701 7.80115C10.6597 7.7506 9.87931 7.75 8.77778 7.75H7.22222Z" fill="#2D264B"/>
</svg>
