<svg width="24" height="24" viewBox="0 0 24 24" fill="none" xmlns="http://www.w3.org/2000/svg">
<path fill-rule="evenodd" clip-rule="evenodd" d="M9 9.25C7.48122 9.25 6.25 10.4812 6.25 12C6.25 13.5188 7.48122 14.75 9 14.75C10.2588 14.75 11.32 13.9043 11.6465 12.75H13.4887C13.544 13.021 13.5084 13.3061 13.382 13.559L13.3292 13.6646C13.1439 14.0351 13.2941 14.4856 13.6646 14.6708C14.0351 14.8561 14.4856 14.7059 14.6708 14.3354L14.7236 14.2298C14.9555 13.7661 15.0485 13.2532 15.0026 12.75H16.4887C16.544 13.021 16.5084 13.3061 16.382 13.559L16.3292 13.6646C16.1439 14.0351 16.2941 14.4856 16.6646 14.6708C17.0351 14.8561 17.4856 14.7059 17.6708 14.3354L17.7236 14.2298C18.1107 13.4556 18.1107 12.5444 17.7236 11.7702C17.5642 11.4514 17.2384 11.25 16.882 11.25H14.0151C14.0047 11.2498 13.9942 11.2498 13.9838 11.25H11.6465C11.32 10.0957 10.2588 9.25 9 9.25ZM7.75 12C7.75 11.3096 8.30964 10.75 9 10.75C9.69036 10.75 10.25 11.3096 10.25 12C10.25 12.6904 9.69036 13.25 9 13.25C8.30964 13.25 7.75 12.6904 7.75 12Z" fill="#2D264B"/>
<path fill-rule="evenodd" clip-rule="evenodd" d="M16.4635 2.37373C15.3214 2.24999 13.8818 2.24999 12.0452 2.25H11.9548C10.1182 2.24999 8.67861 2.24999 7.53648 2.37373C6.37094 2.50001 5.42656 2.76232 4.62024 3.34815C4.13209 3.70281 3.70281 4.13209 3.34815 4.62024C2.76232 5.42656 2.50001 6.37094 2.37373 7.53648C2.24999 8.67861 2.24999 10.1182 2.25 11.9548V12.0452C2.24999 13.8818 2.24999 15.3214 2.37373 16.4635C2.50001 17.6291 2.76232 18.5734 3.34815 19.3798C3.70281 19.8679 4.13209 20.2972 4.62024 20.6518C5.42656 21.2377 6.37094 21.5 7.53648 21.6263C8.67859 21.75 10.1182 21.75 11.9547 21.75H12.0453C13.8818 21.75 15.3214 21.75 16.4635 21.6263C17.6291 21.5 18.5734 21.2377 19.3798 20.6518C19.8679 20.2972 20.2972 19.8679 20.6518 19.3798C21.2377 18.5734 21.5 17.6291 21.6263 16.4635C21.75 15.3214 21.75 13.8818 21.75 12.0453V11.9547C21.75 10.1182 21.75 8.67859 21.6263 7.53648C21.5 6.37094 21.2377 5.42656 20.6518 4.62024C20.2972 4.13209 19.8679 3.70281 19.3798 3.34815C18.5734 2.76232 17.6291 2.50001 16.4635 2.37373ZM5.50191 4.56168C6.00992 4.19259 6.66013 3.97745 7.69804 3.865C8.74999 3.75103 10.1084 3.75 12 3.75C13.8916 3.75 15.25 3.75103 16.302 3.865C17.3399 3.97745 17.9901 4.19259 18.4981 4.56168C18.8589 4.82382 19.1762 5.14111 19.4383 5.50191C19.8074 6.00992 20.0225 6.66013 20.135 7.69804C20.249 8.74999 20.25 10.1084 20.25 12C20.25 13.8916 20.249 15.25 20.135 16.302C20.0225 17.3399 19.8074 17.9901 19.4383 18.4981C19.1762 18.8589 18.8589 19.1762 18.4981 19.4383C17.9901 19.8074 17.3399 20.0225 16.302 20.135C15.25 20.249 13.8916 20.25 12 20.25C10.1084 20.25 8.74999 20.249 7.69804 20.135C6.66013 20.0225 6.00992 19.8074 5.50191 19.4383C5.14111 19.1762 4.82382 18.8589 4.56168 18.4981C4.19259 17.9901 3.97745 17.3399 3.865 16.302C3.75103 15.25 3.75 13.8916 3.75 12C3.75 10.1084 3.75103 8.74999 3.865 7.69804C3.97745 6.66013 4.19259 6.00992 4.56168 5.50191C4.82382 5.14111 5.14111 4.82382 5.50191 4.56168Z" fill="#2D264B"/>
</svg>
