<svg width="24" height="24" viewBox="0 0 24 24" fill="none" xmlns="http://www.w3.org/2000/svg">
<path d="M12.4219 9.99994C13.0906 10.6687 13.0906 11.753 12.4219 12.4218C11.7531 13.0906 10.6688 13.0906 9.99998 12.4218C9.33119 11.753 9.33119 10.6687 9.99998 9.99994C10.6688 9.33116 11.7531 9.33116 12.4219 9.99994Z" fill="#2D264B"/>
<path fill-rule="evenodd" clip-rule="evenodd" d="M12.4913 2.08112C11.7475 1.94212 10.9497 2.00344 9.65039 2.10331L9.3738 2.12452C7.65993 2.25575 6.61076 2.33609 5.73551 2.71052C4.37565 3.29227 3.29226 4.37565 2.71052 5.7355C2.33609 6.61076 2.25575 7.65993 2.12453 9.37379L2.10331 9.65039C2.00344 10.9497 1.94212 11.7475 2.08112 12.4913C2.29684 13.6457 2.86085 14.7063 3.69733 15.5306C4.2363 16.0618 4.93203 16.457 6.06507 17.1006L8.13654 18.2777C9.13248 18.8438 9.74241 19.1905 10.3611 19.3773C11.0363 19.5812 11.735 19.6568 12.4231 19.6088L13.6375 20.8232C15.6218 22.8075 18.8389 22.8075 20.8232 20.8232C22.8075 18.839 22.8075 15.6218 20.8232 13.6375L19.6088 12.4231C19.6568 11.735 19.5812 11.0364 19.3773 10.3611C19.1905 9.74241 18.8438 9.13249 18.2778 8.13655L17.1006 6.06506C16.457 4.93203 16.0618 4.2363 15.5306 3.69733C14.7063 2.86085 13.6457 2.29684 12.4913 2.08112ZM9.64797 3.60791C11.1017 3.49636 11.6899 3.45734 12.2157 3.55559C13.069 3.71504 13.853 4.13192 14.4622 4.75018C14.8377 5.13118 15.1342 5.64067 15.8545 6.90834L16.9216 8.78618C17.5559 9.90241 17.8094 10.3577 17.9413 10.7947C18.1199 11.386 18.1654 12.0015 18.0834 12.5997C18.0022 13.1929 17.7957 13.769 17.4693 14.2873C17.2261 14.6736 16.8609 15.0453 15.9531 15.9531C15.0453 16.8609 14.6736 17.2261 14.2873 17.4693C13.7689 17.7957 13.1929 18.0022 12.5997 18.0834C12.0014 18.1653 11.386 18.1199 10.7947 17.9413C10.3577 17.8094 9.90241 17.5559 8.78618 16.9216L6.90834 15.8545C5.64067 15.1342 5.13118 14.8377 4.75018 14.4622C4.13192 13.853 3.71504 13.069 3.55559 12.2157C3.45734 11.6899 3.49636 11.1017 3.60791 9.64797C3.75561 7.72323 3.82534 6.94326 4.08963 6.32548C4.2041 6.0579 4.34485 5.8048 4.50874 5.56932L9.46965 10.5302C9.76255 10.8231 10.2374 10.8231 10.5303 10.5302C10.8232 10.2373 10.8232 9.76247 10.5303 9.46957L5.56941 4.50867C5.80486 4.34481 6.05793 4.20408 6.32548 4.08962C6.94326 3.82534 7.72323 3.75561 9.64797 3.60791ZM14.6981 19.7626L14.1503 19.2148C14.4738 19.086 14.7872 18.9271 15.0864 18.7387C15.6334 18.3944 16.1294 17.8983 16.9394 17.0881L17.0881 16.9394C17.8983 16.1294 18.3944 15.6334 18.7387 15.0864C18.9271 14.7872 19.086 14.4738 19.2148 14.1504L19.7625 14.6982C21.161 16.0967 21.161 18.3641 19.7625 19.7626C18.364 21.1611 16.0966 21.1611 14.6981 19.7626Z" fill="#2D264B"/>
</svg>
