<svg width="24" height="24" viewBox="0 0 24 24" fill="none" xmlns="http://www.w3.org/2000/svg">
<path d="M7.66582 17.3452C7.93492 16.8262 8.49474 16.1664 9.27171 15.6381C10.0419 15.1144 10.9809 14.75 12 14.75C13.0191 14.75 13.9581 15.1144 14.7283 15.6381C15.5053 16.1664 16.0651 16.8262 16.3342 17.3452C16.5249 17.713 16.9775 17.8565 17.3452 17.6658C17.713 17.4751 17.8565 17.0225 17.6658 16.6548C17.2683 15.888 16.5281 15.0479 15.5717 14.3976C14.6085 13.7427 13.3809 13.25 12 13.25C10.6191 13.25 9.39148 13.7427 8.42829 14.3976C7.47192 15.0479 6.73174 15.888 6.33418 16.6548C6.14351 17.0225 6.28704 17.4751 6.65476 17.6658C7.02248 17.8565 7.47515 17.713 7.66582 17.3452Z" fill="#2D264B"/>
<path fill-rule="evenodd" clip-rule="evenodd" d="M12 1.25C6.06294 1.25 1.25 6.06294 1.25 12C1.25 17.9371 6.06294 22.75 12 22.75C17.9371 22.75 22.75 17.9371 22.75 12C22.75 6.06294 17.9371 1.25 12 1.25ZM2.75 12C2.75 6.89137 6.89137 2.75 12 2.75C17.1086 2.75 21.25 6.89137 21.25 12C21.25 17.1086 17.1086 21.25 12 21.25C6.89137 21.25 2.75 17.1086 2.75 12Z" fill="#2D264B"/>
<path d="M10 8C10 8.55228 9.55228 9 9 9C8.44772 9 8 8.55228 8 8C8 7.44772 8.44772 7 9 7C9.55228 7 10 7.44772 10 8Z" fill="#2D264B"/>
<path d="M16 8C16 8.55228 15.5523 9 15 9C14.4477 9 14 8.55228 14 8C14 7.44772 14.4477 7 15 7C15.5523 7 16 7.44772 16 8Z" fill="#2D264B"/>
</svg>
