<svg width="24" height="24" viewBox="0 0 24 24" fill="none" xmlns="http://www.w3.org/2000/svg">
<path d="M15 2.25C14.5858 2.25 14.25 2.58579 14.25 3C14.25 3.41421 14.5858 3.75 15 3.75H16C18.3472 3.75 20.25 5.65279 20.25 8V9C20.25 9.41421 20.5858 9.75 21 9.75C21.4142 9.75 21.75 9.41421 21.75 9V8C21.75 4.82436 19.1756 2.25 16 2.25H15Z" fill="#2D264B"/>
<path d="M8 2.25C4.82436 2.25 2.25 4.82436 2.25 8V9C2.25 9.41421 2.58579 9.75 3 9.75C3.41421 9.75 3.75 9.41421 3.75 9V8C3.75 5.65279 5.65279 3.75 8 3.75H9C9.41421 3.75 9.75 3.41421 9.75 3C9.75 2.58579 9.41421 2.25 9 2.25H8Z" fill="#2D264B"/>
<path fill-rule="evenodd" clip-rule="evenodd" d="M8 5.25C6.48122 5.25 5.25 6.48122 5.25 8C5.25 9.51878 6.48122 10.75 8 10.75C9.51878 10.75 10.75 9.51878 10.75 8C10.75 6.48122 9.51878 5.25 8 5.25ZM6.75 8C6.75 7.30964 7.30964 6.75 8 6.75C8.69036 6.75 9.25 7.30964 9.25 8C9.25 8.69036 8.69036 9.25 8 9.25C7.30964 9.25 6.75 8.69036 6.75 8Z" fill="#2D264B"/>
<path fill-rule="evenodd" clip-rule="evenodd" d="M16 6.25C15.0335 6.25 14.25 7.0335 14.25 8C14.25 8.9665 15.0335 9.75 16 9.75C16.9665 9.75 17.75 8.9665 17.75 8C17.75 7.0335 16.9665 6.25 16 6.25ZM15.75 8C15.75 7.86193 15.8619 7.75 16 7.75C16.1381 7.75 16.25 7.86193 16.25 8C16.25 8.13807 16.1381 8.25 16 8.25C15.8619 8.25 15.75 8.13807 15.75 8Z" fill="#2D264B"/>
<path fill-rule="evenodd" clip-rule="evenodd" d="M16 13.25C14.4812 13.25 13.25 14.4812 13.25 16C13.25 17.5188 14.4812 18.75 16 18.75C17.5188 18.75 18.75 17.5188 18.75 16C18.75 14.4812 17.5188 13.25 16 13.25ZM14.75 16C14.75 15.3096 15.3096 14.75 16 14.75C16.6904 14.75 17.25 15.3096 17.25 16C17.25 16.6904 16.6904 17.25 16 17.25C15.3096 17.25 14.75 16.6904 14.75 16Z" fill="#2D264B"/>
<path d="M3.75 15C3.75 14.5858 3.41421 14.25 3 14.25C2.58579 14.25 2.25 14.5858 2.25 15V16C2.25 19.1756 4.82436 21.75 8 21.75H9C9.41422 21.75 9.75 21.4142 9.75 21C9.75 20.5858 9.41422 20.25 9 20.25H8C5.65279 20.25 3.75 18.3472 3.75 16V15Z" fill="#2D264B"/>
<path d="M21.75 15C21.75 14.5858 21.4142 14.25 21 14.25C20.5858 14.25 20.25 14.5858 20.25 15V16C20.25 18.3472 18.3472 20.25 16 20.25H15C14.5858 20.25 14.25 20.5858 14.25 21C14.25 21.4142 14.5858 21.75 15 21.75H16C19.1756 21.75 21.75 19.1756 21.75 16V15Z" fill="#2D264B"/>
</svg>
