<svg width="24" height="24" viewBox="0 0 24 24" fill="none" xmlns="http://www.w3.org/2000/svg">
<path fill-rule="evenodd" clip-rule="evenodd" d="M12 1.25C6.06294 1.25 1.25 6.06294 1.25 12C1.25 17.9371 6.06294 22.75 12 22.75C12.7353 22.75 13.4542 22.6761 14.1492 22.535C18.3626 21.6797 21.6797 18.3626 22.535 14.1492C22.6761 13.4542 22.75 12.7353 22.75 12C22.75 6.06294 17.9371 1.25 12 1.25ZM2.75 12C2.75 6.89137 6.89137 2.75 12 2.75C17.1086 2.75 21.25 6.89137 21.25 12C21.25 12.4245 21.2215 12.8419 21.1663 13.2506C20.1374 13.253 19.2947 13.2649 18.5913 13.326C17.7397 13.3999 17.0319 13.5494 16.3896 13.8767C15.3076 14.428 14.428 15.3076 13.8767 16.3896C13.5494 17.0319 13.3999 17.7397 13.326 18.5913C13.2649 19.2947 13.253 20.1374 13.2506 21.1663C12.8419 21.2215 12.4245 21.25 12 21.25C6.89137 21.25 2.75 17.1086 2.75 12ZM18.7209 14.8204C19.2887 14.7711 19.9701 14.7563 20.834 14.7519C19.9331 17.6469 17.6469 19.9331 14.7519 20.834C14.7563 19.9701 14.7711 19.2887 14.8204 18.7209C14.8859 17.9653 15.0087 17.4719 15.2132 17.0705C15.6207 16.2709 16.2709 15.6207 17.0705 15.2132C17.4719 15.0087 17.9653 14.8859 18.7209 14.8204Z" fill="#2D264B"/>
</svg>
