<svg width="24" height="24" viewBox="0 0 24 24" fill="none" xmlns="http://www.w3.org/2000/svg">
<path d="M17.5588 9.50027C17.8351 9.19167 17.8089 8.71752 17.5003 8.44123C17.1917 8.16493 16.7175 8.19113 16.4412 8.49973L13.0721 12.2629C12.3894 13.0254 11.9296 13.5363 11.5365 13.8667C11.1621 14.1814 10.9421 14.25 10.75 14.25C10.5579 14.25 10.3379 14.1814 9.96348 13.8667C9.5704 13.5363 9.11064 13.0254 8.42795 12.2629L7.55877 11.2921C7.28248 10.9835 6.80833 10.9573 6.49973 11.2336C6.19113 11.5099 6.16493 11.984 6.44123 12.2926L7.34755 13.3049C7.98339 14.0152 8.51375 14.6076 8.99835 15.0149C9.51099 15.4458 10.0639 15.75 10.75 15.75C11.4361 15.75 11.989 15.4458 12.5016 15.0149C12.9862 14.6076 13.5166 14.0152 14.1524 13.305L17.5588 9.50027Z" fill="#2D264B"/>
<path fill-rule="evenodd" clip-rule="evenodd" d="M16.4635 2.37373C15.3214 2.24999 13.8818 2.24999 12.0452 2.25H11.9548C10.1182 2.24999 8.67861 2.24999 7.53648 2.37373C6.37094 2.50001 5.42656 2.76232 4.62024 3.34815C4.13209 3.70281 3.70281 4.13209 3.34815 4.62024C2.76232 5.42656 2.50001 6.37094 2.37373 7.53648C2.24999 8.67861 2.24999 10.1182 2.25 11.9548V12.0452C2.24999 13.8818 2.24999 15.3214 2.37373 16.4635C2.50001 17.6291 2.76232 18.5734 3.34815 19.3798C3.70281 19.8679 4.13209 20.2972 4.62024 20.6518C5.42656 21.2377 6.37094 21.5 7.53648 21.6263C8.67859 21.75 10.1182 21.75 11.9547 21.75H12.0453C13.8818 21.75 15.3214 21.75 16.4635 21.6263C17.6291 21.5 18.5734 21.2377 19.3798 20.6518C19.8679 20.2972 20.2972 19.8679 20.6518 19.3798C21.2377 18.5734 21.5 17.6291 21.6263 16.4635C21.75 15.3214 21.75 13.8818 21.75 12.0453V11.9547C21.75 10.1182 21.75 8.67859 21.6263 7.53648C21.5 6.37094 21.2377 5.42656 20.6518 4.62024C20.2972 4.13209 19.8679 3.70281 19.3798 3.34815C18.5734 2.76232 17.6291 2.50001 16.4635 2.37373ZM5.50191 4.56168C6.00992 4.19259 6.66013 3.97745 7.69804 3.865C8.74999 3.75103 10.1084 3.75 12 3.75C13.8916 3.75 15.25 3.75103 16.302 3.865C17.3399 3.97745 17.9901 4.19259 18.4981 4.56168C18.8589 4.82382 19.1762 5.14111 19.4383 5.50191C19.8074 6.00992 20.0225 6.66013 20.135 7.69804C20.249 8.74999 20.25 10.1084 20.25 12C20.25 13.8916 20.249 15.25 20.135 16.302C20.0225 17.3399 19.8074 17.9901 19.4383 18.4981C19.1762 18.8589 18.8589 19.1762 18.4981 19.4383C17.9901 19.8074 17.3399 20.0225 16.302 20.135C15.25 20.249 13.8916 20.25 12 20.25C10.1084 20.25 8.74999 20.249 7.69804 20.135C6.66013 20.0225 6.00992 19.8074 5.50191 19.4383C5.14111 19.1762 4.82382 18.8589 4.56168 18.4981C4.19259 17.9901 3.97745 17.3399 3.865 16.302C3.75103 15.25 3.75 13.8916 3.75 12C3.75 10.1084 3.75103 8.74999 3.865 7.69804C3.97745 6.66013 4.19259 6.00992 4.56168 5.50191C4.82382 5.14111 5.14111 4.82382 5.50191 4.56168Z" fill="#2D264B"/>
</svg>
