<svg width="24" height="24" viewBox="0 0 24 24" fill="none" xmlns="http://www.w3.org/2000/svg">
<path fill-rule="evenodd" clip-rule="evenodd" d="M9.53033 0.46967C9.23744 0.176777 8.76256 0.176777 8.46967 0.46967C8.17678 0.762563 8.17678 1.23744 8.46967 1.53033L10.1893 3.25H9.96645C8.59472 3.25 7.51929 3.24999 6.65494 3.32061C5.77479 3.39252 5.04769 3.54138 4.38955 3.87671C3.30762 4.42798 2.42798 5.30762 1.87671 6.38955C1.54138 7.04768 1.39252 7.77479 1.32061 8.65494C1.24999 9.51929 1.25 10.5947 1.25 11.9664V12.0336C1.25 13.4053 1.24999 14.4807 1.32061 15.3451C1.39252 16.2252 1.54138 16.9523 1.87671 17.6104C2.42798 18.6924 3.30762 19.572 4.38955 20.1233C4.7182 20.2907 5.0646 20.4119 5.43919 20.5001L4.46967 21.4697C4.17678 21.7626 4.17678 22.2374 4.46967 22.5303C4.76256 22.8232 5.23744 22.8232 5.53033 22.5303L7.34056 20.7201C8.0723 20.75 8.93926 20.75 9.97746 20.75H14.0224C15.0604 20.75 15.9277 20.75 16.6594 20.7201L18.4697 22.5303C18.7626 22.8232 19.2374 22.8232 19.5303 22.5303C19.8232 22.2374 19.8232 21.7626 19.5303 21.4697L18.5608 20.5001C18.9354 20.4119 19.2818 20.2907 19.6104 20.1233C20.6924 19.572 21.572 18.6924 22.1233 17.6104C22.4586 16.9523 22.6075 16.2252 22.6794 15.3451C22.75 14.4807 22.75 13.4053 22.75 12.0336V11.9664C22.75 10.5947 22.75 9.51927 22.6794 8.65494C22.6075 7.77479 22.4586 7.04768 22.1233 6.38955C21.572 5.30762 20.6924 4.42798 19.6104 3.87671C18.9523 3.54138 18.2252 3.39252 17.3451 3.32061C16.4807 3.24999 15.4053 3.25 14.0336 3.25H13.8107L15.5303 1.53033C15.8232 1.23744 15.8232 0.762563 15.5303 0.46967C15.2374 0.176777 14.7626 0.176777 14.4697 0.46967L12 2.93934L9.53033 0.46967ZM5.07054 5.21322C5.48197 5.00359 5.9897 4.87996 6.77708 4.81563C7.57322 4.75058 8.58749 4.75 10 4.75H14C15.4125 4.75 16.4268 4.75058 17.2229 4.81563C18.0103 4.87996 18.518 5.00359 18.9295 5.21322C19.7291 5.62068 20.3793 6.27085 20.7868 7.07054C20.9964 7.48197 21.12 7.9897 21.1844 8.77708C21.2494 9.57322 21.25 10.5875 21.25 12C21.25 13.4125 21.2494 14.4268 21.1844 15.2229C21.12 16.0103 20.9964 16.518 20.7868 16.9295C20.3793 17.7291 19.7291 18.3793 18.9295 18.7868C18.4648 19.0235 17.8805 19.1494 16.9134 19.2059C16.1622 19.2497 15.2314 19.25 14 19.25H10C8.77046 19.25 7.84054 19.2497 7.08987 19.2061C6.12088 19.1497 5.53573 19.0238 5.07054 18.7868C4.27085 18.3793 3.62068 17.7291 3.21322 16.9295C3.00359 16.518 2.87996 16.0103 2.81563 15.2229C2.75058 14.4268 2.75 13.4125 2.75 12C2.75 10.5875 2.75058 9.57322 2.81563 8.77708C2.87996 7.9897 3.00359 7.48197 3.21322 7.07054C3.62068 6.27085 4.27085 5.62068 5.07054 5.21322Z" fill="#2D264B"/>
</svg>
