<svg width="24" height="24" viewBox="0 0 24 24" fill="none" xmlns="http://www.w3.org/2000/svg">
<path fill-rule="evenodd" clip-rule="evenodd" d="M12 3.25C9.37665 3.25 7.25 5.37665 7.25 8C7.25 10.6234 9.37665 12.75 12 12.75C14.6234 12.75 16.75 10.6234 16.75 8C16.75 5.37665 14.6234 3.25 12 3.25ZM8.75 8C8.75 6.20507 10.2051 4.75 12 4.75C13.7949 4.75 15.25 6.20507 15.25 8C15.25 9.79493 13.7949 11.25 12 11.25C10.2051 11.25 8.75 9.79493 8.75 8Z" fill="#2D264B"/>
<path fill-rule="evenodd" clip-rule="evenodd" d="M16.3664 1.32925C15.451 1.24999 14.3096 1.24999 12.8538 1.25H11.1462C9.69036 1.24999 8.54903 1.24999 7.63362 1.32925C6.70118 1.40998 5.9332 1.57719 5.24432 1.95335C4.27685 2.48162 3.48162 3.27685 2.95335 4.24432C2.57719 4.9332 2.40998 5.70118 2.32925 6.63362C2.24999 7.54902 2.24999 8.69035 2.25 10.1462V13.3005C2.25 13.359 2.25 13.3946 2.25034 13.4257C2.27184 15.4183 3.30611 17.1666 4.85969 18.181C5.74659 18.7601 6.80376 19.1011 7.93795 19.1133C7.96899 19.1136 8.00458 19.1136 8.06294 19.1136L8.0747 19.1136L8.07593 19.1136C8.14293 19.114 8.20698 19.1413 8.25371 19.1893L8.25452 19.1901L8.61454 19.5642C9.2601 20.2349 9.79744 20.7932 10.2826 21.1768C10.794 21.5811 11.3375 21.8659 12 21.8659C12.6625 21.8659 13.206 21.5811 13.7174 21.1768C14.2025 20.7932 14.7399 20.235 15.3854 19.5642L15.7463 19.1893C15.793 19.1413 15.8571 19.114 15.9241 19.1136L15.9253 19.1136L15.9371 19.1136C15.9954 19.1136 16.031 19.1136 16.0621 19.1133C17.1962 19.1011 18.2534 18.7601 19.1403 18.181C20.6939 17.1666 21.7282 15.4183 21.7497 13.4257C21.75 13.3945 21.75 13.3587 21.75 13.2998V10.1461C21.75 8.69034 21.75 7.54902 21.6708 6.63362C21.59 5.70118 21.4228 4.9332 21.0467 4.24432C20.5184 3.27685 19.7231 2.48162 18.7557 1.95335C18.0668 1.57719 17.2988 1.40998 16.3664 1.32925ZM5.96319 3.26987C6.39438 3.03442 6.92944 2.89583 7.76301 2.82366C8.60616 2.75066 9.68267 2.75 11.1818 2.75H12.8182C14.3173 2.75 15.3938 2.75066 16.237 2.82366C17.0706 2.89583 17.6056 3.03442 18.0368 3.26987C18.7519 3.66033 19.3397 4.24811 19.7301 4.96319C19.9656 5.39438 20.1042 5.92944 20.1763 6.76301C20.2493 7.60616 20.25 8.68267 20.25 10.1818V13.2949C20.25 13.3073 20.25 13.3182 20.25 13.328C20.25 13.3706 20.2499 13.3917 20.2498 13.4095C20.2371 14.58 19.7523 15.637 18.9749 16.3989C18.1268 15.1054 16.6639 14.25 15 14.25H9C7.33606 14.25 5.87316 15.1054 5.02505 16.3989C4.24774 15.637 3.76288 14.58 3.75025 13.4095C3.75001 13.3876 3.75 13.3607 3.75 13.2949V10.1818C3.75 8.68267 3.75066 7.60616 3.82366 6.76301C3.89583 5.92944 4.03442 5.39438 4.26987 4.96319C4.66033 4.24811 5.24811 3.66033 5.96319 3.26987ZM15 15.75C16.1474 15.75 17.1571 16.3448 17.7357 17.2443C17.2193 17.4756 16.6482 17.6069 16.0459 17.6134C16.024 17.6136 15.9971 17.6136 15.9313 17.6136L15.9158 17.6137C15.4468 17.6163 14.9984 17.807 14.6713 18.1431L14.6605 18.1543L14.3416 18.4857C13.6496 19.2046 13.1826 19.6875 12.7872 20.0001C12.4088 20.2991 12.1884 20.3659 12 20.3659C11.8116 20.3659 11.5912 20.2991 11.2128 20.0001C10.8174 19.6875 10.3504 19.2046 9.65842 18.4857L9.33946 18.1543L9.32868 18.1431C9.00157 17.807 8.55323 17.6163 8.08422 17.6137L8.0687 17.6136C8.00293 17.6136 7.97604 17.6136 7.95413 17.6134C7.35184 17.6069 6.78069 17.4756 6.26434 17.2443C6.84291 16.3448 7.85264 15.75 9 15.75H15Z" fill="#2D264B"/>
</svg>
