<svg width="24" height="24" viewBox="0 0 24 24" fill="none" xmlns="http://www.w3.org/2000/svg">
<path fill-rule="evenodd" clip-rule="evenodd" d="M12.7695 3.33159C11.9345 3.0882 11.1322 3.42147 10.3627 3.90693C9.5898 4.39449 8.65177 5.16762 7.47816 6.1349L6.43797 6.9922C6.23851 7.15659 6.15785 7.2228 6.07791 7.28237C5.40104 7.78676 4.5893 8.07816 3.74617 8.11942C3.6466 8.12429 3.54225 8.1245 3.28377 8.1245L3.2422 8.12449C3.01938 8.12443 2.8477 8.12438 2.69421 8.14156C1.41758 8.28441 0.409921 9.29206 0.267071 10.5687C0.249896 10.7222 0.249945 10.8939 0.250007 11.1167V12.3466C0.249945 12.5694 0.249896 12.7411 0.267071 12.8946C0.409921 14.1712 1.41758 15.1789 2.69421 15.3217C2.84771 15.3389 3.01939 15.3389 3.24221 15.3388L3.28377 15.3388C3.54225 15.3388 3.6466 15.339 3.74617 15.3439C4.5893 15.3851 5.40104 15.6765 6.07791 16.1809C6.15785 16.2405 6.23851 16.3067 6.43797 16.4711L7.47814 17.3284C8.65176 18.2957 9.5898 19.0688 10.3627 19.5564C11.1322 20.0418 11.9345 20.3751 12.7695 20.1317C13.0467 20.0509 13.3094 19.927 13.548 19.7645C14.2669 19.2749 14.5199 18.4439 14.6347 17.5413C14.75 16.6348 14.75 15.4192 14.75 13.8983V9.56497C14.75 8.04411 14.75 6.82853 14.6347 5.92202C14.5199 5.01942 14.2669 4.18835 13.548 3.69876C13.3094 3.53627 13.0467 3.41236 12.7695 3.33159ZM8.38797 7.32885C9.61585 6.31687 10.4806 5.60607 11.163 5.17559C11.8584 4.73689 12.1694 4.71908 12.3498 4.77166C12.4758 4.80838 12.5952 4.8647 12.7036 4.93856C12.8589 5.04434 13.043 5.29565 13.1467 6.11129C13.2485 6.91168 13.25 8.03107 13.25 9.62223V13.8411C13.25 15.4322 13.2485 16.5516 13.1467 17.352C13.043 18.1676 12.8589 18.419 12.7036 18.5247C12.5952 18.5986 12.4758 18.6549 12.3498 18.6916C12.1694 18.7442 11.8584 18.7264 11.163 18.2877C10.4806 17.8572 9.61585 17.1464 8.38797 16.1344L7.37636 15.3007C7.19728 15.1531 7.0871 15.0623 6.9742 14.9781C6.05843 14.2957 4.96019 13.9015 3.81949 13.8457C3.67886 13.8388 3.53609 13.8388 3.30402 13.8388H3.28377C2.99997 13.8388 2.91982 13.8376 2.86101 13.831C2.28072 13.7661 1.8227 13.3081 1.75777 12.7278C1.75119 12.669 1.75002 12.5888 1.75002 12.305V11.1583C1.75002 10.8745 1.75119 10.7943 1.75777 10.7355C1.8227 10.1552 2.28072 9.69719 2.86101 9.63225C2.91982 9.62567 2.99997 9.6245 3.28377 9.6245H3.30403C3.53607 9.62451 3.67887 9.62451 3.81949 9.61763C4.96019 9.5618 6.05843 9.16756 6.9742 8.48514C7.08711 8.40101 7.19728 8.3102 7.37636 8.1626L8.38797 7.32885Z" fill="#2D264B"/>
<path d="M19.5303 4.20132C19.2375 3.90842 18.7626 3.90842 18.4697 4.20131C18.1768 4.49421 18.1768 4.96908 18.4697 5.26197L19.1697 5.96197C19.7784 6.57068 20.0473 6.84064 20.2496 7.08271C22.4986 9.77401 22.4986 13.6893 20.2496 16.3806C20.0473 16.6227 19.7784 16.8926 19.1697 17.5013L18.4697 18.2013C18.1768 18.4942 18.1768 18.9691 18.4697 19.262C18.7626 19.5549 19.2375 19.5549 19.5303 19.262L20.266 18.5263C20.8295 17.9628 21.1497 17.6426 21.4006 17.3424C24.1149 14.0943 24.1149 9.36898 21.4006 6.12086C21.1497 5.82067 20.8295 5.50046 20.266 4.93693L19.5303 4.20132Z" fill="#2D264B"/>
<path d="M17.5303 7.20131C17.2375 6.90842 16.7626 6.90842 16.4697 7.20131C16.1768 7.49421 16.1768 7.96908 16.4697 8.26197L16.8697 8.66198C16.8774 8.66969 16.8845 8.67683 16.8912 8.68347C16.9376 8.72992 16.9591 8.75154 16.9769 8.76979C18.5796 10.4191 18.5796 13.0442 16.9769 14.6935C16.9566 14.7144 16.9314 14.7396 16.8697 14.8013L16.4697 15.2013C16.1768 15.4942 16.1768 15.9691 16.4697 16.262C16.7626 16.5549 17.2375 16.5549 17.5303 16.262L17.9357 15.8566C17.9425 15.8498 17.9493 15.8431 17.9555 15.8369C17.9989 15.7934 18.0275 15.7647 18.0526 15.7389C20.2211 13.5074 20.2211 9.95587 18.0526 7.72442C18.0239 7.69487 17.9905 7.66146 17.9357 7.60663L17.5303 7.20131Z" fill="#2D264B"/>
</svg>
