<svg width="24" height="24" viewBox="0 0 24 24" fill="none" xmlns="http://www.w3.org/2000/svg">
<path fill-rule="evenodd" clip-rule="evenodd" d="M9.03696 8.97335C9.43981 6.51099 10.1607 4.01158 10.5117 2.86899C10.9958 2.79073 11.4929 2.75 12 2.75C12.5071 2.75 13.0042 2.79073 13.4883 2.86899C13.8393 4.01158 14.5602 6.511 14.963 8.97335C13.9175 9.14214 12.8962 9.25 12 9.25C11.1038 9.25 10.0825 9.14214 9.03696 8.97335ZM16.4383 8.70082C16.1049 6.67591 15.5709 4.647 15.1856 3.31298C17.3675 4.11344 19.1653 5.71342 20.2225 7.75837C19.2361 8.04232 17.878 8.40427 16.4383 8.70082ZM16.6435 10.1899C18.2515 9.86269 19.7612 9.45519 20.8034 9.1518C21.0932 10.0483 21.25 11.0052 21.25 12C21.25 12.5071 21.2093 13.0042 21.131 13.4883C20.2243 13.7668 18.4586 14.2798 16.5337 14.6811C16.6657 13.7593 16.75 12.8424 16.75 12C16.75 11.4226 16.7104 10.8117 16.6435 10.1899ZM16.265 16.265C17.9522 15.9387 19.5648 15.5097 20.687 15.1855C19.7532 17.7313 17.7313 19.7532 15.1856 20.687C15.5097 19.5648 15.9387 17.9522 16.265 16.265ZM14.6811 16.5337C14.2798 18.4586 13.7668 20.2243 13.4883 21.131C13.0042 21.2093 12.5071 21.25 12 21.25C11.4929 21.25 10.9958 21.2093 10.5117 21.131C10.2332 20.2243 9.72025 18.4586 9.31893 16.5337C10.2407 16.6657 11.1576 16.75 12 16.75C12.8424 16.75 13.7593 16.6657 14.6811 16.5337ZM7.73495 16.265C8.0613 17.9522 8.49031 19.5648 8.81445 20.687C6.26873 19.7532 4.24683 17.7313 3.31296 15.1855C4.4352 15.5097 6.04784 15.9387 7.73495 16.265ZM7.46634 14.6811C5.54141 14.2798 3.77568 13.7668 2.86899 13.4883C2.79073 13.0042 2.75 12.5071 2.75 12C2.75 11.0052 2.90677 10.0483 3.19658 9.1518C4.23878 9.4552 5.74846 9.86269 7.35654 10.1899C7.28957 10.8117 7.25 11.4226 7.25 12C7.25 12.8424 7.33431 13.7593 7.46634 14.6811ZM7.56166 8.70082C6.12204 8.40427 4.76388 8.04232 3.77748 7.75837C4.83467 5.71342 6.63247 4.11343 8.81443 3.31298C8.42911 4.647 7.89509 6.67591 7.56166 8.70082ZM8.75 12C8.75 11.5192 8.78109 11.0009 8.83638 10.4604C9.91915 10.6338 11.0112 10.75 12 10.75C12.9888 10.75 14.0809 10.6338 15.1636 10.4604C15.2189 11.0009 15.25 11.5192 15.25 12C15.25 12.8981 15.1416 13.9226 14.9719 14.9719C13.9226 15.1416 12.8981 15.25 12 15.25C11.1019 15.25 10.0774 15.1416 9.02808 14.9719C8.85836 13.9226 8.75 12.8981 8.75 12ZM12 1.25C11.2383 1.25 10.4943 1.32934 9.77616 1.48045C6.25736 2.22088 3.37486 4.6799 2.04429 7.93761C1.53198 9.19193 1.25 10.564 1.25 12C1.25 12.7617 1.32934 13.5057 1.48045 14.2238C2.35435 18.377 5.62304 21.6456 9.77616 22.5195C10.4943 22.6707 11.2383 22.75 12 22.75C12.7617 22.75 13.5057 22.6707 14.2238 22.5195C18.377 21.6456 21.6456 18.377 22.5195 14.2238C22.6707 13.5057 22.75 12.7617 22.75 12C22.75 10.5651 22.4685 9.19407 21.9569 7.94055C20.6269 4.68138 17.7437 2.22111 14.2238 1.48046C13.5057 1.32934 12.7617 1.25 12 1.25Z" fill="#2D264B"/>
</svg>
