<svg width="24" height="24" viewBox="0 0 24 24" fill="none" xmlns="http://www.w3.org/2000/svg">
<path d="M16.2757 4.06372C15.6728 4.00259 15.25 4.49813 15.25 5.00012V19.0001C15.25 19.4143 15.5858 19.7501 16 19.7501C16.4142 19.7501 16.75 19.4143 16.75 19.0001L16.75 5.86357C16.7642 5.87465 16.7787 5.88613 16.7935 5.89801C17.1161 6.15711 17.4997 6.54247 18.0695 7.11737L19.4673 8.52774C19.7589 8.82194 20.2338 8.82406 20.528 8.53247C20.8222 8.24089 20.8243 7.76602 20.5327 7.47182L19.1044 6.03069C18.573 5.49451 18.1298 5.04732 17.7328 4.72847C17.3163 4.39405 16.8787 4.13968 16.3455 4.07171C16.3222 4.06875 16.299 4.06609 16.2757 4.06372Z" fill="#2D264B"/>
<path d="M8.75 5.00013C8.75 4.58591 8.41421 4.25013 8 4.25013C7.58579 4.25013 7.25 4.58591 7.25 5.00013L7.25 17.9364C7.23578 17.9254 7.22128 17.9139 7.20649 17.902C6.88386 17.6429 6.50033 17.2575 5.93054 16.6826L4.53269 15.2723C4.24111 14.9781 3.76624 14.976 3.47204 15.2675C3.17784 15.5591 3.17573 16.034 3.46731 16.3282L4.89563 17.7693C5.42702 18.3055 5.87022 18.7527 6.26724 19.0715C6.68367 19.406 7.12131 19.6603 7.6545 19.7283C8.30512 19.8112 8.75 19.2717 8.75 18.7488L8.75 5.00013Z" fill="#2D264B"/>
</svg>
