<svg width="24" height="24" viewBox="0 0 24 24" fill="none" xmlns="http://www.w3.org/2000/svg">
<path d="M8.00044 8.25C7.58622 8.25 7.25044 8.58579 7.25044 9C7.25044 9.41421 7.58622 9.75 8.00044 9.75H16.0004C16.4146 9.75 16.7504 9.41421 16.7504 9C16.7504 8.58579 16.4146 8.25 16.0004 8.25H8.00044Z" fill="#2D264B"/>
<path fill-rule="evenodd" clip-rule="evenodd" d="M12.0004 1.25C9.57028 1.25 7.56636 3.07495 7.28439 5.42915C6.89068 5.50456 6.52797 5.61356 6.18005 5.77306C5.17462 6.23397 4.32345 6.97509 3.7286 7.90756C3.36856 8.47195 3.15492 9.1033 2.9871 9.87347C2.82267 10.628 2.69201 11.5688 2.52579 12.7656L2.51659 12.8319C2.30268 14.372 2.13546 15.5759 2.08467 16.5457C2.03311 17.5303 2.09549 18.3508 2.39169 19.1041C2.87581 20.3353 3.7697 21.362 4.92261 22.0109C5.628 22.4079 6.43214 22.5825 7.41449 22.6669C8.38202 22.75 9.59752 22.75 11.1524 22.75H12.8485C14.4034 22.75 15.6189 22.75 16.5864 22.6669C17.5687 22.5825 18.3729 22.4079 19.0783 22.0109C20.2312 21.362 21.1251 20.3353 21.6092 19.1041C21.9054 18.3508 21.9678 17.5303 21.9162 16.5457C21.8654 15.5759 21.6982 14.3719 21.4843 12.8318L21.4751 12.7656C21.3089 11.5688 21.1782 10.628 21.0138 9.87347C20.846 9.1033 20.6323 8.47195 20.2723 7.90756C19.6774 6.97509 18.8263 6.23397 17.8208 5.77306C17.4729 5.61356 17.1102 5.50456 16.7165 5.42915C16.4345 3.07495 14.4306 1.25 12.0004 1.25ZM11.143 5.25C10.241 5.24999 9.48165 5.24999 8.83153 5.27533C9.16084 3.82924 10.4546 2.75 12.0004 2.75C13.5463 2.75 14.84 3.82924 15.1693 5.27533C14.5192 5.24999 13.7599 5.24999 12.8578 5.25H11.143ZM8.07883 6.82857C8.81713 6.75098 9.77301 6.75 11.1883 6.75H12.8125C14.2279 6.75 15.1837 6.75098 15.922 6.82857C16.4737 6.88655 16.8633 6.98419 17.1957 7.13661C17.9389 7.47729 18.568 8.02507 19.0077 8.71429C19.2346 9.07006 19.3994 9.51019 19.5482 10.1928C19.6989 10.8847 19.8222 11.7685 19.9936 13.0026C20.2135 14.5859 20.3712 15.7262 20.4183 16.6241C20.4649 17.5146 20.3966 18.089 20.2132 18.5552C19.8554 19.4653 19.1947 20.2241 18.3425 20.7037C17.906 20.9494 17.3465 21.0961 16.458 21.1724C15.5622 21.2494 14.411 21.25 12.8125 21.25H11.1883C9.58984 21.25 8.43868 21.2494 7.54286 21.1724C6.65442 21.0961 6.09492 20.9494 5.65833 20.7037C4.80618 20.2241 4.14548 19.4653 3.78765 18.5552C3.60432 18.089 3.53598 17.5146 3.58262 16.6241C3.62965 15.7262 3.78737 14.5859 4.00727 13.0026C4.17868 11.7685 4.30195 10.8847 4.4527 10.1928C4.60146 9.51019 4.76623 9.07006 4.99319 8.71429C5.43287 8.02507 6.06199 7.47728 6.80514 7.13661C7.13761 6.98419 7.52715 6.88655 8.07883 6.82857Z" fill="#2D264B"/>
</svg>
