<svg width="24" height="24" viewBox="0 0 24 24" fill="none" xmlns="http://www.w3.org/2000/svg">
<path d="M15.25 10C15.25 10.4142 15.5858 10.75 16 10.75C16.4142 10.75 16.75 10.4142 16.75 10C16.75 7.37665 14.6234 5.25 12 5.25C11.5858 5.25 11.25 5.58579 11.25 6C11.25 6.41421 11.5858 6.75 12 6.75C13.7949 6.75 15.25 8.20507 15.25 10Z" fill="#2D264B"/>
<path fill-rule="evenodd" clip-rule="evenodd" d="M5 10C5 8.13872 5 7.20808 5.24472 6.45492C5.73931 4.93273 6.93273 3.73931 8.45492 3.24472C9.20808 3 10.1387 3 12 3C13.8613 3 14.7919 3 15.5451 3.24472C17.0673 3.73931 18.2607 4.93273 18.7553 6.45492C19 7.20808 19 8.13872 19 10V17.3874C19 19.3045 19 20.2631 18.658 20.77C18.2403 21.3893 17.5122 21.7242 16.7701 21.6383C16.1627 21.568 15.4349 20.9442 13.9793 19.6966C13.3386 19.1474 13.0182 18.8728 12.6663 18.7484C12.2352 18.5961 11.7648 18.5961 11.3337 18.7484C10.9818 18.8728 10.6614 19.1474 10.0207 19.6965C8.56509 20.9442 7.8373 21.568 7.22986 21.6383C6.48778 21.7242 5.75971 21.3893 5.34196 20.77C5 20.2631 5 19.3045 5 17.3874V10ZM17.3287 6.91844C17.4815 7.3887 17.5 8.02197 17.5 10V17.3874C17.5 18.3718 17.4989 19.0201 17.4619 19.4897C17.4378 19.7954 17.4032 19.9253 17.3936 19.96C17.2941 20.087 17.1392 20.1582 16.978 20.1511C16.9454 20.1359 16.8243 20.0776 16.5765 19.8969C16.1959 19.6194 15.7029 19.1983 14.9555 18.5577C14.9124 18.5207 14.8691 18.4834 14.8256 18.4459C14.3237 18.0133 13.7926 17.5555 13.166 17.3341C12.4115 17.0675 11.5885 17.0675 10.834 17.3341C10.2074 17.5555 9.67663 18.013 9.17473 18.4456C9.16383 18.455 9.15293 18.4644 9.14206 18.4738C9.10943 18.5019 9.07692 18.5299 9.04451 18.5577C8.29708 19.1983 7.80411 19.6194 7.42348 19.8969C7.17573 20.0776 7.05458 20.1359 7.02196 20.1511C6.86081 20.1582 6.70592 20.087 6.60644 19.96C6.59677 19.9253 6.56219 19.7954 6.53811 19.4897C6.50112 19.0201 6.5 18.3718 6.5 17.3874V10C6.5 8.02197 6.51851 7.3887 6.6713 6.91844C7.01751 5.85291 7.85291 5.01751 8.91844 4.6713C9.3887 4.51851 10.022 4.5 12 4.5C13.978 4.5 14.6113 4.51851 15.0816 4.6713C16.1471 5.01751 16.9825 5.85291 17.3287 6.91844Z" fill="#2D264B"/>
</svg>
