<svg width="24" height="24" viewBox="0 0 24 24" fill="none" xmlns="http://www.w3.org/2000/svg">
<path d="M10.75 12C10.75 11.5858 10.4142 11.25 10 11.25C9.58579 11.25 9.25 11.5858 9.25 12V16C9.25 16.4142 9.58579 16.75 10 16.75C10.4142 16.75 10.75 16.4142 10.75 16V12Z" fill="#2D264B"/>
<path d="M14.75 12C14.75 11.5858 14.4142 11.25 14 11.25C13.5858 11.25 13.25 11.5858 13.25 12V16C13.25 16.4142 13.5858 16.75 14 16.75C14.4142 16.75 14.75 16.4142 14.75 16V12Z" fill="#2D264B"/>
<path fill-rule="evenodd" clip-rule="evenodd" d="M15.5304 3.46967C15.2375 3.17678 14.7626 3.17678 14.4697 3.46967C14.1768 3.76256 14.1768 4.23744 14.4697 4.53033L17.1894 7.25001H7.05331L9.77297 4.53035C10.0659 4.23745 10.0659 3.76258 9.77297 3.46969C9.48008 3.17679 9.0052 3.17679 8.71231 3.46969L4.93198 7.25001H2C1.58579 7.25001 1.25 7.5858 1.25 8.00001C1.25 8.41422 1.58579 8.75001 2 8.75001H2.54431C2.77073 9.60621 3.06357 10.5934 3.40431 11.742L4.42921 15.1969C4.83637 16.5702 5.08598 17.412 5.52349 18.0966C6.2767 19.2751 7.43365 20.1386 8.77772 20.5256C9.55843 20.7503 10.4365 20.7502 11.8688 20.75H12.1312C13.5635 20.7502 14.4416 20.7503 15.2223 20.5256C16.5663 20.1386 17.7233 19.2751 18.4765 18.0966C18.914 17.412 19.1636 16.5702 19.5708 15.1969L20.5956 11.7422C20.9364 10.5936 21.2293 9.60623 21.4557 8.75001H22C22.4142 8.75001 22.75 8.41422 22.75 8.00001C22.75 7.5858 22.4142 7.25001 22 7.25001H19.3107L15.5304 3.46967ZM4.84743 11.3325C4.55304 10.3401 4.30126 9.491 4.09786 8.75001H19.9021C19.6987 9.491 19.447 10.3401 19.1526 11.3325L18.17 14.6446C17.7134 16.1837 17.5216 16.8052 17.2126 17.2888C16.6559 18.1598 15.8007 18.7981 14.8073 19.0841C14.2558 19.2429 13.6055 19.25 12 19.25C10.3945 19.25 9.74417 19.2429 9.1927 19.0841C8.19926 18.7981 7.34412 18.1598 6.7874 17.2888C6.47836 16.8052 6.28656 16.1837 5.82997 14.6446L4.84743 11.3325Z" fill="#2D264B"/>
</svg>
