<svg width="24" height="24" viewBox="0 0 24 24" fill="none" xmlns="http://www.w3.org/2000/svg">
<path fill-rule="evenodd" clip-rule="evenodd" d="M13.4276 2.49932C14.0589 2.26998 14.6852 2.15038 15.3136 2.35479C15.6243 2.45587 15.9145 2.61151 16.1706 2.8144C16.6874 3.22383 16.9345 3.80772 17.0925 4.45699C17.2461 5.08786 17.3434 5.90886 17.4622 6.91179L17.5172 7.37543C17.5901 7.99125 17.6162 8.15366 17.6753 8.29389C17.6944 8.3392 17.7161 8.38333 17.7404 8.42607C17.8156 8.55838 17.9285 8.67804 18.3722 9.11119L19.1766 9.89633C19.9625 10.6633 20.2096 11.8278 19.8031 12.8479C19.1897 14.387 17.3538 15.0239 15.9189 14.1955L14.0229 13.1009L11.5545 17.737C11.426 17.9783 11.3469 18.1269 11.2586 18.2715C11.0971 18.5361 10.9144 18.7872 10.7124 19.0223C10.602 19.1508 10.485 19.2719 10.295 19.4683L10.261 19.5035C9.36212 20.4332 8.66579 21.1533 8.12476 21.6567C7.8517 21.9107 7.60125 22.1257 7.37074 22.2904C7.14774 22.4498 6.89589 22.5973 6.62242 22.6653C5.18618 23.0224 3.72494 22.1787 3.31603 20.7564C3.23817 20.4856 3.23999 20.1937 3.26653 19.9209C3.29397 19.6389 3.35489 19.3145 3.43837 18.951C3.6038 18.2307 3.87931 17.2676 4.23496 16.0244L4.24842 15.9773C4.32357 15.7146 4.36988 15.5527 4.42597 15.3928C4.5286 15.1003 4.65472 14.8166 4.80309 14.5444C4.88418 14.3957 4.97333 14.2528 5.118 14.021L7.89884 9.56511L6.00285 8.47046C4.568 7.64205 4.20172 5.73366 5.22791 4.4329C5.90803 3.57079 7.04006 3.20258 8.09721 3.49962L9.10017 3.78143C9.70701 3.95194 9.87 3.9905 10.0237 3.98898C10.0965 3.98826 10.1691 3.98118 10.2406 3.96783C10.3916 3.93965 10.5461 3.86937 11.114 3.58209L11.1581 3.5598C12.0686 3.09917 12.8129 2.72265 13.4276 2.49932ZM13.9398 3.90916C13.4202 4.09796 12.7565 4.43222 11.7911 4.92058C11.7646 4.93399 11.7384 4.94725 11.7126 4.96035C11.2605 5.18942 10.9044 5.36985 10.5158 5.44237C10.3584 5.47175 10.1987 5.48732 10.0386 5.4889C9.64333 5.49282 9.26176 5.38532 8.77795 5.24902C8.75044 5.24127 8.72261 5.23343 8.69442 5.22551L7.69146 4.9437C7.21769 4.81058 6.71036 4.97559 6.40555 5.36195C5.94566 5.9449 6.10981 6.80017 6.75285 7.17143L16.6689 12.8965C17.312 13.2677 18.1347 12.9823 18.4096 12.2925C18.5918 11.8354 18.4811 11.3135 18.1289 10.9698L17.3245 10.1846C17.3039 10.1646 17.2836 10.1447 17.2635 10.1252C16.9091 9.77969 16.6294 9.50706 16.4362 9.1671C16.3828 9.07307 16.335 8.97597 16.293 8.87631C16.1412 8.51598 16.0955 8.12807 16.0376 7.63652C16.0343 7.60867 16.031 7.58048 16.0276 7.55195L15.9785 7.13758C15.8524 6.07327 15.7646 5.34359 15.6351 4.8118C15.5076 4.2881 15.3693 4.09328 15.2391 3.99013C15.1227 3.8979 14.9908 3.82716 14.8496 3.78121C14.693 3.73028 14.4528 3.72278 13.9398 3.90916ZM9.19864 10.3156L6.40296 14.7952C6.24211 15.053 6.17757 15.157 6.12011 15.2624C6.01045 15.4635 5.91723 15.6732 5.84137 15.8894C5.80163 16.0027 5.76768 16.1203 5.68412 16.4124C5.32004 17.6851 5.05575 18.61 4.90031 19.2868C4.82282 19.6241 4.77787 19.8771 4.75949 20.0661C4.75042 20.1593 4.74877 20.2278 4.75081 20.2765C4.75277 20.3231 4.7577 20.3421 4.7577 20.3421C4.94355 20.9886 5.60758 21.3719 6.26036 21.2097C6.26036 21.2097 6.27852 21.2048 6.32058 21.1828C6.36383 21.1602 6.4223 21.1246 6.49849 21.0701C6.65298 20.9597 6.84957 20.7943 7.103 20.5585C7.61138 20.0855 8.28019 19.3942 9.20038 18.4425C9.41157 18.2241 9.49642 18.1359 9.57465 18.0449C9.72395 17.8711 9.85896 17.6855 9.97834 17.4899C10.0409 17.3874 10.0987 17.2796 10.2415 17.0114L12.7231 12.3504L9.19864 10.3156Z" fill="#2D264B"/>
</svg>
