<svg width="24" height="24" viewBox="0 0 24 24" fill="none" xmlns="http://www.w3.org/2000/svg">
<path d="M8 9.00085C8 9.55314 8.44772 10.0009 9 10.0009C9.55228 10.0009 10 9.55314 10 9.00085C10 8.44857 9.55228 8.00085 9 8.00085C8.44772 8.00085 8 8.44857 8 9.00085Z" fill="#2D264B"/>
<path d="M14 15.0009C14 15.5531 14.4477 16.0009 15 16.0009C15.5523 16.0009 16 15.5531 16 15.0009C16 14.4486 15.5523 14.0009 15 14.0009C14.4477 14.0009 14 14.4486 14 15.0009Z" fill="#2D264B"/>
<path d="M15.1871 9.87437C15.48 9.58147 15.48 9.1066 15.1871 8.81371C14.8942 8.52081 14.4194 8.52081 14.1265 8.81371L8.4696 14.4706C8.17671 14.7635 8.17671 15.2383 8.4696 15.5312C8.7625 15.8241 9.23737 15.8241 9.53026 15.5312L15.1871 9.87437Z" fill="#2D264B"/>
<path fill-rule="evenodd" clip-rule="evenodd" d="M15.0667 1.79649C14.2621 1.7246 13.279 1.7246 12.0351 1.72461H11.9647C10.7209 1.7246 9.73775 1.7246 8.93318 1.79649C8.10672 1.87034 7.41546 2.02338 6.76215 2.35853C6.59292 2.44534 6.4281 2.5405 6.26829 2.64365C5.65139 3.04187 5.17323 3.56399 4.69604 4.2428C4.2315 4.90364 3.73993 5.75507 3.11803 6.83225L3.0828 6.89326C2.46089 7.97042 1.96931 8.82185 1.62929 9.55458C1.28001 10.3072 1.06692 10.9824 1.03051 11.7158C1.02108 11.9057 1.02108 12.096 1.03051 12.286C1.06692 13.0194 1.28001 13.6945 1.62929 14.4472C1.96931 15.1799 2.46089 16.0313 3.08279 17.1085L3.11803 17.1695C3.73992 18.2467 4.2315 19.0982 4.69604 19.759C5.17323 20.4378 5.65139 20.9599 6.2683 21.3581C6.4281 21.4613 6.59292 21.5564 6.76215 21.6433C7.41547 21.9784 8.10672 22.1314 8.93318 22.2053C9.73774 22.2772 10.7209 22.2772 11.9647 22.2772H12.0351C13.2789 22.2772 14.2621 22.2772 15.0667 22.2053C15.8932 22.1314 16.5844 21.9784 17.2377 21.6433C17.407 21.5564 17.5718 21.4613 17.7316 21.3581C18.3485 20.9599 18.8266 20.4378 19.3038 19.759C19.7684 19.0981 20.2599 18.2467 20.8818 17.1696L20.9171 17.1085C21.539 16.0314 22.0306 15.1799 22.3706 14.4472C22.7199 13.6945 22.9329 13.0194 22.9694 12.286C22.9788 12.096 22.9788 11.9057 22.9694 11.7158C22.9329 10.9824 22.7199 10.3072 22.3706 9.55458C22.0306 8.82185 21.539 7.97041 20.917 6.89323L20.8819 6.83227C20.26 5.75508 19.7684 4.90364 19.3038 4.2428C18.8266 3.56399 18.3485 3.04187 17.7316 2.64365C17.5718 2.5405 17.407 2.44534 17.2377 2.35853C16.5844 2.02338 15.8931 1.87034 15.0667 1.79649ZM7.44681 3.69316C7.86803 3.47707 8.35086 3.3545 9.06668 3.29054C9.7968 3.2253 10.7131 3.22461 11.9999 3.22461C13.2867 3.22461 14.2031 3.2253 14.9332 3.29054C15.649 3.3545 16.1318 3.47707 16.5531 3.69316C16.6781 3.75732 16.8 3.82766 16.9181 3.9039C17.3158 4.16065 17.6634 4.5175 18.0767 5.10544C18.4983 5.70512 18.957 6.49836 19.6004 7.61275C20.2438 8.72714 20.7014 9.52107 21.01 10.186C21.3125 10.8379 21.4477 11.3173 21.4712 11.7901C21.4782 11.9306 21.4782 12.0712 21.4712 12.2116C21.4477 12.6845 21.3125 13.1639 21.01 13.8158C20.7014 14.4807 20.2438 15.2746 19.6004 16.389C18.957 17.5034 18.4983 18.2967 18.0767 18.8963C17.6634 19.4843 17.3158 19.8411 16.9181 20.0979C16.8 20.1741 16.6781 20.2445 16.5531 20.3086C16.1318 20.5247 15.649 20.6473 14.9332 20.7112C14.2031 20.7765 13.2867 20.7772 11.9999 20.7772C10.7131 20.7772 9.7968 20.7765 9.06668 20.7112C8.35086 20.6473 7.86803 20.5247 7.44681 20.3086C7.32172 20.2445 7.1999 20.1741 7.08179 20.0979C6.68405 19.8411 6.33648 19.4843 5.92318 18.8963C5.50162 18.2967 5.04285 17.5034 4.39945 16.389C3.75606 15.2746 3.29848 14.4807 2.98992 13.8158C2.6874 13.1639 2.55214 12.6845 2.52867 12.2116C2.52169 12.0712 2.52169 11.9306 2.52867 11.7901C2.55214 11.3173 2.6874 10.8379 2.98992 10.186C3.29848 9.52107 3.75606 8.72714 4.39945 7.61275C5.04285 6.49836 5.50162 5.70512 5.92318 5.10544C6.33648 4.5175 6.68405 4.16065 7.08179 3.9039C7.1999 3.82766 7.32173 3.75732 7.44681 3.69316Z" fill="#2D264B"/>
</svg>
