<svg width="24" height="24" viewBox="0 0 24 24" fill="none" xmlns="http://www.w3.org/2000/svg">
<path fill-rule="evenodd" clip-rule="evenodd" d="M15.7795 10.5047C16.3718 9.06635 14.9334 7.62795 13.495 8.22023L10.8181 9.32247C10.1401 9.60169 9.60156 10.1402 9.32235 10.8183L8.22011 13.4951C7.62783 14.9335 9.06621 16.3719 10.5046 15.7796L13.1815 14.6774C13.8596 14.3982 14.3981 13.8597 14.6773 13.1816L15.7795 10.5047ZM14.0662 9.60725C14.2716 9.52264 14.4771 9.72812 14.3925 9.93361L13.2903 12.6105C13.1633 12.9187 12.9186 13.1635 12.6104 13.2904L9.93348 14.3926C9.728 14.4772 9.52251 14.2718 9.60712 14.0663L10.7094 11.3894C10.8363 11.0812 11.081 10.8364 11.3893 10.7095L14.0662 9.60725Z" fill="#2D264B"/>
<path fill-rule="evenodd" clip-rule="evenodd" d="M12.285 1.03051C12.0951 1.02108 11.9048 1.02108 11.7148 1.03051C10.9814 1.06692 10.3063 1.28001 9.5536 1.62929C8.82088 1.96931 7.96945 2.46089 6.89228 3.0828L6.83127 3.11803C5.7541 3.73993 4.90266 4.2315 4.24182 4.69604C3.56301 5.17323 3.04089 5.65139 2.64268 6.26829C2.53952 6.4281 2.44437 6.59292 2.35755 6.76215C2.0224 7.41546 1.86936 8.10672 1.79551 8.93318C1.72362 9.73775 1.72363 10.7209 1.72363 11.9647V12.0352C1.72363 13.279 1.72362 14.2621 1.79551 15.0667C1.86936 15.8931 2.0224 16.5844 2.35755 17.2377C2.44436 17.407 2.53952 17.5718 2.64268 17.7316C3.04089 18.3485 3.56301 18.8266 4.24182 19.3038C4.90263 19.7684 5.75403 20.2599 6.83115 20.8818L6.89226 20.9171C7.96944 21.539 8.82087 22.0306 9.5536 22.3706C10.3063 22.7199 10.9814 22.9329 11.7148 22.9694C11.9048 22.9788 12.0951 22.9788 12.285 22.9694C13.0184 22.9329 13.6936 22.7199 14.4462 22.3706C15.179 22.0306 16.0304 21.539 17.1076 20.9171L17.1686 20.8818C18.2457 20.2599 19.0972 19.7684 19.758 19.3038C20.4368 18.8266 20.9589 18.3485 21.3571 17.7316C21.4603 17.5718 21.5555 17.407 21.6423 17.2377C21.9774 16.5844 22.1305 15.8931 22.2043 15.0667C22.2762 14.2621 22.2762 13.279 22.2762 12.0352V11.9647C22.2762 10.7209 22.2762 9.73774 22.2043 8.93318C22.1305 8.10672 21.9774 7.41546 21.6423 6.76215C21.5555 6.59292 21.4603 6.42809 21.3571 6.26829C20.9589 5.65139 20.4368 5.17323 19.758 4.69604C19.0972 4.2315 18.2457 3.73993 17.1686 3.11803L17.1075 3.0828C16.0304 2.46089 15.1789 1.96931 14.4462 1.62929C13.6936 1.28001 13.0184 1.06692 12.285 1.03051ZM11.7892 2.52867C11.9296 2.52169 12.0702 2.52169 12.2107 2.52867C12.6835 2.55214 13.1629 2.6874 13.8148 2.98992C14.4797 3.29848 15.2737 3.75606 16.3881 4.39945C17.5024 5.04285 18.2957 5.50162 18.8954 5.92318C19.4833 6.33648 19.8402 6.68405 20.0969 7.08179C20.1731 7.1999 20.2435 7.32173 20.3076 7.44681C20.5237 7.86803 20.6463 8.35086 20.7103 9.06668C20.7755 9.7968 20.7762 10.7131 20.7762 11.9999C20.7762 13.2867 20.7755 14.2031 20.7103 14.9332C20.6463 15.649 20.5237 16.1318 20.3076 16.5531C20.2435 16.6781 20.1731 16.8 20.0969 16.9181C19.8402 17.3158 19.4833 17.6634 18.8954 18.0767C18.2957 18.4983 17.5024 18.957 16.3881 19.6004C15.2737 20.2438 14.4797 20.7014 13.8148 21.01C13.1629 21.3125 12.6835 21.4477 12.2107 21.4712C12.0702 21.4782 11.9296 21.4782 11.7892 21.4712C11.3163 21.4477 10.8369 21.3125 10.185 21.01C9.52009 20.7014 8.72616 20.2438 7.61177 19.6004C6.49738 18.957 5.70414 18.4983 5.10446 18.0767C4.51653 17.6634 4.15967 17.3158 3.90293 16.9181C3.82668 16.8 3.75635 16.6781 3.69218 16.5531C3.4761 16.1318 3.35352 15.649 3.28956 14.9332C3.22432 14.2031 3.22363 13.2867 3.22363 11.9999C3.22363 10.7131 3.22432 9.7968 3.28956 9.06668C3.35352 8.35086 3.4761 7.86803 3.69218 7.44681C3.75635 7.32173 3.82668 7.1999 3.90293 7.08179C4.15967 6.68405 4.51653 6.33648 5.10446 5.92318C5.70414 5.50162 6.49738 5.04285 7.61177 4.39945C8.72616 3.75606 9.52009 3.29848 10.185 2.98992C10.8369 2.6874 11.3163 2.55214 11.7892 2.52867Z" fill="#2D264B"/>
</svg>
