<svg width="24" height="24" viewBox="0 0 24 24" fill="none" xmlns="http://www.w3.org/2000/svg">
<path fill-rule="evenodd" clip-rule="evenodd" d="M5.5 3.25C3.70507 3.25 2.25 4.70507 2.25 6.5V14.5C2.25 16.2949 3.70507 17.75 5.5 17.75C6.74232 17.75 7.82184 17.053 8.36879 16.0286C8.45815 16.1756 8.55444 16.3321 8.65821 16.5006L10.9367 20.2031C11.337 20.8537 12.0462 21.25 12.8101 21.25C14.1583 21.25 15.1893 20.0483 14.9843 18.7157L14.7413 17.136C14.5483 15.8814 15.5189 14.75 16.7882 14.75H17.478C20.5725 14.75 22.5852 11.4934 21.2013 8.72555L20.0528 6.42852C19.0788 4.48052 17.0878 3.25 14.9098 3.25H12C10.5373 3.25 9.22906 3.91112 8.35773 4.95083C7.80737 3.93774 6.734 3.25 5.5 3.25ZM7.25 6.5C7.25 5.5335 6.4665 4.75 5.5 4.75C4.5335 4.75 3.75 5.5335 3.75 6.5V14.5C3.75 15.4665 4.5335 16.25 5.5 16.25C6.4665 16.25 7.25 15.4665 7.25 14.5V6.5ZM8.85647 13.5301C8.75431 13.0824 8.75 12.6095 8.75 11.4339V8C8.75 6.20507 10.2051 4.75 12 4.75H14.9098C16.5196 4.75 17.9912 5.65951 18.7111 7.09935L19.8597 9.39637C20.7449 11.1669 19.4575 13.25 17.478 13.25H16.7882C14.5996 13.25 12.9259 15.2009 13.2587 17.364L13.5018 18.9438C13.567 19.3677 13.239 19.75 12.8101 19.75C12.5671 19.75 12.3415 19.6239 12.2142 19.417L9.98362 15.7924C9.36752 14.7912 9.12335 14.3862 8.97568 13.9513C8.92874 13.8131 8.88895 13.6725 8.85647 13.5301Z" fill="#2D264B"/>
</svg>
