<svg width="24" height="24" viewBox="0 0 24 24" fill="none" xmlns="http://www.w3.org/2000/svg">
<path fill-rule="evenodd" clip-rule="evenodd" d="M16.9335 2.31015C16.1545 2.24999 15.1928 2.25 13.9691 2.25H10.0311C8.80743 2.25 7.84576 2.24999 7.06674 2.31015C6.27178 2.37154 5.61005 2.4986 4.9965 2.78291C3.98326 3.25244 3.12867 4.00685 2.5371 4.95403C2.17888 5.52758 1.97073 6.16844 1.81121 6.94964C1.65489 7.71519 1.53561 8.66942 1.38383 9.8837L1.37553 9.95014C1.18504 11.474 1.03608 12.6656 0.998597 13.6252C0.960524 14.5998 1.03247 15.4113 1.3332 16.1551C1.82503 17.3717 2.71817 18.3834 3.86432 19.0224C4.56514 19.413 5.36141 19.5851 6.33322 19.6682C7.29007 19.75 8.49094 19.75 10.0266 19.75H11.2501V21.584C10.6258 21.6276 10.0043 21.7259 9.39287 21.8787L7.81823 22.2724C7.41638 22.3729 7.17206 22.7801 7.27252 23.1819C7.37298 23.5837 7.78018 23.8281 8.18203 23.7276L9.75668 23.3339C10.4932 23.1498 11.2466 23.0578 12.0001 23.0578C12.7536 23.0578 13.5071 23.1498 14.2436 23.3339L15.8182 23.7276C16.2201 23.8281 16.6273 23.5837 16.7277 23.1819C16.8282 22.7801 16.5839 22.3729 16.182 22.2724L14.6074 21.8787C13.996 21.7259 13.3745 21.6276 12.7501 21.584V19.75H13.9736C15.5093 19.75 16.7102 19.75 17.667 19.6682C18.6389 19.5851 19.4351 19.413 20.1359 19.0224C21.2821 18.3834 22.1752 17.3717 22.6671 16.1551C22.9678 15.4113 23.0397 14.5998 23.0017 13.6252C22.9642 12.6656 22.8152 11.474 22.6247 9.95023L22.6164 9.88359C22.4646 8.66936 22.3454 7.71517 22.1891 6.94964C22.0295 6.16844 21.8214 5.52758 21.4632 4.95403C20.8716 4.00685 20.017 3.25244 19.0038 2.78291C18.3902 2.4986 17.7285 2.37154 16.9335 2.31015ZM17.5392 18.1736C16.6538 18.2494 15.5169 18.25 13.9379 18.25H10.0624C8.48332 18.25 7.34648 18.2494 6.46103 18.1736C5.58314 18.0986 5.02891 17.9542 4.59469 17.7122C3.74753 17.2399 3.08738 16.4921 2.72386 15.5929C2.53753 15.132 2.46306 14.5642 2.49745 13.6838C2.53214 12.7958 2.67251 11.6676 2.86837 10.1007C3.02487 8.84876 3.1375 7.95193 3.28088 7.24975C3.42239 6.55673 3.5837 6.10991 3.80935 5.74863C4.2466 5.04854 4.87825 4.49093 5.62716 4.14389C6.01364 3.9648 6.47701 3.86016 7.18223 3.8057C7.89678 3.75052 8.80065 3.75 10.0624 3.75H13.9379C15.1996 3.75 16.1035 3.75052 16.818 3.8057C17.5232 3.86016 17.9866 3.9648 18.3731 4.14389C19.122 4.49093 19.7537 5.04854 20.1909 5.74863C20.4166 6.10991 20.5779 6.55673 20.7194 7.24975C20.8628 7.95193 20.9754 8.84876 21.1319 10.1007C21.3277 11.6676 21.4681 12.7958 21.5028 13.6838C21.5372 14.5642 21.4627 15.132 21.2764 15.5929C20.9129 16.4921 20.2527 17.2399 19.4056 17.7122C18.9713 17.9542 18.4171 18.0986 17.5392 18.1736Z" fill="#2D264B"/>
</svg>
