<svg width="24" height="24" viewBox="0 0 24 24" fill="none" xmlns="http://www.w3.org/2000/svg">
<path d="M10 7.25C9.58579 7.25 9.25 7.58579 9.25 8C9.25 8.41421 9.58579 8.75 10 8.75H14C14.4142 8.75 14.75 8.41421 14.75 8C14.75 7.58579 14.4142 7.25 14 7.25H10Z" fill="#2D264B"/>
<path d="M8 11.25C7.58579 11.25 7.25 11.5858 7.25 12C7.25 12.4142 7.58579 12.75 8 12.75H16C16.4142 12.75 16.75 12.4142 16.75 12C16.75 11.5858 16.4142 11.25 16 11.25H8Z" fill="#2D264B"/>
<path fill-rule="evenodd" clip-rule="evenodd" d="M16.4635 1.37373C15.3214 1.24999 13.8818 1.24999 12.0452 1.25H11.9548C10.1182 1.24999 8.67861 1.24999 7.53648 1.37373C6.37094 1.50001 5.42656 1.76232 4.62024 2.34815C4.13209 2.70281 3.70281 3.13209 3.34815 3.62024C2.76232 4.42656 2.50001 5.37094 2.37373 6.53648C2.24999 7.67861 2.24999 9.11821 2.25 10.9548V13.0111C2.25 14.1711 2.25 15.1685 2.27937 16.0257C2.34356 17.8991 2.5463 19.2761 3.34815 20.3798C3.70281 20.8679 4.13209 21.2972 4.62024 21.6518C5.7239 22.4537 7.10087 22.6564 8.97432 22.7206C9.83153 22.75 10.8289 22.75 11.989 22.75H12.0453C13.8818 22.75 15.3214 22.75 16.4635 22.6263C17.6291 22.5 18.5734 22.2377 19.3798 21.6518C19.8679 21.2972 20.2972 20.8679 20.6518 20.3798C21.2377 19.5734 21.5 18.6291 21.6263 17.4635C21.75 16.3214 21.75 14.8818 21.75 13.0453V10.9547C21.75 9.11824 21.75 7.67859 21.6263 6.53648C21.5 5.37094 21.2377 4.42656 20.6518 3.62024C20.2972 3.13209 19.8679 2.70281 19.3798 2.34815C18.5734 1.76232 17.6291 1.50001 16.4635 1.37373ZM5.50191 3.56168C6.00992 3.19259 6.66013 2.97745 7.69804 2.865C8.74999 2.75103 10.1084 2.75 12 2.75C13.8916 2.75 15.25 2.75103 16.302 2.865C17.3399 2.97745 17.9901 3.19259 18.4981 3.56168C18.8589 3.82382 19.1762 4.14111 19.4383 4.50191C19.8074 5.00992 20.0225 5.66013 20.135 6.69804C20.249 7.74999 20.25 9.10843 20.25 11V13C20.25 14.8916 20.249 16.25 20.135 17.302C20.0225 18.3399 19.8074 18.9901 19.4383 19.4981C19.1762 19.8589 18.8589 20.1762 18.4981 20.4383C17.9901 20.8074 17.3399 21.0225 16.302 21.135C15.25 21.249 13.8916 21.25 12 21.25C11.1517 21.25 10.4082 21.25 9.74818 21.2392C9.74381 20.7645 9.72904 20.4151 9.67921 20.1005C9.28952 17.6401 7.35988 15.7105 4.8995 15.3208C4.58489 15.271 4.23547 15.2562 3.76082 15.2518C3.75005 14.5918 3.75 13.8483 3.75 13V11C3.75 9.10843 3.75103 7.74999 3.865 6.69804C3.97745 5.66013 4.19259 5.00992 4.56168 4.50191C4.82382 4.14111 5.14111 3.82382 5.50191 3.56168ZM8.19768 20.3352C8.23015 20.5402 8.24254 20.7776 8.24722 21.1826C6.88688 21.0888 6.10137 20.8738 5.50191 20.4383C5.14111 20.1762 4.82382 19.8589 4.56168 19.4981C4.12615 18.8986 3.91122 18.1131 3.81745 16.7528C4.22239 16.7575 4.45981 16.7699 4.66485 16.8023C6.48339 17.0904 7.90965 18.5166 8.19768 20.3352Z" fill="#2D264B"/>
</svg>
