<svg width="24" height="24" viewBox="0 0 24 24" fill="none" xmlns="http://www.w3.org/2000/svg">
<path d="M8 9.25C7.58579 9.25 7.25 9.58579 7.25 10C7.25 10.4142 7.58579 10.75 8 10.75H16C16.4142 10.75 16.75 10.4142 16.75 10C16.75 9.58579 16.4142 9.25 16 9.25H8Z" fill="#2D264B"/>
<path d="M8 13.25C7.58579 13.25 7.25 13.5858 7.25 14C7.25 14.4142 7.58579 14.75 8 14.75H11C11.4142 14.75 11.75 14.4142 11.75 14C11.75 13.5858 11.4142 13.25 11 13.25H8Z" fill="#2D264B"/>
<path d="M8 17.25C7.58579 17.25 7.25 17.5858 7.25 18C7.25 18.4142 7.58579 18.75 8 18.75H16C16.4142 18.75 16.75 18.4142 16.75 18C16.75 17.5858 16.4142 17.25 16 17.25H8Z" fill="#2D264B"/>
<path fill-rule="evenodd" clip-rule="evenodd" d="M18.7782 1.98168C18.0049 1.59173 17.107 1.41817 16.0324 1.33372C14.9669 1.24999 13.6555 1.25 12.0305 1.25H11.9796C10.5525 1.25 9.36897 1.25 8.38484 1.30572C7.39671 1.36167 6.55633 1.47576 5.82759 1.7272C5.38699 1.87923 4.98789 2.08103 4.62024 2.34815C4.13209 2.70281 3.70281 3.13209 3.34815 3.62023C2.76232 4.42656 2.50001 5.37094 2.37373 6.53648C2.24999 7.67861 2.24999 9.11821 2.25 10.9548V13.0452C2.24999 14.8818 2.24999 16.3214 2.37373 17.4635C2.50001 18.6291 2.76232 19.5734 3.34815 20.3798C3.70281 20.8679 4.13209 21.2972 4.62024 21.6518C5.42656 22.2377 6.37094 22.5 7.53648 22.6263C8.67859 22.75 10.1182 22.75 11.9547 22.75H12.0453C13.8818 22.75 15.3214 22.75 16.4635 22.6263C17.6291 22.5 18.5734 22.2377 19.3798 21.6518C19.8679 21.2972 20.2972 20.8679 20.6518 20.3798C21.2377 19.5734 21.5 18.6291 21.6263 17.4635C21.75 16.3214 21.75 14.8818 21.75 13.0453V10.9547C21.75 9.11824 21.75 7.67859 21.6263 6.53648C21.5 5.37094 21.2377 4.42656 20.6518 3.62023C20.2972 3.13209 19.8679 2.70281 19.3798 2.34815C19.1892 2.20967 18.9892 2.08809 18.7782 1.98168ZM12 2.75C13.6617 2.75 14.9149 2.75053 15.9149 2.82911C16.3502 2.86333 16.7236 2.91158 17.0492 2.97683C16.2309 3.78324 15.5734 4.40202 14.9856 4.8649C14.2161 5.47095 13.6262 5.75993 13.0288 5.85454C12.5883 5.92431 12.1396 5.92431 11.6991 5.85454C11.0846 5.75721 10.4781 5.45425 9.67572 4.81202C9.07917 4.33457 8.41092 3.70052 7.57917 2.87856C7.8479 2.84647 8.14312 2.82181 8.46964 2.80332C9.40668 2.75027 10.5485 2.75 12 2.75ZM15.9137 6.04333C16.6769 5.44231 17.5226 4.62405 18.5509 3.60065C18.8899 3.85505 19.189 4.15881 19.4383 4.50191C19.8074 5.00992 20.0225 5.66013 20.135 6.69804C20.249 7.74999 20.25 9.10843 20.25 11V13C20.25 14.8916 20.249 16.25 20.135 17.302C20.0225 18.3399 19.8074 18.9901 19.4383 19.4981C19.1762 19.8589 18.8589 20.1762 18.4981 20.4383C17.9901 20.8074 17.3399 21.0225 16.302 21.135C15.25 21.249 13.8916 21.25 12 21.25C10.1084 21.25 8.74999 21.249 7.69804 21.135C6.66013 21.0225 6.00992 20.8074 5.50191 20.4383C5.14111 20.1762 4.82382 19.8589 4.56168 19.4981C4.19259 18.9901 3.97745 18.3399 3.865 17.302C3.75103 16.25 3.75 14.8916 3.75 13V11C3.75 9.10843 3.75103 7.74999 3.865 6.69804C3.97745 5.66013 4.19259 5.00992 4.56168 4.50191C4.82382 4.14111 5.14111 3.82382 5.50191 3.56168C5.62499 3.47225 5.7556 3.39247 5.8968 3.32123C7.02087 4.44359 7.92896 5.33525 8.73841 5.98311C9.64243 6.70666 10.489 7.18158 11.4645 7.33608C12.0604 7.43047 12.6675 7.43047 13.2635 7.33608C14.2116 7.1859 15.0379 6.73301 15.9137 6.04333Z" fill="#2D264B"/>
</svg>
