<svg width="24" height="24" viewBox="0 0 24 24" fill="none" xmlns="http://www.w3.org/2000/svg">
<path d="M16 8.75C16.4142 8.75 16.75 8.41421 16.75 8C16.75 7.58579 16.4142 7.25 16 7.25L8 7.25C7.58579 7.25 7.25 7.58579 7.25 8C7.25 8.41421 7.58579 8.75 8 8.75L16 8.75Z" fill="#2D264B"/>
<path d="M13 11.25C12.5858 11.25 12.25 11.5858 12.25 12C12.25 12.4142 12.5858 12.75 13 12.75H16C16.4142 12.75 16.75 12.4142 16.75 12C16.75 11.5858 16.4142 11.25 16 11.25H13Z" fill="#2D264B"/>
<path fill-rule="evenodd" clip-rule="evenodd" d="M16.4635 2.37373C15.3214 2.24999 13.8818 2.24999 12.0452 2.25H11.9548C10.1182 2.24999 8.67861 2.24999 7.53648 2.37373C6.37094 2.50001 5.42656 2.76232 4.62024 3.34815C4.13209 3.70281 3.70281 4.13209 3.34815 4.62024C2.76232 5.42656 2.50001 6.37094 2.37373 7.53648C2.24999 8.67861 2.24999 10.1182 2.25 11.9548V12.0111C2.25 13.1711 2.25 14.1685 2.27937 15.0257C2.34356 16.8991 2.5463 18.2761 3.34815 19.3798C3.70281 19.8679 4.13209 20.2972 4.62024 20.6518C5.7239 21.4537 7.10087 21.6564 8.97432 21.7206C9.83153 21.75 10.8289 21.75 11.989 21.75H12.0453C13.8818 21.75 15.3214 21.75 16.4635 21.6263C17.6291 21.5 18.5734 21.2377 19.3798 20.6518C19.8679 20.2972 20.2972 19.8679 20.6518 19.3798C21.2377 18.5734 21.5 17.6291 21.6263 16.4635C21.75 15.3214 21.75 13.8818 21.75 12.0453V11.9547C21.75 10.1182 21.75 8.67859 21.6263 7.53648C21.5 6.37094 21.2377 5.42656 20.6518 4.62024C20.2972 4.13209 19.8679 3.70281 19.3798 3.34815C18.5734 2.76232 17.6291 2.50001 16.4635 2.37373ZM5.50191 4.56168C6.00992 4.19259 6.66013 3.97745 7.69804 3.865C8.74999 3.75103 10.1084 3.75 12 3.75C13.8916 3.75 15.25 3.75103 16.302 3.865C17.3399 3.97745 17.9901 4.19259 18.4981 4.56168C18.8589 4.82382 19.1762 5.14111 19.4383 5.50191C19.8074 6.00992 20.0225 6.66013 20.135 7.69804C20.249 8.74999 20.25 10.1084 20.25 12C20.25 13.8916 20.249 15.25 20.135 16.302C20.0225 17.3399 19.8074 17.9901 19.4383 18.4981C19.1762 18.8589 18.8589 19.1762 18.4981 19.4383C17.9901 19.8074 17.3399 20.0225 16.302 20.135C15.25 20.249 13.8916 20.25 12 20.25C11.1517 20.25 10.4082 20.25 9.74818 20.2392C9.74381 19.7645 9.72904 19.4151 9.67921 19.1005C9.28952 16.6401 7.35988 14.7105 4.8995 14.3208C4.58489 14.271 4.23547 14.2562 3.76082 14.2518C3.75005 13.5918 3.75 12.8483 3.75 12C3.75 10.1084 3.75103 8.74999 3.865 7.69804C3.97745 6.66013 4.19259 6.00992 4.56168 5.50191C4.82382 5.14111 5.14111 4.82382 5.50191 4.56168ZM8.19768 19.3352C8.23015 19.5402 8.24254 19.7776 8.24722 20.1826C6.88688 20.0888 6.10137 19.8738 5.50191 19.4383C5.14111 19.1762 4.82382 18.8589 4.56168 18.4981C4.12615 17.8986 3.91122 17.1131 3.81745 15.7528C4.22239 15.7575 4.45981 15.7699 4.66485 15.8023C6.48339 16.0904 7.90965 17.5166 8.19768 19.3352Z" fill="#2D264B"/>
</svg>
