<svg width="24" height="24" viewBox="0 0 24 24" fill="none" xmlns="http://www.w3.org/2000/svg">
<path d="M7.25 10C7.25 9.58579 7.58579 9.25 8 9.25H11C11.4142 9.25 11.75 9.58579 11.75 10C11.75 10.4142 11.4142 10.75 11 10.75H8C7.58579 10.75 7.25 10.4142 7.25 10Z" fill="#2D264B"/>
<path d="M7.25 14C7.25 13.5858 7.58579 13.25 8 13.25H16C16.4142 13.25 16.75 13.5858 16.75 14C16.75 14.4142 16.4142 14.75 16 14.75H8C7.58579 14.75 7.25 14.4142 7.25 14Z" fill="#2D264B"/>
<path d="M7.25 18C7.25 17.5858 7.58579 17.25 8 17.25H16C16.4142 17.25 16.75 17.5858 16.75 18C16.75 18.4142 16.4142 18.75 16 18.75H8C7.58579 18.75 7.25 18.4142 7.25 18Z" fill="#2D264B"/>
<path fill-rule="evenodd" clip-rule="evenodd" d="M16.0324 1.33372C17.107 1.41817 18.0049 1.59173 18.7782 1.98168C18.9892 2.08809 19.1892 2.20967 19.3798 2.34815C19.8679 2.70281 20.2972 3.13209 20.6518 3.62023C21.2377 4.42656 21.5 5.37094 21.6263 6.53648C21.75 7.67861 21.75 9.1182 21.75 10.9547V13.0453C21.75 14.8818 21.75 16.3214 21.6263 17.4635C21.5 18.6291 21.2377 19.5734 20.6518 20.3798C20.2972 20.8679 19.8679 21.2972 19.3798 21.6518C18.5734 22.2377 17.6291 22.5 16.4635 22.6263C15.3214 22.75 13.8818 22.75 12.0453 22.75H11.9547C10.1182 22.75 8.67861 22.75 7.53648 22.6263C6.37094 22.5 5.42656 22.2377 4.62024 21.6518C4.13209 21.2972 3.70281 20.8679 3.34815 20.3798C2.76232 19.5734 2.50001 18.6291 2.37373 17.4635C2.24999 16.3214 2.24999 14.8818 2.25 13.0452V10.9548C2.24999 9.11821 2.24999 7.67861 2.37373 6.53648C2.50001 5.37094 2.76232 4.42656 3.34815 3.62023C3.70281 3.13209 4.13209 2.70281 4.62024 2.34815C4.98789 2.08103 5.38699 1.87923 5.82759 1.7272C6.55633 1.47576 7.39671 1.36167 8.38484 1.30572C9.36901 1.25 10.5524 1.25 11.9796 1.25H12.0305C13.6555 1.25 14.9669 1.24999 16.0324 1.33372ZM15.9149 2.82911C14.9149 2.75053 13.6617 2.75 12 2.75C10.5485 2.75 9.40668 2.75027 8.46964 2.80332C8.14312 2.82181 7.8479 2.84647 7.57917 2.87856C8.41092 3.70052 9.07917 4.33457 9.67572 4.81202C10.4781 5.45425 11.0846 5.75721 11.6991 5.85454C12.1396 5.92431 12.5883 5.92431 13.0288 5.85454C13.6262 5.75993 14.2161 5.47095 14.9856 4.8649C15.5734 4.40202 16.2309 3.78324 17.0492 2.97683C16.7236 2.91158 16.3502 2.86333 15.9149 2.82911ZM18.5509 3.60065C17.5226 4.62405 16.6769 5.44231 15.9137 6.04333C15.0379 6.73301 14.2116 7.1859 13.2635 7.33608C12.6675 7.43047 12.0604 7.43047 11.4645 7.33608C10.489 7.18158 9.64243 6.70666 8.73842 5.98311C7.92896 5.33525 7.02087 4.44359 5.8968 3.32123C5.7556 3.39247 5.62499 3.47225 5.50191 3.56168C5.14111 3.82382 4.82382 4.14111 4.56168 4.50191C4.19259 5.00992 3.97745 5.66013 3.865 6.69804C3.75103 7.74999 3.75 9.10843 3.75 11V13C3.75 14.8916 3.75103 16.25 3.865 17.302C3.97745 18.3399 4.19259 18.9901 4.56168 19.4981C4.82382 19.8589 5.14111 20.1762 5.50191 20.4383C6.00992 20.8074 6.66013 21.0225 7.69805 21.135C8.74999 21.249 10.1084 21.25 12 21.25C13.8916 21.25 15.25 21.249 16.302 21.135C17.3399 21.0225 17.9901 20.8074 18.4981 20.4383C18.8589 20.1762 19.1762 19.8589 19.4383 19.4981C19.8074 18.9901 20.0225 18.3399 20.135 17.302C20.249 16.25 20.25 14.8916 20.25 13V11C20.25 9.10843 20.249 7.74999 20.135 6.69804C20.0225 5.66013 19.8074 5.00992 19.4383 4.50191C19.189 4.15881 18.8899 3.85505 18.5509 3.60065Z" fill="#2D264B"/>
</svg>
