<svg width="24" height="24" viewBox="0 0 24 24" fill="none" xmlns="http://www.w3.org/2000/svg">
<path fill-rule="evenodd" clip-rule="evenodd" d="M12.7496 3C12.7496 2.58579 12.4138 2.25 11.9996 2.25C11.5854 2.25 11.2496 2.58579 11.2496 3L11.2496 13.25H9.13495C6.85289 13.25 5.56379 15.8692 6.95583 17.6775L9.82048 21.3987C10.9213 22.8288 13.0779 22.8288 14.1787 21.3988L17.0434 17.6775C18.4354 15.8692 17.1463 13.25 14.8642 13.25H12.7496L12.7496 3ZM8.14444 16.7625C7.51169 15.9405 8.09765 14.75 9.13495 14.75H11.9946L11.9996 14.75L12.0046 14.75H14.8642C15.9015 14.75 16.4875 15.9405 15.8547 16.7625L12.9901 20.4838C12.4897 21.1338 11.5095 21.1338 11.0091 20.4838L8.14444 16.7625Z" fill="#2D264B"/>
</svg>
