<svg width="24" height="24" viewBox="0 0 24 24" fill="none" xmlns="http://www.w3.org/2000/svg">
<path d="M10.75 4C10.75 3.58579 10.4142 3.25 10 3.25C9.58579 3.25 9.25 3.58579 9.25 4V6C9.25 6.41422 9.58579 6.75 10 6.75C10.4142 6.75 10.75 6.41422 10.75 6V4Z" fill="#2D264B"/>
<path d="M14.75 4C14.75 3.58579 14.4142 3.25 14 3.25C13.5858 3.25 13.25 3.58579 13.25 4V6C13.25 6.41422 13.5858 6.75 14 6.75C14.4142 6.75 14.75 6.41422 14.75 6V4Z" fill="#2D264B"/>
<path fill-rule="evenodd" clip-rule="evenodd" d="M9.948 0.250001C9.04954 0.249973 8.3003 0.249949 7.70552 0.329914C7.07773 0.414319 6.51093 0.59999 6.05546 1.05546C5.59999 1.51093 5.41432 2.07773 5.32991 2.70552C5.24994 3.30031 5.24997 4.04953 5.25 4.94801L5.25 7.53046C5.0959 7.57498 4.94624 7.62694 4.79957 7.6877C3.39066 8.27129 2.27128 9.39066 1.68769 10.7996C1.43572 11.4079 1.33432 12.0708 1.28873 12.8839C1.25 13.5747 1.25 14.4198 1.25 15.4778V15.5278C1.25 16.6691 1.24999 17.564 1.29931 18.2868C1.3495 19.0223 1.45323 19.6344 1.68769 20.2004C2.27128 21.6093 3.39066 22.7287 4.79957 23.3123C5.36562 23.5468 5.9777 23.6505 6.71317 23.7007C7.43603 23.75 8.33087 23.75 9.47215 23.75H14.5278C15.6691 23.75 16.564 23.75 17.2868 23.7007C18.0223 23.6505 18.6344 23.5468 19.2004 23.3123C20.6093 22.7287 21.7287 21.6093 22.3123 20.2004C22.5468 19.6344 22.6505 19.0223 22.7007 18.2868C22.75 17.564 22.75 16.6691 22.75 15.5278V15.4805C22.75 14.4623 22.75 13.6418 22.7157 12.9672C22.6724 12.1154 22.5726 11.428 22.3123 10.7996C21.7287 9.39066 20.6093 8.27129 19.2004 7.6877C19.0538 7.62694 18.9041 7.57498 18.75 7.53046V4.94801C18.75 4.04953 18.7501 3.30031 18.6701 2.70552C18.5857 2.07773 18.4 1.51093 17.9445 1.05546C17.4891 0.59999 16.9223 0.41432 16.2945 0.329915C15.6997 0.24995 14.9505 0.249973 14.052 0.250001H9.948ZM9.42103 7.25C8.33625 7.24997 7.46862 7.24995 6.75 7.29706V5C6.75 4.03599 6.75159 3.38843 6.81654 2.9054C6.87858 2.44393 6.9858 2.24644 7.11612 2.11612C7.24643 1.9858 7.44393 1.87858 7.90539 1.81654C8.38843 1.7516 9.03599 1.75 10 1.75L14 1.75C14.964 1.75 15.6116 1.7516 16.0946 1.81654C16.5561 1.87858 16.7536 1.9858 16.8839 2.11612C17.0142 2.24644 17.1214 2.44393 17.1835 2.9054C17.2484 3.38843 17.25 4.03599 17.25 5V7.29706C16.5314 7.24995 15.6638 7.24997 14.579 7.25L9.42103 7.25ZM6.12076 8.87154C6.85085 8.75244 7.83742 8.75 9.5 8.75L14.5 8.75C16.1626 8.75 17.1492 8.75244 17.8792 8.87154C18.1771 8.92013 18.4157 8.98626 18.6264 9.07351C19.6678 9.50486 20.4951 10.3322 20.9265 11.3736C21.0374 11.6414 21.1136 11.9523 21.1637 12.3728L19.9861 12.5587C15.0226 13.3424 9.9685 13.3619 4.99916 12.6165L2.84623 12.2935C2.89628 11.9125 2.96978 11.624 3.07351 11.3736C3.50486 10.3322 4.33223 9.50486 5.3736 9.07351C5.58426 8.98626 5.82291 8.92013 6.12076 8.87154ZM20.22 14.0403L21.2429 13.8788C21.2499 14.3414 21.25 14.874 21.25 15.5C21.25 16.6751 21.2496 17.5189 21.2042 18.1847C21.1592 18.8438 21.0726 19.2736 20.9265 19.6264C20.4951 20.6678 19.6678 21.4951 18.6264 21.9265C18.2736 22.0726 17.8438 22.1592 17.1847 22.2042C16.5189 22.2496 15.6751 22.25 14.5 22.25H9.5C8.32488 22.25 7.48111 22.2496 6.81527 22.2042C6.15618 22.1592 5.7264 22.0726 5.37359 21.9265C4.33223 21.4951 3.50486 20.6678 3.07351 19.6264C2.92737 19.2736 2.84081 18.8438 2.79584 18.1847C2.75041 17.5189 2.75 16.6751 2.75 15.5C2.75 14.8364 2.7501 14.2781 2.75845 13.7972L4.77665 14.0999C9.89734 14.868 15.1054 14.8479 20.22 14.0403Z" fill="#2D264B"/>
</svg>
