<svg width="24" height="24" viewBox="0 0 24 24" fill="none" xmlns="http://www.w3.org/2000/svg">
<path d="M9 13.25C8.58579 13.25 8.25 13.5858 8.25 14C8.25 14.4142 8.58579 14.75 9 14.75H15C15.4142 14.75 15.75 14.4142 15.75 14C15.75 13.5858 15.4142 13.25 15 13.25H9Z" fill="#2D264B"/>
<path fill-rule="evenodd" clip-rule="evenodd" d="M5.25473 2.25C4.89356 2.24998 4.57327 2.24997 4.30742 2.27436C4.02191 2.30056 3.73205 2.35926 3.45324 2.51751C2.99425 2.77802 2.64914 3.19888 2.44977 3.6868C2.334 3.97013 2.29002 4.26374 2.26964 4.57222C2.24999 4.86965 2.24999 5.23324 2.25 5.66923V12.005C2.25 12.9328 2.25 14.1394 2.2809 15.2097C2.29637 15.7455 2.31981 16.2561 2.35587 16.6854C2.39001 17.0919 2.44027 17.4963 2.53143 17.7769C3.1002 19.5274 4.47264 20.8998 6.22315 21.4686C7.09067 21.7505 8.13189 21.7503 9.83817 21.75H14.1618C15.8681 21.7503 16.9093 21.7505 17.7768 21.4686C19.5274 20.8998 20.8998 19.5274 21.4686 17.7768C21.7504 16.9093 21.7503 15.8681 21.75 14.1618V13.8382C21.7503 12.1319 21.7504 11.0907 21.4686 10.2232C20.8998 8.47264 19.5274 7.10021 17.7768 6.53143C17.5423 6.45521 17.2032 6.41271 16.8707 6.3827C16.5138 6.35048 16.0816 6.32651 15.6151 6.30843C14.681 6.27222 13.5784 6.25851 12.6042 6.25326C12.1339 6.25073 11.6232 5.84962 11.3436 5.1655L11.3342 5.14253C10.9203 4.12979 10.2159 3.28541 9.3116 2.77216C8.80845 2.48659 8.26103 2.36423 7.62865 2.30619C7.01615 2.24999 6.26047 2.24999 5.32173 2.25L5.25473 2.25ZM4.19365 3.82203C4.21395 3.81051 4.26751 3.78433 4.44449 3.76809C4.63355 3.75074 4.88415 3.75 5.28572 3.75C6.26886 3.75 6.95564 3.75074 7.49157 3.79992C8.01544 3.84799 8.32656 3.93784 8.57119 4.07669C9.15129 4.40594 9.64458 4.97318 9.94561 5.7099L9.95506 5.73301C10.3539 6.70872 11.2733 7.74612 12.5961 7.75324C13.566 7.75846 14.6485 7.77209 15.557 7.8073C16.0119 7.82493 16.4155 7.8477 16.7359 7.87663C17.0808 7.90776 17.2605 7.94084 17.3133 7.95801C18.6072 8.37841 19.6216 9.39282 20.042 10.6867C20.2407 11.2984 20.25 12.0803 20.25 14C20.25 15.9197 20.2407 16.7016 20.042 17.3133C19.6216 18.6072 18.6072 19.6216 17.3133 20.042C16.7016 20.2408 15.9197 20.25 14 20.25H10C8.08035 20.25 7.29839 20.2408 6.68668 20.042C5.39282 19.6216 4.37841 18.6072 3.95801 17.3133C3.9268 17.2173 3.8853 16.9729 3.85061 16.5599C3.81785 16.1698 3.7954 15.6901 3.78028 15.1664C3.75006 14.1197 3.75 12.9328 3.75 12V5.69388C3.75 5.22693 3.75038 4.91318 3.76638 4.67111C3.78201 4.4345 3.81005 4.32338 3.83832 4.25418C3.9249 4.0423 4.05887 3.89853 4.19365 3.82203Z" fill="#2D264B"/>
</svg>
