<svg width="24" height="24" viewBox="0 0 24 24" fill="none" xmlns="http://www.w3.org/2000/svg">
<path fill-rule="evenodd" clip-rule="evenodd" d="M8.29282 7.25181C7.18207 6.59928 6.30261 6.08263 5.58419 5.74551C4.86233 5.40677 4.18921 5.19163 3.5124 5.26401C2.48074 5.37434 1.54757 5.92451 0.942477 6.77193C0.54725 7.32543 0.394596 8.01873 0.322136 8.82237C0.249988 9.62256 0.249993 10.6547 0.25 11.961V12.0389C0.249993 13.3453 0.249988 14.3774 0.322136 15.1776C0.394596 15.9812 0.54725 16.6745 0.942476 17.228C1.54757 18.0754 2.48074 18.6256 3.5124 18.7359C4.18921 18.8083 4.86233 18.5932 5.58419 18.2544C6.30261 17.9173 7.18206 17.4007 8.2928 16.7482L8.36147 16.7078C9.47242 16.0552 10.3518 15.5386 10.9978 15.0742C11.1012 14.9999 11.2011 14.9252 11.2972 14.8496C11.3044 14.963 11.3126 15.0723 11.3221 15.1776C11.3946 15.9812 11.5472 16.6745 11.9425 17.228C12.5476 18.0754 13.4807 18.6256 14.5124 18.7359C15.1892 18.8083 15.8623 18.5932 16.5842 18.2544C17.3026 17.9173 18.182 17.4007 19.2927 16.7482L19.3615 16.7078C20.4724 16.0552 21.3518 15.5386 21.9978 15.0742C22.6481 14.6067 23.1633 14.1237 23.4368 13.4986C23.8544 12.5444 23.8544 11.4556 23.4368 10.5013C23.1633 9.87628 22.6481 9.39323 21.9978 8.92576C21.3518 8.46137 20.4724 7.94476 19.3615 7.29214L19.2928 7.25181C18.1821 6.59928 17.3026 6.08263 16.5842 5.74551C15.8623 5.40677 15.1892 5.19163 14.5124 5.26401C13.4807 5.37434 12.5476 5.92451 11.9425 6.77193C11.5472 7.32543 11.3946 8.01873 11.3221 8.82237C11.3126 8.92765 11.3044 9.03695 11.2972 9.15036C11.2011 9.07476 11.1012 9.00006 10.9978 8.92576C10.3518 8.46138 9.47244 7.94477 8.3615 7.29215L8.29282 7.25181ZM12.8161 15.0429C12.7507 14.3181 12.75 13.3538 12.75 12C12.75 10.6461 12.7507 9.68183 12.8161 8.95707C12.8818 8.22783 13.0056 7.86433 13.1632 7.64359C13.5225 7.14036 14.0718 6.81969 14.6719 6.75551C14.9305 6.72785 15.2951 6.79752 15.947 7.10344C16.5949 7.40749 17.4146 7.88814 18.5675 8.56538C19.7202 9.24257 20.5393 9.72462 21.1223 10.1437C21.7076 10.5645 21.9536 10.8534 22.0626 11.1026C22.3125 11.6736 22.3125 12.3264 22.0626 12.8973C21.9536 13.1466 21.7076 13.4355 21.1223 13.8563C20.5393 14.2753 19.7202 14.7574 18.5675 15.4346C17.4146 16.1118 16.5949 16.5925 15.947 16.8965C15.2951 17.2024 14.9305 17.2721 14.6719 17.2445C14.0718 17.1803 13.5226 16.8596 13.1632 16.3564C13.0056 16.1356 12.8818 15.7721 12.8161 15.0429ZM3.67191 6.75551C3.93051 6.72785 4.29506 6.79752 4.94698 7.10344C5.59494 7.40749 6.41464 7.88814 7.56748 8.56538C8.72023 9.24257 9.53929 9.72462 10.1223 10.1437C10.7076 10.5645 10.9536 10.8534 11.0626 11.1026C11.3125 11.6736 11.3125 12.3264 11.0626 12.8973C10.9536 13.1466 10.7076 13.4355 10.1223 13.8563C9.53929 14.2753 8.72023 14.7574 7.56748 15.4346C6.41464 16.1118 5.59494 16.5925 4.94698 16.8965C4.29506 17.2024 3.93051 17.2721 3.67191 17.2445C3.07177 17.1803 2.52255 16.8596 2.16322 16.3564C2.0056 16.1356 1.88183 15.7721 1.81608 15.0429C1.75073 14.3181 1.75 13.3538 1.75 12C1.75 10.6461 1.75073 9.68183 1.81608 8.95707C1.88183 8.22783 2.0056 7.86433 2.16322 7.64359C2.52255 7.14036 3.07177 6.81969 3.67191 6.75551Z" fill="#2D264B"/>
</svg>
