<svg width="24" height="24" viewBox="0 0 24 24" fill="none" xmlns="http://www.w3.org/2000/svg">
<path fill-rule="evenodd" clip-rule="evenodd" d="M10 1.25C8.48122 1.25 7.25 2.48122 7.25 4C7.25 4.45011 7.35814 4.87497 7.54985 5.25H4.5C2.70507 5.25 1.25 6.70507 1.25 8.5C1.25 9.41095 1.6253 10.2343 2.22777 10.8236C2.21327 11.1815 2.22181 11.5271 2.23223 11.9486C2.24052 12.2839 2.25 12.6672 2.25 13.1429V13.1696C2.25 14.3673 2.25 15.3027 2.29916 16.0577C2.34909 16.8243 2.45201 17.4576 2.68314 18.0422C3.26097 19.5036 4.37384 20.6756 5.78803 21.2893C6.3574 21.5364 6.97308 21.6455 7.71075 21.6983C8.43481 21.75 9.33063 21.75 10.4708 21.75H13.5291C14.6693 21.75 15.5652 21.75 16.2893 21.6983C17.0269 21.6455 17.6426 21.5364 18.212 21.2893C19.6262 20.6756 20.739 19.5036 21.3169 18.0422C21.548 17.4576 21.6509 16.8243 21.7008 16.0577C21.75 15.3028 21.75 14.3674 21.75 13.1698V13.1139C21.75 12.0258 21.75 11.475 21.7126 10.8805C22.3498 10.2878 22.75 9.44068 22.75 8.5C22.75 6.70507 21.2949 5.25 19.5 5.25H16.4501C16.6419 4.87497 16.75 4.45011 16.75 4C16.75 2.48122 15.5188 1.25 14 1.25C13.212 1.25 12.5014 1.58145 12 2.11253C11.4986 1.58145 10.788 1.25 10 1.25ZM10 2.75C10.6904 2.75 11.25 3.30964 11.25 4V5.25H10C9.30964 5.25 8.75 4.69036 8.75 4C8.75 3.30964 9.30964 2.75 10 2.75ZM15.25 4C15.25 4.69036 14.6904 5.25 14 5.25H12.75V4C12.75 3.30964 13.3096 2.75 14 2.75C14.6904 2.75 15.25 3.30964 15.25 4ZM2.75 8.5C2.75 7.5335 3.5335 6.75 4.5 6.75H11.25V10.25H4.5C4.11829 10.25 3.76714 10.1287 3.48011 9.92231C3.03646 9.60339 2.75 9.08516 2.75 8.5ZM21.25 8.5C21.25 7.5335 20.4665 6.75 19.5 6.75H12.75V10.25H19.5C19.8749 10.25 20.2202 10.133 20.5043 9.93341C20.9568 9.61554 21.25 9.09197 21.25 8.5ZM3.72603 11.6571C3.97426 11.7178 4.23353 11.75 4.5 11.75H11.25L11.25 20.25H10.5C9.3244 20.25 8.48204 20.2496 7.81769 20.2021C7.1608 20.1551 6.73463 20.0649 6.38514 19.9133C5.34904 19.4637 4.51518 18.5962 4.07806 17.4907C3.92859 17.1126 3.84121 16.6545 3.79599 15.9602C3.75037 15.2597 3.75 14.373 3.75 13.1429C3.75 12.5443 3.73873 12.1281 3.72973 11.7957L3.72603 11.6571ZM12.75 11.75L12.75 20.25H13.5C14.6756 20.25 15.518 20.2496 16.1823 20.2021C16.8392 20.1551 17.2654 20.0649 17.6149 19.9133C18.651 19.4637 19.4848 18.5962 19.9219 17.4907C20.0714 17.1126 20.1588 16.6545 20.204 15.9602C20.2496 15.2597 20.25 14.373 20.25 13.1429C20.25 12.4823 20.2499 12.0333 20.2427 11.6646C20.004 11.7204 19.7553 11.75 19.5 11.75H12.75Z" fill="#2D264B"/>
</svg>
