<svg width="24" height="24" viewBox="0 0 24 24" fill="none" xmlns="http://www.w3.org/2000/svg">
<path d="M16.7439 5.29888C16.3567 5.15174 15.9235 5.34635 15.7764 5.73354C15.6292 6.12074 15.8239 6.55391 16.2111 6.70105C16.5718 6.83812 16.9483 7.07036 17.3266 7.44541C17.8083 7.92304 18.1132 8.44654 18.2832 8.9977C18.4052 9.39352 18.8251 9.61545 19.2209 9.49339C19.6167 9.37133 19.8386 8.95151 19.7166 8.55569C19.4729 7.76564 19.037 7.02896 18.3827 6.38021C17.8664 5.8684 17.3146 5.51577 16.7439 5.29888Z" fill="#2D264B"/>
<path fill-rule="evenodd" clip-rule="evenodd" d="M10.8009 3.51257C9.91273 2.94914 8.69663 2.36337 7.34626 2.26451C5.95836 2.16291 4.48046 2.58173 3.1529 3.93557C1.58562 5.53386 1.0939 7.50688 1.29136 9.50265C1.48653 11.4754 2.35186 13.4808 3.50596 15.2578C4.66315 17.0396 6.14134 18.6392 7.6243 19.8008C9.07465 20.9368 10.6527 21.75 11.9999 21.75C13.347 21.75 14.9251 20.9368 16.3754 19.8008C17.8584 18.6392 19.3366 17.0396 20.4938 15.2578C21.6479 13.4808 22.5132 11.4754 22.7084 9.50265C22.9058 7.50689 22.4141 5.53386 20.8468 3.93557C19.5193 2.58175 18.0414 2.16293 16.6535 2.26453C15.3031 2.36338 14.087 2.94915 13.1988 3.51257C12.4984 3.95689 11.5014 3.95689 10.8009 3.51257ZM4.2239 4.98579C5.23053 3.95923 6.27121 3.68983 7.23674 3.76051C8.23981 3.83394 9.212 4.28097 9.99745 4.77922C11.1884 5.53467 12.8114 5.53467 14.0023 4.77922C14.7878 4.28098 15.76 3.83395 16.763 3.76052C17.7286 3.68984 18.7692 3.95925 19.7758 4.98579C20.9791 6.21283 21.3774 7.71987 21.2157 9.35497C21.0516 11.0131 20.3084 12.7893 19.2358 14.4408C18.1663 16.0876 16.7995 17.5632 15.4505 18.6199C14.0688 19.7021 12.8277 20.25 11.9999 20.25C11.172 20.25 9.9309 19.7021 8.54924 18.6199C7.20019 17.5632 5.83346 16.0876 4.76393 14.4408C3.69131 12.7893 2.94811 11.0131 2.78407 9.35497C2.6223 7.71987 3.02067 6.21282 4.2239 4.98579Z" fill="#2D264B"/>
</svg>
