<svg width="24" height="24" viewBox="0 0 24 24" fill="none" xmlns="http://www.w3.org/2000/svg">
<path fill-rule="evenodd" clip-rule="evenodd" d="M22.4685 4.58568C22.792 4.32692 22.8444 3.85495 22.5857 3.53151C22.3269 3.20806 21.855 3.15562 21.5315 3.41438L18.2062 6.07464C16.529 4.56835 14.3897 3.25003 12 3.25003C9.85907 3.25003 7.92327 4.30902 6.35175 5.59574C4.77166 6.88949 3.47964 8.47868 2.61144 9.68804L2.53984 9.78762C2.01718 10.5139 1.58695 11.1117 1.58694 12C1.58694 12.8883 2.01709 13.4861 2.53964 14.2122L2.61121 14.3117C3.15751 15.0727 3.86909 15.9805 4.71226 16.8698L1.53151 19.4144C1.20806 19.6731 1.15562 20.1451 1.41438 20.4685C1.67313 20.792 2.1451 20.8444 2.46855 20.5857L22.4685 4.58568ZM12 4.75003C13.7777 4.75003 15.5024 5.70932 17.0173 7.02574L14.4006 9.11909C13.7506 8.57707 12.9134 8.25003 12 8.25003C9.92896 8.25003 8.25003 9.92896 8.25003 12C8.25003 12.6154 8.39871 13.1971 8.66192 13.71L5.88803 15.9292C5.06702 15.0746 4.36802 14.1868 3.82974 13.4369C3.20595 12.568 3.08694 12.3585 3.08694 12C3.08695 11.6415 3.206 11.432 3.82995 10.5628C4.65922 9.40768 5.86351 7.93417 7.30203 6.75634C8.74913 5.57149 10.3543 4.75003 12 4.75003ZM12 9.75003C12.4362 9.75003 12.8433 9.87383 13.1884 10.0889L9.87436 12.7401C9.79377 12.5085 9.75003 12.2596 9.75003 12C9.75003 10.7574 10.7574 9.75003 12 9.75003Z" fill="#2D264B"/>
<path d="M20.3954 8.39079C20.1332 8.07006 19.6608 8.02255 19.34 8.28467C19.0193 8.54679 18.9718 9.01928 19.2339 9.34001C19.5844 9.76888 19.8981 10.184 20.17 10.5627C20.7941 11.4319 20.9131 11.6415 20.9131 12C20.9131 12.3585 20.7941 12.5681 20.1701 13.4372C19.3408 14.5924 18.1365 16.0659 16.698 17.2437C15.2509 18.4286 13.6458 19.25 12 19.25C10.5952 19.25 9.21821 18.6521 7.93756 17.7322C7.60113 17.4906 7.13252 17.5674 6.89088 17.9038C6.64923 18.2403 6.72607 18.7089 7.0625 18.9505C8.48703 19.9737 10.1676 20.75 12 20.75C14.141 20.75 16.0768 19.691 17.6483 18.4043C19.2284 17.1106 20.5204 15.5214 21.3886 14.312L21.4602 14.2124C21.9829 13.4862 22.4131 12.8884 22.4131 12C22.4131 11.1117 21.9829 10.5138 21.4602 9.78754L21.3886 9.68796C21.1009 9.28725 20.7682 8.84696 20.3954 8.39079Z" fill="#2D264B"/>
<path d="M15.75 12C15.75 11.5858 15.4142 11.25 15 11.25C14.5858 11.25 14.25 11.5858 14.25 12C14.25 13.2427 13.2427 14.25 12 14.25C11.5858 14.25 11.25 14.5858 11.25 15C11.25 15.4142 11.5858 15.75 12 15.75C14.0711 15.75 15.75 14.0711 15.75 12Z" fill="#2D264B"/>
</svg>
