<svg width="24" height="24" viewBox="0 0 24 24" fill="none" xmlns="http://www.w3.org/2000/svg">
<path fill-rule="evenodd" clip-rule="evenodd" d="M12.2103 1.25387C12.0698 1.24871 11.9292 1.24871 11.7887 1.25387C10.8613 1.28789 10.0263 1.60323 9.11066 2.12818C8.21839 2.63974 7.19116 3.38608 5.88778 4.33305L5.81693 4.38453C4.51353 5.33149 3.48627 6.07783 2.72402 6.76835C1.94183 7.47693 1.38386 8.17368 1.06493 9.04515C1.01662 9.17717 0.973165 9.31091 0.934655 9.44611C0.680434 10.3386 0.722297 11.2303 0.938608 12.2633C1.1494 13.27 1.54178 14.4775 2.03964 16.0098L3.7742 21.3482C4.14806 22.4988 5.22032 23.2779 6.43016 23.2779C7.9725 23.2779 9.22281 22.0276 9.22281 20.4852V17.7363C9.22281 17.092 9.74512 16.5697 10.3894 16.5697H13.6096C14.2539 16.5697 14.7762 17.092 14.7762 17.7363V20.4852C14.7762 22.0276 16.0265 23.2779 17.5689 23.2779C18.7787 23.2779 19.851 22.4988 20.2248 21.3482L21.9594 16.0097C22.4573 14.4775 22.8496 13.2699 23.0604 12.2633C23.2767 11.2303 23.3186 10.3386 23.0644 9.44611C23.0259 9.31091 22.9824 9.17717 22.9341 9.04515C22.6152 8.17368 22.0572 7.47693 21.275 6.76835C20.5128 6.07782 19.4855 5.33149 18.1821 4.38452L18.1112 4.33303C16.8079 3.38607 15.7806 2.63973 14.8884 2.12818C13.9728 1.60323 13.1377 1.28789 12.2103 1.25387ZM11.8437 2.75286C11.9475 2.74905 12.0515 2.74905 12.1553 2.75286C12.7508 2.7747 13.3438 2.97167 14.1423 3.42948C14.9561 3.89603 15.9184 4.59396 17.265 5.57232C18.6116 6.55068 19.5728 7.25026 20.268 7.88002C20.9501 8.49798 21.3207 9.00112 21.5255 9.56067C21.5612 9.65824 21.5933 9.75709 21.6218 9.85703C21.785 10.4301 21.7809 11.055 21.5923 11.9558C21.4 12.874 21.0336 14.0049 20.5193 15.5879L18.7983 20.8847C18.6252 21.4173 18.1289 21.7779 17.5689 21.7779C16.855 21.7779 16.2762 21.1991 16.2762 20.4852V17.7363C16.2762 16.2636 15.0823 15.0697 13.6096 15.0697H10.3894C8.9167 15.0697 7.72281 16.2636 7.72281 17.7363V20.4852C7.72281 21.1991 7.14407 21.7779 6.43016 21.7779C5.87016 21.7779 5.37384 21.4173 5.20079 20.8847L3.47976 15.5879C2.96541 14.0049 2.59902 12.874 2.40677 11.9558C2.21812 11.055 2.21405 10.4301 2.37727 9.85703C2.40574 9.7571 2.43786 9.65824 2.47357 9.56067C2.67834 9.00112 3.04893 8.49798 3.73108 7.88002C4.42627 7.25026 5.38742 6.55068 6.73402 5.57232C8.08061 4.59396 9.04296 3.89603 9.85673 3.42948C10.6552 2.97167 11.2483 2.7747 11.8437 2.75286Z" fill="#2D264B"/>
</svg>
