<svg width="24" height="24" viewBox="0 0 24 24" fill="none" xmlns="http://www.w3.org/2000/svg">
<path fill-rule="evenodd" clip-rule="evenodd" d="M7.32212 6.95583C9.13043 5.56379 11.7496 6.85289 11.7496 9.13495V11.2496L21.9996 11.2496C22.4138 11.2496 22.7496 11.5854 22.7496 11.9996C22.7496 12.4138 22.4138 12.7496 21.9996 12.7496L11.7496 12.7496V14.8642C11.7496 17.1463 9.13043 18.4354 7.32212 17.0434L3.60084 14.1787C2.17081 13.0779 2.17081 10.9213 3.60084 9.82048L7.32212 6.95583ZM8.23711 8.14444C9.05907 7.51169 10.2496 8.09765 10.2496 9.13495L10.2496 11.9996L10.2496 14.8642C10.2496 15.9015 9.05907 16.4875 8.23711 15.8547L4.51583 12.9901C3.86582 12.4897 3.86582 11.5095 4.51583 11.0091L8.23711 8.14444Z" fill="#2D264B"/>
</svg>
