<svg width="24" height="24" viewBox="0 0 24 24" fill="none" xmlns="http://www.w3.org/2000/svg">
<path fill-rule="evenodd" clip-rule="evenodd" d="M16.6912 6.20525C15.9472 5.44651 15.099 5.19974 14.2994 5.25827C13.5374 5.31406 12.8684 5.64163 12.3986 5.93964C12.171 6.08402 11.829 6.08402 11.6014 5.93964C11.1316 5.64163 10.4626 5.31407 9.70056 5.25828C8.90102 5.19975 8.05278 5.44652 7.30876 6.20525C6.43411 7.0972 6.16492 8.20021 6.27257 9.28826C6.37794 10.3533 6.84113 11.4133 7.43856 12.3332C8.03907 13.2578 8.80603 14.0886 9.58099 14.6956C10.3233 15.2771 11.1966 15.75 12 15.75C12.8034 15.75 13.6767 15.2771 14.419 14.6956C15.194 14.0886 15.9609 13.2578 16.5614 12.3332C17.1589 11.4133 17.6221 10.3533 17.7274 9.28826C17.8351 8.20021 17.5659 7.0972 16.6912 6.20525ZM13.2021 7.20629C13.5691 6.97346 13.9942 6.78463 14.4089 6.75427C14.7861 6.72666 15.1972 6.82401 15.6202 7.25547C16.1308 7.77617 16.3067 8.4132 16.2347 9.14058C16.1605 9.89096 15.8194 10.7218 15.3035 11.5162C14.7906 12.3058 14.1351 13.0126 13.4941 13.5147C12.8204 14.0424 12.2841 14.25 12 14.25C11.7159 14.25 11.1796 14.0424 10.5059 13.5147C9.86488 13.0126 9.20938 12.3058 8.69653 11.5162C8.18059 10.7218 7.83952 9.89096 7.76528 9.14058C7.69331 8.4132 7.86916 7.77617 8.37976 7.25547C8.80285 6.82402 9.21387 6.72667 9.59105 6.75428C10.0058 6.78464 10.4309 6.97347 10.7979 7.20629C11.516 7.6618 12.484 7.6618 13.2021 7.20629Z" fill="#2D264B"/>
<path fill-rule="evenodd" clip-rule="evenodd" d="M16.3664 1.32925C15.451 1.24999 14.3096 1.24999 12.8538 1.25H11.1462C9.69036 1.24999 8.54903 1.24999 7.63362 1.32925C6.70118 1.40998 5.9332 1.57719 5.24432 1.95335C4.27685 2.48162 3.48162 3.27685 2.95335 4.24432C2.57719 4.9332 2.40998 5.70118 2.32925 6.63362C2.24999 7.54902 2.24999 8.69035 2.25 10.1462V13.3005C2.25 13.359 2.25 13.3946 2.25034 13.4257C2.28408 16.5528 4.81085 19.0796 7.93795 19.1133C7.96914 19.1136 8.00491 19.1136 8.06385 19.1136L8.0747 19.1136L8.07593 19.1136C8.14293 19.114 8.20698 19.1413 8.25371 19.1893L8.25452 19.1901L8.61454 19.5642C9.2601 20.2349 9.79744 20.7932 10.2826 21.1768C10.794 21.5811 11.3375 21.8659 12 21.8659C12.6625 21.8659 13.206 21.5811 13.7174 21.1768C14.2025 20.7932 14.7399 20.235 15.3854 19.5642L15.7455 19.1901L15.7463 19.1893C15.793 19.1413 15.8571 19.114 15.9241 19.1136L15.9253 19.1136L15.9362 19.1136C15.9951 19.1136 16.0309 19.1136 16.0621 19.1133C19.1891 19.0796 21.7159 16.5528 21.7497 13.4257C21.75 13.3945 21.75 13.3587 21.75 13.2998V10.1462C21.75 8.69039 21.75 7.54904 21.6708 6.63362C21.59 5.70118 21.4228 4.9332 21.0467 4.24432C20.5184 3.27685 19.7231 2.48162 18.7557 1.95335C18.0668 1.57719 17.2988 1.40998 16.3664 1.32925ZM5.96319 3.26987C6.39438 3.03442 6.92944 2.89583 7.76301 2.82366C8.60616 2.75066 9.68267 2.75 11.1818 2.75H12.8182C14.3173 2.75 15.3938 2.75066 16.237 2.82366C17.0706 2.89583 17.6056 3.03442 18.0368 3.26987C18.7519 3.66033 19.3397 4.24811 19.7301 4.96319C19.9656 5.39438 20.1042 5.92944 20.1763 6.76301C20.2493 7.60616 20.25 8.68267 20.25 10.1818V13.2949C20.25 13.3073 20.25 13.3182 20.25 13.328C20.25 13.3706 20.2499 13.3917 20.2498 13.4095C20.2248 15.7208 18.3572 17.5884 16.0459 17.6134C16.024 17.6136 15.997 17.6136 15.9313 17.6136L15.9158 17.6137C15.4468 17.6163 14.9984 17.807 14.6713 18.1431L14.6605 18.1543L14.3416 18.4857C13.6496 19.2046 13.1826 19.6875 12.7872 20.0001C12.4088 20.2991 12.1884 20.3659 12 20.3659C11.8116 20.3659 11.5912 20.2991 11.2128 20.0001C10.8174 19.6875 10.3504 19.2046 9.65842 18.4857L9.33946 18.1543L9.32868 18.1431C9.00156 17.807 8.55323 17.6163 8.08422 17.6137L8.0687 17.6136C8.00297 17.6136 7.97605 17.6136 7.95413 17.6134C5.6428 17.5884 3.77519 15.7208 3.75025 13.4095C3.75001 13.3876 3.75 13.3607 3.75 13.2949V10.1818C3.75 8.68267 3.75066 7.60616 3.82366 6.76301C3.89583 5.92944 4.03442 5.39438 4.26987 4.96319C4.66033 4.24811 5.24811 3.66033 5.96319 3.26987Z" fill="#2D264B"/>
</svg>
