<svg width="24" height="24" viewBox="0 0 24 24" fill="none" xmlns="http://www.w3.org/2000/svg">
<path fill-rule="evenodd" clip-rule="evenodd" d="M16.6912 6.20525C15.9472 5.44651 15.099 5.19974 14.2994 5.25827C13.5374 5.31406 12.8684 5.64163 12.3986 5.93964C12.171 6.08402 11.829 6.08402 11.6014 5.93964C11.1316 5.64163 10.4626 5.31407 9.70056 5.25828C8.90102 5.19975 8.05278 5.44652 7.30876 6.20525C6.43411 7.0972 6.16492 8.20021 6.27257 9.28826C6.37794 10.3533 6.84113 11.4133 7.43856 12.3332C8.03907 13.2578 8.80603 14.0886 9.58099 14.6956C10.3233 15.2771 11.1966 15.75 12 15.75C12.8034 15.75 13.6767 15.2771 14.419 14.6956C15.194 14.0886 15.9609 13.2578 16.5614 12.3332C17.1589 11.4133 17.6221 10.3533 17.7274 9.28826C17.8351 8.20021 17.5659 7.0972 16.6912 6.20525ZM13.2021 7.20629C13.5691 6.97346 13.9942 6.78463 14.4089 6.75427C14.7861 6.72666 15.1972 6.82401 15.6202 7.25547C16.1308 7.77617 16.3067 8.4132 16.2347 9.14058C16.1605 9.89096 15.8194 10.7218 15.3035 11.5162C14.7906 12.3058 14.1351 13.0126 13.4941 13.5147C12.8204 14.0424 12.2841 14.25 12 14.25C11.7159 14.25 11.1796 14.0424 10.5059 13.5147C9.86488 13.0126 9.20938 12.3058 8.69653 11.5162C8.18059 10.7218 7.83952 9.89096 7.76528 9.14058C7.69331 8.4132 7.86916 7.77617 8.37976 7.25547C8.80285 6.82402 9.21387 6.72667 9.59105 6.75428C10.0058 6.78464 10.4309 6.97347 10.7979 7.20629C11.516 7.6618 12.484 7.6618 13.2021 7.20629Z" fill="#2D264B"/>
<path fill-rule="evenodd" clip-rule="evenodd" d="M16.3451 1.32061C15.4807 1.24999 14.4053 1.25 13.0336 1.25H10.9664C9.59472 1.25 8.51929 1.24999 7.65494 1.32061C6.77479 1.39252 6.04769 1.54138 5.38955 1.87671C4.30762 2.42798 3.42798 3.30762 2.87671 4.38955C2.54138 5.04769 2.39252 5.7748 2.32061 6.65494C2.24999 7.51929 2.25 8.59472 2.25 9.96644V14.2283C2.25 16.7256 4.27441 18.75 6.77166 18.75H7.37341C7.62191 18.75 7.79183 19.001 7.69954 19.2317C7.01288 20.9484 8.9899 22.5003 10.4944 21.4257L13.1051 19.5609L13.1543 19.5259C13.8632 19.0264 14.7079 18.7556 15.5751 18.7501L15.6504 18.75H15.6788C15.9639 18.75 16.1358 18.75 16.2719 18.7436C19.2338 18.6033 21.6033 16.2338 21.7436 13.2719C21.75 13.1358 21.75 12.9797 21.75 12.7232V9.96642C21.75 8.59473 21.75 7.51927 21.6794 6.65494C21.6075 5.77479 21.4586 5.04769 21.1233 4.38955C20.572 3.30762 19.6924 2.42798 18.6104 1.87671C17.9523 1.54138 17.2252 1.39252 16.3451 1.32061ZM6.07054 3.21322C6.48197 3.00359 6.9897 2.87996 7.77708 2.81563C8.57322 2.75058 9.58749 2.75 11 2.75H13C14.4125 2.75 15.4268 2.75058 16.2229 2.81563C17.0103 2.87996 17.518 3.00359 17.9295 3.21322C18.7291 3.62068 19.3793 4.27085 19.7868 5.07054C19.9964 5.48197 20.12 5.9897 20.1844 6.77708C20.2494 7.57322 20.25 8.58749 20.25 10V12.6988C20.25 12.9871 20.2498 13.105 20.2452 13.201C20.1416 15.3902 18.3902 17.1416 16.201 17.2452C16.1053 17.2498 15.9721 17.25 15.6504 17.25L15.5655 17.2501C14.3922 17.2576 13.2493 17.6239 12.2902 18.2997L12.2333 18.3403L9.62255 20.2051C9.33709 20.409 8.96197 20.1145 9.09226 19.7888C9.57867 18.5728 8.68311 17.25 7.37341 17.25H6.77166C5.10284 17.25 3.75 15.8972 3.75 14.2283V10C3.75 8.58749 3.75058 7.57322 3.81563 6.77708C3.87996 5.9897 4.00359 5.48197 4.21322 5.07054C4.62068 4.27085 5.27085 3.62068 6.07054 3.21322Z" fill="#2D264B"/>
</svg>
