<svg width="24" height="24" viewBox="0 0 24 24" fill="none" xmlns="http://www.w3.org/2000/svg">
<path fill-rule="evenodd" clip-rule="evenodd" d="M9 3.25C7.78653 3.25 6.57216 3.63338 5.55 4.4L3.35 6.05C2.65753 6.56935 2.25 7.38442 2.25 8.25V16.879C2.25 19.092 4.77641 20.3552 6.54677 19.0274C7.27372 18.4822 8.13641 18.2097 9 18.2097C9.86359 18.2097 10.7263 18.4822 11.4532 19.0274L11.55 19.1C12.5722 19.8666 13.7865 20.25 15 20.25C16.2135 20.25 17.4278 19.8666 18.45 19.1L20.65 17.45C21.3425 16.9306 21.75 16.1156 21.75 15.25V6.62097C21.75 4.40801 19.2236 3.1448 17.4532 4.47258C16.7263 5.01779 15.8636 5.29032 15 5.29032C14.1364 5.29032 13.2737 5.01779 12.5468 4.47258L12.45 4.4C11.4278 3.63338 10.2135 3.25 9 3.25ZM6.45 5.6C6.99425 5.19181 7.61172 4.93066 8.25 4.8165V16.7601C7.32751 16.8848 6.4292 17.2406 5.64677 17.8274C4.86526 18.4136 3.75 17.8559 3.75 16.879V8.25C3.75 7.85655 3.93524 7.48607 4.25 7.25L6.45 5.6ZM12.3532 17.8274C11.5708 17.2406 10.6725 16.8848 9.75 16.7601V4.8165C10.3883 4.93066 11.0057 5.19181 11.55 5.6L11.6468 5.67258C12.4292 6.2594 13.3275 6.61519 14.25 6.73987V18.6835C13.6117 18.5693 12.9943 18.3082 12.45 17.9L12.3532 17.8274ZM17.55 17.9C17.0057 18.3082 16.3883 18.5693 15.75 18.6835V6.73987C16.6725 6.61519 17.5708 6.2594 18.3532 5.67258C19.1347 5.08645 20.25 5.64408 20.25 6.62097V15.25C20.25 15.6434 20.0648 16.0139 19.75 16.25L17.55 17.9Z" fill="#2D264B"/>
</svg>
