<svg width="24" height="24" viewBox="0 0 24 24" fill="none" xmlns="http://www.w3.org/2000/svg">
<path fill-rule="evenodd" clip-rule="evenodd" d="M19.5858 8.76099C19.2509 7.00204 18.4031 5.32081 17.0438 3.95982C13.4353 0.346725 7.58425 0.346725 3.97569 3.95982C2.87489 5.06202 1.90272 6.69355 1.47755 8.50489C1.04981 10.3272 1.1684 12.3742 2.32372 14.2356C2.38287 14.3309 2.41946 14.3899 2.4453 14.4341C2.45722 14.4545 2.46349 14.4661 2.46614 14.4711C2.46854 14.4775 2.47003 14.4819 2.4709 14.4847C2.47089 14.488 2.47075 14.4936 2.47019 14.5021C2.46948 14.506 2.46783 14.5147 2.46447 14.5295C2.45592 14.5674 2.44292 14.618 2.41976 14.7074L2.41304 14.7334C2.28035 15.2459 2.1713 15.6672 2.10719 16.0076C2.04266 16.3502 2.00533 16.696 2.07397 17.0337C2.26969 17.9967 3.02151 18.75 3.98447 18.9462C4.32228 19.015 4.66811 18.9776 5.0104 18.9129C5.35045 18.8487 5.77128 18.7395 6.28315 18.6067L6.3091 18.5999C6.39841 18.5768 6.44895 18.5637 6.48673 18.5552C6.50143 18.5518 6.51001 18.5502 6.51398 18.5495C6.52182 18.5489 6.52718 18.5488 6.53052 18.5487C6.53328 18.5496 6.53745 18.5511 6.54327 18.5532C6.54833 18.5559 6.56005 18.5622 6.58059 18.5742C6.6251 18.6002 6.68463 18.6369 6.78045 18.6962C7.40037 19.0798 8.04558 19.3479 8.69919 19.5177C8.94167 19.8554 9.21434 20.1778 9.51704 20.4808C10.4089 21.3739 11.7712 22.1843 13.2886 22.5478C14.8165 22.9137 16.5573 22.8371 18.1325 21.8624C18.2089 21.8151 18.2556 21.7863 18.29 21.7661C18.3175 21.7727 18.3552 21.7824 18.4178 21.7986L18.443 21.8052C18.8613 21.9137 19.2115 22.0046 19.496 22.0584C19.7827 22.1125 20.088 22.1473 20.3919 22.0854C21.237 21.9132 21.8968 21.252 22.0685 20.4071C22.1302 20.1034 22.0956 19.7981 22.0415 19.5112C21.9879 19.2264 21.8971 18.8758 21.7887 18.457L21.7822 18.4318C21.7658 18.3684 21.756 18.3305 21.7495 18.3029C21.7696 18.2687 21.7983 18.2224 21.8456 18.1461C22.8193 16.5774 22.9173 14.8541 22.5588 13.3267C22.2029 11.8103 21.3897 10.445 20.4663 9.52044C20.1881 9.24187 19.8936 8.98867 19.5858 8.76099ZM15.9825 5.01982C12.9599 1.99339 8.05964 1.99339 5.03702 5.01982C4.12704 5.93094 3.29731 7.31632 2.93786 8.84766C2.581 10.368 2.6951 11.9895 3.59819 13.4445C3.60673 13.4583 3.6154 13.4722 3.62413 13.4862C3.71023 13.6244 3.80296 13.7733 3.85672 13.9084C3.95209 14.1482 3.98511 14.3652 3.9654 14.6225C3.95432 14.7671 3.91546 14.9161 3.88133 15.0471C3.87813 15.0593 3.87498 15.0714 3.8719 15.0833C3.73084 15.6282 3.63491 16.0004 3.58127 16.2852C3.52698 16.5735 3.53426 16.6875 3.54391 16.735C3.61993 17.109 3.91166 17.4005 4.28397 17.4764C4.33083 17.4859 4.44429 17.4933 4.73211 17.439C5.01643 17.3853 5.38804 17.2893 5.93231 17.148C5.94422 17.1449 5.95632 17.1418 5.96858 17.1386C6.0992 17.1044 6.24811 17.0655 6.3923 17.0544C6.64935 17.0345 6.86495 17.0671 7.10458 17.1621C7.23944 17.2156 7.38878 17.3083 7.52766 17.3946C7.5418 17.4034 7.55582 17.4121 7.56972 17.4207C7.59705 17.4376 7.62444 17.4542 7.65189 17.4705C6.74764 14.7706 7.36883 11.6714 9.51704 9.52044C11.7434 7.2913 14.9876 6.70388 17.7509 7.75716C17.3746 6.75929 16.7853 5.82365 15.9825 5.01982ZM18.4794 9.81521C16.0523 8.17382 12.7266 8.4295 10.5784 10.5804C8.44781 12.7137 8.17847 16.0073 9.77335 18.4329C10.0027 18.7817 10.2709 19.113 10.5784 19.4208C11.2748 20.1181 12.3908 20.7903 13.638 21.089C14.8747 21.3852 16.1848 21.3036 17.3433 20.5868C17.3547 20.5797 17.3665 20.5724 17.3786 20.5649C17.4902 20.4955 17.6242 20.4122 17.7472 20.3634C17.9632 20.2777 18.161 20.2478 18.3927 20.2657C18.5241 20.2759 18.6588 20.3112 18.764 20.3388C18.7745 20.3415 18.7847 20.3442 18.7946 20.3467C19.2446 20.4635 19.5456 20.5412 19.7743 20.5844C20.0065 20.6282 20.0795 20.6182 20.0924 20.6156C20.3469 20.5637 20.5465 20.3644 20.5986 20.1083C20.6013 20.0948 20.6112 20.0214 20.5674 19.7888C20.5243 19.5596 20.4467 19.2582 20.33 18.8077C20.3275 18.7978 20.3248 18.7876 20.3221 18.7771C20.2945 18.6716 20.2593 18.5368 20.2492 18.4051C20.2314 18.1731 20.2617 17.9742 20.3477 17.758C20.3967 17.6348 20.48 17.5012 20.5493 17.3902C20.5567 17.3782 20.564 17.3665 20.5711 17.3551C21.2926 16.1927 21.3861 14.8949 21.0985 13.6695C20.8083 12.4331 20.1376 11.3139 19.405 10.5804C19.1155 10.2906 18.8053 10.0357 18.4794 9.81521Z" fill="#2D264B"/>
<path d="M12.9998 15C12.9998 15.5523 12.5521 16 11.9998 16C11.4476 16 10.9998 15.5523 10.9998 15C10.9998 14.4477 11.4476 14 11.9998 14C12.5521 14 12.9998 14.4477 12.9998 15Z" fill="#2D264B"/>
<path d="M15.9998 15C15.9998 15.5523 15.5521 16 14.9998 16C14.4476 16 13.9998 15.5523 13.9998 15C13.9998 14.4477 14.4476 14 14.9998 14C15.5521 14 15.9998 14.4477 15.9998 15Z" fill="#2D264B"/>
<path d="M18.9998 15C18.9998 15.5523 18.5521 16 17.9998 16C17.4476 16 16.9998 15.5523 16.9998 15C16.9998 14.4477 17.4476 14 17.9998 14C18.5521 14 18.9998 14.4477 18.9998 15Z" fill="#2D264B"/>
</svg>
