<svg width="24" height="24" viewBox="0 0 24 24" fill="none" xmlns="http://www.w3.org/2000/svg">
<path fill-rule="evenodd" clip-rule="evenodd" d="M12 1.25C9.37665 1.25 7.25 3.37665 7.25 6V10C7.25 12.6234 9.37665 14.75 12 14.75C14.6234 14.75 16.75 12.6234 16.75 10V6C16.75 3.37665 14.6234 1.25 12 1.25ZM12.3815 7.25108C13.3073 7.55966 14.2944 7.62697 15.25 7.44945V8.91442L15.0308 8.96922C14.354 9.13842 13.646 9.13842 12.9692 8.96922L12.1819 8.77239C11.7801 8.67193 11.3729 8.91625 11.2724 9.3181C11.1719 9.71994 11.4163 10.1271 11.8181 10.2276L12.6054 10.4244C13.462 10.6386 14.3555 10.6524 15.2169 10.4659C14.9909 12.0401 13.6367 13.25 12 13.25C10.2051 13.25 8.75 11.7949 8.75 10V6C8.75 4.20507 10.2051 2.75 12 2.75C13.7665 2.75 15.2037 4.15927 15.2489 5.91484L15.2306 5.91926C14.4465 6.1153 13.6227 6.08366 12.8559 5.82806L12.7372 5.78849C12.3442 5.6575 11.9195 5.86987 11.7885 6.26283C11.6575 6.65578 11.8699 7.08052 12.2628 7.21151L12.3815 7.25108Z" fill="#2D264B"/>
<path d="M4.75 10C4.75 9.58579 4.41421 9.25 4 9.25C3.58579 9.25 3.25 9.58579 3.25 10C3.25 14.5798 6.7686 18.3379 11.25 18.7183V20.953C11.0336 20.9815 10.8183 21.0223 10.6054 21.0756L9.8181 21.2724C9.41625 21.3729 9.17193 21.7801 9.27239 22.1819C9.37285 22.5837 9.78006 22.8281 10.1819 22.7276L10.9692 22.5308C11.3141 22.4446 11.667 22.4023 12.0198 22.4039C12.3594 22.4055 12.6988 22.4478 13.0308 22.5308L13.8181 22.7276C14.2199 22.8281 14.6271 22.5837 14.7276 22.1819C14.8281 21.7801 14.5837 21.3729 14.1819 21.2724L13.3946 21.0756C13.1817 21.0223 12.9664 20.9815 12.75 20.953V18.7183C17.2314 18.3379 20.75 14.5798 20.75 10C20.75 9.58579 20.4142 9.25 20 9.25C19.5858 9.25 19.25 9.58579 19.25 10C19.25 14.0041 16.0041 17.25 12 17.25C7.99594 17.25 4.75 14.0041 4.75 10Z" fill="#2D264B"/>
</svg>
