<svg width="24" height="24" viewBox="0 0 24 24" fill="none" xmlns="http://www.w3.org/2000/svg">
<path fill-rule="evenodd" clip-rule="evenodd" d="M11.9192 2.25C11.0672 2.24994 10.5482 2.2499 10.1005 2.3208C7.64013 2.71049 5.71049 4.64013 5.3208 7.10051C5.2499 7.54819 5.24994 8.06717 5.25 8.91919L5.25 15.0808C5.24998 15.3633 5.24996 15.6092 5.25253 15.828C5.25085 15.8851 5.25001 15.9425 5.25001 16C5.25001 17.5124 5.83393 18.8885 6.78864 19.915C6.88321 20.0167 6.98142 20.1149 7.08306 20.2096C8.10979 21.1653 9.48662 21.75 11 21.75L13 21.75C16.1756 21.75 18.75 19.1756 18.75 16C18.75 15.9425 18.7492 15.8851 18.7475 15.828C18.7501 15.6092 18.75 15.3633 18.75 15.0808V8.91918C18.7501 8.06717 18.7501 7.54819 18.6792 7.10051C18.2895 4.64013 16.3599 2.71049 13.8995 2.3208C13.4518 2.2499 12.9328 2.24994 12.0808 2.25H11.9192ZM6.80233 16.6649C6.94076 17.5389 7.34211 18.3223 7.92357 18.9323C7.98788 18.9997 8.05439 19.0651 8.12298 19.1282C8.7247 19.6817 9.4873 20.0634 10.3352 20.1977C10.6508 20.2477 11.0423 20.25 12 20.25C12.9577 20.25 13.3492 20.2477 13.6649 20.1977C15.4834 19.9097 16.9097 18.4834 17.1977 16.6649C17.2297 16.463 17.2421 16.2301 17.247 15.838C17.1618 13.5659 15.293 11.75 13 11.75H11C8.70706 11.75 6.83822 13.5658 6.75304 15.838C6.75788 16.2301 6.77036 16.463 6.80233 16.6649ZM13 10.25C14.6837 10.25 16.1984 10.9737 17.25 12.127V9.00001C17.25 8.04234 17.2477 7.65083 17.1977 7.33516C16.9097 5.51662 15.4834 4.09036 13.6649 3.80233C13.4483 3.76804 13.1961 3.75617 12.75 3.7521L12.75 9.00001C12.75 9.41422 12.4142 9.75001 12 9.75001C11.5858 9.75001 11.25 9.41422 11.25 9.00001L11.25 3.7521C10.8039 3.75617 10.5517 3.76804 10.3352 3.80233C8.51662 4.09036 7.09036 5.51662 6.80233 7.33516C6.75234 7.65083 6.75001 8.04234 6.75001 9.00001L6.75001 12.127C7.8016 10.9737 9.31629 10.25 11 10.25H13Z" fill="#2D264B"/>
</svg>
