<svg width="24" height="24" viewBox="0 0 24 24" fill="none" xmlns="http://www.w3.org/2000/svg">
<path fill-rule="evenodd" clip-rule="evenodd" d="M13.4207 2.28622C12.0871 2.06839 10.7928 2.8517 10.3673 4.13421C10.2814 4.39324 10.2532 4.67334 10.2413 4.9664C10.2295 5.25805 10.2326 5.62401 10.2365 6.07477L10.2371 6.14951C10.2386 6.33724 10.24 6.50031 10.25 6.65111L10.25 14.1478C9.62325 13.677 8.8442 13.3981 8 13.3981C5.92893 13.3981 4.25 15.077 4.25 17.1481C4.25 19.2191 5.92893 20.8981 8 20.8981C10.0711 20.8981 11.75 19.2191 11.75 17.1481L11.75 8.90197C11.8191 8.94013 11.8923 8.97946 11.9704 9.02138L15.3521 10.8398C15.7496 11.0535 16.0725 11.2271 16.3367 11.3528C16.6023 11.4791 16.864 11.5847 17.1343 11.6292C18.4585 11.8469 19.7464 11.0771 20.1817 9.80775C20.2706 9.54859 20.3015 9.26804 20.316 8.97431C20.3305 8.68217 20.3305 8.31564 20.3305 7.86435L20.3305 7.7883C20.3306 7.4716 20.3307 7.22378 20.2895 6.98758C20.1724 6.31704 19.8108 5.71376 19.2746 5.29443C19.0857 5.14671 18.8671 5.03 18.5878 4.88083L15.2006 3.0704C14.803 2.8579 14.4803 2.68537 14.2164 2.56056C13.9513 2.43515 13.69 2.33022 13.4207 2.28622ZM11.7401 5.02592C11.7466 5.06567 11.75 5.10646 11.75 5.14805V6.59796C11.7526 6.62505 11.7557 6.6475 11.7596 6.669C11.8141 6.97137 11.9781 7.24306 12.2202 7.43221C12.2921 7.48836 12.3845 7.54098 12.7291 7.72627L16.045 9.50923C16.4642 9.73464 16.7543 9.8904 16.981 9.99819C17.21 10.1071 17.319 10.1394 17.3777 10.1491C17.9796 10.248 18.565 9.89811 18.7629 9.32113C18.7822 9.26488 18.8053 9.15361 18.8179 8.90027C18.8303 8.64962 18.8305 8.32033 18.8305 7.84435C18.8305 7.44547 18.8278 7.33704 18.8118 7.24559C18.7586 6.94081 18.5942 6.66659 18.3505 6.47598C18.2774 6.41879 18.183 6.36533 17.8312 6.1773L14.511 4.4026C14.0918 4.17856 13.8016 4.02369 13.575 3.91653C13.3459 3.80815 13.2371 3.77612 13.1789 3.7666C12.5727 3.66759 11.9844 4.02364 11.791 4.6066C11.7724 4.66254 11.7504 4.7735 11.7401 5.02592ZM8 14.8981C9.24264 14.8981 10.25 15.9054 10.25 17.1481C10.25 18.3907 9.24264 19.3981 8 19.3981C6.75736 19.3981 5.75 18.3907 5.75 17.1481C5.75 15.9054 6.75736 14.8981 8 14.8981Z" fill="#2D264B"/>
</svg>
