<svg width="24" height="24" viewBox="0 0 24 24" fill="none" xmlns="http://www.w3.org/2000/svg">
<path fill-rule="evenodd" clip-rule="evenodd" d="M11.8841 7.24991C11.0662 7.24964 10.508 7.24946 10.0293 7.37771C8.73525 7.72446 7.72444 8.73527 7.37769 10.0294C7.24943 10.508 7.24962 11.0662 7.24989 11.8841V12.1157C7.24962 12.9337 7.24943 13.4918 7.37769 13.9705C7.72444 15.2646 8.73525 16.2754 10.0293 16.6222C10.508 16.7504 11.0662 16.7502 11.8841 16.75H12.1157C12.9337 16.7502 13.4918 16.7504 13.9705 16.6222C15.2646 16.2754 16.2754 15.2646 16.6221 13.9705C16.7504 13.4918 16.7502 12.9337 16.7499 12.1157V11.8841C16.7502 11.0662 16.7504 10.508 16.6221 10.0294C16.2754 8.73527 15.2646 7.72446 13.9705 7.37771C13.4918 7.24946 12.9337 7.24964 12.1157 7.24991H11.8841ZM10.4176 8.8266C10.6797 8.75638 11.0217 8.74993 11.9999 8.74993C12.9782 8.74993 13.3202 8.75638 13.5823 8.8266C14.3587 9.03465 14.9652 9.64113 15.1732 10.4176C15.2435 10.6797 15.2499 11.0217 15.2499 11.9999C15.2499 12.9782 15.2435 13.3202 15.1732 13.5823C14.9652 14.3587 14.3587 14.9652 13.5823 15.1733C13.3202 15.2435 12.9782 15.2499 11.9999 15.2499C11.0217 15.2499 10.6797 15.2435 10.4176 15.1733C9.64111 14.9652 9.03463 14.3587 8.82658 13.5823C8.75635 13.3202 8.74991 12.9782 8.74991 11.9999C8.74991 11.0217 8.75635 10.6797 8.82658 10.4176C9.03463 9.64113 9.64111 9.03465 10.4176 8.8266Z" fill="#2D264B"/>
<path fill-rule="evenodd" clip-rule="evenodd" d="M12.285 1.03051C12.0951 1.02108 11.9048 1.02108 11.7148 1.03051C10.9814 1.06692 10.3063 1.28001 9.5536 1.62929C8.82088 1.96931 7.96945 2.46089 6.89228 3.0828L6.83127 3.11803C5.7541 3.73993 4.90266 4.2315 4.24182 4.69604C3.56301 5.17323 3.04089 5.65139 2.64268 6.26829C2.53952 6.4281 2.44437 6.59292 2.35755 6.76215C2.0224 7.41546 1.86936 8.10672 1.79551 8.93318C1.72362 9.73775 1.72363 10.7209 1.72363 11.9647V12.0352C1.72363 13.279 1.72362 14.2621 1.79551 15.0667C1.86936 15.8931 2.0224 16.5844 2.35755 17.2377C2.44436 17.407 2.53952 17.5718 2.64268 17.7316C3.04089 18.3485 3.56301 18.8266 4.24182 19.3038C4.90263 19.7684 5.75403 20.2599 6.83115 20.8818L6.89226 20.9171C7.96944 21.539 8.82087 22.0306 9.5536 22.3706C10.3063 22.7199 10.9814 22.9329 11.7148 22.9694C11.9048 22.9788 12.0951 22.9788 12.285 22.9694C13.0184 22.9329 13.6936 22.7199 14.4462 22.3706C15.179 22.0306 16.0304 21.539 17.1076 20.9171L17.1686 20.8818C18.2457 20.2599 19.0972 19.7684 19.758 19.3038C20.4368 18.8266 20.9589 18.3485 21.3571 17.7316C21.4603 17.5718 21.5555 17.407 21.6423 17.2377C21.9774 16.5844 22.1305 15.8931 22.2043 15.0667C22.2762 14.2621 22.2762 13.279 22.2762 12.0352V11.9647C22.2762 10.7209 22.2762 9.73774 22.2043 8.93318C22.1305 8.10672 21.9774 7.41546 21.6423 6.76215C21.5555 6.59292 21.4603 6.42809 21.3571 6.26829C20.9589 5.65139 20.4368 5.17323 19.758 4.69604C19.0972 4.2315 18.2457 3.73993 17.1686 3.11803L17.1075 3.0828C16.0304 2.46089 15.1789 1.96931 14.4462 1.62929C13.6936 1.28001 13.0184 1.06692 12.285 1.03051ZM11.7892 2.52867C11.9296 2.52169 12.0702 2.52169 12.2107 2.52867C12.6835 2.55214 13.1629 2.6874 13.8148 2.98992C14.4797 3.29848 15.2737 3.75606 16.3881 4.39945C17.5024 5.04285 18.2957 5.50162 18.8954 5.92318C19.4833 6.33648 19.8402 6.68405 20.0969 7.08179C20.1731 7.1999 20.2435 7.32173 20.3076 7.44681C20.5237 7.86803 20.6463 8.35086 20.7103 9.06668C20.7755 9.7968 20.7762 10.7131 20.7762 11.9999C20.7762 13.2867 20.7755 14.2031 20.7103 14.9332C20.6463 15.649 20.5237 16.1318 20.3076 16.5531C20.2435 16.6781 20.1731 16.8 20.0969 16.9181C19.8402 17.3158 19.4833 17.6634 18.8954 18.0767C18.2957 18.4983 17.5024 18.957 16.3881 19.6004C15.2737 20.2438 14.4797 20.7014 13.8148 21.01C13.1629 21.3125 12.6835 21.4477 12.2107 21.4712C12.0702 21.4782 11.9296 21.4782 11.7892 21.4712C11.3163 21.4477 10.8369 21.3125 10.185 21.01C9.52009 20.7014 8.72616 20.2438 7.61177 19.6004C6.49738 18.957 5.70414 18.4983 5.10446 18.0767C4.51653 17.6634 4.15967 17.3158 3.90293 16.9181C3.82668 16.8 3.75635 16.6781 3.69218 16.5531C3.4761 16.1318 3.35352 15.649 3.28956 14.9332C3.22432 14.2031 3.22363 13.2867 3.22363 11.9999C3.22363 10.7131 3.22432 9.7968 3.28956 9.06668C3.35352 8.35086 3.4761 7.86803 3.69218 7.44681C3.75635 7.32173 3.82668 7.1999 3.90293 7.08179C4.15967 6.68405 4.51653 6.33648 5.10446 5.92318C5.70414 5.50162 6.49738 5.04285 7.61177 4.39945C8.72616 3.75606 9.52009 3.29848 10.185 2.98992C10.8369 2.6874 11.3163 2.55214 11.7892 2.52867Z" fill="#2D264B"/>
</svg>
