<svg width="24" height="24" viewBox="0 0 24 24" fill="none" xmlns="http://www.w3.org/2000/svg">
<path fill-rule="evenodd" clip-rule="evenodd" d="M9.91078 4.3139C7.42549 4.26895 4.99108 5.42363 3.46804 7.54904C3.24607 7.85879 3.02611 8.23981 2.64549 8.89909L2.6184 8.94602C2.61441 8.95293 2.61039 8.95988 2.60636 8.96684C2.56083 9.04558 2.51355 9.12732 2.47743 9.20703C2.13287 9.96749 2.37348 10.8655 3.05211 11.3518C3.12325 11.4027 3.20506 11.4499 3.28386 11.4953C3.29083 11.4993 3.29778 11.5033 3.3047 11.5073L9.47513 15.0698L5.85013 21.3485C5.64302 21.7072 5.76593 22.1659 6.12465 22.373C6.48337 22.5801 6.94206 22.4572 7.14917 22.0985L10.7742 15.8198L16.9446 19.3823C16.9515 19.3863 16.9585 19.3903 16.9655 19.3944C17.0442 19.4399 17.1259 19.4872 17.2056 19.5233C17.9661 19.8678 18.864 19.6272 19.3503 18.9486C19.4013 18.8775 19.4485 18.7956 19.4939 18.7168C19.4979 18.7098 19.5019 18.7029 19.5059 18.696L19.533 18.6491C19.9136 17.9898 20.1336 17.6088 20.2909 17.2617C21.3703 14.8795 21.1527 12.1933 19.8704 10.0632L19.9786 9.87596C21.5664 7.12578 20.6241 3.60913 17.8739 2.02131C15.1237 0.433496 11.6071 1.37578 10.0193 4.12596L9.91078 4.3139ZM11.548 4.51982C12.0282 4.63337 12.503 4.79425 12.9661 5.00405C13.3132 5.16132 13.6942 5.38131 14.3535 5.76196L16.3959 6.94115C17.0551 7.32176 17.4362 7.54172 17.7459 7.76368C18.1587 8.0595 18.5351 8.38993 18.8733 8.74862C19.7633 6.78183 19.0328 4.42247 17.1239 3.32035C15.2149 2.21817 12.8062 2.76537 11.548 4.51982ZM10.2713 5.83275C8.13385 5.66048 5.99414 6.59908 4.68731 8.42276C4.51387 8.66479 4.33266 8.97684 3.91744 9.69602C3.88715 9.74848 3.86914 9.77972 3.85594 9.80353C3.84754 9.81867 3.84331 9.82703 3.84331 9.82703C3.79485 9.93516 3.82896 10.0625 3.925 10.1319C3.925 10.1319 3.93284 10.137 3.94768 10.1459C3.97102 10.1599 4.00223 10.178 4.0547 10.2083L10.8746 14.1458L17.6946 18.0833C17.7471 18.1136 17.7783 18.1316 17.8021 18.1448C17.8163 18.1526 17.8231 18.1561 17.8252 18.1572C17.9339 18.2064 18.0616 18.1718 18.1311 18.0749C18.1286 18.0784 18.1312 18.0752 18.1445 18.053C18.1585 18.0297 18.1766 17.9985 18.2069 17.946C18.6221 17.2268 18.8017 16.9139 18.9246 16.6427C19.8521 14.5956 19.5927 12.2689 18.3694 10.5029C17.9706 9.92709 17.4692 9.41077 16.8722 8.98295C16.6302 8.80952 16.3181 8.62831 15.5989 8.21309L13.6504 7.08809C12.9312 6.67287 12.6182 6.49323 12.347 6.37035C11.6745 6.06565 10.9729 5.8893 10.2713 5.83275Z" fill="#2D264B"/>
</svg>
