<svg width="24" height="24" viewBox="0 0 24 24" fill="none" xmlns="http://www.w3.org/2000/svg">
<path d="M5.75 6C5.75 5.58579 5.41421 5.25 5 5.25C4.58579 5.25 4.25 5.58579 4.25 6V18C4.25 18.4142 4.58579 18.75 5 18.75C5.41421 18.75 5.75 18.4142 5.75 18L5.75 6Z" fill="#2D264B"/>
<path fill-rule="evenodd" clip-rule="evenodd" d="M15.4876 5.26403C14.8108 5.19165 14.1377 5.40679 13.4158 5.74553C12.6974 6.08265 11.8179 6.59929 10.7072 7.25181L10.6385 7.29216C9.52757 7.94478 8.64816 8.46139 8.00218 8.92578C7.3519 9.39325 6.83666 9.8763 6.56316 10.5013C6.14561 11.4556 6.14561 12.5444 6.56316 13.4987C6.83666 14.1237 7.3519 14.6067 8.00217 15.0742C8.64816 15.5386 9.52756 16.0552 10.6385 16.7078L10.7072 16.7482C11.818 17.4007 12.6974 17.9174 13.4158 18.2545C14.1377 18.5932 14.8108 18.8083 15.4876 18.736C16.5193 18.6256 17.4524 18.0755 18.0575 17.228C18.4528 16.6745 18.6054 15.9813 18.6779 15.1776C18.75 14.3774 18.75 13.3453 18.75 12.0389V11.961C18.75 10.6547 18.75 9.62257 18.6779 8.82239C18.6054 8.01875 18.4528 7.32545 18.0575 6.77195C17.4524 5.92453 16.5193 5.37436 15.4876 5.26403ZM11.4325 8.5654C12.5854 7.88816 13.4051 7.40751 14.053 7.10346C14.7049 6.79754 15.0695 6.72787 15.3281 6.75552C15.9282 6.81971 16.4775 7.14037 16.8368 7.64361C16.9944 7.86435 17.1182 8.22785 17.1839 8.95709C17.2493 9.68185 17.25 10.6461 17.25 12C17.25 13.3539 17.2493 14.3181 17.1839 15.0429C17.1182 15.7722 16.9944 16.1356 16.8368 16.3564C16.4775 16.8596 15.9282 17.1803 15.3281 17.2445C15.0695 17.2721 14.7049 17.2025 14.053 16.8965C13.4051 16.5925 12.5854 16.1118 11.4325 15.4346C10.2798 14.7574 9.46071 14.2754 8.87773 13.8563C8.29243 13.4355 8.04642 13.1466 7.93736 12.8973C7.68755 12.3264 7.68755 11.6736 7.93736 11.1026C8.04642 10.8534 8.29244 10.5645 8.87774 10.1437C9.46071 9.72464 10.2798 9.24259 11.4325 8.5654Z" fill="#2D264B"/>
</svg>
