<svg width="24" height="24" viewBox="0 0 24 24" fill="none" xmlns="http://www.w3.org/2000/svg">
<path d="M7.75008 9C7.75008 8.58579 7.41429 8.25 7.00008 8.25C6.58586 8.25 6.25008 8.58579 6.25008 9V10.25H5.00008C4.58586 10.25 4.25008 10.5858 4.25008 11C4.25008 11.4142 4.58586 11.75 5.00008 11.75H6.25008V13C6.25008 13.4142 6.58586 13.75 7.00008 13.75C7.41429 13.75 7.75008 13.4142 7.75008 13V11.75H9.00008C9.41429 11.75 9.75008 11.4142 9.75008 11C9.75008 10.5858 9.41429 10.25 9.00008 10.25H7.75008V9Z" fill="#2D264B"/>
<path fill-rule="evenodd" clip-rule="evenodd" d="M6.4897 4.25C3.13591 4.25 0.559666 7.22043 1.03396 10.5405L1.26486 12.1568L2.72114 17.2537C3.1433 18.7313 4.4938 19.75 6.03049 19.75C7.20161 19.75 8.29236 19.1545 8.92565 18.1694L9.30002 17.587C10.5635 15.6216 13.4366 15.6216 14.7001 17.587L14.9291 17.9433C15.653 19.0693 16.8998 19.75 18.2385 19.75C20.1963 19.75 21.8562 18.3104 22.1331 16.3722L22.9662 10.5405C23.4405 7.22043 20.8642 4.25 17.5105 4.25C16.7393 4.25 15.9768 4.41182 15.2722 4.725L14.7412 4.96099C13.7159 5.41669 13.3008 5.597 12.8826 5.68577C12.3007 5.80929 11.6994 5.80929 11.1175 5.68577C10.6994 5.597 10.2843 5.41669 9.25896 4.96099L8.72798 4.725C8.02333 4.41182 7.26081 4.25 6.4897 4.25ZM2.51889 10.3284C2.17368 7.91195 4.04873 5.75 6.4897 5.75C7.05093 5.75 7.60591 5.86778 8.11877 6.09571L8.73068 6.36768C9.6497 6.77625 10.2152 7.02764 10.8061 7.15307C11.5933 7.32019 12.4069 7.32019 13.1941 7.15307C13.785 7.02764 14.3505 6.77624 15.2695 6.36768L15.8814 6.09571C16.3942 5.86778 16.9492 5.75 17.5105 5.75C19.9514 5.75 21.8265 7.91195 21.4813 10.3284L20.6482 16.1601C20.4769 17.3593 19.4498 18.25 18.2385 18.25C17.4102 18.25 16.6388 17.8288 16.1909 17.1321L15.9619 16.7759C14.1079 13.8919 9.89222 13.8919 8.03825 16.7759L7.66388 17.3582C7.30659 17.914 6.69121 18.25 6.03049 18.25C5.16353 18.25 4.4016 17.6753 4.16342 16.8417L2.73529 11.8432L2.51889 10.3284Z" fill="#2D264B"/>
<path d="M18.0001 9C18.0001 9.55228 17.5524 10 17.0001 10C16.4479 10 16.0001 9.55228 16.0001 9C16.0001 8.44772 16.4479 8 17.0001 8C17.5524 8 18.0001 8.44772 18.0001 9Z" fill="#2D264B"/>
<path d="M16.0001 11C16.0001 11.5523 15.5524 12 15.0001 12C14.4479 12 14.0001 11.5523 14.0001 11C14.0001 10.4477 14.4479 10 15.0001 10C15.5524 10 16.0001 10.4477 16.0001 11Z" fill="#2D264B"/>
<path d="M20.0001 11C20.0001 11.5523 19.5524 12 19.0001 12C18.4479 12 18.0001 11.5523 18.0001 11C18.0001 10.4477 18.4479 10 19.0001 10C19.5524 10 20.0001 10.4477 20.0001 11Z" fill="#2D264B"/>
<path d="M18.0001 13C18.0001 13.5523 17.5524 14 17.0001 14C16.4479 14 16.0001 13.5523 16.0001 13C16.0001 12.4477 16.4479 12 17.0001 12C17.5524 12 18.0001 12.4477 18.0001 13Z" fill="#2D264B"/>
</svg>
