<svg width="24" height="24" viewBox="0 0 24 24" fill="none" xmlns="http://www.w3.org/2000/svg">
<path d="M13.7211 2.52925C13.4608 2.2689 13.0386 2.2689 12.7783 2.52925C12.5179 2.7896 12.5179 3.21171 12.7783 3.47206L13.6402 4.33398L11.8519 4.33397C10.1319 4.33375 9.1033 4.33362 8.2486 4.61133C6.52345 5.17187 5.17091 6.52441 4.61038 8.24955C4.33267 9.10425 4.3328 10.1329 4.33302 11.8528V12.1485C4.3328 13.8684 4.33267 14.8971 4.61038 15.7517C4.72416 16.1019 5.10026 16.2936 5.45043 16.1798C5.8006 16.066 5.99223 15.6899 5.87845 15.3397C5.67459 14.7123 5.66637 13.9138 5.66637 12.0007C5.66637 10.0875 5.67459 9.289 5.87845 8.66158C6.3071 7.34235 7.34139 6.30805 8.66063 5.87941C9.28805 5.67554 10.0865 5.66732 11.9997 5.66732H13.4083L12.5729 6.3635C12.2901 6.59921 12.2518 7.01959 12.4876 7.30244C12.7233 7.58529 13.1436 7.62351 13.4265 7.3878L14.8353 6.21382C15.2012 5.90883 15.4019 5.48116 15.4312 5.04534C15.4621 4.58563 15.3026 4.11073 14.9468 3.75494L13.7211 2.52925Z" fill="#2D264B"/>
<path d="M20.3915 7.80239C20.282 7.45086 19.9083 7.25465 19.5567 7.36415C19.2052 7.47364 19.009 7.84738 19.1185 8.19891C19.3254 8.86327 19.333 9.70709 19.333 11.6987C19.333 13.6902 19.3254 14.5341 19.1185 15.1984C18.6847 16.591 17.6428 17.6693 16.3308 18.114C15.7079 18.3251 14.9148 18.334 12.9997 18.334H11.6092L12.4711 17.4721C12.7315 17.2117 12.7315 16.7896 12.4711 16.5292C12.2108 16.2689 11.7886 16.2689 11.5283 16.5292L10.3026 17.7549C9.94681 18.1107 9.78732 18.5856 9.8182 19.0453C9.84748 19.4812 10.0482 19.9088 10.4141 20.2138L11.8229 21.3878C12.1058 21.6235 12.5261 21.5853 12.7618 21.3024C12.9976 21.0196 12.9593 20.5992 12.6765 20.3635L11.8411 19.6673L13.1514 19.6673C14.8675 19.6676 15.9003 19.6677 16.7588 19.3768C18.4911 18.7896 19.8361 17.3781 20.3915 15.595C20.6667 14.7115 20.6666 13.6469 20.6664 11.8438V11.5535C20.6666 9.75045 20.6667 8.68588 20.3915 7.80239Z" fill="#2D264B"/>
</svg>
