<svg width="24" height="24" viewBox="0 0 24 24" fill="none" xmlns="http://www.w3.org/2000/svg">
<path d="M14.25 3C14.25 2.58579 14.5858 2.25 15 2.25L16 2.25C19.1756 2.25 21.75 4.82436 21.75 8V9C21.75 9.41421 21.4142 9.75 21 9.75C20.5858 9.75 20.25 9.41421 20.25 9V8C20.25 5.65279 18.3472 3.75 16 3.75H15C14.5858 3.75 14.25 3.41421 14.25 3Z" fill="#2D264B"/>
<path d="M2.25 8C2.25 4.82436 4.82436 2.25 8 2.25H9C9.41421 2.25 9.75 2.58579 9.75 3C9.75 3.41421 9.41421 3.75 9 3.75H8C5.65279 3.75 3.75 5.65279 3.75 8V9C3.75 9.41421 3.41421 9.75 3 9.75C2.58579 9.75 2.25 9.41421 2.25 9V8Z" fill="#2D264B"/>
<path fill-rule="evenodd" clip-rule="evenodd" d="M7.95525 5.25C7.97013 5.25 7.98504 5.25 8 5.25C8.01496 5.25 8.02988 5.25 8.04475 5.25C8.47757 5.24995 8.8744 5.2499 9.19721 5.2933C9.55269 5.34109 9.92841 5.45354 10.2374 5.76256C10.5465 6.07159 10.6589 6.44731 10.7067 6.80279C10.7501 7.1256 10.7501 7.52244 10.75 7.95526C10.75 7.97013 10.75 7.98504 10.75 8C10.75 8.01496 10.75 8.02987 10.75 8.04474C10.7501 8.47756 10.7501 8.8744 10.7067 9.19721C10.6589 9.55269 10.5465 9.92841 10.2374 10.2374C9.92841 10.5465 9.55269 10.6589 9.19721 10.7067C8.8744 10.7501 8.47756 10.7501 8.04474 10.75C8.02987 10.75 8.01496 10.75 8 10.75C7.98504 10.75 7.97013 10.75 7.95526 10.75C7.52244 10.7501 7.1256 10.7501 6.80279 10.7067C6.44731 10.6589 6.07159 10.5465 5.76256 10.2374C5.45354 9.92841 5.34109 9.55269 5.2933 9.19721C5.2499 8.8744 5.24995 8.47757 5.25 8.04475C5.25 8.02988 5.25 8.01496 5.25 8C5.25 7.98504 5.25 7.97013 5.25 7.95525C5.24995 7.52244 5.2499 7.1256 5.2933 6.80279C5.34109 6.44731 5.45354 6.07159 5.76256 5.76256C6.07159 5.45354 6.44731 5.34109 6.80279 5.2933C7.1256 5.2499 7.52244 5.24995 7.95525 5.25ZM6.82335 6.82307C6.8235 6.82289 6.82332 6.82311 6.82335 6.82307ZM6.82567 6.82186L6.82335 6.82307L6.82186 6.82567C6.82085 6.8276 6.81923 6.83092 6.81716 6.83596C6.8082 6.85774 6.79291 6.90611 6.77992 7.00266C6.75159 7.21339 6.75 7.50739 6.75 8C6.75 8.49261 6.75159 8.78661 6.77992 8.99734C6.79291 9.09389 6.8082 9.14226 6.81716 9.16404C6.81923 9.16908 6.82085 9.1724 6.82186 9.17433L6.82324 9.17676L6.82567 9.17814C6.8276 9.17915 6.83092 9.18077 6.83596 9.18284C6.85774 9.1918 6.90611 9.20709 7.00266 9.22008C7.21339 9.24841 7.50739 9.25 8 9.25C8.49261 9.25 8.78661 9.24841 8.99734 9.22008C9.09389 9.20709 9.14226 9.1918 9.16404 9.18284C9.16908 9.18077 9.1724 9.17915 9.17433 9.17814L9.17676 9.17676L9.17814 9.17433C9.17915 9.1724 9.18077 9.16908 9.18284 9.16404C9.1918 9.14226 9.20709 9.09389 9.22008 8.99734C9.24841 8.78661 9.25 8.49261 9.25 8C9.25 7.50739 9.24841 7.21339 9.22008 7.00266C9.20709 6.90611 9.1918 6.85774 9.18284 6.83596C9.18077 6.83092 9.17915 6.8276 9.17814 6.82567L9.17676 6.82324L9.17433 6.82186C9.1724 6.82085 9.16908 6.81923 9.16404 6.81716C9.14226 6.8082 9.09389 6.79291 8.99734 6.77992C8.78661 6.75159 8.49261 6.75 8 6.75C7.50739 6.75 7.21339 6.75159 7.00266 6.77992C6.90611 6.79291 6.85774 6.8082 6.83596 6.81716C6.83092 6.81923 6.8276 6.82085 6.82567 6.82186ZM6.82324 9.17676C6.82297 9.17643 6.82284 9.17636 6.82324 9.17676ZM9.17676 9.17676C9.17672 9.17679 9.17694 9.17662 9.17676 9.17676Z" fill="#2D264B"/>
<path fill-rule="evenodd" clip-rule="evenodd" d="M7.95526 13.25C7.97013 13.25 7.98504 13.25 8 13.25C8.01496 13.25 8.02987 13.25 8.04474 13.25C8.47756 13.2499 8.8744 13.2499 9.19721 13.2933C9.55269 13.3411 9.92841 13.4535 10.2374 13.7626C10.5465 14.0716 10.6589 14.4473 10.7067 14.8028C10.7501 15.1256 10.7501 15.5224 10.75 15.9553V16.0447C10.7501 16.4776 10.7501 16.8744 10.7067 17.1972C10.6589 17.5527 10.5465 17.9284 10.2374 18.2374C9.92841 18.5465 9.55269 18.6589 9.19721 18.7067C8.8744 18.7501 8.47756 18.7501 8.04474 18.75H7.95526C7.52244 18.7501 7.1256 18.7501 6.80279 18.7067C6.44731 18.6589 6.07159 18.5465 5.76256 18.2374C5.45354 17.9284 5.34109 17.5527 5.2933 17.1972C5.2499 16.8744 5.24995 16.4776 5.25 16.0448V15.9552C5.24995 15.5224 5.2499 15.1256 5.2933 14.8028C5.34109 14.4473 5.45354 14.0716 5.76256 13.7626C6.07159 13.4535 6.44731 13.3411 6.80279 13.2933C7.1256 13.2499 7.52244 13.2499 7.95526 13.25ZM6.82567 14.8219L6.82324 14.8232L6.82186 14.8257C6.82085 14.8276 6.81923 14.8309 6.81716 14.836C6.8082 14.8577 6.79291 14.9061 6.77992 15.0027C6.75159 15.2134 6.75 15.5074 6.75 16C6.75 16.4926 6.75159 16.7866 6.77992 16.9973C6.79291 17.0939 6.8082 17.1423 6.81716 17.164C6.81923 17.1691 6.82085 17.1724 6.82186 17.1743L6.82324 17.1768L6.82567 17.1781C6.8276 17.1791 6.83092 17.1808 6.83596 17.1828C6.85774 17.1918 6.90611 17.2071 7.00266 17.2201C7.21339 17.2484 7.50739 17.25 8 17.25C8.49261 17.25 8.78661 17.2484 8.99734 17.2201C9.09389 17.2071 9.14226 17.1918 9.16404 17.1828C9.16605 17.182 9.16779 17.1813 9.16927 17.1806C9.17151 17.1796 9.17317 17.1787 9.17433 17.1781L9.17676 17.1768L9.17814 17.1743C9.17915 17.1724 9.18077 17.1691 9.18284 17.164C9.1918 17.1423 9.20709 17.0939 9.22008 16.9973C9.24841 16.7866 9.25 16.4926 9.25 16C9.25 15.5074 9.24841 15.2134 9.22008 15.0027C9.20709 14.9061 9.1918 14.8577 9.18284 14.836C9.18077 14.8309 9.17915 14.8276 9.17814 14.8257L9.17676 14.8232L9.17433 14.8219C9.1724 14.8209 9.16908 14.8192 9.16404 14.8172C9.14226 14.8082 9.09389 14.7929 8.99734 14.7799C8.78661 14.7516 8.49261 14.75 8 14.75C7.50739 14.75 7.21339 14.7516 7.00266 14.7799C6.90611 14.7929 6.85774 14.8082 6.83596 14.8172C6.83092 14.8192 6.8276 14.8209 6.82567 14.8219ZM6.82324 17.1768C6.82297 17.1764 6.82284 17.1764 6.82324 17.1768C6.82369 17.1772 6.82358 17.177 6.82324 17.1768Z" fill="#2D264B"/>
<path fill-rule="evenodd" clip-rule="evenodd" d="M15.9553 13.25H16.0447C16.4776 13.2499 16.8744 13.2499 17.1972 13.2933C17.5527 13.3411 17.9284 13.4535 18.2374 13.7626C18.5465 14.0716 18.6589 14.4473 18.7067 14.8028C18.7501 15.1256 18.7501 15.5224 18.75 15.9553V16.0447C18.7501 16.4776 18.7501 16.8744 18.7067 17.1972C18.6589 17.5527 18.5465 17.9284 18.2374 18.2374C17.9284 18.5465 17.5527 18.6589 17.1972 18.7067C16.8744 18.7501 16.4776 18.7501 16.0447 18.75H15.9553C15.5224 18.7501 15.1256 18.7501 14.8028 18.7067C14.4473 18.6589 14.0716 18.5465 13.7626 18.2374C13.4535 17.9284 13.3411 17.5527 13.2933 17.1972C13.2499 16.8744 13.2499 16.4776 13.25 16.0447V15.9553C13.2499 15.5224 13.2499 15.1256 13.2933 14.8028C13.3411 14.4473 13.4535 14.0716 13.7626 13.7626C14.0716 13.4535 14.4473 13.3411 14.8028 13.2933C15.1256 13.2499 15.5224 13.2499 15.9553 13.25ZM14.8233 14.8232C14.8236 14.8229 14.8237 14.8228 14.8233 14.8232C14.8228 14.8236 14.823 14.8235 14.8233 14.8232ZM14.8257 14.8219L14.8233 14.8232L14.8219 14.8257C14.8209 14.8276 14.8192 14.8309 14.8172 14.836C14.8082 14.8577 14.7929 14.9061 14.7799 15.0027C14.7516 15.2134 14.75 15.5074 14.75 16C14.75 16.4926 14.7516 16.7866 14.7799 16.9973C14.7929 17.0939 14.8082 17.1423 14.8172 17.164C14.8192 17.1691 14.8209 17.1724 14.8219 17.1743L14.8232 17.1768L14.8257 17.1781C14.8276 17.1791 14.8309 17.1808 14.836 17.1828C14.8577 17.1918 14.9061 17.2071 15.0027 17.2201C15.2134 17.2484 15.5074 17.25 16 17.25C16.4926 17.25 16.7866 17.2484 16.9973 17.2201C17.0939 17.2071 17.1423 17.1918 17.164 17.1828C17.165 17.1824 17.166 17.182 17.1668 17.1817C17.1703 17.1801 17.1728 17.1789 17.1743 17.1781L17.1768 17.1768L17.1781 17.1743C17.1791 17.1724 17.1808 17.1691 17.1828 17.164C17.1918 17.1423 17.2071 17.0939 17.2201 16.9973C17.2484 16.7866 17.25 16.4926 17.25 16C17.25 15.5074 17.2484 15.2134 17.2201 15.0027C17.2071 14.9061 17.1918 14.8577 17.1828 14.836C17.1808 14.8309 17.1791 14.8276 17.1781 14.8257L17.1768 14.8232L17.1743 14.8219C17.1724 14.8209 17.1691 14.8192 17.164 14.8172C17.1423 14.8082 17.0939 14.7929 16.9973 14.7799C16.7866 14.7516 16.4926 14.75 16 14.75C15.5074 14.75 15.2134 14.7516 15.0027 14.7799C14.9061 14.7929 14.8577 14.8082 14.836 14.8172C14.8309 14.8192 14.8276 14.8209 14.8257 14.8219Z" fill="#2D264B"/>
<path d="M3 14.25C3.41421 14.25 3.75 14.5858 3.75 15V16C3.75 18.3472 5.65279 20.25 8 20.25H9C9.41422 20.25 9.75 20.5858 9.75 21C9.75 21.4142 9.41422 21.75 9 21.75H8C4.82436 21.75 2.25 19.1756 2.25 16L2.25 15C2.25 14.5858 2.58579 14.25 3 14.25Z" fill="#2D264B"/>
<path d="M21 14.25C21.4142 14.25 21.75 14.5858 21.75 15V16C21.75 19.1756 19.1756 21.75 16 21.75H15C14.5858 21.75 14.25 21.4142 14.25 21C14.25 20.5858 14.5858 20.25 15 20.25H16C18.3472 20.25 20.25 18.3472 20.25 16V15C20.25 14.5858 20.5858 14.25 21 14.25Z" fill="#2D264B"/>
</svg>
