<svg width="24" height="24" viewBox="0 0 24 24" fill="none" xmlns="http://www.w3.org/2000/svg">
<path fill-rule="evenodd" clip-rule="evenodd" d="M7.70757 2.33449C4.52097 1.72336 1.72335 4.52099 2.33449 7.70758L4.08914 16.8566C4.47056 18.8455 5.97601 20.436 7.93218 20.9413C11.8378 21.9502 15.4072 18.3282 14.2635 14.4391C14.2319 14.3317 14.3317 14.2319 14.4391 14.2635C18.3282 15.4072 21.9503 11.8378 20.9414 7.93216C20.436 5.97598 18.8455 4.47054 16.8566 4.08911L7.70757 2.33449ZM3.80764 7.42505C3.3962 5.27969 5.27968 3.3962 7.42504 3.80764L16.5741 5.56227C17.989 5.83362 19.1275 6.9079 19.489 8.30733C20.2116 11.1045 17.6147 13.6339 14.8623 12.8245C13.6159 12.4579 12.4579 13.6159 12.8244 14.8623C13.6339 17.6147 11.1045 20.2116 8.30735 19.489C6.90792 19.1275 5.83364 17.989 5.56229 16.5741L3.80764 7.42505Z" fill="#2D264B"/>
</svg>
