<svg width="24" height="24" viewBox="0 0 24 24" fill="none" xmlns="http://www.w3.org/2000/svg">
<path fill-rule="evenodd" clip-rule="evenodd" d="M15.7993 5.26404C13.9781 2.57865 10.0217 2.57865 8.20057 5.26406L2.97194 12.9741C1.83533 14.6502 1.77516 16.8394 2.80106 18.5799C4.84931 22.055 9.93446 22.0178 11.8757 18.4591C11.9294 18.3608 12.0705 18.3608 12.1241 18.4591C14.0654 22.0178 19.1505 22.055 21.1988 18.5799C22.2247 16.8394 22.1645 14.6502 21.0279 12.9741L15.7993 5.26404ZM9.44203 6.10595C10.6681 4.29802 13.3317 4.29801 14.5578 6.10595L19.7865 13.816C20.5951 15.0084 20.6405 16.5731 19.9066 17.8182C18.4396 20.307 14.8148 20.2593 13.4409 17.7407C12.8187 16.6002 11.1811 16.6002 10.5589 17.7407C9.18503 20.2593 5.56022 20.307 4.09329 17.8182C3.35937 16.5731 3.40479 15.0084 4.21339 13.816L9.44203 6.10595Z" fill="#2D264B"/>
</svg>
