<svg width="24" height="24" viewBox="0 0 24 24" fill="none" xmlns="http://www.w3.org/2000/svg">
<g clip-path="url(#clip0_311_3274)">
<path fill-rule="evenodd" clip-rule="evenodd" d="M12.75 1C12.75 0.585786 12.4142 0.25 12 0.25C11.5858 0.25 11.25 0.585786 11.25 1V4.25038C9.88371 4.25376 8.98624 4.28348 8.22315 4.53143C6.47263 5.1002 5.1002 6.47263 4.53143 8.22315C4.28348 8.98624 4.25376 9.88371 4.25038 11.25H1C0.585786 11.25 0.25 11.5858 0.25 12C0.25 12.4142 0.585786 12.75 1 12.75H4.25038C4.25376 14.1163 4.28348 15.0138 4.53143 15.7768C5.1002 17.5274 6.47263 18.8998 8.22315 19.4686C8.98624 19.7165 9.88371 19.7462 11.25 19.7496V23C11.25 23.4142 11.5858 23.75 12 23.75C12.4142 23.75 12.75 23.4142 12.75 23V19.7496C14.1163 19.7462 15.0138 19.7165 15.7768 19.4686C17.5274 18.8998 18.8998 17.5274 19.4686 15.7768C19.7165 15.0138 19.7462 14.1163 19.7496 12.75H23C23.4142 12.75 23.75 12.4142 23.75 12C23.75 11.5858 23.4142 11.25 23 11.25H19.7496C19.7462 9.88371 19.7165 8.98624 19.4686 8.22315C18.8998 6.47263 17.5274 5.1002 15.7768 4.53143C15.0138 4.28348 14.1163 4.25376 12.75 4.25038V1ZM8.68668 5.95801C9.21174 5.78741 9.86224 5.75642 11.25 5.75107V6C11.25 6.41421 11.5858 6.75 12 6.75C12.4142 6.75 12.75 6.41421 12.75 6V5.75107C14.1378 5.75642 14.7883 5.78741 15.3133 5.95801C16.6072 6.37841 17.6216 7.39282 18.042 8.68668C18.2126 9.21174 18.2436 9.86224 18.2489 11.25H18C17.5858 11.25 17.25 11.5858 17.25 12C17.25 12.4142 17.5858 12.75 18 12.75H18.2489C18.2436 14.1378 18.2126 14.7883 18.042 15.3133C17.6216 16.6072 16.6072 17.6216 15.3133 18.042C14.7883 18.2126 14.1378 18.2436 12.75 18.2489V18C12.75 17.5858 12.4142 17.25 12 17.25C11.5858 17.25 11.25 17.5858 11.25 18V18.2489C9.86224 18.2436 9.21174 18.2126 8.68668 18.042C7.39282 17.6216 6.37841 16.6072 5.95801 15.3133C5.78741 14.7883 5.75642 14.1378 5.75107 12.75H6C6.41421 12.75 6.75 12.4142 6.75 12C6.75 11.5858 6.41421 11.25 6 11.25H5.75107C5.75642 9.86224 5.78741 9.21174 5.95801 8.68668C6.37841 7.39282 7.39282 6.37841 8.68668 5.95801Z" fill="#2D264B"/>
<path fill-rule="evenodd" clip-rule="evenodd" d="M9.5 12C9.5 13.3807 10.6193 14.5 12 14.5C13.3807 14.5 14.5 13.3807 14.5 12C14.5 10.6193 13.3807 9.5 12 9.5C10.6193 9.5 9.5 10.6193 9.5 12ZM11 12C11 12.5523 11.4477 13 12 13C12.5523 13 13 12.5523 13 12C13 11.4477 12.5523 11 12 11C11.4477 11 11 11.4477 11 12Z" fill="#2D264B"/>
</g>
<defs>
<clipPath id="clip0_311_3274">
<rect width="24" height="24" fill="white"/>
</clipPath>
</defs>
</svg>
