<svg width="24" height="24" viewBox="0 0 24 24" fill="none" xmlns="http://www.w3.org/2000/svg">
<path fill-rule="evenodd" clip-rule="evenodd" d="M17.4635 2.37373C16.3214 2.24999 14.8818 2.24999 13.0452 2.25H10.9548C9.11821 2.24999 7.67861 2.24999 6.53648 2.37373C5.37094 2.50001 4.42656 2.76232 3.62023 3.34815C3.13209 3.70281 2.70281 4.13209 2.34815 4.62024C2.19354 4.83304 2.06012 5.05734 1.94538 5.29546C1.57515 6.06379 1.41014 6.95506 1.32976 8.01904C1.24999 9.07487 1.25 10.3708 1.25 11.971V12C1.25 12.4142 1.58579 12.75 2 12.75C2.41421 12.75 2.75 12.4142 2.75 12C2.75 10.3648 2.75049 9.12493 2.8255 8.13204C2.85746 7.70891 2.9023 7.34361 2.96271 7.02337L4.43919 8.49985C6.07145 10.1321 7.35062 11.4113 8.48288 12.2752C9.64181 13.1594 10.7345 13.6789 12 13.6789C13.2655 13.6789 14.3582 13.1594 15.5171 12.2752C16.6494 11.4113 17.9285 10.1322 19.5608 8.4999L21.0373 7.02337C21.0977 7.34361 21.1425 7.70891 21.1745 8.13204C21.2495 9.12493 21.25 10.3648 21.25 12C21.25 13.8916 21.249 15.25 21.135 16.302C21.0225 17.3399 20.8074 17.9901 20.4383 18.4981C20.1762 18.8589 19.8589 19.1762 19.4981 19.4383C18.9901 19.8074 18.3399 20.0225 17.302 20.135C16.25 20.249 14.8916 20.25 13 20.25H11C10.5858 20.25 10.25 20.5858 10.25 21C10.25 21.4142 10.5858 21.75 11 21.75H13.0453C14.8818 21.75 16.3214 21.75 17.4635 21.6263C18.6291 21.5 19.5734 21.2377 20.3798 20.6518C20.8679 20.2972 21.2972 19.8679 21.6518 19.3798C22.2377 18.5734 22.5 17.6291 22.6263 16.4635C22.75 15.3214 22.75 13.8818 22.75 12.0453V11.971C22.75 10.3708 22.75 9.07488 22.6702 8.01904C22.5899 6.95506 22.4248 6.06379 22.0546 5.29546C21.9399 5.05734 21.8065 4.83304 21.6518 4.62024C21.2972 4.13209 20.8679 3.70281 20.3798 3.34815C19.5734 2.76232 18.6291 2.50001 17.4635 2.37373ZM5.45926 7.3986L3.56205 5.50139C3.82412 5.14081 4.14128 4.82369 4.50191 4.56168C5.00992 4.19259 5.66013 3.97745 6.69804 3.865C7.74999 3.75103 9.10843 3.75 11 3.75H13C14.8916 3.75 16.25 3.75103 17.302 3.865C18.3399 3.97745 18.9901 4.19259 19.4981 4.56168C19.8587 4.82369 20.1759 5.14081 20.4379 5.50139L18.5407 7.3986C16.8591 9.08026 15.6501 10.287 14.6072 11.0827C13.5817 11.8651 12.8056 12.1789 12 12.1789C11.1944 12.1789 10.4183 11.8651 9.39275 11.0827C8.34994 10.287 7.14092 9.08026 5.45926 7.3986Z" fill="#2D264B"/>
<path d="M1 15.25C0.585786 15.25 0.25 15.5858 0.25 16C0.25 16.4142 0.585786 16.75 1 16.75H4C4.41421 16.75 4.75 16.4142 4.75 16C4.75 15.5858 4.41421 15.25 4 15.25H1Z" fill="#2D264B"/>
<path d="M1 18.25C0.585786 18.25 0.25 18.5858 0.25 19C0.25 19.4142 0.585786 19.75 1 19.75H7C7.41421 19.75 7.75 19.4142 7.75 19C7.75 18.5858 7.41421 18.25 7 18.25H1Z" fill="#2D264B"/>
</svg>
