<svg width="24" height="24" viewBox="0 0 24 24" fill="none" xmlns="http://www.w3.org/2000/svg">
<path fill-rule="evenodd" clip-rule="evenodd" d="M15.9533 3.30905C15.1833 3.24999 14.2335 3.25 13.0252 3.25H11.3391C10.1308 3.25 9.18099 3.24999 8.41097 3.30905C7.62503 3.36933 6.9703 3.49408 6.36174 3.77306C5.35631 4.23397 4.50514 4.97509 3.91029 5.90756C3.74645 6.1644 3.61237 6.43586 3.49887 6.72997C3.13791 7.66527 2.96665 8.89886 2.71885 10.6838L2.70322 10.7963C2.64624 11.2066 2.93264 11.5853 3.34292 11.6423C3.75319 11.6993 4.13198 11.4129 4.18896 11.0026C4.34593 9.87248 4.46282 9.04325 4.59118 8.39891C6.18003 9.98769 7.43259 11.2353 8.54367 12.0831C9.7026 12.9673 10.7953 13.4868 12.0608 13.4868C13.3262 13.4868 14.419 12.9673 15.5779 12.0831C16.7102 11.2192 17.9893 9.94001 19.6216 8.30773L19.7314 8.19795C19.8758 8.86552 20.0011 9.74812 20.1753 11.0026C20.3952 12.5859 20.5529 13.7262 20.5999 14.6241C20.6466 15.5146 20.5782 16.089 20.3949 16.5552C20.0371 17.4652 19.3764 18.2241 18.5242 18.7037C18.0876 18.9494 17.5281 19.0961 16.6397 19.1724C15.7439 19.2494 14.5927 19.25 12.9942 19.25H11.37C10.9558 19.25 10.62 19.5858 10.62 20C10.62 20.4142 10.9558 20.75 11.37 20.75H13.0302C14.585 20.75 15.8005 20.75 16.7681 20.6669C17.7504 20.5825 18.5546 20.4079 19.26 20.0109C20.4129 19.362 21.3068 18.3353 21.7909 17.1041C22.0871 16.3508 22.1495 15.5303 22.0979 14.5457C22.0471 13.5759 21.8799 12.3719 21.666 10.8318L21.6416 10.6563C21.3755 8.73927 21.1973 7.4555 20.7633 6.48414C20.6729 6.282 20.5709 6.09084 20.454 5.90756C19.8591 4.97509 19.0079 4.23397 18.0025 3.77306C17.394 3.49408 16.7392 3.36933 15.9533 3.30905ZM5.10902 6.82302C5.13036 6.78589 5.1523 6.74969 5.17489 6.71429C5.61456 6.02507 6.24368 5.47729 6.98683 5.13661C7.37044 4.96075 7.82905 4.85809 8.52568 4.80466C9.23166 4.75051 10.124 4.75 11.37 4.75H12.9942C14.2402 4.75 15.1326 4.75051 15.8386 4.80466C16.5352 4.85809 16.9938 4.96075 17.3774 5.13661C18.0996 5.46767 18.7141 5.99432 19.1517 6.65629L18.6015 7.20647C16.9199 8.88813 15.7108 10.0949 14.668 10.8905C13.6425 11.673 12.8664 11.9868 12.0608 11.9868C11.2552 11.9868 10.479 11.673 9.45354 10.8905C8.41073 10.0949 7.20171 8.88813 5.52005 7.20647L5.51062 7.19704L5.10902 6.82302Z" fill="#2D264B"/>
<path d="M2 14.25C1.58579 14.25 1.25 14.5858 1.25 15C1.25 15.4142 1.58579 15.75 2 15.75H5C5.41421 15.75 5.75 15.4142 5.75 15C5.75 14.5858 5.41421 14.25 5 14.25H2Z" fill="#2D264B"/>
<path d="M2 17.25C1.58579 17.25 1.25 17.5858 1.25 18C1.25 18.4142 1.58579 18.75 2 18.75H8C8.41421 18.75 8.75 18.4142 8.75 18C8.75 17.5858 8.41421 17.25 8 17.25H2Z" fill="#2D264B"/>
</svg>
