<svg width="24" height="24" viewBox="0 0 24 24" fill="none" xmlns="http://www.w3.org/2000/svg">
<path d="M12.75 1C12.75 0.585786 12.4142 0.25 12 0.25C11.5858 0.25 11.25 0.585786 11.25 1V3C11.25 3.41421 11.5858 3.75 12 3.75C12.4142 3.75 12.75 3.41421 12.75 3V1Z" fill="#2D264B"/>
<path d="M4.75216 2.69151C4.45926 2.39862 3.98439 2.39862 3.6915 2.69151C3.3986 2.9844 3.3986 3.45928 3.6915 3.75217L5.10571 5.16638C5.3986 5.45928 5.87348 5.45928 6.16637 5.16638C6.45926 4.87349 6.45926 4.39862 6.16637 4.10572L4.75216 2.69151Z" fill="#2D264B"/>
<path d="M20.3085 3.75217C20.6014 3.45928 20.6014 2.9844 20.3085 2.69151C20.0156 2.39862 19.5407 2.39862 19.2478 2.69151L17.8336 4.10572C17.5407 4.39862 17.5407 4.87349 17.8336 5.16638C18.1265 5.45928 18.6014 5.45928 18.8943 5.16638L20.3085 3.75217Z" fill="#2D264B"/>
<path d="M7.75 11C7.75 8.65279 9.65279 6.75 12 6.75C14.3472 6.75 16.25 8.65279 16.25 11C16.25 11.4142 16.5858 11.75 17 11.75C17.4142 11.75 17.75 11.4142 17.75 11C17.75 7.82436 15.1756 5.25 12 5.25C8.82436 5.25 6.25 7.82436 6.25 11C6.25 11.4142 6.58579 11.75 7 11.75C7.41421 11.75 7.75 11.4142 7.75 11Z" fill="#2D264B"/>
<path d="M2 10.25C1.58579 10.25 1.25 10.5858 1.25 11C1.25 11.4142 1.58579 11.75 2 11.75H4C4.41421 11.75 4.75 11.4142 4.75 11C4.75 10.5858 4.41421 10.25 4 10.25H2Z" fill="#2D264B"/>
<path d="M20 10.25C19.5858 10.25 19.25 10.5858 19.25 11C19.25 11.4142 19.5858 11.75 20 11.75H22C22.4142 11.75 22.75 11.4142 22.75 11C22.75 10.5858 22.4142 10.25 22 10.25H20Z" fill="#2D264B"/>
<path d="M4 13.25C3.58579 13.25 3.25 13.5858 3.25 14C3.25 14.4142 3.58579 14.75 4 14.75H20C20.4142 14.75 20.75 14.4142 20.75 14C20.75 13.5858 20.4142 13.25 20 13.25H4Z" fill="#2D264B"/>
<path d="M7 17.25C6.58579 17.25 6.25 17.5858 6.25 18C6.25 18.4142 6.58579 18.75 7 18.75H17C17.4142 18.75 17.75 18.4142 17.75 18C17.75 17.5858 17.4142 17.25 17 17.25H7Z" fill="#2D264B"/>
<path d="M10 21.25C9.58579 21.25 9.25 21.5858 9.25 22C9.25 22.4142 9.58579 22.75 10 22.75H14C14.4142 22.75 14.75 22.4142 14.75 22C14.75 21.5858 14.4142 21.25 14 21.25H10Z" fill="#2D264B"/>
</svg>
