<svg width="24" height="24" viewBox="0 0 24 24" fill="none" xmlns="http://www.w3.org/2000/svg">
<path fill-rule="evenodd" clip-rule="evenodd" d="M17.5556 3.25C20.4244 3.25 22.75 5.57563 22.75 8.44444C22.75 9.27618 22.273 10.0342 21.5232 10.3941L21.0358 10.6281C19.8848 11.1806 19.8848 12.8194 21.0358 13.3719L21.5232 13.6059C22.273 13.9658 22.75 14.7238 22.75 15.5556C22.75 18.4244 20.4244 20.75 17.5556 20.75H6.44444C3.57563 20.75 1.25 18.4244 1.25 15.5556C1.25 14.7238 1.72698 13.9658 2.4768 13.6059L2.96417 13.3719C4.1152 12.8194 4.1152 11.1806 2.96417 10.6281L2.4768 10.3941C1.72698 10.0342 1.25 9.27618 1.25 8.44444C1.25 5.57563 3.57563 3.25 6.44444 3.25H17.5556ZM21.25 8.44444C21.25 6.40406 19.5959 4.75 17.5556 4.75H6.44444C4.40406 4.75 2.75 6.40406 2.75 8.44444C2.75 8.69929 2.89615 8.93156 3.1259 9.04184L3.61327 9.27578C5.89883 10.3728 5.89883 13.6272 3.61327 14.7242L3.1259 14.9582C2.89615 15.0684 2.75 15.3007 2.75 15.5556C2.75 17.5959 4.40406 19.25 6.44444 19.25H17.5556C19.5959 19.25 21.25 17.5959 21.25 15.5556C21.25 15.3007 21.1038 15.0684 20.8741 14.9582L20.3867 14.7242C18.1012 13.6272 18.1012 10.3728 20.3867 9.27578L20.8741 9.04184C21.1038 8.93156 21.25 8.69929 21.25 8.44444Z" fill="#2D264B"/>
<path d="M9.25 4.75C9.25 4.75 9.56626 4.75 9.98047 4.75C10.3947 4.75 10.75 4.75 10.75 4.75V5.06667C10.75 5.48088 10.4142 5.81667 10 5.81667C9.58579 5.81667 9.25 5.48088 9.25 5.06667V4.75Z" fill="#2D264B"/>
<path d="M9.25 8.26667C9.25 7.85245 9.58579 7.51667 10 7.51667C10.4142 7.51667 10.75 7.85245 10.75 8.26667V10.4C10.75 10.8142 10.4142 11.15 10 11.15C9.58579 11.15 9.25 10.8142 9.25 10.4V8.26667Z" fill="#2D264B"/>
<path d="M9.25 13.6C9.25 13.1858 9.58579 12.85 10 12.85C10.4142 12.85 10.75 13.1858 10.75 13.6V15.7333C10.75 16.1475 10.4142 16.4833 10 16.4833C9.58579 16.4833 9.25 16.1475 9.25 15.7333V13.6Z" fill="#2D264B"/>
<path d="M9.25 18.9333C9.25 18.5191 9.58579 18.1833 10 18.1833C10.4142 18.1833 10.75 18.5191 10.75 18.9333V19.25H10H9.25V18.9333Z" fill="#2D264B"/>
</svg>
