<svg width="24" height="24" viewBox="0 0 24 24" fill="none" xmlns="http://www.w3.org/2000/svg">
<path fill-rule="evenodd" clip-rule="evenodd" d="M13.8845 3.25C12.986 3.24997 12.2368 3.24995 11.642 3.32991C11.0142 3.41432 10.4474 3.59999 9.99196 4.05546C9.53649 4.51093 9.35082 5.07773 9.26642 5.70552C9.22297 6.0287 9.20313 6.39748 9.19408 6.81102C9.08326 6.41132 8.97859 6.06284 8.86543 5.76832C8.68846 5.30771 8.46215 4.8981 8.08328 4.58019C7.83754 4.37399 7.55762 4.21237 7.25617 4.10266C6.79142 3.9335 6.32353 3.94232 5.83614 4.01936C5.37088 4.09291 4.8109 4.24297 4.13979 4.42281L4.10131 4.43312C1.33025 5.17562 -0.314217 8.02393 0.428286 10.795C0.643554 11.5984 1.30047 12.2071 2.1179 12.3607L2.64921 12.4605C3.90401 12.6963 4.32819 14.2793 3.35938 15.1109L2.83442 15.5615C2.27343 16.043 2.03829 16.8036 2.22964 17.5177C2.27225 17.6767 2.33511 17.8296 2.41667 17.9726L2.60402 18.3011C3.4677 19.8153 5.07699 20.75 6.82015 20.75L10.0002 20.75L9.93651 20.75H18.4921C21.3609 20.75 23.6865 18.4244 23.6865 15.5556C23.6865 14.7238 23.2095 13.9658 22.4597 13.6059L21.9723 13.3719C20.8213 12.8194 20.8213 11.1806 21.9723 10.6281L22.4597 10.3941C23.2095 10.0342 23.6865 9.27618 23.6865 8.44445C23.6865 5.57564 21.3609 3.25 18.4921 3.25L13.8845 3.25ZM10.6866 12.5897C10.6867 12.5979 10.6867 12.6062 10.6865 12.6144L10.676 12.7251L10.6865 13C10.6865 13.4142 10.3507 13.75 9.93651 13.75C9.52229 13.75 9.18651 13.4142 9.18651 13V12.6924L8.38481 9.57951L7.92563 7.86584C7.73283 7.14629 7.60244 6.66344 7.46522 6.30629C7.33282 5.96169 7.22329 5.81668 7.1191 5.72925C7.0074 5.63553 6.88016 5.56207 6.74314 5.51219C6.61533 5.46567 6.43499 5.44332 6.07035 5.50096C5.69244 5.5607 5.20909 5.68921 4.48954 5.88201C2.51868 6.4101 1.34908 8.4359 1.87717 10.4068C1.94313 10.6529 2.14442 10.8395 2.39489 10.8865L2.92619 10.9863C5.41782 11.4545 6.2601 14.5979 4.33636 16.2491L3.81139 16.6997C3.68815 16.8055 3.63649 16.9726 3.67853 17.1295C3.68789 17.1644 3.7017 17.198 3.71962 17.2294L3.90697 17.5579C4.50373 18.6041 5.6157 19.25 6.82015 19.25H18.4921C20.5324 19.25 22.1865 17.5959 22.1865 15.5556C22.1865 15.3007 22.0404 15.0684 21.8106 14.9582L21.3232 14.7242C19.0377 13.6272 19.0377 10.3729 21.3232 9.27578L21.8106 9.04184C22.0404 8.93156 22.1865 8.6993 22.1865 8.44445C22.1865 6.40406 20.5324 4.75 18.4921 4.75H13.9365C12.9725 4.75 12.3249 4.7516 11.8419 4.81654C11.3804 4.87858 11.1829 4.9858 11.0526 5.11612C10.9223 5.24644 10.8151 5.44393 10.753 5.9054C10.6881 6.38843 10.6865 7.03599 10.6865 8V12.5815C10.6866 12.5842 10.6866 12.587 10.6866 12.5897Z" fill="#2D264B"/>
<path d="M10.6865 8C10.6865 7.58579 10.3507 7.25 9.93646 7.25C9.52225 7.25 9.18646 7.58579 9.18646 8V9.2C9.18646 9.61421 9.52225 9.95 9.93646 9.95C10.3507 9.95 10.6865 9.61421 10.6865 9.2L10.6865 8Z" fill="#2D264B"/>
<path d="M10.6865 13C10.6865 12.5858 10.3507 13.75 9.93651 13.75C9.52229 13.75 9.18646 12.3858 9.18646 12.8V15.2C9.18646 15.6142 9.52225 15.95 9.93646 15.95C10.3507 15.95 10.6865 15.6142 10.6865 15.2L10.6865 13Z" fill="#2D264B"/>
<path d="M10.6865 18.8C10.6865 18.3858 10.3507 18.05 9.93646 18.05C9.52225 18.05 9.18646 18.3858 9.18646 18.8V20C9.18646 20.4142 9.52229 20.75 9.93651 20.75C10.3507 20.75 10.6865 20.4142 10.6865 20V18.8Z" fill="#2D264B"/>
</svg>
