<svg width="24" height="24" viewBox="0 0 24 24" fill="none" xmlns="http://www.w3.org/2000/svg">
<path d="M12.75 13C12.75 12.5858 12.4142 12.25 12 12.25C11.5858 12.25 11.25 12.5858 11.25 13V17C11.25 17.4142 11.5858 17.75 12 17.75C12.4142 17.75 12.75 17.4142 12.75 17V13Z" fill="#2D264B"/>
<path fill-rule="evenodd" clip-rule="evenodd" d="M12 1.25C8.8244 1.25 6.25003 3.82436 6.25003 7V7.52281L6.22319 7.53142C4.47267 8.1002 3.10024 9.47263 2.53146 11.2232C2.24958 12.0907 2.24975 13.1319 2.25002 14.8382V15.1618C2.24975 16.8681 2.24958 17.9093 2.53146 18.7768C3.10024 20.5274 4.47267 21.8998 6.22319 22.4686C7.0907 22.7505 8.13191 22.7503 9.83817 22.75H14.1619C15.8682 22.7503 16.9094 22.7505 17.7769 22.4686C19.5274 21.8998 20.8998 20.5274 21.4686 18.7768C21.7505 17.9093 21.7503 16.8681 21.75 15.1619V14.8381C21.7503 13.1319 21.7505 12.0907 21.4686 11.2232C20.8998 9.47263 19.5274 8.1002 17.7769 7.53142C16.9094 7.24955 15.8682 7.24971 14.1619 7.24998L9.91608 7.25C9.03688 7.24997 8.33514 7.24994 7.75003 7.28306V7C7.75003 4.65279 9.65282 2.75 12 2.75C12.9578 2.75 13.8397 3.06595 14.55 3.59962C14.8812 3.84843 15.3513 3.78167 15.6001 3.45051C15.8489 3.11935 15.7822 2.64919 15.451 2.40038C14.4899 1.67823 13.2939 1.25 12 1.25ZM14 8.75C15.9197 8.75 16.7016 8.75925 17.3134 8.95801C18.6072 9.37841 19.6216 10.3928 20.042 11.6867C20.2408 12.2984 20.25 13.0803 20.25 15C20.25 16.9197 20.2408 17.7016 20.042 18.3133C19.6216 19.6072 18.6072 20.6216 17.3134 21.042C16.7016 21.2407 15.9197 21.25 14 21.25H10C8.08038 21.25 7.29842 21.2407 6.68671 21.042C5.39285 20.6216 4.37844 19.6072 3.95804 18.3133C3.75929 17.7016 3.75003 16.9197 3.75003 15C3.75003 13.0803 3.75929 12.2984 3.95804 11.6867C4.37844 10.3928 5.39285 9.37841 6.68671 8.95801C6.81688 8.91571 6.95938 8.88113 7.12463 8.85329C7.72223 8.75262 8.52818 8.75 10 8.75H14Z" fill="#2D264B"/>
</svg>
