<svg width="24" height="24" viewBox="0 0 24 24" fill="none" xmlns="http://www.w3.org/2000/svg">
<path fill-rule="evenodd" clip-rule="evenodd" d="M12.7695 3.59916C11.9345 3.35578 11.1322 3.68905 10.3627 4.17451C9.5898 4.66207 8.65177 5.43519 7.47816 6.40248L6.43797 7.25978C6.23851 7.42417 6.15785 7.49038 6.07791 7.54995C5.40104 8.05434 4.5893 8.34574 3.74617 8.387C3.6466 8.39187 3.54225 8.39208 3.28377 8.39208L3.2422 8.39207C3.01938 8.39201 2.8477 8.39196 2.69421 8.40914C1.41758 8.55199 0.409921 9.55964 0.267071 10.8363C0.249896 10.9898 0.249945 11.1614 0.250007 11.3843V12.6142C0.249945 12.837 0.249896 13.0087 0.267071 13.1622C0.409921 14.4388 1.41758 15.4465 2.69421 15.5893C2.84771 15.6065 3.01939 15.6064 3.24221 15.6064L3.28377 15.6064C3.54225 15.6064 3.6466 15.6066 3.74617 15.6114C4.5893 15.6527 5.40104 15.9441 6.07791 16.4485C6.15785 16.5081 6.23851 16.5743 6.43797 16.7387L7.47814 17.596C8.65176 18.5632 9.5898 19.3364 10.3627 19.8239C11.1322 20.3094 11.9345 20.6427 12.7695 20.3993C13.0467 20.3185 13.3094 20.1946 13.548 20.0321C14.2669 19.5425 14.5199 18.7114 14.6347 17.8088C14.75 16.9023 14.75 15.6868 14.75 14.1659V9.83255C14.75 8.31168 14.75 7.09611 14.6347 6.1896C14.5199 5.287 14.2669 4.45593 13.548 3.96634C13.3094 3.80385 13.0467 3.67994 12.7695 3.59916ZM8.38797 7.59643C9.61585 6.58445 10.4806 5.87365 11.163 5.44316C11.8584 5.00447 12.1694 4.98666 12.3498 5.03924C12.4758 5.07596 12.5952 5.13228 12.7036 5.20614C12.8589 5.31192 13.043 5.56322 13.1467 6.37887C13.2485 7.17926 13.25 8.29865 13.25 9.88981V14.1086C13.25 15.6998 13.2485 16.8192 13.1467 17.6196C13.043 18.4352 12.8589 18.6865 12.7036 18.7923C12.5952 18.8662 12.4758 18.9225 12.3498 18.9592C12.1694 19.0118 11.8584 18.994 11.163 18.5553C10.4806 18.1248 9.61585 17.414 8.38797 16.402L7.37636 15.5683C7.19728 15.4207 7.0871 15.3299 6.9742 15.2457C6.05843 14.5633 4.96019 14.1691 3.81949 14.1132C3.67886 14.1064 3.53609 14.1064 3.30402 14.1064H3.28377C2.99997 14.1064 2.91982 14.1052 2.86101 14.0986C2.28072 14.0337 1.8227 13.5757 1.75777 12.9954C1.75119 12.9366 1.75002 12.8564 1.75002 12.5726V11.4258C1.75002 11.142 1.75119 11.0619 1.75777 11.0031C1.8227 10.4228 2.28072 9.96476 2.86101 9.89983C2.91982 9.89325 2.99997 9.89208 3.28377 9.89208H3.30403C3.53607 9.89209 3.67887 9.89209 3.81949 9.88521C4.96019 9.82938 6.05843 9.43513 6.9742 8.75272C7.08711 8.66859 7.19728 8.57778 7.37636 8.43018L8.38797 7.59643Z" fill="#2D264B"/>
<path d="M18.6517 9.59021C18.3588 9.29732 17.8839 9.29732 17.591 9.59021C17.2981 9.88311 17.2981 10.358 17.591 10.6509L19.182 12.2419L17.591 13.8329C17.2981 14.1257 17.2981 14.6006 17.591 14.8935C17.8839 15.1864 18.3588 15.1864 18.6517 14.8935L20.2427 13.3025L21.8337 14.8935C22.1266 15.1864 22.6014 15.1864 22.8943 14.8935C23.1872 14.6006 23.1872 14.1257 22.8943 13.8329L21.3034 12.2419L22.8943 10.6509C23.1872 10.358 23.1872 9.88311 22.8943 9.59021C22.6014 9.29732 22.1266 9.29732 21.8337 9.59021L20.2427 11.1812L18.6517 9.59021Z" fill="#2D264B"/>
</svg>
