<svg width="24" height="24" viewBox="0 0 24 24" fill="none" xmlns="http://www.w3.org/2000/svg">
<path d="M7 1.25C6.58579 1.25 6.25 1.58579 6.25 2C6.25 2.41421 6.58579 2.75 7 2.75H15C15.4142 2.75 15.75 2.41421 15.75 2C15.75 1.58579 15.4142 1.25 15 1.25H7Z" fill="#2D264B"/>
<path d="M11.75 8C11.75 7.58579 11.4142 7.25 11 7.25C10.5858 7.25 10.25 7.58579 10.25 8V11.5C10.25 12.7426 11.2574 13.75 12.5 13.75H14C14.4142 13.75 14.75 13.4142 14.75 13C14.75 12.5858 14.4142 12.25 14 12.25H12.5C12.0858 12.25 11.75 11.9142 11.75 11.5V8Z" fill="#2D264B"/>
<path fill-rule="evenodd" clip-rule="evenodd" d="M14.3451 3.32061C13.4807 3.24999 12.4053 3.25 11.0336 3.25H10.9664C9.59472 3.25 8.51929 3.24999 7.65494 3.32061C6.7748 3.39252 6.04769 3.54138 5.38955 3.87671C4.30762 4.42798 3.42798 5.30762 2.87671 6.38955C2.54138 7.04768 2.39252 7.77479 2.32061 8.65494C2.24999 9.51929 2.25 10.5947 2.25 11.9664V12.0336C2.25 13.4053 2.24999 14.4807 2.32061 15.3451C2.39252 16.2252 2.54138 16.9523 2.87671 17.6104C3.42798 18.6924 4.30762 19.572 5.38955 20.1233C6.04769 20.4586 6.77479 20.6075 7.65494 20.6794C8.51927 20.75 9.59469 20.75 10.9664 20.75H11.0336C12.4053 20.75 13.4807 20.75 14.3451 20.6794C15.2252 20.6075 15.9523 20.4586 16.6104 20.1233C17.6924 19.572 18.572 18.6924 19.1233 17.6104C19.4586 16.9523 19.6075 16.2252 19.6794 15.3451C19.7372 14.6372 19.7477 13.7878 19.7496 12.75H21C21.4142 12.75 21.75 12.4142 21.75 12C21.75 11.5858 21.4142 11.25 21 11.25H19.7496C19.7477 10.2122 19.7372 9.36279 19.6794 8.65494C19.6075 7.77479 19.4586 7.04768 19.1233 6.38955C18.572 5.30762 17.6924 4.42798 16.6104 3.87671C15.9523 3.54138 15.2252 3.39252 14.3451 3.32061ZM6.07054 5.21322C6.48197 5.00359 6.9897 4.87996 7.77708 4.81563C8.57322 4.75058 9.58749 4.75 11 4.75C12.4125 4.75 13.4268 4.75058 14.2229 4.81563C15.0103 4.87996 15.518 5.00359 15.9295 5.21322C16.7291 5.62068 17.3793 6.27085 17.7868 7.07054C17.9964 7.48197 18.12 7.9897 18.1844 8.77708C18.2494 9.57322 18.25 10.5875 18.25 12C18.25 13.4125 18.2494 14.4268 18.1844 15.2229C18.12 16.0103 17.9964 16.518 17.7868 16.9295C17.3793 17.7291 16.7291 18.3793 15.9295 18.7868C15.518 18.9964 15.0103 19.12 14.2229 19.1844C13.4268 19.2494 12.4125 19.25 11 19.25C9.58749 19.25 8.57322 19.2494 7.77708 19.1844C6.9897 19.12 6.48197 18.9964 6.07054 18.7868C5.27085 18.3793 4.62068 17.7291 4.21322 16.9295C4.00359 16.518 3.87996 16.0103 3.81563 15.2229C3.75058 14.4268 3.75 13.4125 3.75 12C3.75 10.5875 3.75058 9.57322 3.81563 8.77708C3.87996 7.9897 4.00359 7.48197 4.21322 7.07054C4.62068 6.27085 5.27085 5.62068 6.07054 5.21322Z" fill="#2D264B"/>
<path d="M7 21.25C6.58579 21.25 6.25 21.5858 6.25 22C6.25 22.4142 6.58579 22.75 7 22.75H15C15.4142 22.75 15.75 22.4142 15.75 22C15.75 21.5858 15.4142 21.25 15 21.25H7Z" fill="#2D264B"/>
</svg>
