<svg width="24" height="24" viewBox="0 0 24 24" fill="none" xmlns="http://www.w3.org/2000/svg">
<path fill-rule="evenodd" clip-rule="evenodd" d="M12 0.25C9.07158 0.25 6.65445 2.43916 6.29587 5.27023C4.93038 5.32678 3.89484 5.48844 3.0295 5.96618C1.92423 6.57637 1.05148 7.53279 0.544423 8.68668C0.528807 8.72221 0.513539 8.75794 0.498622 8.79384C0.193494 9.52824 0.112173 10.3305 0.136994 11.2951C0.161425 12.2444 0.292444 13.4235 0.459944 14.931L0.467342 14.9976C0.604202 16.2294 0.711726 17.1971 0.859659 17.9736C1.01059 18.7659 1.21303 19.4163 1.56929 19.9991C2.15735 20.961 3.01524 21.7289 4.03626 22.2071C4.65481 22.4968 5.32359 22.6262 6.12766 22.6887C6.91577 22.75 7.88945 22.75 9.12877 22.75H14.8712C16.1105 22.75 17.0842 22.75 17.8723 22.6887C18.6764 22.6262 19.3452 22.4968 19.9637 22.2071C20.9848 21.7289 21.8427 20.961 22.4307 19.9991C22.787 19.4163 22.9894 18.7659 23.1403 17.9736C23.2883 17.1971 23.3958 16.2295 23.5326 14.9978L23.5401 14.9311C23.7076 13.4237 23.8386 12.2444 23.863 11.2951C23.8878 10.3305 23.8065 9.52824 23.5014 8.79384C23.462 8.69901 23.4201 8.60546 23.3759 8.51325C22.8597 7.437 22.0199 6.54553 20.9705 5.96618C20.1017 5.48655 19.0696 5.33464 17.7055 5.28111C17.3517 2.44477 14.9322 0.25 12 0.25ZM8.35347 5.24722C8.16951 5.24625 7.99058 5.24531 7.81688 5.24492C8.17317 3.25792 9.91049 1.75 12 1.75C14.0921 1.75 15.8312 3.2617 16.1845 5.25239C15.7705 5.25 15.3249 5.25 14.8453 5.25H9.16034C8.88176 5.25 8.61262 5.24858 8.35347 5.24722ZM7.01425 6.74986C7.41428 6.74227 7.8399 6.74454 8.31928 6.74711C8.58195 6.74851 8.86076 6.75 9.16034 6.75H14.8397C15.6641 6.75 16.3695 6.75003 16.986 6.76157C18.7218 6.79406 19.599 6.92243 20.2455 7.27935C20.863 7.62024 21.3823 8.10733 21.7609 8.69313L18.4194 12.0346C16.7377 13.7163 15.5287 14.923 14.4859 15.7187C13.4604 16.5011 12.6843 16.815 11.8787 16.815C11.0731 16.815 10.2969 16.5011 9.27142 15.7187C8.22861 14.9231 7.01959 13.7163 5.33793 12.0346L2.14649 8.84318C2.53095 8.1904 3.085 7.64894 3.75447 7.27935C4.40153 6.92212 5.29212 6.78258 7.01425 6.74986ZM22.3301 10.2453C22.3627 10.5315 22.3737 10.8623 22.3635 11.2565C22.3409 12.1345 22.2176 13.2503 22.0453 14.8006C21.9042 16.0705 21.8026 16.9804 21.6668 17.6929C21.5328 18.3964 21.3751 18.8499 21.1509 19.2167C20.7163 19.9277 20.0822 20.4953 19.3275 20.8487C18.9382 21.0311 18.47 21.1377 17.7561 21.1932C17.0329 21.2495 16.1173 21.25 14.8397 21.25H9.16034C7.88266 21.25 6.96714 21.2495 6.24393 21.1932C5.53001 21.1377 5.06183 21.0311 4.67251 20.8487C3.91785 20.4953 3.28375 19.9277 2.8491 19.2167C2.62487 18.8499 2.46716 18.3964 2.33316 17.6929C2.19741 16.9804 2.09579 16.0705 1.95469 14.8006C1.78244 13.2503 1.65909 12.1345 1.6365 11.2565C1.62888 10.9604 1.63316 10.7001 1.64958 10.4676L4.31784 13.1359C5.95011 14.7681 7.22929 16.0473 8.36155 16.9112C9.52048 17.7955 10.6132 18.315 11.8787 18.315C13.1441 18.315 14.2369 17.7955 15.3958 16.9112C16.528 16.0473 17.8072 14.7681 19.4395 13.1359L22.3301 10.2453Z" fill="#2D264B"/>
</svg>
