<svg width="24" height="24" viewBox="0 0 24 24" fill="none" xmlns="http://www.w3.org/2000/svg">
<path fill-rule="evenodd" clip-rule="evenodd" d="M12.0004 1C9.37708 1 7.25044 3.12665 7.25044 5.75V6.18575C6.86979 6.26088 6.51795 6.36816 6.18005 6.52306C5.17462 6.98397 4.32345 7.72509 3.7286 8.65756C3.36856 9.22195 3.15492 9.8533 2.9871 10.6235C2.82267 11.378 2.69201 12.3188 2.52579 13.5156L2.51659 13.5819C2.30268 15.122 2.13546 16.3259 2.08467 17.2957C2.03311 18.2803 2.09549 19.1008 2.39169 19.8541C2.87581 21.0853 3.7697 22.112 4.92261 22.7609C5.628 23.1579 6.43214 23.3325 7.41449 23.4169C8.38202 23.5 9.59752 23.5 11.1524 23.5H12.8485C14.4034 23.5 15.6189 23.5 16.5864 23.4169C17.5687 23.3325 18.3729 23.1579 19.0783 22.7609C20.2312 22.112 21.1251 21.0853 21.6092 19.8541C21.9054 19.1008 21.9678 18.2803 21.9162 17.2957C21.8654 16.3259 21.6982 15.1219 21.4843 13.5818L21.4751 13.5156C21.3089 12.3188 21.1782 11.378 21.0138 10.6235C20.846 9.8533 20.6323 9.22195 20.2723 8.65756C19.6774 7.72509 18.8263 6.98397 17.8208 6.52306C17.4829 6.36816 17.1311 6.26088 16.7504 6.18575V5.75C16.7504 3.12665 14.6238 1 12.0004 1ZM8.00044 11.5C7.58622 11.5 7.25044 11.1642 7.25044 10.75V7.72563C7.08756 7.77076 6.94155 7.82407 6.80514 7.88661C6.06199 8.22728 5.43287 8.77507 4.99319 9.46428C4.76623 9.82006 4.60146 10.2602 4.4527 10.9428C4.30195 11.6347 4.17868 12.5185 4.00727 13.7526C3.78737 15.3359 3.62965 16.4762 3.58262 17.3741C3.53598 18.2646 3.60432 18.839 3.78765 19.3052C4.14548 20.2153 4.80618 20.9741 5.65833 21.4537C6.09492 21.6994 6.65442 21.8461 7.54286 21.9224C8.43868 21.9994 9.58984 22 11.1883 22H12.8125C14.411 22 15.5622 21.9994 16.458 21.9224C17.3465 21.8461 17.906 21.6994 18.3425 21.4537C19.1947 20.9741 19.8554 20.2153 20.2132 19.3052C20.3966 18.839 20.4649 18.2646 20.4183 17.3741C20.3712 16.4762 20.2135 15.3359 19.9936 13.7526C19.8222 12.5185 19.6989 11.6347 19.5482 10.9428C19.3994 10.2602 19.2346 9.82006 19.0077 9.46428C18.568 8.77507 17.9389 8.22729 17.1957 7.88661C17.0593 7.82407 16.9133 7.77076 16.7504 7.72563V10.75C16.7504 11.1642 16.4146 11.5 16.0004 11.5C15.5862 11.5 15.2504 11.1642 15.2504 10.75V7.52999C14.6166 7.50051 13.8343 7.5 12.8125 7.5H11.1883C10.1666 7.5 9.38429 7.50051 8.75044 7.52999V10.75C8.75044 11.1642 8.41465 11.5 8.00044 11.5ZM12.8578 6C13.7977 5.99999 14.5826 5.99999 15.2504 6.02865V5.75C15.2504 3.95507 13.7954 2.5 12.0004 2.5C10.2055 2.5 8.75044 3.95507 8.75044 5.75V6.02865C9.41832 5.99999 10.2032 5.99999 11.143 6H12.8578Z" fill="#2D264B"/>
</svg>
