<svg width="24" height="24" viewBox="0 0 24 24" fill="none" xmlns="http://www.w3.org/2000/svg">
<path d="M10.0002 13.2502C9.58596 13.2502 9.25018 13.586 9.25018 14.0002C9.25018 14.4144 9.58596 14.7502 10.0002 14.7502H16.0002C16.4144 14.7502 16.7502 14.4144 16.7502 14.0002C16.7502 13.586 16.4144 13.2502 16.0002 13.2502H10.0002Z" fill="#2D264B"/>
<path fill-rule="evenodd" clip-rule="evenodd" d="M1.72778 1.81828C1.62732 1.41643 1.22012 1.17211 0.818276 1.27257C0.41643 1.37303 0.172109 1.78023 0.272571 2.18208L1.32431 6.38905L2.30312 10.4731C2.71932 12.2096 3.04692 13.5765 3.43566 14.6384C3.83442 15.7277 4.32343 16.5733 5.108 17.2218C5.17571 17.2777 5.24469 17.3321 5.3149 17.3849C6.12835 17.9968 7.06466 18.2752 8.21686 18.4091C9.3401 18.5397 10.7457 18.5397 12.5314 18.5396H13.1248C14.6699 18.5397 15.8862 18.5397 16.866 18.4406C17.8696 18.3391 18.6953 18.1285 19.4385 17.6632C19.7909 17.4425 20.1185 17.1842 20.4152 16.8929C21.0409 16.2787 21.4382 15.5247 21.7708 14.5724C22.0955 13.6427 22.3789 12.4599 22.739 10.9575L22.7599 10.8702C22.9771 9.96427 23.1561 9.2176 23.2252 8.61272C23.297 7.98492 23.2677 7.38716 22.9543 6.84137C22.8203 6.60794 22.6527 6.39545 22.4569 6.2107C21.9992 5.77874 21.4247 5.61094 20.7975 5.53441C20.1931 5.46066 19.4254 5.46068 18.4937 5.4607L2.63839 5.4607L1.72778 1.81828ZM3.75071 10.0771L3.0038 6.9607H18.4451C19.4376 6.9607 20.1131 6.96203 20.6158 7.02336C21.1061 7.08319 21.3071 7.18812 21.4274 7.30161C21.5164 7.38559 21.5926 7.48217 21.6535 7.58828C21.7358 7.73168 21.791 7.95163 21.7349 8.44237C21.6774 8.9455 21.5212 9.60275 21.2899 10.5679C20.9182 12.119 20.6515 13.228 20.3546 14.0778C20.0628 14.9134 19.7636 15.4306 19.3644 15.8225C19.145 16.0378 18.903 16.2287 18.6424 16.3918C18.1683 16.6887 17.5956 16.8591 16.7151 16.9482C15.8194 17.0388 14.6789 17.0396 13.0838 17.0396H12.5791C10.7353 17.0396 9.41669 17.0385 8.39003 16.9192C7.38234 16.802 6.73808 16.5784 6.21654 16.1862C6.16465 16.1471 6.11366 16.1069 6.06362 16.0656C5.56059 15.6498 5.19299 15.0754 4.84424 14.1228C4.48892 13.1522 4.18045 11.8702 3.75071 10.0771Z" fill="#2D264B"/>
<path d="M10.4739 20.9475C10.4739 21.5289 10.0026 22.0002 9.42122 22.0002C8.83987 22.0002 8.36859 21.5289 8.36859 20.9475C8.36859 20.3662 8.83987 19.8949 9.42122 19.8949C10.0026 19.8949 10.4739 20.3662 10.4739 20.9475Z" fill="#2D264B"/>
<path d="M16.7896 20.9475C16.7896 21.5289 16.3184 22.0002 15.737 22.0002C15.1557 22.0002 14.6844 21.5289 14.6844 20.9475C14.6844 20.3662 15.1557 19.8949 15.737 19.8949C16.3184 19.8949 16.7896 20.3662 16.7896 20.9475Z" fill="#2D264B"/>
</svg>
