<svg width="24" height="24" viewBox="0 0 24 24" fill="none" xmlns="http://www.w3.org/2000/svg">
<path fill-rule="evenodd" clip-rule="evenodd" d="M1.72778 1.81826C1.62731 1.41642 1.2201 1.1721 0.818259 1.27257C0.416415 1.37305 0.172104 1.78025 0.272575 2.1821L1.32442 6.38907L2.30323 10.4731C2.71942 12.2096 3.04702 13.5765 3.43576 14.6384C3.83453 15.7277 4.32353 16.5733 5.10811 17.2218C5.17582 17.2777 5.2448 17.3321 5.315 17.3849C6.12846 17.9968 7.06477 18.2752 8.21696 18.4091C9.34019 18.5397 10.7458 18.5397 12.5314 18.5396H13.125C14.67 18.5397 15.8863 18.5397 16.8661 18.4406C17.8697 18.3391 18.6954 18.1285 19.4386 17.6632C19.791 17.4425 20.1186 17.1842 20.4153 16.8929C21.1141 16.2069 21.5287 15.3455 21.8856 14.2285C22.1482 13.4069 22.3927 12.4017 22.6869 11.1751L22.76 10.8702C22.9772 9.96426 23.1562 9.2176 23.2253 8.61271C23.2971 7.98492 23.2678 7.38716 22.9544 6.84137C22.8204 6.60794 22.6528 6.39544 22.457 6.21069C21.9993 5.77874 21.4248 5.61094 20.7976 5.53441C20.1932 5.46066 19.4255 5.46068 18.4938 5.4607L2.63848 5.4607L1.72778 1.81826ZM3.75081 10.0771L3.0039 6.9607H18.4452C19.4377 6.9607 20.1132 6.96202 20.6159 7.02336C21.1062 7.08319 21.3072 7.18812 21.4275 7.30161C21.5165 7.38559 21.5927 7.48217 21.6536 7.58828C21.7359 7.73168 21.7911 7.95163 21.735 8.44237C21.684 8.88825 21.5556 9.45517 21.366 10.2502L14.0003 10.2502C13.5861 10.2502 13.2503 10.586 13.2503 11.0002C13.2503 11.4144 13.5861 11.7502 14.0003 11.7502L21.0046 11.7502C20.8656 12.3167 20.739 12.8119 20.6139 13.2502H17.0003C16.5861 13.2502 16.2503 13.586 16.2503 14.0002C16.2503 14.4144 16.5861 14.7502 17.0003 14.7502H20.0871C19.8741 15.2129 19.6439 15.5482 19.3645 15.8225C19.1451 16.0378 18.9031 16.2287 18.6425 16.3918C18.1684 16.6887 17.5957 16.8591 16.7152 16.9482C15.8195 17.0388 14.679 17.0396 13.0839 17.0396H12.5792C10.7354 17.0396 9.4168 17.0385 8.39013 16.9192C7.38244 16.802 6.73818 16.5784 6.21664 16.1862C6.16475 16.1471 6.11376 16.1069 6.06372 16.0656C5.56069 15.6498 5.19309 15.0754 4.84434 14.1228C4.48902 13.1522 4.18056 11.8702 3.75081 10.0771Z" fill="#2D264B"/>
<path d="M10.474 20.9475C10.474 21.5289 10.0027 22.0002 9.42132 22.0002C8.83997 22.0002 8.36869 21.5289 8.36869 20.9475C8.36869 20.3662 8.83997 19.8949 9.42132 19.8949C10.0027 19.8949 10.474 20.3662 10.474 20.9475Z" fill="#2D264B"/>
<path d="M16.7897 20.9475C16.7897 21.5289 16.3185 22.0002 15.7371 22.0002C15.1558 22.0002 14.6845 21.5289 14.6845 20.9475C14.6845 20.3662 15.1558 19.8949 15.7371 19.8949C16.3185 19.8949 16.7897 20.3662 16.7897 20.9475Z" fill="#2D264B"/>
</svg>
