<svg width="24" height="24" viewBox="0 0 24 24" fill="none" xmlns="http://www.w3.org/2000/svg">
<path fill-rule="evenodd" clip-rule="evenodd" d="M12 7.75C9.37665 7.75 7.25 9.87665 7.25 12.5C7.25 15.1234 9.37665 17.25 12 17.25C14.6234 17.25 16.75 15.1234 16.75 12.5C16.75 9.87665 14.6234 7.75 12 7.75ZM8.75 12.5C8.75 10.7051 10.2051 9.25 12 9.25C13.7949 9.25 15.25 10.7051 15.25 12.5C15.25 14.2949 13.7949 15.75 12 15.75C10.2051 15.75 8.75 14.2949 8.75 12.5Z" fill="#2D264B"/>
<path fill-rule="evenodd" clip-rule="evenodd" d="M9.25 0.25C7.86929 0.25 6.75 1.36929 6.75 2.75V2.92857C6.75 3.38223 6.38223 3.75 5.92857 3.75C3.34467 3.75 1.25 5.84467 1.25 8.42857V13.0394C1.24999 14.6427 1.24999 15.8997 1.34547 16.9039C1.44279 17.9274 1.64457 18.7655 2.09732 19.5044C2.57144 20.2781 3.22194 20.9286 3.99563 21.4027C4.73445 21.8554 5.57256 22.0572 6.59611 22.1545C7.60028 22.25 8.85722 22.25 10.4606 22.25H13.5394C15.1427 22.25 16.3997 22.25 17.4039 22.1545C18.4274 22.0572 19.2655 21.8554 20.0044 21.4027C20.7781 20.9286 21.4286 20.2781 21.9027 19.5044C22.3554 18.7655 22.5572 17.9274 22.6545 16.9039C22.75 15.8997 22.75 14.6428 22.75 13.0394V8.42857C22.75 5.84467 20.6553 3.75 18.0714 3.75C17.6178 3.75 17.25 3.38223 17.25 2.92857V2.75C17.25 1.36929 16.1307 0.25 14.75 0.25H9.25ZM8.25 2.75C8.25 2.19772 8.69772 1.75 9.25 1.75H14.75C15.3023 1.75 15.75 2.19772 15.75 2.75V2.92857C15.75 4.21066 16.7893 5.25 18.0714 5.25C19.8269 5.25 21.25 6.6731 21.25 8.42857V13C21.25 14.6512 21.2492 15.837 21.1613 16.7619C21.0744 17.6757 20.9078 18.2571 20.6237 18.7206C20.2733 19.2925 19.7925 19.7733 19.2206 20.1237C18.7571 20.4078 18.1757 20.5744 17.2619 20.6613C16.337 20.7492 15.1512 20.75 13.5 20.75H10.5C8.84876 20.75 7.663 20.7492 6.73809 20.6613C5.82434 20.5744 5.24291 20.4078 4.77938 20.1237C4.20752 19.7733 3.72672 19.2925 3.37628 18.7206C3.09223 18.2571 2.92561 17.6757 2.83873 16.7619C2.75079 15.837 2.75 14.6512 2.75 13V8.42857C2.75 6.6731 4.1731 5.25 5.92857 5.25C7.21066 5.25 8.25 4.21066 8.25 2.92857V2.75Z" fill="#2D264B"/>
<path d="M17 8.5C17 9.05228 17.4477 9.5 18 9.5C18.5523 9.5 19 9.05228 19 8.5C19 7.94772 18.5523 7.5 18 7.5C17.4477 7.5 17 7.94772 17 8.5Z" fill="#2D264B"/>
</svg>
