<svg width="24" height="24" viewBox="0 0 24 24" fill="none" xmlns="http://www.w3.org/2000/svg">
<path fill-rule="evenodd" clip-rule="evenodd" d="M12 8.25019C9.37665 8.25019 7.25 10.3768 7.25 13.0002C7.25 15.6235 9.37665 17.7502 12 17.7502C14.6234 17.7502 16.75 15.6235 16.75 13.0002C16.75 10.3768 14.6234 8.25019 12 8.25019ZM8.75 13.0002C8.75 11.2053 10.2051 9.75019 12 9.75019C13.7949 9.75019 15.25 11.2053 15.25 13.0002C15.25 14.7951 13.7949 16.2502 12 16.2502C10.2051 16.2502 8.75 14.7951 8.75 13.0002Z" fill="#2D264B"/>
<path fill-rule="evenodd" clip-rule="evenodd" d="M15.6501 2.2413C13.5685 0.390922 10.4315 0.390922 8.34986 2.2413L8.1341 2.43308C7.54195 2.95944 6.77721 3.25019 5.98493 3.25019C3.3699 3.25019 1.25 5.37009 1.25 7.98513V13.0454C1.24999 14.882 1.24999 16.3216 1.37373 17.4637C1.50001 18.6293 1.76232 19.5736 2.34815 20.38C2.70281 20.8681 3.13209 21.2974 3.62024 21.652C4.42656 22.2379 5.37094 22.5002 6.53648 22.6265C7.67859 22.7502 9.11817 22.7502 10.9547 22.7502H13.0453C14.8818 22.7502 16.3214 22.7502 17.4635 22.6265C18.6291 22.5002 19.5734 22.2379 20.3798 21.652C20.8679 21.2974 21.2972 20.8681 21.6518 20.38C22.2377 19.5736 22.5 18.6293 22.6263 17.4637C22.75 16.3216 22.75 14.882 22.75 13.0455V7.98512C22.75 5.37009 20.6301 3.25019 18.0151 3.25019C17.2228 3.25019 16.4581 2.95944 15.8659 2.43308L15.6501 2.2413ZM9.3464 3.36241C10.8597 2.01722 13.1403 2.01722 14.6536 3.36241L14.8694 3.55419C15.7361 4.32462 16.8554 4.75019 18.0151 4.75019C19.8017 4.75019 21.25 6.19852 21.25 7.98512V13.0002C21.25 14.8918 21.249 16.2502 21.135 17.3021C21.0225 18.3401 20.8074 18.9903 20.4383 19.4983C20.1762 19.8591 19.8589 20.1764 19.4981 20.4385C18.9901 20.8076 18.3399 21.0227 17.302 21.1352C16.25 21.2492 14.8916 21.2502 13 21.2502H11C9.10843 21.2502 7.74999 21.2492 6.69804 21.1352C5.66013 21.0227 5.00992 20.8076 4.50191 20.4385C4.14111 20.1764 3.82382 19.8591 3.56168 19.4983C3.19259 18.9903 2.97745 18.3401 2.865 17.3021C2.75103 16.2502 2.75 14.8918 2.75 13.0002V7.98513C2.75 6.19852 4.19833 4.75019 5.98493 4.75019C7.14458 4.75019 8.26392 4.32462 9.13065 3.55419L9.3464 3.36241Z" fill="#2D264B"/>
<path d="M17 8.00024C17 8.55253 17.4477 9.00024 18 9.00024C18.5523 9.00024 19 8.55253 19 8.00024C19 7.44796 18.5523 7.00024 18 7.00024C17.4477 7.00024 17 7.44796 17 8.00024Z" fill="#2D264B"/>
</svg>
