<svg width="24" height="24" viewBox="0 0 24 24" fill="none" xmlns="http://www.w3.org/2000/svg">
<path d="M6.82076 9.8698C6.74883 9.46188 6.35984 9.1895 5.95192 9.26143C5.544 9.33336 5.27162 9.72235 5.34355 10.1303L6.38544 16.0391C6.45737 16.447 6.84636 16.7194 7.25428 16.6475C7.6622 16.5756 7.93458 16.1866 7.86265 15.7786L6.82076 9.8698Z" fill="#2D264B"/>
<path fill-rule="evenodd" clip-rule="evenodd" d="M9.91183 2.25002C8.15783 2.24975 7.0919 2.24958 6.23869 2.52146C4.14018 3.19015 2.60802 4.99881 2.29342 7.1787C2.16551 8.06499 2.34091 9.11639 2.62953 10.8465L3.53048 16.2521C3.63937 16.9057 3.70589 17.305 3.81115 17.6552C4.46489 19.8302 6.33759 21.4166 8.59046 21.7038C8.95318 21.7501 9.35794 21.7501 10.0204 21.75H10.1438C10.8063 21.7501 11.2111 21.7501 11.5738 21.7038C13.8267 21.4166 15.6994 19.8302 16.3532 17.6552C16.4584 17.305 16.5249 16.9057 16.6338 16.2521L16.7204 15.7328C16.8395 15.7442 16.9602 15.75 17.0822 15.75C19.1532 15.75 20.8322 14.0711 20.8322 12C20.8322 10.2071 19.5739 8.70805 17.8922 8.33776C17.9246 7.90455 17.9214 7.52875 17.8709 7.1787C17.5563 4.99881 16.0241 3.19015 13.9256 2.52146C13.0724 2.24958 12.0065 2.24975 10.2525 2.25002H9.91183ZM17.0822 14.25C17.0438 14.25 17.0058 14.2491 16.968 14.2472L17.5348 10.8465C17.5957 10.4812 17.6517 10.1457 17.7007 9.83613C18.6426 10.1049 19.3322 10.9719 19.3322 12C19.3322 13.2427 18.3248 14.25 17.0822 14.25ZM6.69411 3.95065C7.29499 3.75918 8.10469 3.75003 10.0822 3.75003C12.0596 3.75003 12.8693 3.75918 13.4702 3.95065C15.0213 4.4449 16.1537 5.78173 16.3863 7.39296C16.4764 8.01714 16.3523 8.81732 16.0272 10.7679L15.1644 15.9448C15.0422 16.6778 14.9909 16.9762 14.9166 17.2234C14.4334 18.831 13.0493 20.0036 11.3841 20.2159C11.1281 20.2485 10.8253 20.25 10.0822 20.25C9.339 20.25 9.03626 20.2485 8.7802 20.2159C7.11504 20.0036 5.73087 18.831 5.24767 17.2234C5.17337 16.9762 5.12213 16.6778 4.99995 15.9448L4.13714 10.7679C3.81205 8.81732 3.68795 8.01714 3.77804 7.39296C4.01057 5.78173 5.14304 4.4449 6.69411 3.95065Z" fill="#2D264B"/>
</svg>
