<svg width="24" height="24" viewBox="0 0 24 24" fill="none" xmlns="http://www.w3.org/2000/svg">
<path d="M15.1872 9.87271C15.48 9.57981 15.48 9.10494 15.1872 8.81205C14.8943 8.51915 14.4194 8.51915 14.1265 8.81205L8.46964 14.4689C8.17675 14.7618 8.17675 15.2367 8.46964 15.5296C8.76253 15.8225 9.23741 15.8225 9.5303 15.5296L15.1872 9.87271Z" fill="#2D264B"/>
<path fill-rule="evenodd" clip-rule="evenodd" d="M15.5643 2.75585C14.5409 -0.830075 9.45899 -0.830075 8.43562 2.75585C8.1088 3.90101 6.93229 4.58027 5.77714 4.29072C2.15995 3.38403 -0.381025 7.78513 2.21279 10.4644C3.04112 11.32 3.04112 12.6785 2.21279 13.5341C-0.381026 16.2133 2.15995 20.6144 5.77714 19.7077C6.93229 19.4182 8.1088 20.0975 8.43562 21.2426C9.45899 24.8285 14.5409 24.8285 15.5643 21.2426C15.8911 20.0975 17.0676 19.4182 18.2228 19.7077C21.84 20.6144 24.381 16.2133 21.7872 13.5341C20.9588 12.6785 20.9588 11.32 21.7872 10.4644C24.381 7.78513 21.84 3.38403 18.2228 4.29072C17.0676 4.58027 15.8911 3.90101 15.5643 2.75585ZM9.87803 3.16749C10.4873 1.03271 13.5127 1.03271 14.1219 3.16749C14.6709 5.09109 16.6471 6.23208 18.5875 5.74571C20.7409 5.20593 22.2536 7.82601 20.7094 9.42102C19.3181 10.8582 19.3181 13.1402 20.7094 14.5774C22.2536 16.1725 20.7409 18.7925 18.5875 18.2528C16.6471 17.7664 14.6709 18.9074 14.1219 20.831C13.5127 22.9658 10.4873 22.9658 9.87803 20.831C9.32906 18.9074 7.3528 17.7664 5.41243 18.2528C3.25904 18.7925 1.74633 16.1725 3.29049 14.5774C4.68189 13.1402 4.68189 10.8582 3.29049 9.42102C1.74633 7.82601 3.25904 5.20593 5.41243 5.74571C7.3528 6.23208 9.32906 5.09109 9.87803 3.16749Z" fill="#2D264B"/>
<path d="M8 8.99927C8 9.55155 8.44772 9.99927 9 9.99927C9.55229 9.99927 10 9.55155 10 8.99927C10 8.44698 9.55229 7.99927 9 7.99927C8.44772 7.99927 8 8.44698 8 8.99927Z" fill="#2D264B"/>
<path d="M14 14.9993C14 15.5516 14.4477 15.9993 15 15.9993C15.5523 15.9993 16 15.5516 16 14.9993C16 14.447 15.5523 13.9993 15 13.9993C14.4477 13.9993 14 14.447 14 14.9993Z" fill="#2D264B"/>
</svg>
