<svg width="24" height="24" viewBox="0 0 24 24" fill="none" xmlns="http://www.w3.org/2000/svg">
<path d="M8 7.25C7.58579 7.25 7.25 7.58579 7.25 8C7.25 8.41421 7.58579 8.75 8 8.75H11C11.4142 8.75 11.75 8.41421 11.75 8C11.75 7.58579 11.4142 7.25 11 7.25H8Z" fill="#2D264B"/>
<path d="M8 11.25C7.58579 11.25 7.25 11.5858 7.25 12C7.25 12.4142 7.58579 12.75 8 12.75H16C16.4142 12.75 16.75 12.4142 16.75 12C16.75 11.5858 16.4142 11.25 16 11.25H8Z" fill="#2D264B"/>
<path d="M8 15.25C7.58579 15.25 7.25 15.5858 7.25 16C7.25 16.4142 7.58579 16.75 8 16.75H11C11.4142 16.75 11.75 16.4142 11.75 16C11.75 15.5858 11.4142 15.25 11 15.25H8Z" fill="#2D264B"/>
<path fill-rule="evenodd" clip-rule="evenodd" d="M15.0257 1.27937C14.1685 1.25 13.1711 1.25 12.0111 1.25H11.9548C10.1182 1.24999 8.67861 1.24999 7.53648 1.37373C6.37094 1.50001 5.42656 1.76232 4.62024 2.34815C4.13209 2.70281 3.70281 3.13209 3.34815 3.62024C2.76232 4.42656 2.50001 5.37094 2.37373 6.53648C2.24999 7.67861 2.24999 9.11821 2.25 10.9548V13.0452C2.24999 14.8818 2.24999 16.3214 2.37373 17.4635C2.50001 18.6291 2.76232 19.5734 3.34815 20.3798C3.70281 20.8679 4.13209 21.2972 4.62024 21.6518C5.42656 22.2377 6.37094 22.5 7.53648 22.6263C8.67859 22.75 10.1182 22.75 11.9547 22.75H12.0453C13.8818 22.75 15.3214 22.75 16.4635 22.6263C17.6291 22.5 18.5734 22.2377 19.3798 21.6518C19.8679 21.2972 20.2972 20.8679 20.6518 20.3798C21.2377 19.5734 21.5 18.6291 21.6263 17.4635C21.75 16.3214 21.75 14.8818 21.75 13.0453V10.989C21.75 9.82891 21.75 8.83153 21.7206 7.97432C21.6564 6.10087 21.4537 4.7239 20.6518 3.62024C20.2972 3.13209 19.8679 2.70281 19.3798 2.34815C18.2761 1.5463 16.8991 1.34356 15.0257 1.27937ZM5.50191 3.56168C6.00992 3.19259 6.66013 2.97745 7.69804 2.865C8.74999 2.75103 10.1084 2.75 12 2.75C12.8483 2.75 13.5918 2.75005 14.2518 2.76082C14.2562 3.23547 14.271 3.58489 14.3208 3.8995C14.7105 6.35988 16.6401 8.28952 19.1005 8.67921C19.4151 8.72904 19.7645 8.74381 20.2392 8.74818C20.25 9.40822 20.25 10.1517 20.25 11V13C20.25 14.8916 20.249 16.25 20.135 17.302C20.0225 18.3399 19.8074 18.9901 19.4383 19.4981C19.1762 19.8589 18.8589 20.1762 18.4981 20.4383C17.9901 20.8074 17.3399 21.0225 16.302 21.135C15.25 21.249 13.8916 21.25 12 21.25C10.1084 21.25 8.74999 21.249 7.69804 21.135C6.66013 21.0225 6.00992 20.8074 5.50191 20.4383C5.14111 20.1762 4.82382 19.8589 4.56168 19.4981C4.19259 18.9901 3.97745 18.3399 3.865 17.302C3.75103 16.25 3.75 14.8916 3.75 13V11C3.75 9.10843 3.75103 7.74999 3.865 6.69804C3.97745 5.66013 4.19259 5.00992 4.56168 4.50191C4.82382 4.14111 5.14111 3.82382 5.50191 3.56168ZM15.8023 3.66485C15.7699 3.45981 15.7575 3.22238 15.7528 2.81744C17.1131 2.91121 17.8986 3.12615 18.4981 3.56168C18.8589 3.82382 19.1762 4.14111 19.4383 4.50191C19.8738 5.10137 20.0888 5.88688 20.1826 7.24722C19.7776 7.24254 19.5402 7.23015 19.3352 7.19768C17.5166 6.90965 16.0904 5.48339 15.8023 3.66485Z" fill="#2D264B"/>
</svg>
