<svg width="24" height="24" viewBox="0 0 24 24" fill="none" xmlns="http://www.w3.org/2000/svg">
<path d="M13 7.25C12.5858 7.25 12.25 7.58579 12.25 8C12.25 8.41421 12.5858 8.75 13 8.75H16C16.4142 8.75 16.75 8.41421 16.75 8C16.75 7.58579 16.4142 7.25 16 7.25H13Z" fill="#2D264B"/>
<path d="M8 11.25C7.58579 11.25 7.25 11.5858 7.25 12C7.25 12.4142 7.58579 12.75 8 12.75H16C16.4142 12.75 16.75 12.4142 16.75 12C16.75 11.5858 16.4142 11.25 16 11.25H8Z" fill="#2D264B"/>
<path d="M13 15.25C12.5858 15.25 12.25 15.5858 12.25 16C12.25 16.4142 12.5858 16.75 13 16.75H16C16.4142 16.75 16.75 16.4142 16.75 16C16.75 15.5858 16.4142 15.25 16 15.25H13Z" fill="#2D264B"/>
<path fill-rule="evenodd" clip-rule="evenodd" d="M19.3798 2.34815C18.5734 1.76232 17.6291 1.50001 16.4635 1.37373C15.3214 1.24999 13.8818 1.24999 12.0452 1.25H11.9889C10.8289 1.25 9.83152 1.25 8.97432 1.27937C7.10087 1.34356 5.7239 1.5463 4.62024 2.34815C4.13209 2.70281 3.70281 3.13209 3.34815 3.62024C2.5463 4.7239 2.34356 6.10087 2.27937 7.97432C2.25 8.83153 2.25 9.82891 2.25 10.989V13.0453C2.24999 14.8818 2.24999 16.3214 2.37373 17.4635C2.50001 18.6291 2.76232 19.5734 3.34815 20.3798C3.70281 20.8679 4.13209 21.2972 4.62024 21.6518C5.42656 22.2377 6.37094 22.5 7.53648 22.6263C8.67859 22.75 10.1182 22.75 11.9547 22.75H12.0453C13.8818 22.75 15.3214 22.75 16.4635 22.6263C17.6291 22.5 18.5734 22.2377 19.3798 21.6518C19.8679 21.2972 20.2972 20.8679 20.6518 20.3798C21.2377 19.5734 21.5 18.6291 21.6263 17.4635C21.75 16.3214 21.75 14.8818 21.75 13.0453V10.9547C21.75 9.11824 21.75 7.67859 21.6263 6.53648C21.5 5.37094 21.2377 4.42656 20.6518 3.62024C20.2972 3.13209 19.8679 2.70281 19.3798 2.34815ZM12 2.75C13.8916 2.75 15.25 2.75103 16.302 2.865C17.3399 2.97745 17.9901 3.19259 18.4981 3.56168C18.8589 3.82382 19.1762 4.14111 19.4383 4.50191C19.8074 5.00992 20.0225 5.66013 20.135 6.69804C20.249 7.74999 20.25 9.10843 20.25 11V13C20.25 14.8916 20.249 16.25 20.135 17.302C20.0225 18.3399 19.8074 18.9901 19.4383 19.4981C19.1762 19.8589 18.8589 20.1762 18.4981 20.4383C17.9901 20.8074 17.3399 21.0225 16.302 21.135C15.25 21.249 13.8916 21.25 12 21.25C10.1084 21.25 8.74999 21.249 7.69804 21.135C6.66013 21.0225 6.00992 20.8074 5.50191 20.4383C5.14111 20.1762 4.82382 19.8589 4.56168 19.4981C4.19259 18.9901 3.97745 18.3399 3.865 17.302C3.75103 16.25 3.75 14.8916 3.75 13V11C3.75 10.1517 3.75005 9.40822 3.76082 8.74818C4.23547 8.74381 4.58489 8.72904 4.8995 8.67921C7.35988 8.28952 9.28952 6.35988 9.67921 3.8995C9.72904 3.58489 9.74381 3.23547 9.74818 2.76082C10.4082 2.75005 11.1517 2.75 12 2.75ZM4.66485 7.19768C4.45981 7.23015 4.22238 7.24254 3.81744 7.24722C3.91121 5.88688 4.12615 5.10137 4.56168 4.50191C4.82382 4.14111 5.14111 3.82382 5.50191 3.56168C6.10137 3.12615 6.88688 2.91121 8.24722 2.81744C8.24254 3.22238 8.23015 3.45981 8.19768 3.66485C7.90965 5.48339 6.48339 6.90965 4.66485 7.19768Z" fill="#2D264B"/>
</svg>
