<svg width="24" height="24" viewBox="0 0 24 24" fill="none" xmlns="http://www.w3.org/2000/svg">
<path fill-rule="evenodd" clip-rule="evenodd" d="M18.955 3.23706C19.7769 4.05896 20.0663 5.21083 19.824 6.26557C21.4668 6.42816 22.75 7.81403 22.75 9.49962C22.75 10.4398 22.3508 11.2868 21.7126 11.8802C21.75 12.4746 21.75 13.0249 21.75 14.1143V14.1692C21.75 15.3668 21.75 16.3024 21.7008 17.0573C21.6509 17.8239 21.548 18.4572 21.3169 19.0418C20.739 20.5032 19.6262 21.6752 18.212 22.2889C17.6426 22.536 17.0269 22.6451 16.2893 22.6979C15.5652 22.7496 14.6694 22.7496 13.5292 22.7496H10.4709C9.33069 22.7496 8.43481 22.7496 7.71075 22.6979C6.97308 22.6451 6.3574 22.536 5.78803 22.2889C4.37384 21.6752 3.26097 20.5032 2.68314 19.0418C2.45201 18.4572 2.34909 17.8239 2.29916 17.0573C2.25 16.3024 2.25 15.3669 2.25 14.1692V14.1425C2.25 13.6668 2.24052 13.2835 2.23223 12.9482C2.22181 12.5268 2.21327 12.1812 2.22777 11.8233C1.62445 11.2333 1.25 10.4102 1.25 9.49962C1.25 7.76164 2.61421 6.34228 4.33023 6.25397C4.09267 5.20241 4.38303 4.05596 5.20192 3.23707C6.47112 1.96787 8.52891 1.96787 9.79811 3.23707L11.9194 5.35839C11.9748 5.41379 12.0278 5.47073 12.0784 5.52907C12.129 5.47073 12.182 5.41378 12.2374 5.35838L14.3588 3.23706C15.628 1.96786 17.6857 1.96786 18.955 3.23706ZM15.4194 4.29772C16.1028 3.6143 17.2109 3.6143 17.8943 4.29772C18.4218 4.8252 18.5424 5.60666 18.2551 6.24962H13.4675L15.4194 4.29772ZM8.73745 4.29773L10.6893 6.24962H5.90175C5.61448 5.60666 5.7351 4.82521 6.26258 4.29773C6.94599 3.61432 8.05403 3.61432 8.73745 4.29773ZM2.75 9.49962C2.75 8.53312 3.5335 7.74962 4.5 7.74962H11.25V11.2496H4.5C3.5335 11.2496 2.75 10.4661 2.75 9.49962ZM12.75 20.9996L12.75 12.7496H19.5C19.7555 12.7496 20.0042 12.7201 20.2427 12.6644C20.2499 13.0332 20.25 13.4824 20.25 14.1425C20.25 15.3726 20.2496 16.2593 20.204 16.9598C20.1588 17.6541 20.0714 18.1122 19.9219 18.4903C19.4848 19.5958 18.651 20.4633 17.6149 20.9129C17.2654 21.0645 16.8392 21.1547 16.1823 21.2017C15.518 21.2492 14.6756 21.2496 13.5 21.2496H12.7073C12.735 21.1714 12.75 21.0873 12.75 20.9996ZM11.25 20.9996L11.25 12.7496H4.5C4.23329 12.7496 3.97408 12.7175 3.72603 12.6569L3.72973 12.7953C3.73873 13.1278 3.75 13.5439 3.75 14.1425C3.75 15.3726 3.75037 16.2593 3.79599 16.9598C3.84121 17.6541 3.92859 18.1122 4.07806 18.4903C4.51518 19.5958 5.34904 20.4633 6.38514 20.9129C6.73463 21.0645 7.1608 21.1547 7.81769 21.2017C8.48204 21.2492 9.3244 21.2496 10.5 21.2496H11.2927C11.265 21.1714 11.25 21.0873 11.25 20.9996ZM21.25 9.49962C21.25 8.53312 20.4665 7.74962 19.5 7.74962H12.75V11.2496H19.5C20.4665 11.2496 21.25 10.4661 21.25 9.49962Z" fill="#2D264B"/>
</svg>
