<svg width="24" height="24" viewBox="0 0 24 24" fill="none" xmlns="http://www.w3.org/2000/svg">
<path d="M11.728 8.53269C12.0222 8.24111 12.0243 7.76624 11.7327 7.47204C11.4411 7.17784 10.9662 7.17573 10.672 7.46731L9.23091 8.89563C8.69474 9.42702 8.24754 9.87022 7.92869 10.2672C7.59427 10.6837 7.33989 11.1213 7.27193 11.6545C7.25731 11.7692 7.25 11.8846 7.25 12C7.25 12.1154 7.25731 12.2308 7.27193 12.3455C7.33989 12.8787 7.59426 13.3163 7.92869 13.7328C8.24753 14.1298 8.69472 14.573 9.2309 15.1044L10.672 16.5327C10.9662 16.8243 11.4411 16.8222 11.7327 16.528C12.0243 16.2338 12.0222 15.7589 11.728 15.4673L10.3176 14.0695C9.74268 13.4997 9.35733 13.1161 9.09823 12.7935C9.09526 12.7898 9.09231 12.7861 9.08939 12.7825C9.08063 12.7715 9.0721 12.7607 9.06379 12.75H16C16.4142 12.75 16.75 12.4142 16.75 12C16.75 11.5858 16.4142 11.25 16 11.25H9.06379C9.07487 11.2358 9.08635 11.2213 9.09823 11.2065C9.35733 10.8839 9.74268 10.5003 10.3176 9.93054L11.728 8.53269Z" fill="#2D264B"/>
<path fill-rule="evenodd" clip-rule="evenodd" d="M16.4635 2.37373C15.3214 2.24999 13.8818 2.24999 12.0452 2.25H11.9548C10.1182 2.24999 8.67861 2.24999 7.53648 2.37373C6.37094 2.50001 5.42656 2.76232 4.62024 3.34815C4.13209 3.70281 3.70281 4.13209 3.34815 4.62024C2.76232 5.42656 2.50001 6.37094 2.37373 7.53648C2.24999 8.67861 2.24999 10.1182 2.25 11.9548V12.0452C2.24999 13.8818 2.24999 15.3214 2.37373 16.4635C2.50001 17.6291 2.76232 18.5734 3.34815 19.3798C3.70281 19.8679 4.13209 20.2972 4.62024 20.6518C5.42656 21.2377 6.37094 21.5 7.53648 21.6263C8.67859 21.75 10.1182 21.75 11.9547 21.75H12.0453C13.8818 21.75 15.3214 21.75 16.4635 21.6263C17.6291 21.5 18.5734 21.2377 19.3798 20.6518C19.8679 20.2972 20.2972 19.8679 20.6518 19.3798C21.2377 18.5734 21.5 17.6291 21.6263 16.4635C21.75 15.3214 21.75 13.8818 21.75 12.0453V11.9547C21.75 10.1182 21.75 8.67859 21.6263 7.53648C21.5 6.37094 21.2377 5.42656 20.6518 4.62024C20.2972 4.13209 19.8679 3.70281 19.3798 3.34815C18.5734 2.76232 17.6291 2.50001 16.4635 2.37373ZM5.50191 4.56168C6.00992 4.19259 6.66013 3.97745 7.69804 3.865C8.74999 3.75103 10.1084 3.75 12 3.75C13.8916 3.75 15.25 3.75103 16.302 3.865C17.3399 3.97745 17.9901 4.19259 18.4981 4.56168C18.8589 4.82382 19.1762 5.14111 19.4383 5.50191C19.8074 6.00992 20.0225 6.66013 20.135 7.69804C20.249 8.74999 20.25 10.1084 20.25 12C20.25 13.8916 20.249 15.25 20.135 16.302C20.0225 17.3399 19.8074 17.9901 19.4383 18.4981C19.1762 18.8589 18.8589 19.1762 18.4981 19.4383C17.9901 19.8074 17.3399 20.0225 16.302 20.135C15.25 20.249 13.8916 20.25 12 20.25C10.1084 20.25 8.74999 20.249 7.69804 20.135C6.66013 20.0225 6.00992 19.8074 5.50191 19.4383C5.14111 19.1762 4.82382 18.8589 4.56168 18.4981C4.19259 17.9901 3.97745 17.3399 3.865 16.302C3.75103 15.25 3.75 13.8916 3.75 12C3.75 10.1084 3.75103 8.74999 3.865 7.69804C3.97745 6.66013 4.19259 6.00992 4.56168 5.50191C4.82382 5.14111 5.14111 4.82382 5.50191 4.56168Z" fill="#2D264B"/>
</svg>
