<svg width="24" height="24" viewBox="0 0 24 24" fill="none" xmlns="http://www.w3.org/2000/svg">
<path fill-rule="evenodd" clip-rule="evenodd" d="M4.3986 4.3986C8.59674 0.200466 15.4033 0.200466 19.6014 4.3986C20.787 5.5842 21.8735 7.37933 22.405 9.38853C22.9384 11.4052 22.9254 13.693 21.8219 15.8067C21.7176 16.0065 21.6422 16.1509 21.5879 16.2576C21.5609 16.3106 21.541 16.3507 21.5265 16.381C21.5222 16.3901 21.5185 16.3979 21.5155 16.4044C21.5136 16.4086 21.5119 16.4123 21.5104 16.4155C21.5069 16.4234 21.5055 16.4269 21.5055 16.4269C21.4355 16.6026 21.4164 16.6846 21.4094 16.7453C21.4025 16.806 21.4027 16.8903 21.4312 17.0773C21.4393 17.1305 21.4603 17.2158 21.5348 17.5033L21.5392 17.5201C21.6391 17.9057 21.7202 18.2186 21.7741 18.4709C21.8282 18.7241 21.8674 18.9696 21.8588 19.2095C21.8069 20.6506 20.6506 21.8069 19.2095 21.8588C18.9696 21.8674 18.7241 21.8282 18.4709 21.7741C18.2186 21.7202 17.9057 21.6391 17.5201 21.5392L17.5033 21.5348C17.2157 21.4603 17.1305 21.4393 17.0771 21.4312C16.8916 21.403 16.8056 21.4029 16.7432 21.4102C16.6807 21.4174 16.5971 21.4373 16.4231 21.5073C16.4231 21.5073 16.4196 21.5087 16.4116 21.5124C16.4034 21.5161 16.3923 21.5213 16.3775 21.5284C16.3475 21.5429 16.308 21.5627 16.2556 21.5896C16.1504 21.6437 16.008 21.7188 15.8109 21.8228C11.6079 24.0397 6.80689 22.0097 4.3986 19.6014C0.200466 15.4033 0.200466 8.59674 4.3986 4.3986ZM18.5407 5.45926C14.9284 1.84691 9.07161 1.84691 5.45926 5.45926C1.84691 9.07161 1.84691 14.9284 5.45926 18.5407C7.60015 20.6816 11.704 22.2931 15.111 20.496C15.1357 20.483 15.1599 20.4702 15.1835 20.4578C15.5076 20.2868 15.7306 20.169 15.8634 20.1157C16.0931 20.0233 16.3175 19.9496 16.5698 19.9202C16.822 19.8909 17.0574 19.911 17.3021 19.9482C17.4434 19.9696 17.6121 20.0134 17.8357 20.0714C17.8501 20.0752 17.8648 20.079 17.8797 20.0828C18.2861 20.1881 18.5675 20.2609 18.7843 20.3073C19.0039 20.3542 19.104 20.3616 19.1555 20.3597C19.8106 20.3361 20.3361 19.8106 20.3597 19.1555C20.3616 19.104 20.3542 19.0039 20.3073 18.7843C20.2609 18.5675 20.1881 18.2861 20.0828 17.8797C20.0789 17.8647 20.0751 17.85 20.0714 17.8355C20.0134 17.6121 19.9697 17.4437 19.9483 17.3033C19.9112 17.0601 19.8904 16.8261 19.9191 16.575C19.9478 16.324 20.0209 16.1008 20.1118 15.8722C20.1644 15.74 20.2822 15.5146 20.4538 15.186C20.4663 15.1621 20.4791 15.1375 20.4922 15.1125C21.3825 13.4072 21.4174 11.5206 20.9548 9.77213C20.4903 8.01618 19.5369 6.45544 18.5407 5.45926Z" fill="#2D264B"/>
<path d="M8.85785 11.8579C8.85785 12.4102 8.41013 12.8579 7.85785 12.8579C7.30556 12.8579 6.85785 12.4102 6.85785 11.8579C6.85785 11.3056 7.30556 10.8579 7.85785 10.8579C8.41013 10.8579 8.85785 11.3056 8.85785 11.8579Z" fill="#2D264B"/>
<path d="M12.8578 11.8579C12.8578 12.4102 12.4101 12.8579 11.8578 12.8579C11.3056 12.8579 10.8578 12.4102 10.8578 11.8579C10.8578 11.3056 11.3056 10.8579 11.8578 10.8579C12.4101 10.8579 12.8578 11.3056 12.8578 11.8579Z" fill="#2D264B"/>
<path d="M16.8578 11.8579C16.8578 12.4102 16.4101 12.8579 15.8578 12.8579C15.3056 12.8579 14.8578 12.4102 14.8578 11.8579C14.8578 11.3056 15.3056 10.8579 15.8578 10.8579C16.4101 10.8579 16.8578 11.3056 16.8578 11.8579Z" fill="#2D264B"/>
</svg>
