<svg width="24" height="24" viewBox="0 0 24 24" fill="none" xmlns="http://www.w3.org/2000/svg">
<path d="M19.75 6C19.75 5.58579 19.4142 5.25 19 5.25C18.5858 5.25 18.25 5.58579 18.25 6V18C18.25 18.4142 18.5858 18.75 19 18.75C19.4142 18.75 19.75 18.4142 19.75 18V6Z" fill="#2D264B"/>
<path fill-rule="evenodd" clip-rule="evenodd" d="M13.2928 7.25183C12.1821 6.59931 11.3026 6.08265 10.5842 5.74553C9.86233 5.4068 9.18921 5.19165 8.5124 5.26403C7.48075 5.37436 6.54757 5.92453 5.94248 6.77195C5.54725 7.32545 5.3946 8.01875 5.32214 8.82239C5.24999 9.62258 5.24999 10.6547 5.25 11.9611V12.0389C5.24999 13.3453 5.24999 14.3774 5.32214 15.1776C5.3946 15.9813 5.54725 16.6745 5.94248 17.228C6.54757 18.0755 7.48074 18.6256 8.5124 18.736C9.18921 18.8083 9.86233 18.5932 10.5842 18.2545C11.3026 17.9174 12.1821 17.4007 13.2928 16.7482L13.3615 16.7078C14.4724 16.0552 15.3518 15.5386 15.9978 15.0742C16.6481 14.6067 17.1633 14.1237 17.4368 13.4987C17.8544 12.5444 17.8544 11.4556 17.4368 10.5013C17.1633 9.8763 16.6481 9.39325 15.9978 8.92578C15.3518 8.4614 14.4724 7.94479 13.3615 7.29217L13.2928 7.25183ZM8.67191 6.75553C8.93051 6.72787 9.29506 6.79754 9.94698 7.10346C10.5949 7.40751 11.4146 7.88816 12.5675 8.5654C13.7202 9.24259 14.5393 9.72464 15.1223 10.1437C15.7076 10.5645 15.9536 10.8534 16.0626 11.1027C16.3125 11.6736 16.3125 12.3264 16.0626 12.8974C15.9536 13.1466 15.7076 13.4355 15.1223 13.8563C14.5393 14.2754 13.7202 14.7574 12.5675 15.4346C11.4146 16.1118 10.5949 16.5925 9.94698 16.8965C9.29506 17.2025 8.93051 17.2721 8.67191 17.2445C8.07177 17.1803 7.52255 16.8596 7.16322 16.3564C7.0056 16.1356 6.88183 15.7722 6.81608 15.0429C6.75073 14.3181 6.75 13.3539 6.75 12C6.75 10.6461 6.75073 9.68185 6.81608 8.95709C6.88183 8.22785 7.0056 7.86435 7.16322 7.64361C7.52255 7.14038 8.07177 6.81971 8.67191 6.75553Z" fill="#2D264B"/>
</svg>
