<svg width="24" height="24" viewBox="0 0 24 24" fill="none" xmlns="http://www.w3.org/2000/svg">
<path d="M11.1 1.25C7.70442 1.25 5.07724 4.22603 5.49841 7.59536L5.57776 8.23021C5.69388 9.15916 5.35455 10.0871 4.66654 10.7219C3.24086 12.0375 2.84477 14.1315 3.69142 15.8769L3.79477 16.09C4.58394 17.7169 6.23324 18.75 8.04147 18.75H16.2623C17.822 18.75 19.2736 17.9532 20.1111 16.6373C21.2932 14.7799 20.9801 12.3432 19.3668 10.845L19.3229 10.8042C18.9893 10.4944 18.7323 10.1208 18.5621 9.71187C18.4926 9.54487 18.4377 9.37202 18.3979 9.19528C18.307 8.79117 17.9057 8.53726 17.5016 8.62817C17.0975 8.71908 16.8436 9.12037 16.9345 9.52448C16.9933 9.78578 17.0745 10.0413 17.1772 10.2881C17.4288 10.8926 17.809 11.4453 18.3022 11.9033L18.3461 11.9441C19.4289 12.9497 19.6391 14.5852 18.8456 15.832C18.2835 16.7152 17.3092 17.25 16.2623 17.25H8.04147C6.8079 17.25 5.68275 16.5452 5.14438 15.4353L5.04102 15.2223C4.48294 14.0718 4.74404 12.6915 5.68379 11.8243C6.72755 10.8611 7.24234 9.45345 7.06618 8.04416L6.98682 7.40931C6.67757 4.93526 8.60667 2.75 11.1 2.75H12.8029C13.5401 2.75 14.2252 2.93988 14.8183 3.27015C15.1801 3.47167 15.6369 3.34166 15.8384 2.97977C16.0399 2.61789 15.9099 2.16115 15.548 1.95963C14.7374 1.50822 13.8019 1.25 12.8029 1.25H11.1Z" fill="#2D264B"/>
<path d="M9.7832 20.55C9.53467 20.2186 9.06457 20.1515 8.7332 20.4C8.40183 20.6485 8.33467 21.1186 8.5832 21.45L8.8832 21.85C10.5332 24.05 13.8332 24.05 15.4832 21.85L15.7832 21.45C16.0317 21.1186 15.9646 20.6485 15.6332 20.4C15.3018 20.1515 14.8317 20.2186 14.5832 20.55L14.2832 20.95C13.2332 22.35 11.1332 22.35 10.0832 20.95L9.7832 20.55Z" fill="#2D264B"/>
<path d="M19.1833 6C19.1833 7.10457 18.2878 8 17.1833 8C16.0787 8 15.1833 7.10457 15.1833 6C15.1833 4.89543 16.0787 4 17.1833 4C18.2878 4 19.1833 4.89543 19.1833 6Z" fill="#2D264B"/>
</svg>
