<svg width="24" height="24" viewBox="0 0 24 24" fill="none" xmlns="http://www.w3.org/2000/svg">
<path fill-rule="evenodd" clip-rule="evenodd" d="M11.8115 1.25C5.97856 1.25 1.25 5.97856 1.25 11.8115V12.1962C1.25 17.0777 4.74099 21.2607 9.54371 22.1339C11.666 22.5197 13.5197 20.666 13.1339 18.5437L12.7379 16.3658C12.348 14.2213 14.2213 12.348 16.3658 12.7379L18.5437 13.1339C20.666 13.5197 22.5197 11.666 22.1339 9.54371C21.2607 4.74099 17.0777 1.25 12.1963 1.25H11.8115ZM2.75 11.8115C2.75 6.80698 6.80698 2.75 11.8115 2.75H12.1963C16.3528 2.75 19.9145 5.72256 20.6581 9.81204C20.8565 10.9033 19.9033 11.8565 18.812 11.6581L16.6342 11.2621C13.4586 10.6847 10.6847 13.4586 11.2621 16.6342L11.6581 18.812C11.8565 19.9033 10.9033 20.8565 9.81204 20.6581C5.72256 19.9145 2.75 16.3528 2.75 12.1962V11.8115Z" fill="#2D264B"/>
<path d="M14 8C14 8.55228 13.5523 9 13 9C12.4477 9 12 8.55228 12 8C12 7.44772 12.4477 7 13 7C13.5523 7 14 7.44772 14 8Z" fill="#2D264B"/>
<path d="M10 7C10 7.55228 9.55228 8 9 8C8.44772 8 8 7.55228 8 7C8 6.44772 8.44772 6 9 6C9.55228 6 10 6.44772 10 7Z" fill="#2D264B"/>
<path d="M8 10C8 10.5523 7.55228 11 7 11C6.44772 11 6 10.5523 6 10C6 9.44772 6.44772 9 7 9C7.55228 9 8 9.44772 8 10Z" fill="#2D264B"/>
<path d="M9 14C9 14.5523 8.55228 15 8 15C7.44772 15 7 14.5523 7 14C7 13.4477 7.44772 13 8 13C8.55228 13 9 13.4477 9 14Z" fill="#2D264B"/>
</svg>
