<svg width="24" height="24" viewBox="0 0 24 24" fill="none" xmlns="http://www.w3.org/2000/svg">
<path fill-rule="evenodd" clip-rule="evenodd" d="M11 1.25C8.37665 1.25 6.25 3.37665 6.25 6C6.25 8.62335 8.37665 10.75 11 10.75C13.6234 10.75 15.75 8.62335 15.75 6C15.75 3.37665 13.6234 1.25 11 1.25ZM7.75 6C7.75 4.20507 9.20507 2.75 11 2.75C12.7949 2.75 14.25 4.20507 14.25 6C14.25 7.79493 12.7949 9.25 11 9.25C9.20507 9.25 7.75 7.79493 7.75 6Z" fill="#2D264B"/>
<path d="M8 12.25C5.37665 12.25 3.25 14.3766 3.25 17C3.25 19.6234 5.37665 21.75 8 21.75H14C14.4142 21.75 14.75 21.4142 14.75 21C14.75 20.5858 14.4142 20.25 14 20.25H8C6.20507 20.25 4.75 18.7949 4.75 17C4.75 15.2051 6.20507 13.75 8 13.75H14C14.4142 13.75 14.75 13.4142 14.75 13C14.75 12.5858 14.4142 12.25 14 12.25H8Z" fill="#2D264B"/>
<path d="M20.8943 15.6516C21.1872 15.3588 21.1872 14.8839 20.8943 14.591C20.6014 14.2981 20.1266 14.2981 19.8337 14.591L18.2427 16.182L16.6517 14.591C16.3588 14.2981 15.8839 14.2981 15.591 14.591C15.2981 14.8839 15.2981 15.3588 15.591 15.6517L17.182 17.2426L15.591 18.8336C15.2981 19.1265 15.2981 19.6014 15.591 19.8943C15.8839 20.1872 16.3588 20.1872 16.6517 19.8943L18.2427 18.3033L19.8337 19.8943C20.1266 20.1872 20.6014 20.1872 20.8943 19.8943C21.1872 19.6014 21.1872 19.1265 20.8943 18.8336L19.3033 17.2426L20.8943 15.6516Z" fill="#2D264B"/>
</svg>
