<svg width="24" height="24" viewBox="0 0 24 24" fill="none" xmlns="http://www.w3.org/2000/svg">
<path d="M18.0001 11.0002C18.0001 11.5525 17.5524 12.0002 17.0001 12.0002C16.4479 12.0002 16.0001 11.5525 16.0001 11.0002C16.0001 10.4479 16.4479 10.0002 17.0001 10.0002C17.5524 10.0002 18.0001 10.4479 18.0001 11.0002Z" fill="#2D264B"/>
<path d="M16.0001 13.0002C16.0001 13.5525 15.5524 14.0002 15.0001 14.0002C14.4479 14.0002 14.0001 13.5525 14.0001 13.0002C14.0001 12.4479 14.4479 12.0002 15.0001 12.0002C15.5524 12.0002 16.0001 12.4479 16.0001 13.0002Z" fill="#2D264B"/>
<path d="M20.0001 13.0002C20.0001 13.5525 19.5524 14.0002 19.0001 14.0002C18.4479 14.0002 18.0001 13.5525 18.0001 13.0002C18.0001 12.4479 18.4479 12.0002 19.0001 12.0002C19.5524 12.0002 20.0001 12.4479 20.0001 13.0002Z" fill="#2D264B"/>
<path d="M18.0001 15.0002C18.0001 15.5525 17.5524 16.0002 17.0001 16.0002C16.4479 16.0002 16.0001 15.5525 16.0001 15.0002C16.0001 14.4479 16.4479 14.0002 17.0001 14.0002C17.5524 14.0002 18.0001 14.4479 18.0001 15.0002Z" fill="#2D264B"/>
<path d="M7.75008 11.0002C7.75008 10.586 7.41429 10.2502 7.00008 10.2502C6.58586 10.2502 6.25008 10.586 6.25008 11.0002V12.2502H5.00008C4.58586 12.2502 4.25008 12.586 4.25008 13.0002C4.25008 13.4144 4.58586 13.7502 5.00008 13.7502H6.25008V15.0002C6.25008 15.4144 6.58586 15.7502 7.00008 15.7502C7.41429 15.7502 7.75008 15.4144 7.75008 15.0002V13.7502H9.00008C9.41429 13.7502 9.75008 13.4144 9.75008 13.0002C9.75008 12.586 9.41429 12.2502 9.00008 12.2502H7.75008V11.0002Z" fill="#2D264B"/>
<path fill-rule="evenodd" clip-rule="evenodd" d="M16.7042 3.25839C16.8468 2.8695 16.6472 2.43864 16.2583 2.29605C15.8694 2.15345 15.4385 2.35312 15.2959 2.74201L15.0537 3.40263C14.9071 3.80253 14.5264 4.06839 14.1005 4.06839C12.9101 4.06839 11.8828 4.9028 11.6387 6.06785L11.2926 7.71933C11.2341 7.70944 11.1757 7.69833 11.1175 7.68598C10.6994 7.59721 10.2843 7.41689 9.25896 6.96119L8.72798 6.7252C8.02333 6.41202 7.2608 6.2502 6.4897 6.2502C3.13591 6.2502 0.559666 9.22063 1.03396 12.5407L1.26486 14.157L2.72114 19.254C3.1433 20.7315 4.49381 21.7502 6.03049 21.7502C7.20161 21.7502 8.29236 21.1547 8.92565 20.1696L9.30002 19.5872C10.5635 17.6218 13.4366 17.6218 14.7001 19.5872L14.9291 19.9435C15.653 21.0695 16.8998 21.7502 18.2385 21.7502C20.1963 21.7502 21.8562 20.3106 22.1331 18.3724L22.9662 12.5407C23.4405 9.22063 20.8642 6.2502 17.5105 6.2502C16.7393 6.2502 15.9768 6.41202 15.2722 6.7252L14.7412 6.96119C13.7159 7.41689 13.3008 7.59721 12.8826 7.68598C12.8651 7.6897 12.8475 7.69331 12.8299 7.69681L13.1068 6.37546C13.2053 5.90519 13.62 5.56839 14.1005 5.56839C15.1557 5.56839 16.0987 4.90973 16.462 3.91901L16.7042 3.25839ZM2.51889 12.3286C2.17368 9.91215 4.04873 7.7502 6.4897 7.7502C7.05093 7.7502 7.60591 7.86798 8.11877 8.09592L8.73068 8.36788C9.6497 8.77645 10.2152 9.02785 10.8061 9.15328C11.1644 9.22934 11.5282 9.27079 11.8924 9.27761C12.3284 9.28577 12.7652 9.24433 13.1941 9.15328C13.785 9.02785 14.3504 8.77645 15.2695 8.36789L15.8814 8.09592C16.3942 7.86798 16.9492 7.7502 17.5105 7.7502C19.9514 7.7502 21.8265 9.91215 21.4813 12.3286L20.6482 18.1603C20.4769 19.3595 19.4498 20.2502 18.2385 20.2502C17.4102 20.2502 16.6388 19.829 16.1909 19.1323L15.9619 18.7761C14.1079 15.8922 9.89222 15.8922 8.03825 18.7761L7.66388 19.3585C7.30659 19.9142 6.69121 20.2502 6.03049 20.2502C5.16352 20.2502 4.4016 19.6755 4.16342 18.8419L2.73529 13.8434L2.51889 12.3286Z" fill="#2D264B"/>
</svg>
