<svg width="24" height="24" viewBox="0 0 24 24" fill="none" xmlns="http://www.w3.org/2000/svg">
<path fill-rule="evenodd" clip-rule="evenodd" d="M6.95526 2.25C6.97013 2.25001 6.98505 2.25001 7.00001 2.25001H17.1979C18.6074 2.25001 19.75 3.3926 19.75 4.80207C19.75 5.64245 19.3363 6.42897 18.6438 6.90507L18.3625 7.09842C17.3795 7.77426 17.3795 9.22575 18.3625 9.90159L18.6438 10.0949C19.3363 10.571 19.75 11.3576 19.75 12.1979C19.75 13.6074 18.6074 14.75 17.1979 14.75H5.75001L5.75001 21C5.75001 21.4142 5.41422 21.75 5.00001 21.75C4.58579 21.75 4.25001 21.4142 4.25001 21L4.25001 5.00001C4.25001 4.98505 4.25001 4.97013 4.25 4.95526C4.24995 4.52244 4.24991 4.12561 4.29331 3.8028C4.3411 3.44732 4.45355 3.07159 4.76257 2.76257C5.07159 2.45355 5.44732 2.3411 5.8028 2.29331C6.12561 2.24991 6.52244 2.24995 6.95526 2.25ZM5.75001 13.25H17.1979C17.779 13.25 18.25 12.779 18.25 12.1979C18.25 11.8515 18.0795 11.5273 17.794 11.331L17.5127 11.1377C15.6628 9.86579 15.6628 7.13422 17.5127 5.86236L17.794 5.66901C18.0795 5.47274 18.25 5.14851 18.25 4.80207C18.25 4.22103 17.779 3.75001 17.1979 3.75001H7.00001C6.5074 3.75001 6.21339 3.7516 6.00267 3.77993C5.90611 3.79291 5.85775 3.80821 5.83597 3.81717C5.83093 3.81924 5.82761 3.82086 5.82568 3.82187L5.82324 3.82324L5.82187 3.82568C5.82086 3.82761 5.81924 3.83093 5.81717 3.83597C5.80821 3.85775 5.79291 3.90611 5.77993 4.00267C5.7516 4.21339 5.75001 4.5074 5.75001 5.00001L5.75001 13.25Z" fill="#2D264B"/>
</svg>
