<svg width="24" height="24" viewBox="0 0 24 24" fill="none" xmlns="http://www.w3.org/2000/svg">
<path fill-rule="evenodd" clip-rule="evenodd" d="M21.0278 7.70757C21.639 4.52097 18.8413 1.72335 15.6547 2.33449L6.50569 4.08914C4.51685 4.47056 2.9263 5.97601 2.42098 7.93218C1.41207 11.8378 5.03411 15.4072 8.9232 14.2635C9.0306 14.2319 9.13038 14.3317 9.0988 14.4391C7.95512 18.3282 11.5245 21.9503 15.4302 20.9414C17.3863 20.436 18.8918 18.8455 19.2732 16.8566L21.0278 7.70757ZM15.9373 3.80764C18.0826 3.3962 19.9661 5.27968 19.5547 7.42504L17.8001 16.5741C17.5287 17.989 16.4544 19.1275 15.055 19.489C12.2579 20.2116 9.72845 17.6147 10.5379 14.8623C10.9044 13.6159 9.74639 12.4579 8.5 12.8244C5.7476 13.6339 3.15074 11.1045 3.8733 8.30735C4.23481 6.90792 5.37333 5.83364 6.78822 5.56229L15.9373 3.80764Z" fill="#2D264B"/>
</svg>
