<svg width="24" height="24" viewBox="0 0 24 24" fill="none" xmlns="http://www.w3.org/2000/svg">
<path fill-rule="evenodd" clip-rule="evenodd" d="M14.0254 8.75812C13.3929 6.74729 10.607 6.74729 9.97453 8.75812C9.88436 9.0448 9.63589 9.21631 9.37999 9.21631C7.27093 9.21631 6.50786 11.93 8.12018 13.1401C8.34236 13.3068 8.44662 13.6157 8.3553 13.906C8.04542 14.8912 8.44288 15.8128 9.12092 16.3217C9.80247 16.8332 10.8036 16.9498 11.6405 16.3217C11.8566 16.1595 12.1434 16.1595 12.3594 16.3217C13.1963 16.9498 14.1974 16.8332 14.879 16.3217C15.557 15.8128 15.9545 14.8912 15.6446 13.906C15.5533 13.6157 15.6576 13.3068 15.8797 13.1401C17.4921 11.93 16.729 9.21631 14.6199 9.21631C14.364 9.21631 14.1156 9.0448 14.0254 8.75812ZM11.4054 9.20819C11.5976 8.59727 12.4023 8.59727 12.5945 9.20819C12.8731 10.094 13.6824 10.7163 14.6199 10.7163C14.91 10.7163 15.1264 10.8947 15.2145 11.1745C15.303 11.456 15.2307 11.7518 14.9793 11.9404C14.236 12.4983 13.9362 13.4739 14.2137 14.3561C14.3162 14.6818 14.1936 14.9606 13.9786 15.122C13.7671 15.2807 13.5023 15.304 13.2598 15.122C12.5103 14.5594 11.4897 14.5594 10.7401 15.122C10.4976 15.304 10.2328 15.2807 10.0213 15.122C9.80635 14.9606 9.68375 14.6818 9.78619 14.3561C10.0637 13.4739 9.76392 12.4983 9.02058 11.9404C8.76924 11.7518 8.69691 11.456 8.78545 11.1745C8.87346 10.8947 9.08993 10.7163 9.37999 10.7163C10.3175 10.7163 11.1268 10.094 11.4054 9.20819Z" fill="#2D264B"/>
<path fill-rule="evenodd" clip-rule="evenodd" d="M9.56284 1.25C8.02104 1.25 6.77117 2.49987 6.77117 4.04167C6.77117 4.75503 6.19287 5.33333 5.4795 5.33333H5.17064C3.59458 5.33333 2.19067 6.55273 2.27617 8.24648C2.3777 10.2575 2.82435 13.3918 4.4535 16.3608C4.9098 17.1923 5.51919 18.0092 6.17795 18.7703L6.22755 18.8276C7.17522 19.9226 7.96537 20.8356 8.81485 21.4579C9.72853 22.1273 10.7037 22.4607 12 22.4607C13.2963 22.4607 14.2715 22.1273 15.1852 21.4579C16.0346 20.8356 16.8248 19.9226 17.7725 18.8276L17.8221 18.7703C18.4808 18.0092 19.0902 17.1923 19.5465 16.3608C21.2298 13.2931 21.6496 9.82667 21.7324 7.66561C21.7969 5.97999 20.403 4.75 18.8182 4.75H18.2288C17.6766 4.75 17.2288 4.30228 17.2288 3.75C17.2288 2.36929 16.1096 1.25 14.7288 1.25H9.56284ZM8.27117 4.04167C8.27117 3.3283 8.84947 2.75 9.56284 2.75H14.7288C15.2811 2.75 15.7288 3.19772 15.7288 3.75C15.7288 5.13071 16.8481 6.25 18.2288 6.25H18.8182C19.6558 6.25 20.2616 6.8731 20.2335 7.60819C20.1544 9.67293 19.7518 12.8686 18.2315 15.6392C17.8425 16.348 17.304 17.0768 16.6879 17.7886C15.6778 18.9557 14.9957 19.7373 14.2987 20.2479C13.6512 20.7223 12.9888 20.9607 12 20.9607C11.0112 20.9607 10.3489 20.7223 9.70131 20.2479C9.00433 19.7373 8.32224 18.9557 7.31212 17.7886C6.69604 17.0768 6.15747 16.348 5.76853 15.6392C4.29005 12.9448 3.86972 10.0616 3.77427 8.17085C3.73795 7.45149 4.3305 6.83333 5.17064 6.83333H5.4795C7.0213 6.83333 8.27117 5.58346 8.27117 4.04167Z" fill="#2D264B"/>
</svg>
