<svg width="24" height="24" viewBox="0 0 24 24" fill="none" xmlns="http://www.w3.org/2000/svg">
<path fill-rule="evenodd" clip-rule="evenodd" d="M16.1645 4.27559C14.8538 0.241469 9.14656 0.241469 7.83579 4.27559C7.45041 5.46167 6.34513 6.26471 5.09801 6.26471C0.856281 6.26471 -0.907344 11.6926 2.52429 14.1858C3.53323 14.9188 3.95541 16.2182 3.57003 17.4043C2.25926 21.4384 6.87649 24.793 10.3081 22.2998C11.3171 21.5667 12.6833 21.5667 13.6922 22.2998C17.1238 24.793 21.7411 21.4384 20.4303 17.4043C20.0449 16.2182 20.4671 14.9188 21.476 14.1858C24.9077 11.6926 23.144 6.26471 18.9023 6.26471C17.6552 6.26471 16.5499 5.46167 16.1645 4.27559ZM9.26238 4.73912C10.1241 2.08696 13.8762 2.08696 14.7379 4.73912C15.3241 6.54323 17.0054 7.76471 18.9023 7.76471C21.691 7.76471 22.8504 11.3332 20.5944 12.9723C19.0597 14.0873 18.4175 16.0637 19.0037 17.8678C19.8655 20.52 16.8299 22.7254 14.5739 21.0863C13.0392 19.9713 10.9611 19.9712 9.42644 21.0863C7.17038 22.7254 4.13487 20.52 4.99661 17.8678C5.5828 16.0637 4.94064 14.0873 3.40596 12.9723C1.14991 11.3332 2.30937 7.76471 5.09801 7.76471C6.99497 7.76471 8.67619 6.54323 9.26238 4.73912Z" fill="#2D264B"/>
</svg>
