<svg width="24" height="24" viewBox="0 0 24 24" fill="none" xmlns="http://www.w3.org/2000/svg">
<path d="M10.2055 3.11252C10.6096 2.70685 11.0582 2.37055 11.6313 2.27923C11.7534 2.25978 11.8766 2.25 12 2.25C12.1234 2.25 12.2466 2.25978 12.3687 2.27923C12.9419 2.37055 13.3904 2.70685 13.7945 3.11252C14.1883 3.50784 14.6283 4.06275 15.1614 4.73524L16.5877 6.53403C16.845 6.8586 16.7905 7.33034 16.466 7.58768C16.1414 7.84503 15.6697 7.79054 15.4123 7.46597L14.0145 5.703C13.4563 4.99897 13.0727 4.51697 12.75 4.18952V17C12.75 17.4142 12.4142 17.75 12 17.75C11.5858 17.75 11.25 17.4142 11.25 17V4.18952C10.9274 4.51697 10.5438 4.99897 9.98554 5.703L8.58769 7.46597C8.33035 7.79054 7.85861 7.84503 7.53404 7.58768C7.20947 7.33034 7.15498 6.8586 7.41233 6.53403L8.83857 4.73525C9.37174 4.06278 9.81173 3.50783 10.2055 3.11252Z" fill="#2D264B"/>
<path d="M20.6 10.5496C20.3513 10.2184 19.8811 10.1516 19.5499 10.4003C19.2188 10.6491 19.1519 11.1192 19.4007 11.4504C19.9342 12.1607 20.25 13.0424 20.25 14V15C20.25 15.9577 20.2477 16.3492 20.1977 16.6648C19.9097 18.4834 18.4834 19.9096 16.6649 20.1977C16.3492 20.2477 15.9577 20.25 15 20.25H9.00001C8.04234 20.25 7.65083 20.2477 7.33516 20.1977C5.51662 19.9096 4.09036 18.4834 3.80233 16.6648C3.75234 16.3492 3.75001 15.9577 3.75001 15V14C3.75001 13.0424 4.06583 12.1607 4.59932 11.4504C4.84808 11.1192 4.78127 10.6491 4.45008 10.4003C4.11888 10.1516 3.64874 10.2184 3.39997 10.5496C2.67807 11.5106 2.25001 12.7064 2.25001 14L2.25 15.0808C2.24994 15.9328 2.2499 16.4518 2.3208 16.8995C2.71049 19.3599 4.64013 21.2895 7.10051 21.6792C7.54819 21.7501 8.06718 21.7501 8.91921 21.75H15.0808C15.9328 21.7501 16.4518 21.7501 16.8995 21.6792C19.3599 21.2895 21.2895 19.3599 21.6792 16.8995C21.7501 16.4518 21.7501 15.9328 21.75 15.0808L21.75 14C21.75 12.7064 21.3219 11.5106 20.6 10.5496Z" fill="#2D264B"/>
</svg>
