<svg width="24" height="24" viewBox="0 0 24 24" fill="none" xmlns="http://www.w3.org/2000/svg">
<path d="M16.5761 9.48034C16.8413 9.16214 16.7983 8.68921 16.4801 8.42404C16.1619 8.15887 15.689 8.20186 15.4238 8.52007L11.9602 12.6763C11.5895 13.1213 11.3618 13.3917 11.1742 13.5611C11.0872 13.6397 11.0356 13.671 11.0108 13.6829C11.0058 13.6854 11.0022 13.6868 11 13.6877C11 13.6877 11 13.6877 11 13.6877C10.9977 13.6868 10.9941 13.6854 10.9891 13.6829C10.9644 13.671 10.9128 13.6397 10.8258 13.5611C10.6382 13.3917 10.4105 13.1213 10.0397 12.6763L8.57614 10.9201C8.31096 10.6019 7.83804 10.5589 7.51983 10.824C7.20162 11.0892 7.15863 11.5621 7.4238 11.8803L8.9193 13.675C9.24777 14.0692 9.54388 14.4246 9.82048 14.6744C10.1214 14.9461 10.5005 15.1882 11 15.1882C11.4995 15.1882 11.8785 14.9461 12.1795 14.6744C12.4561 14.4246 12.7522 14.0692 13.0806 13.675L16.5761 9.48034Z" fill="#2D264B"/>
<path fill-rule="evenodd" clip-rule="evenodd" d="M15.5643 2.75683C14.5409 -0.829098 9.45899 -0.829098 8.43562 2.75683C8.1088 3.90199 6.93229 4.58125 5.77714 4.2917C2.15995 3.385 -0.381025 7.78611 2.21279 10.4653C3.04112 11.3209 3.04112 12.6795 2.21279 13.5351C-0.381026 16.2143 2.15995 20.6154 5.77714 19.7087C6.93229 19.4192 8.1088 20.0984 8.43562 21.2436C9.45899 24.8295 14.5409 24.8295 15.5643 21.2436C15.8911 20.0984 17.0676 19.4192 18.2228 19.7087C21.84 20.6154 24.381 16.2143 21.7872 13.5351C20.9588 12.6795 20.9588 11.3209 21.7872 10.4653C24.381 7.78611 21.84 3.385 18.2228 4.2917C17.0676 4.58125 15.8911 3.90199 15.5643 2.75683ZM9.87803 3.16847C10.4873 1.03369 13.5127 1.03369 14.1219 3.16847C14.6709 5.09207 16.6471 6.23306 18.5875 5.74668C20.7409 5.20691 22.2536 7.82699 20.7094 9.422C19.3181 10.8592 19.3181 13.1412 20.7094 14.5784C22.2536 16.1734 20.7409 18.7935 18.5875 18.2537C16.6471 17.7674 14.6709 18.9083 14.1219 20.8319C13.5127 22.9667 10.4873 22.9667 9.87803 20.8319C9.32906 18.9083 7.3528 17.7674 5.41243 18.2537C3.25904 18.7935 1.74633 16.1734 3.29049 14.5784C4.68189 13.1412 4.68189 10.8592 3.29049 9.422C1.74633 7.82699 3.25904 5.20691 5.41243 5.74668C7.3528 6.23306 9.32906 5.09207 9.87803 3.16847Z" fill="#2D264B"/>
</svg>
