<svg width="24" height="24" viewBox="0 0 24 24" fill="none" xmlns="http://www.w3.org/2000/svg">
<path d="M12.7499 8.00089C12.7499 7.58668 12.4141 7.25089 11.9999 7.25089C11.5857 7.25089 11.2499 7.58668 11.2499 8.00089V16.0009C11.2499 16.4151 11.5857 16.7509 11.9999 16.7509C12.4141 16.7509 12.7499 16.4151 12.7499 16.0009V8.00089Z" fill="#2D264B"/>
<path d="M9.74994 9.00089C9.74994 8.58668 9.41415 8.25089 8.99994 8.25089C8.58572 8.25089 8.24994 8.58668 8.24994 9.00089L8.24994 15.0009C8.24994 15.4151 8.58572 15.7509 8.99994 15.7509C9.41415 15.7509 9.74994 15.4151 9.74994 15.0009V9.00089Z" fill="#2D264B"/>
<path d="M15.7499 9.00089C15.7499 8.58668 15.4141 8.25089 14.9999 8.25089C14.5857 8.25089 14.2499 8.58668 14.2499 9.00089V15.0009C14.2499 15.4151 14.5857 15.7509 14.9999 15.7509C15.4141 15.7509 15.7499 15.4151 15.7499 15.0009V9.00089Z" fill="#2D264B"/>
<path d="M6.74994 11.0009C6.74994 10.5867 6.41415 10.2509 5.99994 10.2509C5.58572 10.2509 5.24994 10.5867 5.24994 11.0009L5.24994 13.0009C5.24994 13.4151 5.58572 13.7509 5.99994 13.7509C6.41415 13.7509 6.74994 13.4151 6.74994 13.0009L6.74994 11.0009Z" fill="#2D264B"/>
<path d="M18.7499 11.0009C18.7499 10.5867 18.4141 10.2509 17.9999 10.2509C17.5857 10.2509 17.2499 10.5867 17.2499 11.0009V13.0009C17.2499 13.4151 17.5857 13.7509 17.9999 13.7509C18.4141 13.7509 18.7499 13.4151 18.7499 13.0009V11.0009Z" fill="#2D264B"/>
<path fill-rule="evenodd" clip-rule="evenodd" d="M15.0667 1.79649C14.2621 1.7246 13.279 1.7246 12.0352 1.72461H11.9647C10.7209 1.7246 9.73775 1.7246 8.93318 1.79649C8.10672 1.87034 7.41547 2.02338 6.76215 2.35853C6.59292 2.44534 6.4281 2.5405 6.2683 2.64365C5.65139 3.04187 5.17323 3.56399 4.69604 4.2428C4.2315 4.90363 3.73993 5.75507 3.11803 6.83225L3.08281 6.89324C2.4609 7.97042 1.96931 8.82185 1.62929 9.55458C1.28001 10.3072 1.06692 10.9824 1.03051 11.7158C1.02108 11.9057 1.02108 12.096 1.03051 12.286C1.06692 13.0194 1.28001 13.6945 1.62929 14.4472C1.96931 15.1799 2.46089 16.0313 3.08279 17.1085L3.11801 17.1695C3.73991 18.2467 4.2315 19.0981 4.69604 19.759C5.17323 20.4378 5.65139 20.9599 6.26829 21.3581C6.42809 21.4613 6.59292 21.5564 6.76215 21.6433C7.41546 21.9784 8.10672 22.1314 8.93318 22.2053C9.73774 22.2772 10.7209 22.2772 11.9647 22.2772H12.0351C13.2789 22.2772 14.2621 22.2772 15.0667 22.2053C15.8931 22.1314 16.5844 21.9784 17.2377 21.6433C17.4069 21.5564 17.5718 21.4613 17.7316 21.3581C18.3485 20.9599 18.8266 20.4378 19.3038 19.759C19.7684 19.0982 20.2599 18.2467 20.8818 17.1696L20.9171 17.1085C21.539 16.0314 22.0306 15.1799 22.3706 14.4472C22.7199 13.6945 22.9329 13.0194 22.9694 12.286C22.9788 12.096 22.9788 11.9057 22.9694 11.7158C22.9329 10.9824 22.7199 10.3072 22.3706 9.55458C22.0306 8.82185 21.539 7.97041 20.917 6.89323L20.8818 6.83219C20.2599 5.75504 19.7684 4.90362 19.3038 4.2428C18.8266 3.56399 18.3485 3.04187 17.7316 2.64365C17.5718 2.5405 17.407 2.44534 17.2377 2.35853C16.5844 2.02338 15.8932 1.87034 15.0667 1.79649ZM7.44681 3.69316C7.86803 3.47707 8.35086 3.3545 9.06668 3.29054C9.7968 3.2253 10.7131 3.22461 11.9999 3.22461C13.2867 3.22461 14.2031 3.2253 14.9332 3.29054C15.649 3.3545 16.1318 3.47707 16.5531 3.69316C16.6781 3.75732 16.8 3.82766 16.9181 3.9039C17.3158 4.16065 17.6634 4.5175 18.0767 5.10544C18.4983 5.70512 18.957 6.49836 19.6004 7.61275C20.2438 8.72714 20.7014 9.52107 21.01 10.186C21.3125 10.8379 21.4477 11.3173 21.4712 11.7901C21.4782 11.9306 21.4782 12.0712 21.4712 12.2116C21.4477 12.6845 21.3125 13.1639 21.01 13.8158C20.7014 14.4807 20.2438 15.2746 19.6004 16.389C18.957 17.5034 18.4983 18.2967 18.0767 18.8963C17.6634 19.4843 17.3158 19.8411 16.9181 20.0979C16.8 20.1741 16.6781 20.2445 16.5531 20.3086C16.1318 20.5247 15.649 20.6473 14.9332 20.7112C14.2031 20.7765 13.2867 20.7772 11.9999 20.7772C10.7131 20.7772 9.7968 20.7765 9.06668 20.7112C8.35086 20.6473 7.86803 20.5247 7.44681 20.3086C7.32173 20.2445 7.1999 20.1741 7.08179 20.0979C6.68405 19.8411 6.33648 19.4843 5.92318 18.8963C5.50162 18.2967 5.04285 17.5034 4.39945 16.389C3.75606 15.2746 3.29848 14.4807 2.98992 13.8158C2.6874 13.1639 2.55214 12.6845 2.52867 12.2116C2.52169 12.0712 2.52169 11.9306 2.52867 11.7901C2.55214 11.3173 2.6874 10.8379 2.98992 10.186C3.29848 9.52107 3.75606 8.72714 4.39945 7.61275C5.04285 6.49836 5.50162 5.70512 5.92318 5.10544C6.33648 4.5175 6.68405 4.16065 7.08179 3.9039C7.1999 3.82766 7.32173 3.75732 7.44681 3.69316Z" fill="#2D264B"/>
</svg>
