<svg width="24" height="24" viewBox="0 0 24 24" fill="none" xmlns="http://www.w3.org/2000/svg">
<path fill-rule="evenodd" clip-rule="evenodd" d="M12.0004 0.25C8.91226 0.25 6.39269 2.68452 6.25625 5.73903C6.23075 5.75012 6.20536 5.76146 6.18005 5.77306C5.17462 6.23397 4.32345 6.97509 3.7286 7.90756C3.5733 8.15101 3.44467 8.40771 3.33493 8.68458C2.96159 9.62653 2.78899 10.8698 2.53783 12.6789L2.51659 12.8319C2.30268 14.372 2.13546 15.5759 2.08467 16.5457C2.03311 17.5303 2.09549 18.3508 2.39169 19.1041C2.87581 20.3353 3.7697 21.362 4.92261 22.0109C5.628 22.4079 6.43214 22.5825 7.41449 22.6669C8.38202 22.75 9.59752 22.75 11.1524 22.75H12.8485C14.4034 22.75 15.6189 22.75 16.5864 22.6669C17.5687 22.5825 18.3729 22.4079 19.0783 22.0109C20.2312 21.362 21.1251 20.3353 21.6092 19.1041C21.9054 18.3508 21.9678 17.5303 21.9162 16.5457C21.8654 15.5759 21.6982 14.3719 21.4843 12.8318L21.4599 12.6563C21.194 10.7402 21.0158 9.4568 20.5823 8.48569C20.4918 8.28298 20.3895 8.09131 20.2723 7.90756C19.6774 6.97509 18.8263 6.23397 17.8208 5.77306C17.7955 5.76146 17.7701 5.75012 17.7446 5.73903C17.6082 2.68452 15.0886 0.25 12.0004 0.25ZM11.0466 5.24999C9.69337 5.24987 8.65265 5.24978 7.79966 5.35109C8.11208 3.31188 9.87386 1.75 12.0004 1.75C14.127 1.75 15.8888 3.31188 16.2012 5.35109C15.3482 5.24978 14.3075 5.24987 12.9542 5.24999H11.0466ZM7.20972 6.98719C8.00021 6.75748 9.06921 6.75 11.1883 6.75H12.8125C14.9317 6.75 16.0007 6.75748 16.7912 6.98719C16.9365 7.02942 17.0697 7.07882 17.1957 7.13661C17.9179 7.46767 18.5324 7.99432 18.97 8.65629L18.4198 9.20647C16.7382 10.8881 15.5292 12.0949 14.4863 12.8905C13.4608 13.673 12.6847 13.9868 11.8791 13.9868C11.0735 13.9868 10.2974 13.673 9.27185 12.8905C8.22904 12.0949 7.02002 10.8881 5.33836 9.20647L4.93745 8.80556C4.95559 8.77452 4.97416 8.74412 4.99319 8.71428C5.43287 8.02507 6.06199 7.47728 6.80514 7.13661C6.93119 7.07882 7.06436 7.02943 7.20972 6.98719ZM19.5497 10.1979C19.6941 10.8655 19.8194 11.7481 19.9936 13.0026C20.2135 14.5859 20.3712 15.7262 20.4183 16.6241C20.4649 17.5146 20.3966 18.089 20.2132 18.5552C19.8554 19.4653 19.1947 20.2241 18.3425 20.7037C17.906 20.9494 17.3465 21.0961 16.458 21.1724C15.5622 21.2494 14.411 21.25 12.8125 21.25H11.1883C9.58984 21.25 8.43868 21.2494 7.54286 21.1724C6.65442 21.0961 6.09492 20.9494 5.65833 20.7037C4.80618 20.2241 4.14548 19.4653 3.78765 18.5552C3.60432 18.089 3.53598 17.5146 3.58262 16.6241C3.62965 15.7262 3.78737 14.5859 4.00727 13.0026C4.1643 11.872 4.28128 11.0427 4.40949 10.3989C5.99834 11.9877 7.2509 13.2353 8.36198 14.0831C9.52091 14.9673 10.6136 15.4868 11.8791 15.4868C13.1446 15.4868 14.2373 14.9673 15.3962 14.0831C16.5285 13.2192 17.8076 11.94 19.4399 10.3077L19.5497 10.1979Z" fill="#2D264B"/>
</svg>
