<svg width="24" height="24" viewBox="0 0 24 24" fill="none" xmlns="http://www.w3.org/2000/svg">
<path fill-rule="evenodd" clip-rule="evenodd" d="M12.0002 0.25C9.07876 0.25 6.66644 2.4285 6.29874 5.25L5.63616 5.25C4.64048 5.24997 3.81478 5.24994 3.16678 5.34049C2.48554 5.43567 1.8734 5.64585 1.40787 6.16597C0.942341 6.68609 0.801051 7.31769 0.781677 8.00527C0.763249 8.65932 0.854456 9.47995 0.964441 10.4695L1.27233 13.2405C1.50236 15.3109 1.68302 16.937 1.98987 18.2008C2.30439 19.4962 2.77218 20.5072 3.64064 21.2845C4.50992 22.0625 5.5714 22.4154 6.90078 22.5847C8.19872 22.75 9.84687 22.75 11.9467 22.75H12.0537C14.1536 22.75 15.8017 22.75 17.0997 22.5847C18.429 22.4154 19.4905 22.0625 20.3598 21.2845C21.2283 20.5072 21.696 19.4962 22.0106 18.2008C22.3174 16.937 22.4981 15.311 22.7281 13.2406L23.036 10.4695C23.146 9.47996 23.2372 8.65931 23.2188 8.00527C23.1994 7.31769 23.0581 6.68609 22.5926 6.16597C22.127 5.64585 21.5149 5.43567 20.8337 5.34049C20.1857 5.24994 19.36 5.24997 18.3643 5.25L17.7017 5.25C17.3342 2.42873 14.9217 0.25 12.0002 0.25ZM12.0002 1.75C14.0915 1.75 15.83 3.26049 16.1843 5.25H7.81612C8.1702 3.2607 9.90894 1.75 12.0002 1.75ZM2.52556 7.16635C2.65627 7.02031 2.86368 6.89741 3.37435 6.82605C3.90628 6.75173 4.62627 6.75 5.6915 6.75H18.3089C19.3742 6.75 20.0942 6.75173 20.6261 6.82605C21.1368 6.89741 21.3442 7.02031 21.4749 7.16635C21.6056 7.31239 21.7048 7.5321 21.7194 8.04752C21.7345 8.58441 21.6567 9.30019 21.5391 10.3589L21.2432 13.0215C21.0059 15.1569 20.8345 16.6873 20.5529 17.8469C20.2764 18.9857 19.9148 19.6697 19.3594 20.1668C18.8049 20.6631 18.0819 20.9475 16.9101 21.0967C15.7179 21.2486 14.1652 21.25 12.0002 21.25C9.8352 21.25 8.28252 21.2486 7.09032 21.0967C5.91855 20.9475 5.19553 20.6631 4.64102 20.1668C4.08567 19.6697 3.72403 18.9857 3.44752 17.8469C3.16599 16.6873 2.9945 15.1569 2.75722 13.0215L2.46138 10.3589C2.34374 9.30019 2.26595 8.58441 2.28108 8.04752C2.2956 7.5321 2.39485 7.31239 2.52556 7.16635Z" fill="#2D264B"/>
<path d="M18.0002 10C18.0002 10.5523 17.5525 11 17.0002 11C16.4479 11 16.0002 10.5523 16.0002 10C16.0002 9.44772 16.4479 9 17.0002 9C17.5525 9 18.0002 9.44772 18.0002 10Z" fill="#2D264B"/>
<path d="M8.0002 10C8.0002 10.5523 7.55248 11 7.0002 11C6.44791 11 6.0002 10.5523 6.0002 10C6.0002 9.44772 6.44791 9 7.0002 9C7.55248 9 8.0002 9.44772 8.0002 10Z" fill="#2D264B"/>
</svg>
