<svg width="24" height="24" viewBox="0 0 24 24" fill="none" xmlns="http://www.w3.org/2000/svg">
<path d="M13 16.25C12.5858 16.25 12.25 16.5858 12.25 17C12.25 17.4142 12.5858 17.75 13 17.75H17C17.4142 17.75 17.75 17.4142 17.75 17C17.75 16.5858 17.4142 16.25 17 16.25H13Z" fill="#2D264B"/>
<path fill-rule="evenodd" clip-rule="evenodd" d="M16.3451 3.32061C15.4807 3.24999 14.4053 3.25 13.0336 3.25H10.9664C9.59472 3.25 8.51929 3.24999 7.65494 3.32061C6.77479 3.39252 6.04769 3.54138 5.38955 3.87671C4.30762 4.42798 3.42798 5.30762 2.87671 6.38955C2.39394 7.33705 2.2906 8.44938 2.26119 9.98564C2.25 10.5699 2.25 11.2352 2.25 11.9942V12.0336C2.25 13.4053 2.24999 14.4807 2.32061 15.3451C2.39252 16.2252 2.54138 16.9523 2.87671 17.6104C3.42798 18.6924 4.30762 19.572 5.38955 20.1233C6.04769 20.4586 6.77479 20.6075 7.65494 20.6794C8.51927 20.75 9.59469 20.75 10.9664 20.75H13.0336C14.4053 20.75 15.4807 20.75 16.3451 20.6794C17.2252 20.6075 17.9523 20.4586 18.6104 20.1233C19.6924 19.572 20.572 18.6924 21.1233 17.6104C21.4586 16.9523 21.6075 16.2252 21.6794 15.3451C21.75 14.4807 21.75 13.4053 21.75 12.0336V11.9942C21.75 11.2352 21.75 10.5699 21.7388 9.98564C21.7094 8.44938 21.6061 7.33705 21.1233 6.38955C20.572 5.30762 19.6924 4.42798 18.6104 3.87671C17.9523 3.54138 17.2252 3.39252 16.3451 3.32061ZM6.07054 5.21322C6.48197 5.00359 6.9897 4.87996 7.77708 4.81563C8.57322 4.75058 9.58749 4.75 11 4.75H13C14.4125 4.75 15.4268 4.75058 16.2229 4.81563C17.0103 4.87996 17.518 5.00359 17.9295 5.21322C18.7291 5.62068 19.3793 6.27085 19.7868 7.07054C20.0409 7.56922 20.1625 8.19217 20.2143 9.25H3.78567C3.83752 8.19217 3.95913 7.56922 4.21322 7.07054C4.62068 6.27085 5.27085 5.62068 6.07054 5.21322ZM3.75 12C3.75 11.5452 3.75001 11.1307 3.7523 10.75H20.2477C20.25 11.1307 20.25 11.5452 20.25 12C20.25 13.4125 20.2494 14.4268 20.1844 15.2229C20.12 16.0103 19.9964 16.518 19.7868 16.9295C19.3793 17.7291 18.7291 18.3793 17.9295 18.7868C17.518 18.9964 17.0103 19.12 16.2229 19.1844C15.4268 19.2494 14.4125 19.25 13 19.25H11C9.58749 19.25 8.57322 19.2494 7.77708 19.1844C6.9897 19.12 6.48197 18.9964 6.07054 18.7868C5.27085 18.3793 4.62068 17.7291 4.21322 16.9295C4.00359 16.518 3.87996 16.0103 3.81563 15.2229C3.75058 14.4268 3.75 13.4125 3.75 12Z" fill="#2D264B"/>
</svg>
