<svg width="24" height="24" viewBox="0 0 24 24" fill="none" xmlns="http://www.w3.org/2000/svg">
<path fill-rule="evenodd" clip-rule="evenodd" d="M4.56818 2C4.56818 1.58579 4.2324 1.25 3.81818 1.25C3.40397 1.25 3.06818 1.58579 3.06818 2V3.06818H2C1.58579 3.06818 1.25 3.40397 1.25 3.81818C1.25 4.2324 1.58579 4.56818 2 4.56818H3.06818L3.06818 10.2392C3.06817 12.5476 3.06816 14.3566 3.25793 15.7681C3.45217 17.2128 3.85751 18.3529 4.75232 19.2477C5.64713 20.1425 6.78715 20.5478 8.23189 20.7421C9.64337 20.9318 11.4524 20.9318 13.7608 20.9318H19.4318L19.4319 22C19.4319 22.4142 19.7677 22.75 20.1819 22.75C20.5961 22.75 20.9319 22.4142 20.9319 22L20.9318 20.9318H22C22.4142 20.9318 22.75 20.596 22.75 20.1818C22.75 19.7676 22.4142 19.4318 22 19.4318H20.9318V13.7608C20.9318 11.4524 20.9318 9.64338 20.7421 8.23189C20.5872 7.07991 20.2981 6.12167 19.7337 5.32699L22.0303 3.03033C22.3232 2.73744 22.3232 2.26256 22.0303 1.96967C21.7374 1.67678 21.2626 1.67678 20.9697 1.96967L18.673 4.26633C17.8783 3.7019 16.9201 3.41281 15.7681 3.25793C14.3566 3.06816 12.5476 3.06817 10.2392 3.06818L4.56818 3.06818V2ZM4.74455 15.5682C4.56977 14.2683 4.56818 12.56 4.56818 10.1818V4.56818H10.1818C12.56 4.56818 14.2683 4.56977 15.5682 4.74455C16.4498 4.86308 17.09 5.05532 17.5893 5.35006L5.35006 17.5893C5.05532 17.09 4.86308 16.4498 4.74455 15.5682ZM6.41072 18.6499L18.6499 6.41072C18.9447 6.91001 19.1369 7.55017 19.2554 8.43176C19.4302 9.73174 19.4318 11.44 19.4318 13.8182V19.4318H13.8182C11.44 19.4318 9.73174 19.4302 8.43176 19.2554C7.55017 19.1369 6.91001 18.9447 6.41072 18.6499Z" fill="#2D264B"/>
</svg>
