<svg width="24" height="24" viewBox="0 0 24 24" fill="none" xmlns="http://www.w3.org/2000/svg">
<path d="M8 9C8 9.55228 8.44772 10 9 10C9.55228 10 10 9.55228 10 9C10 8.44772 9.55228 8 9 8C8.44772 8 8 8.44772 8 9Z" fill="#2D264B"/>
<path d="M14 15C14 15.5523 14.4477 16 15 16C15.5523 16 16 15.5523 16 15C16 14.4477 15.5523 14 15 14C14.4477 14 14 14.4477 14 15Z" fill="#2D264B"/>
<path d="M15.1872 9.87348C15.4801 9.58058 15.4801 9.10571 15.1872 8.81282C14.8943 8.51992 14.4194 8.51992 14.1265 8.81282L8.46967 14.4697C8.17678 14.7626 8.17678 15.2374 8.46967 15.5303C8.76256 15.8232 9.23744 15.8232 9.53033 15.5303L15.1872 9.87348Z" fill="#2D264B"/>
<path fill-rule="evenodd" clip-rule="evenodd" d="M16.4635 2.37373C15.3214 2.24999 13.8818 2.24999 12.0452 2.25H11.9548C10.1182 2.24999 8.67861 2.24999 7.53648 2.37373C6.37094 2.50001 5.42656 2.76232 4.62024 3.34815C4.13209 3.70281 3.70281 4.13209 3.34815 4.62024C2.76232 5.42656 2.50001 6.37094 2.37373 7.53648C2.24999 8.67861 2.24999 10.1182 2.25 11.9548V12.0452C2.24999 13.8818 2.24999 15.3214 2.37373 16.4635C2.50001 17.6291 2.76232 18.5734 3.34815 19.3798C3.70281 19.8679 4.13209 20.2972 4.62024 20.6518C5.42656 21.2377 6.37094 21.5 7.53648 21.6263C8.67859 21.75 10.1182 21.75 11.9547 21.75H12.0453C13.8818 21.75 15.3214 21.75 16.4635 21.6263C17.6291 21.5 18.5734 21.2377 19.3798 20.6518C19.8679 20.2972 20.2972 19.8679 20.6518 19.3798C21.2377 18.5734 21.5 17.6291 21.6263 16.4635C21.75 15.3214 21.75 13.8818 21.75 12.0453V11.9547C21.75 10.1182 21.75 8.67859 21.6263 7.53648C21.5 6.37094 21.2377 5.42656 20.6518 4.62024C20.2972 4.13209 19.8679 3.70281 19.3798 3.34815C18.5734 2.76232 17.6291 2.50001 16.4635 2.37373ZM5.50191 4.56168C6.00992 4.19259 6.66013 3.97745 7.69804 3.865C8.74999 3.75103 10.1084 3.75 12 3.75C13.8916 3.75 15.25 3.75103 16.302 3.865C17.3399 3.97745 17.9901 4.19259 18.4981 4.56168C18.8589 4.82382 19.1762 5.14111 19.4383 5.50191C19.8074 6.00992 20.0225 6.66013 20.135 7.69804C20.249 8.74999 20.25 10.1084 20.25 12C20.25 13.8916 20.249 15.25 20.135 16.302C20.0225 17.3399 19.8074 17.9901 19.4383 18.4981C19.1762 18.8589 18.8589 19.1762 18.4981 19.4383C17.9901 19.8074 17.3399 20.0225 16.302 20.135C15.25 20.249 13.8916 20.25 12 20.25C10.1084 20.25 8.74999 20.249 7.69804 20.135C6.66013 20.0225 6.00992 19.8074 5.50191 19.4383C5.14111 19.1762 4.82382 18.8589 4.56168 18.4981C4.19259 17.9901 3.97745 17.3399 3.865 16.302C3.75103 15.25 3.75 13.8916 3.75 12C3.75 10.1084 3.75103 8.74999 3.865 7.69804C3.97745 6.66013 4.19259 6.00992 4.56168 5.50191C4.82382 5.14111 5.14111 4.82382 5.50191 4.56168Z" fill="#2D264B"/>
</svg>
