<svg width="24" height="24" viewBox="0 0 24 24" fill="none" xmlns="http://www.w3.org/2000/svg">
<path fill-rule="evenodd" clip-rule="evenodd" d="M14.0227 4.72296L14.1127 4.77496C14.8909 5.22418 15.5397 5.59877 16.0148 5.96541C16.5163 6.3524 16.9143 6.7966 17.0811 7.41878C17.2478 8.04096 17.1252 8.62466 16.8844 9.21055C16.6562 9.76563 16.2816 10.4145 15.8323 11.1925L11.9568 17.9053C11.6599 18.4206 11.4251 18.828 11.0677 19.135C10.7104 19.4421 10.2722 19.6129 9.71809 19.8288L9.56835 19.8873C8.54013 20.289 7.69257 20.6202 6.99851 20.7823C6.27263 20.9519 5.57176 20.973 4.91849 20.5959C4.26522 20.2187 3.93306 19.6012 3.71699 18.8878C3.51039 18.2056 3.37341 17.306 3.20723 16.2147L3.18297 16.0558C3.09294 15.4679 3.02175 15.0031 3.10899 14.5401C3.11989 14.4822 3.13311 14.4252 3.14848 14.3687C3.25606 13.9736 3.46891 13.6057 3.72947 13.1552L7.60509 6.44255C8.0543 5.66443 8.42889 5.01557 8.79553 4.54046C9.18253 4.03898 9.62672 3.64095 10.2489 3.47424C10.8711 3.30752 11.4548 3.43013 12.0407 3.67093C12.5958 3.89907 13.2446 4.2737 14.0227 4.72296ZM8.50313 7.8871L14.1323 11.1371L10.7089 17.0667C10.3359 17.7127 10.2293 17.8778 10.0902 17.9973C9.95108 18.1168 9.77174 18.1974 9.07696 18.4688C7.98049 18.8972 7.23373 19.187 6.65725 19.3217C6.10038 19.4518 5.84769 19.4003 5.66849 19.2968C5.48929 19.1934 5.31836 19.0003 5.1526 18.453C4.981 17.8864 4.85857 17.0948 4.68132 15.931C4.56901 15.1936 4.5491 14.998 4.58305 14.8178C4.61701 14.6376 4.70673 14.4627 5.07969 13.8167L8.50313 7.8871ZM15.497 8.64033C15.3645 8.96277 15.1618 9.3419 14.8807 9.83716L9.2547 6.58897C9.54308 6.09794 9.77007 5.73285 9.98305 5.45687C10.2675 5.08825 10.4591 4.97083 10.6371 4.92313C10.8152 4.87543 11.0398 4.88132 11.4705 5.05832C11.9213 5.2436 12.4829 5.566 13.3177 6.048C14.1526 6.53001 14.7126 6.85517 15.0984 7.15293C15.467 7.43739 15.5845 7.62899 15.6322 7.80701C15.6799 7.98503 15.674 8.20967 15.497 8.64033Z" fill="#2D264B"/>
<path d="M12.6597 20.2513C12.6597 19.837 12.9955 19.5013 13.4097 19.5013H19.4097C19.8239 19.5013 20.1597 19.837 20.1597 20.2513C20.1597 20.6655 19.8239 21.0013 19.4097 21.0013H13.4097C12.9955 21.0013 12.6597 20.6655 12.6597 20.2513Z" fill="#2D264B"/>
</svg>
