<svg width="24" height="24" viewBox="0 0 24 24" fill="none" xmlns="http://www.w3.org/2000/svg">
<path d="M12.75 10C12.75 9.58582 12.4142 9.25003 12 9.25003C11.5858 9.25003 11.25 9.58582 11.25 10V12.25H9C8.58579 12.25 8.25 12.5858 8.25 13C8.25 13.4142 8.58579 13.75 9 13.75H11.25V16C11.25 16.4142 11.5858 16.75 12 16.75C12.4142 16.75 12.75 16.4142 12.75 16V13.75H15C15.4142 13.75 15.75 13.4142 15.75 13C15.75 12.5858 15.4142 12.25 15 12.25H12.75V10Z" fill="#2D264B"/>
<path fill-rule="evenodd" clip-rule="evenodd" d="M11.8382 0.250016C10.1319 0.249748 9.09073 0.249584 8.22321 0.531458C6.47269 1.10024 5.10026 2.47267 4.53148 4.22319C4.5052 4.30408 4.48146 4.38585 4.46002 4.46892C4.03779 4.79879 3.66348 5.18626 3.34815 5.62027C2.76232 6.42659 2.50001 7.37097 2.37373 8.53651C2.24999 9.67865 2.24999 11.1182 2.25 12.9548V13.0453C2.24999 14.8818 2.24999 16.3214 2.37373 17.4636C2.50001 18.6291 2.76232 19.5735 3.34815 20.3798C3.70281 20.8679 4.13209 21.2972 4.62024 21.6519C5.42656 22.2377 6.37094 22.5 7.53648 22.6263C8.67859 22.75 10.1182 22.75 11.9547 22.75H12.0453C13.8818 22.75 15.3214 22.75 16.4635 22.6263C17.6291 22.5 18.5734 22.2377 19.3798 21.6519C19.8679 21.2972 20.2972 20.8679 20.6518 20.3798C21.2377 19.5735 21.5 18.6291 21.6263 17.4636C21.75 16.3214 21.75 14.8819 21.75 13.0454V12.9548C21.75 11.1183 21.75 9.67863 21.6263 8.53651C21.5 7.37097 21.2377 6.42659 20.6518 5.62027C20.3366 5.18631 19.9623 4.79887 19.5401 4.46903C19.5187 4.38592 19.4949 4.30411 19.4686 4.22319C18.8999 2.47267 17.5274 1.10024 15.7769 0.531458C14.9094 0.249584 13.8682 0.249748 12.1619 0.250016H11.8382ZM7.59818 3.36722C7.22439 3.40594 6.87305 3.45814 6.54152 3.52994C7.06367 2.79896 7.81122 2.24251 8.68673 1.95804C9.29844 1.75929 10.0804 1.75003 12.0001 1.75003C13.9197 1.75003 14.7017 1.75929 15.3134 1.95804C16.1889 2.24252 16.9365 2.79898 17.4586 3.52997C17.1271 3.45816 16.7757 3.40595 16.4019 3.36723C15.2703 3.25002 13.8487 3.25003 12.0428 3.25003H11.9572C10.1514 3.25003 8.72979 3.25002 7.59818 3.36722ZM5.55694 5.52272C6.0652 5.17163 6.71896 4.96631 7.75271 4.85924C8.79808 4.75097 10.1422 4.75003 12 4.75003C13.8579 4.75003 15.202 4.75097 16.2474 4.85925C17.2811 4.96633 17.9349 5.17166 18.4432 5.52279C18.4455 5.52438 18.4478 5.52598 18.4501 5.52758C18.4662 5.53877 18.4822 5.55015 18.4981 5.56171C18.8589 5.82385 19.1762 6.14114 19.4383 6.50195C19.8074 7.00995 20.0225 7.66017 20.135 8.69808C20.249 9.75003 20.25 11.1085 20.25 13C20.25 14.8916 20.249 16.25 20.135 17.302C20.0225 18.3399 19.8074 18.9901 19.4383 19.4981C19.1762 19.8589 18.8589 20.1762 18.4981 20.4384C17.9901 20.8074 17.3399 21.0226 16.302 21.135C15.25 21.249 13.8916 21.25 12 21.25C10.1084 21.25 8.74999 21.249 7.69804 21.135C6.66013 21.0226 6.00992 20.8074 5.50191 20.4384C5.14111 20.1762 4.82382 19.8589 4.56168 19.4981C4.19259 18.9901 3.97745 18.3399 3.865 17.302C3.75103 16.25 3.75 14.8916 3.75 13C3.75 11.1085 3.75103 9.75003 3.865 8.69808C3.97745 7.66017 4.19259 7.00995 4.56168 6.50195C4.82382 6.14114 5.14111 5.82385 5.50191 5.56171C5.52013 5.54847 5.53847 5.53548 5.55694 5.52272Z" fill="#2D264B"/>
</svg>
