<svg width="24" height="24" viewBox="0 0 24 24" fill="none" xmlns="http://www.w3.org/2000/svg">
<path d="M15.009 2.25726C14.4033 2.25 13.7362 2.25 13.0032 2.25H10.9548C9.11821 2.24999 7.67861 2.24999 6.53648 2.37373C5.37094 2.50001 4.42656 2.76232 3.62024 3.34815C3.13209 3.70281 2.70281 4.13209 2.34815 4.62024C2.19354 4.83304 2.06012 5.05734 1.94538 5.29546C1.57515 6.06379 1.41014 6.95506 1.32976 8.01904C1.25 9.07487 1.25 10.3707 1.25 11.9709V12.0452C1.24999 13.8818 1.24999 15.3214 1.37373 16.4635C1.50001 17.6291 1.76232 18.5734 2.34815 19.3798C2.70281 19.8679 3.13209 20.2972 3.62024 20.6518C4.42656 21.2377 5.37094 21.5 6.53648 21.6263C7.67859 21.75 9.11817 21.75 10.9547 21.75H13.0453C14.8818 21.75 16.3214 21.75 17.4635 21.6263C18.6291 21.5 19.5734 21.2377 20.3798 20.6518C20.8679 20.2972 21.2972 19.8679 21.6518 19.3798C22.2377 18.5734 22.5 17.6291 22.6263 16.4635C22.75 15.3214 22.75 13.8818 22.75 12.0453V11.9966C22.75 11.2532 22.75 10.5776 22.7424 9.9651C22.7373 9.55092 22.3974 9.21931 21.9832 9.22443C21.569 9.22956 21.2374 9.56947 21.2425 9.98365C21.25 10.586 21.25 11.2528 21.25 12C21.25 13.8916 21.249 15.25 21.135 16.302C21.0225 17.3399 20.8074 17.9901 20.4383 18.4981C20.1762 18.8589 19.8589 19.1762 19.4981 19.4383C18.9901 19.8074 18.3399 20.0225 17.302 20.135C16.25 20.249 14.8916 20.25 13 20.25H11C9.10843 20.25 7.74999 20.249 6.69804 20.135C5.66013 20.0225 5.00992 19.8074 4.50191 19.4383C4.14111 19.1762 3.82382 18.8589 3.56168 18.4981C3.19259 17.9901 2.97745 17.3399 2.865 16.302C2.75103 15.25 2.75 13.8916 2.75 12C2.75 10.3648 2.75049 9.12493 2.8255 8.13204C2.85746 7.70891 2.9023 7.34361 2.96271 7.02337L4.43916 8.49982C6.07143 10.1321 7.35062 11.4113 8.48288 12.2752C9.64181 13.1594 10.7345 13.6789 12 13.6789C13.9309 13.6789 15.4872 12.4633 17.519 10.5158C17.818 10.2292 17.8281 9.75441 17.5414 9.45538C17.2548 9.15636 16.78 9.14631 16.481 9.43294C14.403 11.4248 13.2532 12.1789 12 12.1789C11.1944 12.1789 10.4183 11.8651 9.39275 11.0827C8.34994 10.287 7.14092 9.08026 5.45926 7.3986L3.56205 5.50139C3.82412 5.14081 4.14128 4.82369 4.50191 4.56168C5.00992 4.19259 5.66013 3.97745 6.69804 3.865C7.74999 3.75103 9.10843 3.75 11 3.75H13C13.7367 3.75 14.3952 3.75001 14.991 3.75715C15.4052 3.76212 15.745 3.43038 15.7499 3.0162C15.7549 2.60201 15.4232 2.26223 15.009 2.25726Z" fill="#2D264B"/>
<path fill-rule="evenodd" clip-rule="evenodd" d="M20 2.25C18.4812 2.25 17.25 3.48122 17.25 5C17.25 6.51878 18.4812 7.75 20 7.75C21.5188 7.75 22.75 6.51878 22.75 5C22.75 3.48122 21.5188 2.25 20 2.25ZM18.75 5C18.75 4.30964 19.3096 3.75 20 3.75C20.6904 3.75 21.25 4.30964 21.25 5C21.25 5.69036 20.6904 6.25 20 6.25C19.3096 6.25 18.75 5.69036 18.75 5Z" fill="#2D264B"/>
</svg>
