<svg width="24" height="24" viewBox="0 0 24 24" fill="none" xmlns="http://www.w3.org/2000/svg">
<path fill-rule="evenodd" clip-rule="evenodd" d="M18.9999 2.25C17.4812 2.25 16.2499 3.48122 16.2499 5C16.2499 6.51878 17.4812 7.75 18.9999 7.75C20.5187 7.75 21.75 6.51878 21.75 5C21.75 3.48122 20.5187 2.25 18.9999 2.25ZM17.7499 5C17.7499 4.30964 18.3096 3.75 18.9999 3.75C19.6903 3.75 20.25 4.30964 20.25 5C20.25 5.69036 19.6903 6.25 18.9999 6.25C18.3096 6.25 17.7499 5.69036 17.7499 5Z" fill="#2D264B"/>
<path d="M11.339 3.25C10.1307 3.25 9.18094 3.24999 8.41092 3.30905C7.62498 3.36933 6.97024 3.49408 6.36169 3.77306C5.35626 4.23397 4.50509 4.97509 3.91024 5.90756C3.74639 6.1644 3.61232 6.43586 3.49882 6.72997C3.13786 7.66528 2.9666 8.89886 2.7188 10.6838L2.69823 10.8319C2.48432 12.372 2.3171 13.5759 2.26632 14.5457C2.21475 15.5303 2.27713 16.3508 2.57333 17.1041C3.05745 18.3353 3.95134 19.362 5.10425 20.0109C5.80964 20.4079 6.61378 20.5825 7.59614 20.6669C8.56367 20.75 9.77917 20.75 11.334 20.75H13.0301C14.585 20.75 15.8005 20.75 16.768 20.6669C17.7504 20.5825 18.5545 20.4079 19.2599 20.0109C20.4128 19.362 21.3067 18.3353 21.7908 17.1041C22.087 16.3508 22.1494 15.5303 22.0978 14.5457C22.0471 13.5759 21.8798 12.3719 21.6659 10.8318L21.661 10.7963C21.604 10.386 21.2252 10.0996 20.8149 10.1566C20.4047 10.2136 20.1183 10.5924 20.1752 11.0026C20.3951 12.5859 20.5529 13.7262 20.5999 14.6241C20.6465 15.5146 20.5782 16.089 20.3949 16.5552C20.037 17.4653 19.3763 18.2241 18.5242 18.7037C18.0876 18.9494 17.5281 19.0961 16.6397 19.1724C15.7438 19.2494 14.5927 19.25 12.9942 19.25H11.37C9.7715 19.25 8.62033 19.2494 7.7245 19.1724C6.83607 19.0961 6.27656 18.9494 5.83998 18.7037C4.98782 18.2241 4.32712 17.4652 3.96929 16.5552C3.78596 16.089 3.71763 15.5146 3.76426 14.6241C3.81129 13.7262 3.96901 12.5859 4.18891 11.0026C4.34588 9.87248 4.46276 9.04325 4.59113 8.39891C6.17998 9.98769 7.43254 11.2353 8.54362 12.0831C9.70255 12.9673 10.7953 13.4868 12.0607 13.4868C13.9735 13.4868 15.5174 12.2943 17.5181 10.3827C17.8176 10.0965 17.8284 9.62178 17.5422 9.3223C17.2561 9.02282 16.7813 9.01201 16.4818 9.29816C14.4408 11.2483 13.3005 11.9868 12.0607 11.9868C11.2551 11.9868 10.479 11.673 9.45349 10.8905C8.41068 10.0949 7.20166 8.88813 5.52 7.20647L5.51057 7.19704L5.10896 6.82302C5.13031 6.78589 5.15225 6.74969 5.17483 6.71428C5.61451 6.02507 6.24363 5.47729 6.98678 5.13661C7.37039 4.96075 7.829 4.85809 8.52563 4.80466C9.23161 4.75051 10.124 4.75 11.37 4.75H12.9942C13.4084 4.75 13.7442 4.41421 13.7442 4C13.7442 3.58579 13.4084 3.25 12.9942 3.25L11.339 3.25Z" fill="#2D264B"/>
</svg>
