<svg width="24" height="24" viewBox="0 0 24 24" fill="none" xmlns="http://www.w3.org/2000/svg">
<path d="M12.7935 9.09823C12.7787 9.08635 12.7642 9.07487 12.75 9.06379V16C12.75 16.4142 12.4142 16.75 12 16.75C11.5858 16.75 11.25 16.4142 11.25 16V9.06379C11.2358 9.07487 11.2213 9.08635 11.2065 9.09823C10.8839 9.35733 10.5003 9.74268 9.93054 10.3176L8.53269 11.728C8.24111 12.0222 7.76624 12.0243 7.47204 11.7327C7.17784 11.4411 7.17573 10.9662 7.46731 10.672L8.89565 9.2309C9.42704 8.69472 9.87022 8.24753 10.2672 7.92869C10.6837 7.59426 11.1213 7.33989 11.6545 7.27193C11.8839 7.24269 12.1161 7.24269 12.3455 7.27193C12.8787 7.33989 13.3163 7.59427 13.7328 7.92869C14.1298 8.24753 14.5729 8.69469 15.1043 9.23085L16.5327 10.672C16.8243 10.9662 16.8222 11.4411 16.528 11.7327C16.2338 12.0243 15.7589 12.0222 15.4673 11.728L14.0695 10.3176C13.4997 9.74268 13.1161 9.35733 12.7935 9.09823Z" fill="#2D264B"/>
<path fill-rule="evenodd" clip-rule="evenodd" d="M12 1.25C6.06294 1.25 1.25 6.06294 1.25 12C1.25 17.9371 6.06294 22.75 12 22.75C17.9371 22.75 22.75 17.9371 22.75 12C22.75 6.06294 17.9371 1.25 12 1.25ZM2.75 12C2.75 6.89137 6.89137 2.75 12 2.75C17.1086 2.75 21.25 6.89137 21.25 12C21.25 17.1086 17.1086 21.25 12 21.25C6.89137 21.25 2.75 17.1086 2.75 12Z" fill="#2D264B"/>
</svg>
