<svg width="24" height="24" viewBox="0 0 24 24" fill="none" xmlns="http://www.w3.org/2000/svg">
<path d="M11.75 8C11.75 7.58579 11.4142 7.25 11 7.25C10.5858 7.25 10.25 7.58579 10.25 8V11.5C10.25 12.7426 11.2574 13.75 12.5 13.75H14C14.4142 13.75 14.75 13.4142 14.75 13C14.75 12.5858 14.4142 12.25 14 12.25H12.5C12.0858 12.25 11.75 11.9142 11.75 11.5V8Z" fill="#2D264B"/>
<path fill-rule="evenodd" clip-rule="evenodd" d="M10.0001 0.25C7.35268 0.25 5.12464 2.03846 4.45537 4.47251C3.79927 4.98619 3.25903 5.63922 2.87671 6.38955C2.54138 7.04768 2.39252 7.77479 2.32061 8.65494C2.24999 9.51929 2.25 10.5947 2.25 11.9664V12.0336C2.25 13.4053 2.24999 14.4807 2.32061 15.3451C2.39252 16.2252 2.54138 16.9523 2.87671 17.6104C3.25897 18.3607 3.7991 19.0136 4.45507 19.5273C5.12425 21.9614 7.35235 23.75 9.99984 23.75H11.9998C14.6472 23.75 16.8752 21.9616 17.5445 19.5276C18.2007 19.0139 18.741 18.3608 19.1233 17.6104C19.4586 16.9523 19.6075 16.2252 19.6794 15.3451C19.75 14.4807 19.75 13.4053 19.75 12.0336V11.9664C19.75 10.5947 19.75 9.51927 19.6794 8.65494C19.6075 7.77479 19.4586 7.04768 19.1233 6.38955C18.741 5.6393 18.2008 4.98633 17.5448 4.47267C16.8756 2.03854 14.6475 0.25 12.0001 0.25H10.0001ZM7.65494 3.32061C7.27228 3.35188 6.91855 3.39768 6.58684 3.46704C7.36158 2.42502 8.60242 1.75 10.0001 1.75H12.0001C13.3978 1.75 14.6386 2.42503 15.4133 3.46708C15.0816 3.3977 14.7278 3.35188 14.3451 3.32061C13.4807 3.24999 12.4053 3.25 11.0336 3.25H10.9664C9.59472 3.25 8.51929 3.24999 7.65494 3.32061ZM9.99984 22.25C8.60215 22.25 7.3613 21.575 6.58656 20.5329C6.91835 20.6023 7.27217 20.6481 7.65494 20.6794C8.51927 20.75 9.59469 20.75 10.9664 20.75H11.0336C12.4053 20.75 13.4807 20.75 14.3451 20.6794C14.7277 20.6481 15.0814 20.6023 15.4131 20.533C14.6383 21.575 13.3975 22.25 11.9998 22.25H9.99984ZM6.07054 5.21322C6.48197 5.00359 6.9897 4.87996 7.77708 4.81563C8.57322 4.75058 9.58749 4.75 11 4.75C12.4125 4.75 13.4268 4.75058 14.2229 4.81563C15.0103 4.87996 15.518 5.00359 15.9295 5.21322C16.1109 5.30567 16.2846 5.41059 16.4495 5.52692C17.0117 5.92338 17.4718 6.45228 17.7868 7.07054C17.9964 7.48197 18.12 7.9897 18.1844 8.77708C18.2494 9.57322 18.25 10.5875 18.25 12C18.25 13.4125 18.2494 14.4268 18.1844 15.2229C18.12 16.0103 17.9964 16.518 17.7868 16.9295C17.4717 17.5478 17.0115 18.0768 16.4493 18.4733C16.2844 18.5895 16.1108 18.6944 15.9295 18.7868C15.518 18.9964 15.0103 19.12 14.2229 19.1844C13.4268 19.2494 12.4125 19.25 11 19.25C9.58749 19.25 8.57322 19.2494 7.77708 19.1844C6.9897 19.12 6.48197 18.9964 6.07054 18.7868C5.88908 18.6943 5.71533 18.5894 5.55037 18.473C4.98829 18.0766 4.52823 17.5477 4.21322 16.9295C4.00359 16.518 3.87996 16.0103 3.81563 15.2229C3.75058 14.4268 3.75 13.4125 3.75 12C3.75 10.5875 3.75058 9.57322 3.81563 8.77708C3.87996 7.9897 4.00359 7.48197 4.21322 7.07054C4.52827 6.45222 4.98843 5.92328 5.55062 5.52681C5.7155 5.41053 5.88917 5.30564 6.07054 5.21322Z" fill="#2D264B"/>
<path d="M21.75 10C21.75 9.58579 21.4142 9.25 21 9.25C20.5858 9.25 20.25 9.58579 20.25 10V14C20.25 14.4142 20.5858 14.75 21 14.75C21.4142 14.75 21.75 14.4142 21.75 14V10Z" fill="#2D264B"/>
</svg>
