<svg width="24" height="24" viewBox="0 0 24 24" fill="none" xmlns="http://www.w3.org/2000/svg">
<path fill-rule="evenodd" clip-rule="evenodd" d="M11.9997 0.25C7.16723 0.25 3.24972 4.16751 3.24972 9C3.24972 10.1746 3.48155 11.2965 3.90235 12.3214C3.61194 12.6576 3.34292 13.1238 2.98074 13.7513L1.15476 16.914C0.929291 17.3044 0.72081 17.6654 0.600611 17.9642C0.482878 18.2569 0.334605 18.7645 0.662267 19.2343C0.994078 19.71 1.5267 19.7382 1.84236 19.7225C2.16195 19.7066 2.56824 19.6267 3.00467 19.5407L3.79593 19.3851C4.2346 19.2988 4.49486 19.2491 4.68796 19.2358C4.77615 19.2297 4.82351 19.2338 4.84681 19.2377C4.85751 19.2395 4.86254 19.2412 4.86383 19.2416C4.86491 19.242 4.86549 19.2423 4.86676 19.243C4.86804 19.2437 4.86854 19.2441 4.86942 19.2449C4.87045 19.2458 4.87442 19.2493 4.88133 19.2576C4.89637 19.2759 4.92358 19.3148 4.96242 19.3942C5.04747 19.5681 5.1345 19.8184 5.27911 20.2414L5.53993 21.0044C5.68375 21.4254 5.81764 21.8172 5.96369 22.102C6.10793 22.3832 6.39867 22.8304 6.97657 22.8798C7.54725 22.9287 7.91266 22.5465 8.10728 22.2982C8.30598 22.0447 8.51436 21.6837 8.73972 21.2932L10.5288 18.1944C10.6385 18.0043 10.7386 17.831 10.8284 17.6722C11.2119 17.7235 11.6029 17.75 11.9997 17.75C12.307 17.75 12.6107 17.7341 12.9102 17.7031C12.9954 17.8534 13.0895 18.0163 13.1921 18.194L14.9814 21.2932C15.2068 21.6837 15.4151 22.0447 15.6138 22.2982C15.8085 22.5465 16.1739 22.9287 16.7445 22.8798C17.3225 22.8304 17.6132 22.3832 17.7574 22.102C17.9035 21.8173 18.0374 21.4254 18.1812 21.0045L18.442 20.2414C18.5866 19.8184 18.6736 19.5681 18.7587 19.3942C18.7975 19.3148 18.8248 19.2759 18.8398 19.2576C18.8407 19.2566 18.8415 19.2556 18.8422 19.2547C18.8476 19.2484 18.8508 19.2456 18.8517 19.2449L18.853 19.2439L18.8544 19.243C18.8556 19.2423 18.8562 19.242 18.8573 19.2416C18.8586 19.2412 18.8636 19.2395 18.8743 19.2377C18.8976 19.2338 18.945 19.2297 19.0332 19.2358C19.2263 19.2491 19.4865 19.2988 19.9252 19.3851L20.7165 19.5407C21.1529 19.6267 21.5592 19.7066 21.8788 19.7225C22.1944 19.7382 22.727 19.71 23.0589 19.2343C23.3865 18.7645 23.2382 18.2569 23.1205 17.9642C23.0003 17.6654 22.7919 17.3045 22.5664 16.9141L20.7216 13.7188C20.4479 13.2443 20.2261 12.8598 19.9993 12.5503C20.4818 11.4645 20.7497 10.2627 20.7497 9C20.7497 4.16751 16.8322 0.25 11.9997 0.25ZM4.74972 9C4.74972 4.99594 7.99565 1.75 11.9997 1.75C16.0038 1.75 19.2497 4.99594 19.2497 9C19.2497 10.1987 18.9594 11.3274 18.4459 12.3217C17.4176 14.3128 15.4947 15.7651 13.2125 16.1491C12.8186 16.2154 12.4135 16.25 11.9997 16.25C11.5159 16.25 11.0438 16.2027 10.5877 16.1127C8.35262 15.6718 6.48389 14.2015 5.49921 12.2143C5.01964 11.2465 4.74972 10.1558 4.74972 9ZM4.23621 14.5768C4.42582 14.2484 4.56988 14.0003 4.68769 13.8075C5.76936 15.4496 7.38964 16.7061 9.29869 17.325L7.46652 20.4984C7.33567 20.7251 7.23143 20.9047 7.14429 21.0475C7.08847 20.8957 7.02337 20.7066 6.94232 20.4696L6.6852 19.7174C6.55841 19.3463 6.44155 19.0044 6.30985 18.7351C6.16447 18.4379 5.96172 18.1431 5.61676 17.944C5.27181 17.7448 4.91514 17.7166 4.58505 17.7393C4.28606 17.7599 3.93148 17.8297 3.54676 17.9054L2.76677 18.0588C2.52091 18.1072 2.32466 18.1453 2.1653 18.1728C2.24538 18.026 2.34881 17.8459 2.47966 17.6193L4.23621 14.5768ZM14.4645 17.3979C16.3897 16.8337 18.0385 15.6263 19.1636 14.0252C19.2544 14.1786 19.3598 14.3602 19.4849 14.5768L21.2415 17.6193C21.3723 17.8459 21.4757 18.026 21.5558 18.1728C21.3965 18.1453 21.2002 18.1072 20.9543 18.0588L20.1745 17.9054C19.7897 17.8297 19.4351 17.7599 19.1361 17.7393C18.806 17.7166 18.4493 17.7448 18.1044 17.944C17.7594 18.1431 17.5567 18.4379 17.4113 18.7351C17.2796 19.0044 17.1627 19.3463 17.0359 19.7174L16.7788 20.4696C16.6978 20.7066 16.6327 20.8957 16.5768 21.0475C16.4897 20.9047 16.3855 20.7251 16.2546 20.4984L14.4645 17.3979Z" fill="#2D264B"/>
</svg>
