<svg width="24" height="24" viewBox="0 0 24 24" fill="none" xmlns="http://www.w3.org/2000/svg">
<path fill-rule="evenodd" clip-rule="evenodd" d="M11.8385 1.25002C10.1322 1.24975 9.09102 1.24958 8.2235 1.53146C6.47298 2.10024 5.10055 3.47267 4.53177 5.22319L4.52316 5.25003H4.23112C0.525578 5.25003 -1.06623 9.95211 1.8773 12.203L1.88795 12.2112L4.35486 13.9615C4.44426 14.025 4.53703 14.0834 4.63274 14.1365C4.6341 14.14 4.63547 14.1436 4.63684 14.1472C4.64646 14.1723 4.6563 14.1973 4.66638 14.2224C4.92186 14.857 5.42056 15.6184 5.90018 16.1063C6.6818 16.9012 7.49068 17.2538 8.78234 17.8167L8.86818 17.8541C9.42453 18.0967 9.9871 18.3167 10.5094 18.4772C10.7568 18.5532 11.0066 18.6196 11.2503 18.6678V21.25H8.00035C7.58614 21.25 7.25035 21.5858 7.25035 22C7.25035 22.4142 7.58614 22.75 8.00035 22.75H16.0003C16.4146 22.75 16.7503 22.4142 16.7503 22C16.7503 21.5858 16.4146 21.25 16.0003 21.25H12.7503V18.6678C12.9941 18.6196 13.2439 18.5532 13.4913 18.4772C14.0136 18.3167 14.5762 18.0967 15.1325 17.8541L15.2184 17.8167C16.51 17.2538 17.3189 16.9012 18.1005 16.1063C18.5801 15.6184 19.0788 14.857 19.3343 14.2224C19.3455 14.1945 19.3564 14.1667 19.3671 14.1388C19.4648 14.0832 19.5598 14.0227 19.6516 13.9576L22.1129 12.2112L22.1235 12.203C25.0671 9.95211 23.4753 5.25003 19.7697 5.25003H19.4775L19.4689 5.22319C18.9001 3.47267 17.5277 2.10024 15.7772 1.53146C14.9097 1.24958 13.8685 1.24975 12.1622 1.25002H11.8385ZM2.77849 11.0038C0.988013 9.62126 1.96421 6.75003 4.23112 6.75003H4.28341C4.25029 7.33514 4.25031 8.03687 4.25035 8.91608L4.25034 10.416C4.25027 11.0411 4.2502 11.5801 4.27033 12.0623L2.77849 11.0038ZM21.2224 11.0038L19.7304 12.0624C19.7505 11.5804 19.7504 11.0416 19.7504 10.4169L19.7504 8.91603C19.7504 8.03693 19.7504 7.33509 19.7173 6.75003H19.7697C22.0366 6.75003 23.0128 9.62126 21.2224 11.0038ZM8.68703 2.95804C9.29874 2.75929 10.0807 2.75003 12.0003 2.75003C13.92 2.75003 14.702 2.75929 15.3137 2.95804C16.6075 3.37844 17.6219 4.39285 18.0423 5.68671C18.0846 5.81689 18.1192 5.95938 18.1471 6.12463C18.2477 6.72223 18.2503 7.52818 18.2503 9.00003V10.3004C18.2503 11.9475 18.2429 12.7174 18.0389 13.3896C18.0111 13.4814 17.9793 13.5717 17.9429 13.6622C17.7612 14.1134 17.3719 14.7078 17.0309 15.0546C16.4714 15.6237 15.9295 15.8703 14.533 16.4791C14.0068 16.7085 13.5003 16.9052 13.0506 17.0434C12.59 17.185 12.2364 17.25 12.0003 17.25C11.7643 17.25 11.4107 17.185 10.9501 17.0434C10.5004 16.9052 9.99386 16.7085 9.46766 16.4791C8.0712 15.8703 7.52926 15.6237 6.96979 15.0546C6.6288 14.7078 6.23949 14.1134 6.05785 13.6622C6.02035 13.569 5.98776 13.4761 5.95929 13.3814C5.75765 12.7107 5.75035 11.9405 5.75035 10.3004V9.00003C5.75035 7.52818 5.75297 6.72223 5.85364 6.12463C5.88148 5.95938 5.91606 5.81688 5.95836 5.68671C6.37876 4.39285 7.39317 3.37844 8.68703 2.95804Z" fill="#2D264B"/>
</svg>
