<svg width="24" height="24" viewBox="0 0 24 24" fill="none" xmlns="http://www.w3.org/2000/svg">
<path d="M5.6646 9.32919C6.03508 9.14395 6.48559 9.29411 6.67083 9.6646L6.7764 9.87574C7.44503 11.213 7.44503 12.787 6.7764 14.1243L6.67083 14.3354C6.48559 14.7059 6.03508 14.8561 5.6646 14.6708C5.29411 14.4856 5.14395 14.0351 5.32919 13.6646L5.43476 13.4535C5.89224 12.5385 5.89224 11.4615 5.43476 10.5466L5.32919 10.3354C5.14395 9.96494 5.29411 9.51443 5.6646 9.32919Z" fill="#2D264B"/>
<path fill-rule="evenodd" clip-rule="evenodd" d="M7.91919 5.25C7.9458 5.25001 7.97274 5.25001 8.00001 5.25001H12C12.0273 5.25001 12.0542 5.25001 12.0808 5.25C12.9328 5.24994 13.4518 5.2499 13.8995 5.3208C15.6984 5.60571 17.2131 6.71368 18.0501 8.25001H19C20.5188 8.25001 21.75 9.48123 21.75 11V13C21.75 14.5188 20.5188 15.75 19 15.75H18.0501C17.2131 17.2863 15.6984 18.3943 13.8995 18.6792C13.4518 18.7501 12.9328 18.7501 12.0808 18.75H7.91921C7.06718 18.7501 6.54819 18.7501 6.10051 18.6792C3.64013 18.2895 1.71049 16.3599 1.3208 13.8995C1.2499 13.4518 1.24994 12.9328 1.25 12.0808C1.25001 12.0542 1.25001 12.0273 1.25001 12C1.25001 11.9727 1.25001 11.9458 1.25 11.9192C1.24994 11.0672 1.2499 10.5482 1.3208 10.1005C1.71049 7.64013 3.64013 5.71049 6.10051 5.3208C6.54819 5.2499 7.06717 5.24994 7.91919 5.25ZM18.6126 14.25H19C19.6904 14.25 20.25 13.6904 20.25 13V11C20.25 10.3097 19.6904 9.75001 19 9.75001H18.6126C18.6383 9.86557 18.6605 9.98244 18.6792 10.1005C18.7501 10.5482 18.7501 11.0672 18.75 11.9192V12.0808C18.7501 12.9328 18.7501 13.4518 18.6792 13.8995C18.6605 14.0176 18.6383 14.1344 18.6126 14.25ZM8.00001 6.75001C7.04234 6.75001 6.65083 6.75234 6.33516 6.80233C4.51662 7.09036 3.09036 8.51662 2.80233 10.3352C2.75234 10.6508 2.75001 11.0423 2.75001 12C2.75001 12.9577 2.75234 13.3492 2.80233 13.6649C3.09036 15.4834 4.51662 16.9097 6.33516 17.1977C6.65083 17.2477 7.04234 17.25 8.00001 17.25H12C12.9577 17.25 13.3492 17.2477 13.6649 17.1977C15.1204 16.9671 16.3252 16.0072 16.8956 14.7001C17.0375 14.3748 17.1402 14.0279 17.1977 13.6649C17.2477 13.3492 17.25 12.9577 17.25 12C17.25 11.0423 17.2477 10.6508 17.1977 10.3352C17.1402 9.97211 17.0375 9.62517 16.8956 9.29995C16.3252 7.9928 15.1204 7.03287 13.6649 6.80233C13.3492 6.75234 12.9577 6.75001 12 6.75001H8.00001Z" fill="#2D264B"/>
</svg>
