<svg width="24" height="24" viewBox="0 0 24 24" fill="none" xmlns="http://www.w3.org/2000/svg">
<path d="M9.80965 8.39232C10.1453 8.63508 10.2205 9.10395 9.97778 9.43957L9.42584 10.2026C9.13131 10.6098 8.94567 10.8681 8.83216 11.0646C8.78857 11.1401 8.76709 11.1879 8.75685 11.2139C8.75857 11.2176 8.76053 11.2213 8.76272 11.2248C8.7894 11.232 8.84289 11.2436 8.93654 11.2534C9.16456 11.2772 9.48525 11.279 9.99033 11.2803L10.0286 11.2804C10.4927 11.2816 10.8974 11.2827 11.2149 11.3158C11.5297 11.3485 11.924 11.4246 12.2339 11.7096C12.5196 11.9724 12.7009 12.3299 12.7427 12.7167C12.7883 13.1377 12.6118 13.5002 12.4496 13.7705C12.286 14.0432 12.0445 14.3658 11.7682 14.7349L11.2334 15.4494C10.9852 15.781 10.5151 15.8486 10.1835 15.6004C9.8519 15.3522 9.7843 14.8822 10.0325 14.5506L10.5442 13.867C10.8505 13.4578 11.0442 13.1974 11.1633 12.9989C11.2093 12.9223 11.232 12.8736 11.2429 12.8472C11.2414 12.8437 11.2396 12.8403 11.2376 12.837C11.2103 12.8296 11.1555 12.8177 11.0596 12.8077C10.8271 12.7835 10.5 12.7817 9.9863 12.7803L9.94822 12.7802C9.49253 12.779 9.0942 12.778 8.781 12.7453C8.46923 12.7128 8.08033 12.6373 7.77229 12.3571C7.48731 12.0979 7.30451 11.7447 7.25884 11.3613C7.2093 10.9453 7.37705 10.5848 7.53327 10.3143C7.69014 10.0428 7.92264 9.72137 8.18794 9.35463L8.7624 8.56045C9.00516 8.22483 9.47403 8.14956 9.80965 8.39232Z" fill="#2D264B"/>
<path fill-rule="evenodd" clip-rule="evenodd" d="M7.91919 5.25C7.9458 5.25001 7.97274 5.25001 8.00001 5.25001H12C12.0273 5.25001 12.0542 5.25001 12.0808 5.25C12.9328 5.24994 13.4518 5.2499 13.8995 5.3208C15.6984 5.60571 17.2131 6.71368 18.0501 8.25001H19C20.5188 8.25001 21.75 9.48123 21.75 11V13C21.75 14.5188 20.5188 15.75 19 15.75H18.0501C17.2131 17.2863 15.6984 18.3943 13.8995 18.6792C13.4518 18.7501 12.9328 18.7501 12.0808 18.75H7.91921C7.06718 18.7501 6.54819 18.7501 6.10051 18.6792C3.64013 18.2895 1.71049 16.3599 1.3208 13.8995C1.2499 13.4518 1.24994 12.9328 1.25 12.0808C1.25001 12.0542 1.25001 12.0273 1.25001 12C1.25001 11.9727 1.25001 11.9458 1.25 11.9192C1.24994 11.0672 1.2499 10.5482 1.3208 10.1005C1.71049 7.64013 3.64013 5.71049 6.10051 5.3208C6.54819 5.2499 7.06717 5.24994 7.91919 5.25ZM18.6126 14.25H19C19.6904 14.25 20.25 13.6904 20.25 13V11C20.25 10.3097 19.6904 9.75001 19 9.75001H18.6126C18.6383 9.86557 18.6605 9.98244 18.6792 10.1005C18.7501 10.5482 18.7501 11.0672 18.75 11.9192V12.0808C18.7501 12.9328 18.7501 13.4518 18.6792 13.8995C18.6605 14.0176 18.6383 14.1344 18.6126 14.25ZM8.00001 6.75001C7.04234 6.75001 6.65083 6.75234 6.33516 6.80233C4.51662 7.09036 3.09036 8.51662 2.80233 10.3352C2.75234 10.6508 2.75001 11.0423 2.75001 12C2.75001 12.9577 2.75234 13.3492 2.80233 13.6649C3.09036 15.4834 4.51662 16.9097 6.33516 17.1977C6.65083 17.2477 7.04234 17.25 8.00001 17.25H12C12.9577 17.25 13.3492 17.2477 13.6649 17.1977C15.1204 16.9671 16.3252 16.0072 16.8956 14.7001C17.0375 14.3748 17.1402 14.0279 17.1977 13.6649C17.2477 13.3492 17.25 12.9577 17.25 12C17.25 11.0423 17.2477 10.6508 17.1977 10.3352C17.1402 9.97211 17.0375 9.62517 16.8956 9.29995C16.3252 7.9928 15.1204 7.03287 13.6649 6.80233C13.3492 6.75234 12.9577 6.75001 12 6.75001H8.00001Z" fill="#2D264B"/>
</svg>
