<svg width="24" height="24" viewBox="0 0 24 24" fill="none" xmlns="http://www.w3.org/2000/svg">
<path fill-rule="evenodd" clip-rule="evenodd" d="M9 1.25C9.41421 1.25 9.75 1.58579 9.75 2V3.26061C10.4192 3.25 11.1628 3.25 11.9889 3.25H12.0111C12.8372 3.25 13.5808 3.25 14.25 3.26061V2C14.25 1.58579 14.5858 1.25 15 1.25C15.4142 1.25 15.75 1.58579 15.75 2V3.31358C17.2619 3.40837 18.4234 3.65335 19.3798 4.34815C19.8679 4.70281 20.2972 5.13209 20.6518 5.62023C21.2377 6.42656 21.5 7.37094 21.6263 8.53648C21.75 9.67861 21.75 11.1182 21.75 12.9547V13.0115C21.75 14.1713 21.75 15.1686 21.7206 16.0257C21.6564 17.8991 21.4537 19.2761 20.6518 20.3798C20.2972 20.8679 19.8679 21.2972 19.3798 21.6518C18.2761 22.4537 16.8991 22.6564 15.0257 22.7206C14.1684 22.75 13.171 22.75 12.0108 22.75H11.9547C10.1182 22.75 8.67861 22.75 7.53648 22.6263C6.37094 22.5 5.42656 22.2377 4.62024 21.6518C4.13209 21.2972 3.70281 20.8679 3.34815 20.3798C2.76232 19.5734 2.50001 18.6291 2.37373 17.4635C2.24999 16.3214 2.24999 14.8818 2.25 13.0452V12.9548C2.24999 11.1182 2.24999 9.67861 2.37373 8.53648C2.50001 7.37094 2.76232 6.42656 3.34815 5.62023C3.70281 5.13209 4.13209 4.70281 4.62024 4.34815C5.57655 3.65335 6.73808 3.40837 8.25 3.31358V2C8.25 1.58579 8.58579 1.25 9 1.25ZM8.25 4.81725C6.88795 4.91092 6.10177 5.12585 5.50191 5.56168C5.14111 5.82382 4.82382 6.14111 4.56168 6.50191C4.19259 7.00992 3.97745 7.66013 3.865 8.69804C3.75103 9.74999 3.75 11.1084 3.75 13C3.75 14.8916 3.75103 16.25 3.865 17.302C3.97745 18.3399 4.19259 18.9901 4.56168 19.4981C4.82382 19.8589 5.14111 20.1762 5.50191 20.4383C6.00992 20.8074 6.66013 21.0225 7.69805 21.135C8.74999 21.249 10.1084 21.25 12 21.25C12.8483 21.25 13.5918 21.2499 14.2518 21.2392C14.2562 20.7645 14.271 20.4151 14.3208 20.1005C14.7105 17.6401 16.6401 15.7105 19.1005 15.3208C19.4151 15.271 19.7645 15.2562 20.2392 15.2518C20.25 14.5918 20.25 13.8483 20.25 13C20.25 11.1084 20.249 9.74999 20.135 8.69804C20.0225 7.66013 19.8074 7.00992 19.4383 6.50191C19.1762 6.14111 18.8589 5.82382 18.4981 5.56168C17.8982 5.12585 17.1121 4.91092 15.75 4.81725V5C15.75 5.41421 15.4142 5.75 15 5.75C14.5858 5.75 14.25 5.41421 14.25 5V4.76079C13.5904 4.75005 12.8476 4.75 12 4.75C11.1524 4.75 10.4096 4.75005 9.75 4.76079V5C9.75 5.41421 9.41421 5.75 9 5.75C8.58579 5.75 8.25 5.41421 8.25 5V4.81725ZM20.1826 16.7528C19.7776 16.7575 19.5402 16.7699 19.3352 16.8023C17.5166 17.0904 16.0904 18.5166 15.8023 20.3352C15.7699 20.5402 15.7575 20.7776 15.7528 21.1826C17.1131 21.0888 17.8986 20.8738 18.4981 20.4383C18.8589 20.1762 19.1762 19.8589 19.4383 19.4981C19.8739 18.8986 20.0888 18.1131 20.1826 16.7528Z" fill="#2D264B"/>
<path d="M8 9C8 9.55228 7.55229 10 7 10C6.44772 10 6 9.55228 6 9C6 8.44772 6.44772 8 7 8C7.55229 8 8 8.44772 8 9Z" fill="#2D264B"/>
<path d="M8 13C8 13.5523 7.55229 14 7 14C6.44772 14 6 13.5523 6 13C6 12.4477 6.44772 12 7 12C7.55229 12 8 12.4477 8 13Z" fill="#2D264B"/>
<path d="M13 9C13 9.55228 12.5523 10 12 10C11.4477 10 11 9.55228 11 9C11 8.44772 11.4477 8 12 8C12.5523 8 13 8.44772 13 9Z" fill="#2D264B"/>
<path d="M13 13C13 13.5523 12.5523 14 12 14C11.4477 14 11 13.5523 11 13C11 12.4477 11.4477 12 12 12C12.5523 12 13 12.4477 13 13Z" fill="#2D264B"/>
<path d="M13 17C13 17.5523 12.5523 18 12 18C11.4477 18 11 17.5523 11 17C11 16.4477 11.4477 16 12 16C12.5523 16 13 16.4477 13 17Z" fill="#2D264B"/>
<path d="M18 9C18 9.55228 17.5523 10 17 10C16.4477 10 16 9.55228 16 9C16 8.44772 16.4477 8 17 8C17.5523 8 18 8.44772 18 9Z" fill="#2D264B"/>
<path d="M18 13C18 13.5523 17.5523 14 17 14C16.4477 14 16 13.5523 16 13C16 12.4477 16.4477 12 17 12C17.5523 12 18 12.4477 18 13Z" fill="#2D264B"/>
<path d="M8 17C8 17.5523 7.55229 18 7 18C6.44772 18 6 17.5523 6 17C6 16.4477 6.44772 16 7 16C7.55229 16 8 16.4477 8 17Z" fill="#2D264B"/>
</svg>
