<svg width="24" height="24" viewBox="0 0 24 24" fill="none" xmlns="http://www.w3.org/2000/svg">
<path d="M6 16.25C5.58579 16.25 5.25 16.5858 5.25 17C5.25 17.4142 5.58579 17.75 6 17.75H8C8.41421 17.75 8.75 17.4142 8.75 17C8.75 16.5858 8.41421 16.25 8 16.25H6Z" fill="#2D264B"/>
<path d="M11 16.25C10.5858 16.25 10.25 16.5858 10.25 17C10.25 17.4142 10.5858 17.75 11 17.75H15C15.4142 17.75 15.75 17.4142 15.75 17C15.75 16.5858 15.4142 16.25 15 16.25H11Z" fill="#2D264B"/>
<path fill-rule="evenodd" clip-rule="evenodd" d="M17.3451 3.32061C16.4807 3.24999 15.4053 3.25 14.0336 3.25H9.96644C8.59472 3.25 7.51929 3.24999 6.65494 3.32061C5.77479 3.39252 5.04769 3.54138 4.38955 3.87671C3.30762 4.42798 2.42798 5.30762 1.87671 6.38955C1.39394 7.33705 1.2906 8.44938 1.26119 9.98564C1.25 10.5699 1.25 11.2352 1.25 11.9942V12.0336C1.25 13.4053 1.24999 14.4807 1.32061 15.3451C1.39252 16.2252 1.54138 16.9523 1.87671 17.6104C2.42798 18.6924 3.30762 19.572 4.38955 20.1233C5.04769 20.4586 5.77479 20.6075 6.65494 20.6794C7.51927 20.75 8.59469 20.75 9.96637 20.75H14.0336C15.4053 20.75 16.4807 20.75 17.3451 20.6794C18.2252 20.6075 18.9523 20.4586 19.6104 20.1233C20.6924 19.572 21.572 18.6924 22.1233 17.6104C22.4586 16.9523 22.6075 16.2252 22.6794 15.3451C22.75 14.4807 22.75 13.4053 22.75 12.0336V11.9942C22.75 11.2352 22.75 10.5699 22.7388 9.98564C22.7094 8.44938 22.6061 7.33705 22.1233 6.38955C21.572 5.30762 20.6924 4.42798 19.6104 3.87671C18.9523 3.54138 18.2252 3.39252 17.3451 3.32061ZM5.07054 5.21322C5.48197 5.00359 5.9897 4.87996 6.77708 4.81563C7.57322 4.75058 8.58749 4.75 10 4.75H14C15.4125 4.75 16.4268 4.75058 17.2229 4.81563C18.0103 4.87996 18.518 5.00359 18.9295 5.21322C19.7291 5.62068 20.3793 6.27085 20.7868 7.07054C21.0409 7.56922 21.1625 8.19217 21.2143 9.25H2.78567C2.83752 8.19217 2.95913 7.56922 3.21322 7.07054C3.62068 6.27085 4.27085 5.62068 5.07054 5.21322ZM2.75 12C2.75 11.5452 2.75001 11.1307 2.7523 10.75H21.2477C21.25 11.1307 21.25 11.5452 21.25 12C21.25 13.4125 21.2494 14.4268 21.1844 15.2229C21.12 16.0103 20.9964 16.518 20.7868 16.9295C20.3793 17.7291 19.7291 18.3793 18.9295 18.7868C18.518 18.9964 18.0103 19.12 17.2229 19.1844C16.4268 19.2494 15.4125 19.25 14 19.25H10C8.58749 19.25 7.57322 19.2494 6.77708 19.1844C5.9897 19.12 5.48197 18.9964 5.07054 18.7868C4.27085 18.3793 3.62068 17.7291 3.21322 16.9295C3.00359 16.518 2.87996 16.0103 2.81563 15.2229C2.75058 14.4268 2.75 13.4125 2.75 12Z" fill="#2D264B"/>
</svg>
