<svg width="24" height="24" viewBox="0 0 24 24" fill="none" xmlns="http://www.w3.org/2000/svg">
<path d="M6.08204 10.0002C6.08204 9.44788 6.52975 9.00016 7.08204 9.00016H7.33215H8.83215H9.08204C9.63432 9.00016 10.082 9.44788 10.082 10.0002V12.0002C10.082 12.5524 9.63432 13.0002 9.08204 13.0002H7.08204C6.52975 13.0002 6.08204 12.5524 6.08204 12.0002V10.0002Z" fill="#2D264B"/>
<path d="M6.75297 0.664754C6.56773 0.29427 6.11723 0.144102 5.74674 0.329344C5.37626 0.514586 5.22609 0.96509 5.41133 1.33557L5.46412 1.44115C5.64007 1.79306 5.64007 2.20727 5.46412 2.55918L5.41133 2.66475C5.22609 3.03524 5.37626 3.48574 5.74674 3.67098C6.11723 3.85623 6.56773 3.70606 6.75297 3.33557L6.80576 3.23C7.19286 2.4558 7.19286 1.54453 6.80576 0.770327L6.75297 0.664754Z" fill="#2D264B"/>
<path d="M14.753 0.664755C14.5677 0.294271 14.1172 0.144102 13.7467 0.329343C13.3763 0.514584 13.2261 0.965089 13.4113 1.33557L13.4641 1.44115C13.6401 1.79306 13.6401 2.20727 13.4641 2.55918L13.4113 2.66475C13.2261 3.03523 13.3763 3.48574 13.7467 3.67098C14.1172 3.85623 14.5677 3.70606 14.753 3.33558L14.8058 3.23001C15.1929 2.4558 15.1929 1.54453 14.8058 0.770328L14.753 0.664755Z" fill="#2D264B"/>
<path d="M10.753 1.33558C10.9382 0.965092 10.788 0.514587 10.4176 0.329344C10.0471 0.144102 9.59658 0.29427 9.41133 0.664753L9.35855 0.770327C8.97145 1.54453 8.97145 2.4558 9.35855 3.23L9.41133 3.33557C9.59658 3.70606 10.0471 3.85623 10.4176 3.67098C10.788 3.48574 10.9382 3.03524 10.753 2.66475L10.7002 2.55918C10.5242 2.20727 10.5242 1.79306 10.7002 1.44115L10.753 1.33558Z" fill="#2D264B"/>
<path fill-rule="evenodd" clip-rule="evenodd" d="M13.9256 4.52159C13.0724 4.24971 12.0065 4.24988 10.2525 4.25015L10.0687 4.25016C9.25569 4.25016 8.59756 4.25016 8.05554 4.26941C7.33567 4.29496 6.76035 4.35536 6.23869 4.52159C4.14018 5.19028 2.60802 6.99894 2.29342 9.17883C2.16551 10.0651 2.34091 11.1165 2.62953 12.8466L3.53048 18.2522C3.63937 18.9058 3.70589 19.3051 3.81115 19.6553C4.46489 21.8303 6.33759 23.4167 8.59046 23.704C8.95318 23.7502 9.35794 23.7502 10.0204 23.7502H10.1438C10.8063 23.7502 11.2111 23.7502 11.5738 23.704C13.8267 23.4167 15.6994 21.8303 16.3532 19.6553C16.4584 19.3051 16.5249 18.9058 16.6338 18.2523L16.7204 17.7329C16.8395 17.7443 16.9602 17.7502 17.0822 17.7502C19.1532 17.7502 20.8322 16.0712 20.8322 14.0002C20.8322 12.2074 19.5742 10.7085 17.8928 10.338C17.9249 9.91548 17.9229 9.53902 17.8709 9.17883C17.5563 6.99894 16.0241 5.19028 13.9256 4.52159ZM10.0822 5.75016C12.0596 5.75016 12.8693 5.75931 13.4702 5.95078C15.0213 6.44503 16.1537 7.78187 16.3863 9.39309C16.4367 9.74247 16.4204 10.1758 16.3227 10.8999C16.2561 11.3941 16.1562 11.994 16.0272 12.768L15.1644 17.9449C15.0422 18.6779 14.9909 18.9763 14.9166 19.2235C14.4334 20.8311 13.0493 22.0037 11.3841 22.216C11.1281 22.2487 10.8253 22.2502 10.0822 22.2502C9.339 22.2502 9.03626 22.2487 8.7802 22.216C7.11504 22.0037 5.73087 20.8311 5.24767 19.2235C5.17337 18.9763 5.12213 18.6779 4.99995 17.9449L4.13714 12.768C3.81205 10.8175 3.68795 10.0173 3.77804 9.39309C4.01057 7.78187 5.14304 6.44503 6.69411 5.95078C6.87055 5.89456 7.07324 5.85254 7.33215 5.82205L7.33215 9.00016H7.50037C7.50037 9.00016 7.58615 9.00016 8.00037 9.00016C8.41458 9.00016 8.50037 9.00016 8.50037 9.00016H8.83215L8.83215 5.75369C9.19337 5.7502 9.60508 5.75016 10.0822 5.75016ZM17.0822 16.2502C17.0438 16.2502 17.0058 16.2492 16.968 16.2473L17.5087 13.0032C17.5805 12.572 17.645 12.1851 17.7002 11.8361C18.6423 12.1046 19.3322 12.9718 19.3322 14.0002C19.3322 15.2428 18.3248 16.2502 17.0822 16.2502Z" fill="#2D264B"/>
</svg>
