<svg width="24" height="24" viewBox="0 0 24 24" fill="none" xmlns="http://www.w3.org/2000/svg">
<path d="M18 16.75C18.4142 16.75 18.75 16.4142 18.75 16C18.75 15.5858 18.4142 15.25 18 15.25L12 15.25C11.5858 15.25 11.25 15.5858 11.25 16C11.25 16.4142 11.5858 16.75 12 16.75L18 16.75Z" fill="#2D264B"/>
<path fill-rule="evenodd" clip-rule="evenodd" d="M18.3451 2.32061C17.4807 2.24999 16.4053 2.25 15.0336 2.25H8.96644C7.59472 2.25 6.51929 2.24999 5.65494 2.32061C4.77479 2.39252 4.04769 2.54138 3.38955 2.87671C2.30762 3.42798 1.42798 4.30762 0.876713 5.38955C0.541379 6.04769 0.392522 6.7748 0.320612 7.65494C0.249992 8.51929 0.249995 9.59472 0.25 10.9664V11.0336C0.249995 12.4053 0.249992 13.4807 0.320612 14.3451C0.392522 15.2252 0.541379 15.9523 0.876713 16.6104C1.42798 17.6924 2.30762 18.572 3.38955 19.1233C4.04769 19.4586 4.77479 19.6075 5.65494 19.6794C6.51927 19.75 7.59469 19.75 8.96637 19.75H11.25V21.584C10.6256 21.6276 10.0041 21.7259 9.39274 21.8787L7.8181 22.2724C7.41625 22.3729 7.17193 22.7801 7.27239 23.1819C7.37285 23.5837 7.78006 23.8281 8.1819 23.7276L9.75655 23.3339C10.493 23.1498 11.2465 23.0578 12 23.0578C12.7535 23.0578 13.507 23.1498 14.2435 23.3339L15.8181 23.7276C16.2199 23.8281 16.6271 23.5837 16.7276 23.1819C16.8281 22.7801 16.5837 22.3729 16.1819 22.2724L14.6073 21.8787C13.9959 21.7259 13.3744 21.6276 12.75 21.584V19.75H15.0336C16.4053 19.75 17.4807 19.75 18.3451 19.6794C19.2252 19.6075 19.9523 19.4586 20.6104 19.1233C21.6924 18.572 22.572 17.6924 23.1233 16.6104C23.4586 15.9523 23.6075 15.2252 23.6794 14.3451C23.75 13.4807 23.75 12.4053 23.75 11.0336V10.9664C23.75 9.59473 23.75 8.51927 23.6794 7.65494C23.6075 6.77479 23.4586 6.04769 23.1233 5.38955C22.572 4.30762 21.6924 3.42798 20.6104 2.87671C19.9523 2.54138 19.2252 2.39252 18.3451 2.32061ZM18.2229 18.1844C17.4268 18.2494 16.4125 18.25 15 18.25H9C7.58749 18.25 6.57322 18.2494 5.77708 18.1844C4.9897 18.12 4.48197 17.9964 4.07054 17.7868C3.27085 17.3793 2.62068 16.7291 2.21322 15.9295C2.00359 15.518 1.87996 15.0103 1.81563 14.2229C1.75058 13.4268 1.75 12.4125 1.75 11C1.75 9.58749 1.75058 8.57322 1.81563 7.77708C1.87996 6.9897 2.00359 6.48197 2.21322 6.07054C2.62068 5.27085 3.27085 4.62068 4.07054 4.21322C4.48197 4.00359 4.9897 3.87996 5.77708 3.81563C6.57322 3.75058 7.58749 3.75 9 3.75H15C16.4125 3.75 17.4268 3.75058 18.2229 3.81563C19.0103 3.87996 19.518 4.00359 19.9295 4.21322C20.7291 4.62068 21.3793 5.27085 21.7868 6.07054C21.9964 6.48197 22.12 6.9897 22.1844 7.77708C22.2494 8.57322 22.25 9.58749 22.25 11C22.25 12.4125 22.2494 13.4268 22.1844 14.2229C22.12 15.0103 21.9964 15.518 21.7868 15.9295C21.3793 16.7291 20.7291 17.3793 19.9295 17.7868C19.518 17.9964 19.0103 18.12 18.2229 18.1844Z" fill="#2D264B"/>
<path d="M8 16C8 16.5523 7.55228 17 7 17C6.44772 17 6 16.5523 6 16C6 15.4477 6.44772 15 7 15C7.55228 15 8 15.4477 8 16Z" fill="#2D264B"/>
</svg>
