<svg width="24" height="24" viewBox="0 0 24 24" fill="none" xmlns="http://www.w3.org/2000/svg">
<path d="M13.7935 10.0982C13.7787 10.0863 13.7642 10.0749 13.75 10.0638V17C13.75 17.4142 13.4142 17.75 13 17.75C12.5858 17.75 12.25 17.4142 12.25 17V10.0638C12.2358 10.0749 12.2213 10.0863 12.2065 10.0982C11.8839 10.3573 11.5003 10.7427 10.9305 11.3176L9.53269 12.728C9.24111 13.0222 8.76624 13.0243 8.47204 12.7327C8.17784 12.4411 8.17573 11.9662 8.46731 11.672L9.89565 10.2309C10.427 9.69472 10.8702 9.24753 11.2672 8.92869C11.6837 8.59426 12.1213 8.33989 12.6545 8.27193C12.8839 8.24269 13.1161 8.24269 13.3455 8.27193C13.8787 8.33989 14.3163 8.59427 14.7328 8.92869C15.1298 9.24753 15.573 9.69472 16.1043 10.2309L17.5327 11.672C17.8243 11.9662 17.8222 12.4411 17.528 12.7327C17.2338 13.0243 16.7589 13.0222 16.4673 12.728L15.0695 11.3176C14.4997 10.7427 14.1161 10.3573 13.7935 10.0982Z" fill="#2D264B"/>
<path fill-rule="evenodd" clip-rule="evenodd" d="M19.3798 3.34815C18.5734 2.76232 17.6291 2.50001 16.4635 2.37373C15.3214 2.24999 13.8818 2.24999 12.0452 2.25H11.9889C10.8289 2.25 9.83152 2.25 8.97432 2.27937C7.10087 2.34356 5.7239 2.5463 4.62024 3.34815C4.13209 3.70281 3.70281 4.13209 3.34815 4.62024C2.5463 5.7239 2.34356 7.10087 2.27937 8.97432C2.25 9.83153 2.25 10.8289 2.25 11.989V12.0453C2.24999 13.8818 2.24999 15.3214 2.37373 16.4635C2.50001 17.6291 2.76232 18.5734 3.34815 19.3798C3.70281 19.8679 4.13209 20.2972 4.62024 20.6518C5.42656 21.2377 6.37094 21.5 7.53648 21.6263C8.67859 21.75 10.1182 21.75 11.9547 21.75H12.0453C13.8818 21.75 15.3214 21.75 16.4635 21.6263C17.6291 21.5 18.5734 21.2377 19.3798 20.6518C19.8679 20.2972 20.2972 19.8679 20.6518 19.3798C21.2377 18.5734 21.5 17.6291 21.6263 16.4635C21.75 15.3214 21.75 13.8818 21.75 12.0453V11.9547C21.75 10.1182 21.75 8.67859 21.6263 7.53648C21.5 6.37094 21.2377 5.42656 20.6518 4.62024C20.2972 4.13209 19.8679 3.70281 19.3798 3.34815ZM12 3.75C13.8916 3.75 15.25 3.75103 16.302 3.865C17.3399 3.97745 17.9901 4.19259 18.4981 4.56168C18.8589 4.82382 19.1762 5.14111 19.4383 5.50191C19.8074 6.00992 20.0225 6.66013 20.135 7.69804C20.249 8.74999 20.25 10.1084 20.25 12C20.25 13.8916 20.249 15.25 20.135 16.302C20.0225 17.3399 19.8074 17.9901 19.4383 18.4981C19.1762 18.8589 18.8589 19.1762 18.4981 19.4383C17.9901 19.8074 17.3399 20.0225 16.302 20.135C15.25 20.249 13.8916 20.25 12 20.25C10.1084 20.25 8.74999 20.249 7.69804 20.135C6.66013 20.0225 6.00992 19.8074 5.50191 19.4383C5.14111 19.1762 4.82382 18.8589 4.56168 18.4981C4.19259 17.9901 3.97745 17.3399 3.865 16.302C3.75103 15.25 3.75 13.8916 3.75 12C3.75 11.1517 3.75005 10.4082 3.76082 9.74818C4.23547 9.74381 4.58489 9.72904 4.8995 9.67921C7.35988 9.28952 9.28952 7.35988 9.67921 4.8995C9.72904 4.58489 9.74381 4.23547 9.74818 3.76082C10.4082 3.75005 11.1517 3.75 12 3.75ZM4.66485 8.19768C4.45981 8.23015 4.22239 8.24254 3.81744 8.24722C3.91121 6.88688 4.12615 6.10137 4.56168 5.50191C4.82382 5.14111 5.14111 4.82382 5.50191 4.56168C6.10137 4.12615 6.88688 3.91121 8.24722 3.81744C8.24254 4.22238 8.23015 4.45981 8.19768 4.66485C7.90965 6.48339 6.48339 7.90965 4.66485 8.19768Z" fill="#2D264B"/>
</svg>
