<svg width="24" height="24" viewBox="0 0 24 24" fill="none" xmlns="http://www.w3.org/2000/svg">
<path fill-rule="evenodd" clip-rule="evenodd" d="M15.9533 4.3255C15.1753 3.87624 14.5264 3.50161 13.9713 3.27347C13.3855 3.03267 12.8018 2.91006 12.1796 3.07678C11.5574 3.24349 11.1132 3.64152 10.7262 4.143C10.3596 4.61811 9.98497 5.26697 9.53575 6.04509L5.66013 12.7577C5.39957 13.2082 5.18673 13.5762 5.07915 13.9713C5.06378 14.0277 5.05056 14.0847 5.03965 14.1426C4.95242 14.6056 5.0236 15.0704 5.11363 15.6583L5.13789 15.8172C5.30408 16.9086 5.44106 17.8081 5.64766 18.4903C5.86373 19.2037 6.19588 19.8212 6.84916 20.1984C7.50243 20.5756 8.20329 20.5545 8.92918 20.3849C9.62324 20.2227 10.4708 19.8916 11.499 19.4898L11.6488 19.4314C12.2029 19.2154 12.641 19.0446 12.9984 18.7376C13.3557 18.4305 13.5905 18.0231 13.8875 17.5078L17.763 10.7951C18.2123 10.017 18.5869 9.36817 18.815 8.81309C19.0558 8.2272 19.1784 7.6435 19.0117 7.02132C18.845 6.39914 18.447 5.95494 17.9455 5.56795C17.4704 5.2013 16.8215 4.82672 16.0434 4.3775L15.9533 4.3255ZM16.063 10.7396L10.4338 7.48964L7.01035 13.4192C6.63739 14.0652 6.54767 14.2401 6.51372 14.4203C6.47976 14.6005 6.49968 14.7961 6.61199 15.5336C6.78923 16.6973 6.91166 17.4889 7.08326 18.0555C7.24902 18.6028 7.41996 18.7959 7.59915 18.8994C7.77835 19.0028 8.03104 19.0543 8.58791 18.9242C9.16439 18.7895 9.91115 18.4998 11.0076 18.0714C11.7024 17.7999 11.8817 17.7194 12.0208 17.5999C12.1599 17.4804 12.2666 17.3152 12.6395 16.6692L16.063 10.7396ZM16.8114 9.4397C17.0924 8.94444 17.2951 8.56531 17.4276 8.24287C17.6046 7.81221 17.6105 7.58756 17.5628 7.40955C17.5151 7.23153 17.3977 7.03993 17.0291 6.75547C16.6432 6.45771 16.0832 6.13255 15.2484 5.65054C14.4135 5.16853 13.8519 4.84613 13.4011 4.66086C12.9705 4.48386 12.7458 4.47797 12.5678 4.52567C12.3898 4.57336 12.1982 4.69079 11.9137 5.05941C11.7007 5.33539 11.4737 5.70048 11.1854 6.19151L16.8114 9.4397Z" fill="#2D264B"/>
</svg>
