<svg width="24" height="24" viewBox="0 0 24 24" fill="none" xmlns="http://www.w3.org/2000/svg">
<path fill-rule="evenodd" clip-rule="evenodd" d="M6.47246 2.25C4.14046 2.25 2.25 4.14046 2.25 6.47246C2.25 7.65604 2.74676 8.78529 3.61924 9.58506L6.87183 12.5666C7.75 13.3716 8.25 14.5082 8.25 15.6995V20C8.25 21.8615 10.3619 22.9369 11.8673 21.842L13.8086 20.4302C14.7142 19.7716 15.25 18.7194 15.25 17.5996V15.819C15.25 14.5689 15.8004 13.3821 16.7547 12.5746L20.2751 9.59586C21.2105 8.80435 21.75 7.64113 21.75 6.41577C21.75 4.11508 19.8849 2.25 17.5842 2.25H6.47246ZM3.75 6.47246C3.75 4.96889 4.96889 3.75 6.47246 3.75H17.5842C19.0565 3.75 20.25 4.94351 20.25 6.41577C20.25 7.19991 19.9048 7.94427 19.3062 8.45078L15.7858 11.4295C14.4947 12.522 13.75 14.1276 13.75 15.819V17.5996C13.75 18.2395 13.4438 18.8407 12.9263 19.2171L10.9851 20.6289C10.4711 21.0028 9.75 20.6356 9.75 20V15.6995C9.75 14.0877 9.07353 12.55 7.88542 11.4609L4.63283 8.47933C4.07029 7.96367 3.75 7.23558 3.75 6.47246Z" fill="#2D264B"/>
</svg>
