<svg width="24" height="24" viewBox="0 0 24 24" fill="none" xmlns="http://www.w3.org/2000/svg">
<path d="M10.75 5C10.75 4.58579 10.4142 4.25 10 4.25C9.5858 4.25 9.25002 4.58579 9.25002 5V7C9.25002 7.41422 9.5858 7.75 10 7.75C10.4142 7.75 10.75 7.41422 10.75 7V5Z" fill="#2D264B"/>
<path d="M14.75 5C14.75 4.58579 14.4142 4.25 14 4.25C13.5858 4.25 13.25 4.58579 13.25 5V7C13.25 7.41422 13.5858 7.75 14 7.75C14.4142 7.75 14.75 7.41422 14.75 7V5Z" fill="#2D264B"/>
<path fill-rule="evenodd" clip-rule="evenodd" d="M9.94802 1.25C9.04955 1.24997 8.30031 1.24995 7.70554 1.32991C7.07774 1.41432 6.51095 1.59999 6.05548 2.05546C5.60001 2.51093 5.41433 3.07773 5.32993 3.70552C5.24996 4.30031 5.24999 5.04953 5.25002 5.94801L5.25002 8.52272C3.34471 9.13103 1.88054 10.6932 1.40889 12.6577C1.39846 12.7011 1.38873 12.7449 1.37966 12.7891C1.24984 13.4208 1.24991 14.1846 1.25001 15.3951L1.25001 15.6213C1.24986 16.9 1.24977 17.6795 1.40889 18.3423C1.91365 20.4448 3.55523 22.0864 5.65771 22.5911C6.32052 22.7503 7.10002 22.7502 8.37876 22.75H15.6213C16.9 22.7502 17.6795 22.7503 18.3423 22.5911C20.4448 22.0864 22.0864 20.4448 22.5911 18.3423C22.7503 17.6795 22.7502 16.9 22.75 15.6213L22.75 15.4066C22.7501 14.2431 22.7502 13.4924 22.6382 12.8807C22.6243 12.8052 22.6088 12.731 22.5911 12.6577C22.1195 10.6932 20.6553 9.13103 18.75 8.52272V5.94801C18.75 5.04953 18.7501 4.30031 18.6701 3.70552C18.5857 3.07773 18.4 2.51093 17.9446 2.05546C17.4891 1.59999 16.9223 1.41432 16.2945 1.32991C15.6997 1.24995 14.9505 1.24997 14.0521 1.25H9.94802ZM8.40417 8.25C7.73305 8.24995 7.19926 8.24991 6.75002 8.27152V6C6.75002 5.03599 6.75161 4.38843 6.81655 3.9054C6.8786 3.44393 6.98582 3.24644 7.11613 3.11612C7.24645 2.9858 7.44395 2.87858 7.90541 2.81654C8.38845 2.7516 9.03601 2.75 10 2.75L14 2.75C14.964 2.75 15.6116 2.7516 16.0946 2.81654C16.5561 2.87858 16.7536 2.9858 16.8839 3.11612C17.0142 3.24644 17.1214 3.44393 17.1835 3.9054C17.2484 4.38843 17.25 5.03599 17.25 6V8.27152C16.8008 8.24991 16.267 8.24995 15.5959 8.25L8.40417 8.25ZM6.13828 9.83965C6.59891 9.75326 7.20328 9.75 8.50002 9.75L15.5 9.75C16.7968 9.75 17.4011 9.75326 17.8618 9.83965C17.9071 9.84816 17.9504 9.8574 17.9922 9.86743C19.3398 10.191 20.4313 11.1464 20.9407 12.408L19.9861 12.5587C15.0227 13.3424 9.96852 13.3619 4.99918 12.6165L3.0916 12.3304C3.61389 11.1073 4.68801 10.1843 6.00788 9.86743C6.04965 9.8574 6.09294 9.84816 6.13828 9.83965ZM20.2201 14.0403L21.2331 13.8804C21.249 14.2684 21.25 14.7764 21.25 15.5C21.25 16.9378 21.2448 17.5248 21.1326 17.9921C20.7595 19.5462 19.5462 20.7595 17.9922 21.1326C17.5248 21.2448 16.9379 21.25 15.5 21.25H8.50002C7.06217 21.25 6.47524 21.2448 6.00788 21.1326C4.45387 20.7595 3.24053 19.5462 2.86745 17.9921C2.75524 17.5248 2.75002 16.9378 2.75002 15.5C2.75002 14.7238 2.75131 14.1957 2.77061 13.799L4.77667 14.0999C9.89736 14.868 15.1054 14.8479 20.2201 14.0403Z" fill="#2D264B"/>
</svg>
