<svg width="24" height="24" viewBox="0 0 24 24" fill="none" xmlns="http://www.w3.org/2000/svg">
<path d="M11.728 8.53269C12.0222 8.24111 12.0243 7.76624 11.7327 7.47204C11.4411 7.17784 10.9662 7.17573 10.672 7.46731L9.23088 8.89566C8.69471 9.42704 8.24753 9.87023 7.92869 10.2672C7.59427 10.6837 7.33989 11.1213 7.27193 11.6545C7.25731 11.7692 7.25 11.8846 7.25 12C7.25 12.1154 7.25731 12.2308 7.27193 12.3455C7.33989 12.8787 7.59426 13.3163 7.92869 13.7328C8.24753 14.1298 8.69472 14.573 9.2309 15.1044L10.672 16.5327C10.9662 16.8243 11.4411 16.8222 11.7327 16.528C12.0243 16.2338 12.0222 15.7589 11.728 15.4673L10.3176 14.0695C9.74268 13.4997 9.35733 13.1161 9.09823 12.7935C9.08635 12.7787 9.07487 12.7642 9.06379 12.75H16C16.4142 12.75 16.75 12.4142 16.75 12C16.75 11.5858 16.4142 11.25 16 11.25H9.06379C9.07487 11.2358 9.08635 11.2213 9.09823 11.2065C9.35733 10.8839 9.74268 10.5003 10.3176 9.93054L11.728 8.53269Z" fill="#2D264B"/>
<path fill-rule="evenodd" clip-rule="evenodd" d="M12 1.25C6.06294 1.25 1.25 6.06294 1.25 12C1.25 17.9371 6.06294 22.75 12 22.75C17.9371 22.75 22.75 17.9371 22.75 12C22.75 6.06294 17.9371 1.25 12 1.25ZM2.75 12C2.75 6.89137 6.89137 2.75 12 2.75C17.1086 2.75 21.25 6.89137 21.25 12C21.25 17.1086 17.1086 21.25 12 21.25C6.89137 21.25 2.75 17.1086 2.75 12Z" fill="#2D264B"/>
</svg>
