<svg width="24" height="24" viewBox="0 0 24 24" fill="none" xmlns="http://www.w3.org/2000/svg">
<path fill-rule="evenodd" clip-rule="evenodd" d="M12 21.25C10.5373 21.25 9.22906 20.5889 8.35773 19.5492C7.80737 20.5623 6.734 21.25 5.5 21.25C3.70507 21.25 2.25 19.7949 2.25 18V10C2.25 8.20507 3.70507 6.75 5.5 6.75C6.74232 6.75 7.82184 7.44704 8.36879 8.47137C8.45813 8.32441 8.55441 8.168 8.65814 7.99948L10.9367 4.29688C11.337 3.6463 12.0462 3.25 12.8101 3.25C14.1583 3.25 15.1893 4.45173 14.9843 5.78427L14.7413 7.36404C14.5483 8.61859 15.5189 9.75 16.7882 9.75H17.478C20.5725 9.75 22.5852 13.0066 21.2013 15.7744L20.0528 18.0715C19.0788 20.0195 17.0878 21.25 14.9098 21.25H12ZM12.2142 5.08302C12.3415 4.87607 12.5671 4.75 12.8101 4.75C13.239 4.75 13.567 5.13228 13.5018 5.55618L13.2587 7.13596C12.9259 9.29915 14.5996 11.25 16.7882 11.25H17.478C19.4575 11.25 20.7449 13.3331 19.8597 15.1036L18.7111 17.4007C17.9912 18.8405 16.5196 19.75 14.9098 19.75H12C10.2051 19.75 8.75 18.2949 8.75 16.5V13.0661C8.75 11.8905 8.75431 11.4176 8.85647 10.9699C8.88895 10.8275 8.92874 10.6869 8.97568 10.5487C9.12335 10.1138 9.36752 9.70881 9.98362 8.70765L12.2142 5.08302ZM5.5 8.25C6.4665 8.25 7.25 9.0335 7.25 10V18C7.25 18.9665 6.4665 19.75 5.5 19.75C4.5335 19.75 3.75 18.9665 3.75 18V10C3.75 9.0335 4.5335 8.25 5.5 8.25Z" fill="#2D264B"/>
</svg>
