<svg width="24" height="24" viewBox="0 0 24 24" fill="none" xmlns="http://www.w3.org/2000/svg">
<path d="M15.584 8.47057C15.8439 8.14804 15.7931 7.67589 15.4706 7.416C15.148 7.15611 14.6759 7.20689 14.416 7.52943L12.3945 10.0382C11.9794 10.5533 11.7175 10.8755 11.4995 11.0791C11.3971 11.1747 11.3317 11.2173 11.2941 11.2361C11.2661 11.2501 11.2561 11.25 11.2507 11.25H11.2493C11.2439 11.25 11.2339 11.2501 11.2059 11.2361C11.1683 11.2173 11.1029 11.1747 11.0005 11.0791C10.7825 10.8755 10.5206 10.5533 10.1055 10.0382L9.584 9.391C9.32411 9.06846 8.85196 9.01768 8.52943 9.27757C8.20689 9.53746 8.15611 10.0096 8.416 10.3321L8.97007 11.0198C9.34258 11.4822 9.67123 11.8901 9.97665 12.1753C10.3046 12.4816 10.7123 12.75 11.25 12.75C11.7877 12.75 12.1954 12.4816 12.5234 12.1753C12.8288 11.8901 13.1574 11.4822 13.5299 11.0198L15.584 8.47057Z" fill="#2D264B"/>
<path fill-rule="evenodd" clip-rule="evenodd" d="M12 0.25C7.11666 0.25 3.25 4.49277 3.25 9.6087C3.25 11.2494 4.06511 13.1814 5.09064 14.9945C6.13277 16.837 7.46288 18.6762 8.62903 20.1633L8.66793 20.2129C9.23714 20.9388 9.72203 21.5573 10.1922 21.9844C10.7052 22.4504 11.2709 22.7555 12 22.7555C12.7291 22.7555 13.2948 22.4504 13.8078 21.9844C14.278 21.5572 14.7629 20.9388 15.3321 20.2129L15.371 20.1633C16.5371 18.6762 17.8672 16.837 18.9094 14.9945C19.9349 13.1814 20.75 11.2494 20.75 9.6087C20.75 4.49277 16.8833 0.25 12 0.25ZM4.75 9.6087C4.75 5.21571 8.04678 1.75 12 1.75C15.9532 1.75 19.25 5.21571 19.25 9.6087C19.25 10.8352 18.6104 12.4764 17.6037 14.256C16.6137 16.0063 15.3342 17.7794 14.1906 19.2377C13.5717 20.027 13.1641 20.5426 12.7992 20.8741C12.4664 21.1764 12.2442 21.2555 12 21.2555C11.7558 21.2555 11.5336 21.1764 11.2008 20.8741C10.8359 20.5426 10.4283 20.027 9.80938 19.2377C8.66578 17.7794 7.38628 16.0063 6.39625 14.256C5.38962 12.4764 4.75 10.8352 4.75 9.6087Z" fill="#2D264B"/>
</svg>
