<svg width="24" height="24" viewBox="0 0 24 24" fill="none" xmlns="http://www.w3.org/2000/svg">
<path d="M15 3.75001C15.9577 3.75001 16.3492 3.75234 16.6648 3.80233C18.4834 4.09036 19.9096 5.51662 20.1977 7.33516C20.2477 7.65083 20.25 8.04234 20.25 9.00001V15C20.25 15.9577 20.2477 16.3492 20.1977 16.6649C19.9096 18.4834 18.4834 19.9097 16.6648 20.1977C16.3492 20.2477 15.9577 20.25 15 20.25H14C13.0424 20.25 12.1607 19.9342 11.4504 19.4007C11.1192 19.1519 10.6491 19.2188 10.4003 19.5499C10.1516 19.8811 10.2184 20.3513 10.5496 20.6C11.5106 21.3219 12.7064 21.75 14 21.75L15.0809 21.75C15.9329 21.7501 16.4518 21.7501 16.8995 21.6792C19.3599 21.2895 21.2895 19.3599 21.6792 16.8995C21.7501 16.4518 21.7501 15.9328 21.75 15.0808V8.91921C21.7501 8.06718 21.7501 7.54819 21.6792 7.10051C21.2895 4.64013 19.3599 2.71049 16.8995 2.3208C16.4518 2.2499 15.9329 2.24994 15.0809 2.25L14 2.25001C12.7064 2.25001 11.5106 2.67807 10.5496 3.39997C10.2184 3.64874 10.1516 4.11889 10.4003 4.45008C10.6491 4.78127 11.1192 4.84808 11.4504 4.59932C12.1607 4.06583 13.0424 3.75001 14 3.75001H15Z" fill="#2D264B"/>
<path d="M13.466 7.41233C13.1414 7.15498 12.6697 7.20947 12.4123 7.53404C12.155 7.85861 12.2095 8.33034 12.534 8.58769L14.297 9.98554C15.001 10.5438 15.483 10.9274 15.8105 11.25L3 11.25C2.58579 11.25 2.25 11.5858 2.25 12C2.25 12.4142 2.58579 12.75 3 12.75L15.8105 12.75C15.483 13.0727 15.001 13.4563 14.297 14.0145L12.534 15.4123C12.2095 15.6697 12.155 16.1414 12.4123 16.466C12.6697 16.7905 13.1414 16.845 13.466 16.5877L15.2648 15.1614C15.9373 14.6283 16.4922 14.1883 16.8875 13.7945C17.2932 13.3904 17.6294 12.9419 17.7208 12.3687C17.7402 12.2466 17.75 12.1234 17.75 12C17.75 11.8766 17.7402 11.7534 17.7208 11.6313C17.6294 11.0582 17.2932 10.6096 16.8875 10.2055C16.4922 9.81173 15.9373 9.37176 15.2648 8.83858L13.466 7.41233Z" fill="#2D264B"/>
</svg>
