<svg width="24" height="24" viewBox="0 0 24 24" fill="none" xmlns="http://www.w3.org/2000/svg">
<path fill-rule="evenodd" clip-rule="evenodd" d="M4 1.25C2.48122 1.25 1.25 2.48122 1.25 4C1.25 5.51878 2.48122 6.75 4 6.75C5.51878 6.75 6.75 5.51878 6.75 4C6.75 2.48122 5.51878 1.25 4 1.25ZM2.75 4C2.75 3.30964 3.30964 2.75 4 2.75C4.69036 2.75 5.25 3.30964 5.25 4C5.25 4.69036 4.69036 5.25 4 5.25C3.30964 5.25 2.75 4.69036 2.75 4Z" fill="#2D264B"/>
<path fill-rule="evenodd" clip-rule="evenodd" d="M12 1.25C10.4812 1.25 9.25001 2.48122 9.25001 4C9.25001 5.51878 10.4812 6.75 12 6.75C13.5188 6.75 14.75 5.51878 14.75 4C14.75 2.48122 13.5188 1.25 12 1.25ZM10.75 4C10.75 3.30964 11.3096 2.75 12 2.75C12.6904 2.75 13.25 3.30964 13.25 4C13.25 4.69036 12.6904 5.25 12 5.25C11.3096 5.25 10.75 4.69036 10.75 4Z" fill="#2D264B"/>
<path fill-rule="evenodd" clip-rule="evenodd" d="M20 1.25C18.4812 1.25 17.25 2.48122 17.25 4C17.25 5.51878 18.4812 6.75 20 6.75C21.5188 6.75 22.75 5.51878 22.75 4C22.75 2.48122 21.5188 1.25 20 1.25ZM18.75 4C18.75 3.30964 19.3097 2.75 20 2.75C20.6904 2.75 21.25 3.30964 21.25 4C21.25 4.69036 20.6904 5.25 20 5.25C19.3097 5.25 18.75 4.69036 18.75 4Z" fill="#2D264B"/>
<path fill-rule="evenodd" clip-rule="evenodd" d="M4 9.25C2.48122 9.25 1.25 10.4812 1.25 12C1.25 13.5188 2.48122 14.75 4 14.75C5.51878 14.75 6.75 13.5188 6.75 12C6.75 10.4812 5.51878 9.25 4 9.25ZM2.75 12C2.75 11.3096 3.30964 10.75 4 10.75C4.69036 10.75 5.25 11.3096 5.25 12C5.25 12.6904 4.69036 13.25 4 13.25C3.30964 13.25 2.75 12.6904 2.75 12Z" fill="#2D264B"/>
<path fill-rule="evenodd" clip-rule="evenodd" d="M12 9.25C10.4812 9.25 9.25 10.4812 9.25 12C9.25 13.5188 10.4812 14.75 12 14.75C13.5188 14.75 14.75 13.5188 14.75 12C14.75 10.4812 13.5188 9.25 12 9.25ZM10.75 12C10.75 11.3096 11.3096 10.75 12 10.75C12.6904 10.75 13.25 11.3096 13.25 12C13.25 12.6904 12.6904 13.25 12 13.25C11.3096 13.25 10.75 12.6904 10.75 12Z" fill="#2D264B"/>
<path fill-rule="evenodd" clip-rule="evenodd" d="M20 9.25C18.4812 9.25 17.25 10.4812 17.25 12C17.25 13.5188 18.4812 14.75 20 14.75C21.5188 14.75 22.75 13.5188 22.75 12C22.75 10.4812 21.5188 9.25 20 9.25ZM18.75 12C18.75 11.3096 19.3097 10.75 20 10.75C20.6904 10.75 21.25 11.3096 21.25 12C21.25 12.6904 20.6904 13.25 20 13.25C19.3097 13.25 18.75 12.6904 18.75 12Z" fill="#2D264B"/>
<path fill-rule="evenodd" clip-rule="evenodd" d="M4 17.25C2.48122 17.25 1.25 18.4812 1.25 20C1.25 21.5188 2.48122 22.75 4 22.75C5.51878 22.75 6.75 21.5188 6.75 20C6.75 18.4812 5.51878 17.25 4 17.25ZM2.75 20C2.75 19.3096 3.30964 18.75 4 18.75C4.69036 18.75 5.25 19.3096 5.25 20C5.25 20.6904 4.69036 21.25 4 21.25C3.30964 21.25 2.75 20.6904 2.75 20Z" fill="#2D264B"/>
<path fill-rule="evenodd" clip-rule="evenodd" d="M12 17.25C10.4812 17.25 9.25001 18.4812 9.25001 20C9.25001 21.5188 10.4812 22.75 12 22.75C13.5188 22.75 14.75 21.5188 14.75 20C14.75 18.4812 13.5188 17.25 12 17.25ZM10.75 20C10.75 19.3096 11.3097 18.75 12 18.75C12.6904 18.75 13.25 19.3096 13.25 20C13.25 20.6904 12.6904 21.25 12 21.25C11.3096 21.25 10.75 20.6904 10.75 20Z" fill="#2D264B"/>
<path fill-rule="evenodd" clip-rule="evenodd" d="M20 17.25C18.4812 17.25 17.25 18.4812 17.25 20C17.25 21.5188 18.4812 22.75 20 22.75C21.5188 22.75 22.75 21.5188 22.75 20C22.75 18.4812 21.5188 17.25 20 17.25ZM18.75 20C18.75 19.3096 19.3097 18.75 20 18.75C20.6904 18.75 21.25 19.3096 21.25 20C21.25 20.6904 20.6904 21.25 20 21.25C19.3097 21.25 18.75 20.6904 18.75 20Z" fill="#2D264B"/>
</svg>
