<svg width="24" height="24" viewBox="0 0 24 24" fill="none" xmlns="http://www.w3.org/2000/svg">
<path fill-rule="evenodd" clip-rule="evenodd" d="M15.9532 3.30905C15.1832 3.24999 14.2335 3.25 13.0252 3.25H11.339C10.1307 3.25 9.18094 3.24999 8.41092 3.30905C7.62498 3.36933 6.97024 3.49408 6.36169 3.77306C5.35626 4.23397 4.50509 4.97509 3.91024 5.90756C3.75494 6.15101 3.62631 6.40771 3.51657 6.68458C3.14323 7.62653 2.97063 8.86979 2.71947 10.6789L2.69823 10.8319C2.48432 12.372 2.3171 13.5759 2.26632 14.5457C2.21475 15.5303 2.27713 16.3508 2.57333 17.1041C3.05745 18.3353 3.95134 19.362 5.10425 20.0109C5.80964 20.4079 6.61378 20.5825 7.59613 20.6669C8.56366 20.75 9.77916 20.75 11.334 20.75H13.0301C14.585 20.75 15.8005 20.75 16.768 20.6669C17.7504 20.5825 18.5545 20.4079 19.2599 20.0109C20.4128 19.362 21.3067 18.3353 21.7908 17.1041C22.087 16.3508 22.1494 15.5303 22.0978 14.5457C22.0471 13.5759 21.8798 12.3719 21.6659 10.8318L21.6415 10.6562C21.3755 8.73923 21.1973 7.45549 20.7632 6.48414C20.6729 6.282 20.5708 6.09084 20.4539 5.90756C19.8591 4.97509 19.0079 4.23397 18.0025 3.77306C17.3939 3.49408 16.7392 3.36933 15.9532 3.30905ZM6.98678 5.13661C7.37039 4.96075 7.829 4.85809 8.52563 4.80466C9.23161 4.75051 10.124 4.75 11.37 4.75H12.9942C14.2402 4.75 15.1325 4.75051 15.8385 4.80466C16.5352 4.85809 16.9938 4.96075 17.3774 5.13661C18.0996 5.46767 18.7141 5.99432 19.1517 6.65629L18.6015 7.20647C16.9198 8.88813 15.7108 10.0949 14.668 10.8905C13.6425 11.673 12.8664 11.9868 12.0607 11.9868C11.2551 11.9868 10.479 11.673 9.45349 10.8905C8.41068 10.0949 7.20166 8.88813 5.52 7.20647L5.11909 6.80556C5.13723 6.77452 5.1558 6.74412 5.17483 6.71429C5.61451 6.02507 6.24363 5.47729 6.98678 5.13661ZM19.7313 8.19795C19.8757 8.86551 20.001 9.74811 20.1752 11.0026C20.3951 12.5859 20.5529 13.7262 20.5999 14.6241C20.6465 15.5146 20.5782 16.089 20.3949 16.5552C20.037 17.4652 19.3763 18.2241 18.5242 18.7037C18.0876 18.9494 17.5281 19.0961 16.6397 19.1724C15.7438 19.2494 14.5927 19.25 12.9942 19.25H11.37C9.77149 19.25 8.62032 19.2494 7.7245 19.1724C6.83606 19.0961 6.27656 18.9494 5.83997 18.7037C4.98782 18.2241 4.32712 17.4652 3.96929 16.5552C3.78596 16.089 3.71763 15.5146 3.76426 14.6241C3.81129 13.7262 3.96901 12.5859 4.18891 11.0026C4.34594 9.872 4.46292 9.04274 4.59113 8.39892C6.17998 9.98769 7.43254 11.2353 8.54362 12.0831C9.70255 12.9673 10.7953 13.4868 12.0607 13.4868C13.3262 13.4868 14.4189 12.9673 15.5779 12.0831C16.7101 11.2192 17.9893 9.93999 19.6216 8.30771L19.7313 8.19795Z" fill="#2D264B"/>
</svg>
