<svg width="24" height="24" viewBox="0 0 24 24" fill="none" xmlns="http://www.w3.org/2000/svg">
<path d="M14.539 2.00745C15.0451 2.01464 15.3181 2.6325 15.1083 3.09302C14.9978 3.33543 14.7616 3.51062 14.4952 3.507C13.9889 3.50013 13.4133 3.5 12.75 3.5H10.75C9.33749 3.5 8.32322 3.50058 7.52708 3.56563C6.7397 3.62996 6.23197 3.75359 5.82054 3.96322C5.02085 4.37068 4.37068 5.02085 3.96322 5.82054C3.75359 6.23197 3.62996 6.7397 3.56563 7.52708C3.50058 8.32322 3.5 9.33749 3.5 10.75V14.9783C3.5 16.6472 4.85284 18 6.52166 18H7.12341C8.43311 18 9.32867 19.3228 8.84226 20.5388C8.71197 20.8645 9.08709 21.159 9.37255 20.9551L11.9833 19.0903L12.0402 19.0497C12.9993 18.3739 14.1422 18.0076 15.3155 18.0001L15.4004 18C15.7221 18 15.8553 17.9998 15.951 17.9952C18.1402 17.8916 19.8916 16.1402 19.9952 13.951C19.9998 13.855 20 13.7371 20 13.4488V10.75C20 10.0867 19.9999 9.51114 19.993 9.0048C19.9894 8.73843 20.1646 8.50221 20.407 8.39173C20.8675 8.18186 21.4854 8.45493 21.4925 8.96097C21.5 9.48591 21.5 10.0681 21.5 10.7164V13.4732C21.5 13.7297 21.5 13.8858 21.4936 14.0219C21.3533 16.9838 18.9838 19.3533 16.0219 19.4936C15.8858 19.5 15.7139 19.5 15.4288 19.5H15.4004L15.3251 19.5001C14.4579 19.5056 13.6132 19.7764 12.9043 20.2759L12.8551 20.3109L10.2444 22.1757C8.7399 23.2503 6.76288 21.6984 7.44954 19.9817C7.54183 19.751 7.37191 19.5 7.12341 19.5H6.52166C4.02441 19.5 2 17.4756 2 14.9783V10.7164C2 9.34469 1.99999 8.26927 2.07061 7.40494C2.14252 6.52479 2.29138 5.79769 2.62671 5.13955C3.17798 4.05762 4.05762 3.17798 5.13955 2.62671C5.79768 2.29138 6.52479 2.14252 7.40494 2.07061C8.26929 1.99999 9.34472 2 10.7164 2H12.7836C13.4319 2 14.0141 2 14.539 2.00745Z" fill="#2D264B"/>
<path fill-rule="evenodd" clip-rule="evenodd" d="M16 4.75C16 3.23122 17.2312 2 18.75 2C20.2688 2 21.5 3.23122 21.5 4.75C21.5 6.26878 20.2688 7.5 18.75 7.5C17.2312 7.5 16 6.26878 16 4.75ZM18.75 3.5C18.0596 3.5 17.5 4.05964 17.5 4.75C17.5 5.44036 18.0596 6 18.75 6C19.4404 6 20 5.44036 20 4.75C20 4.05964 19.4404 3.5 18.75 3.5Z" fill="#2D264B"/>
<path d="M7.75 11.75C8.30228 11.75 8.75 11.3023 8.75 10.75C8.75 10.1977 8.30228 9.75 7.75 9.75C7.19772 9.75 6.75 10.1977 6.75 10.75C6.75 11.3023 7.19772 11.75 7.75 11.75Z" fill="#2D264B"/>
<path d="M11.75 11.75C12.3023 11.75 12.75 11.3023 12.75 10.75C12.75 10.1977 12.3023 9.75 11.75 9.75C11.1977 9.75 10.75 10.1977 10.75 10.75C10.75 11.3023 11.1977 11.75 11.75 11.75Z" fill="#2D264B"/>
<path d="M16.75 10.75C16.75 11.3023 16.3023 11.75 15.75 11.75C15.1977 11.75 14.75 11.3023 14.75 10.75C14.75 10.1977 15.1977 9.75 15.75 9.75C16.3023 9.75 16.75 10.1977 16.75 10.75Z" fill="#2D264B"/>
</svg>
