<svg width="24" height="24" viewBox="0 0 24 24" fill="none" xmlns="http://www.w3.org/2000/svg">
<path d="M7.25 8C7.25 7.58579 7.58579 7.25 8 7.25H16C16.4142 7.25 16.75 7.58579 16.75 8C16.75 8.41421 16.4142 8.75 16 8.75H8C7.58579 8.75 7.25 8.41421 7.25 8Z" fill="#2D264B"/>
<path d="M7.25 12.5C7.25 12.0858 7.58579 11.75 8 11.75H16C16.4142 11.75 16.75 12.0858 16.75 12.5C16.75 12.9142 16.4142 13.25 16 13.25H8C7.58579 13.25 7.25 12.9142 7.25 12.5Z" fill="#2D264B"/>
<path fill-rule="evenodd" clip-rule="evenodd" d="M9.96644 1.25H14.0336C15.4053 1.25 16.4807 1.24999 17.3451 1.32061C18.2252 1.39252 18.9523 1.54138 19.6104 1.87671C20.6924 2.42798 21.572 3.30762 22.1233 4.38955C22.4586 5.04769 22.6075 5.77479 22.6794 6.65494C22.75 7.51928 22.75 8.59471 22.75 9.96642V11.1842C22.75 11.2338 22.75 11.2828 22.75 11.3311C22.7502 12.8797 22.7504 13.8244 22.5177 14.6179C21.9667 16.4971 20.4971 17.9667 18.6179 18.5177C17.8244 18.7504 16.8797 18.7502 15.3311 18.75C15.2827 18.75 15.2338 18.75 15.1842 18.75H14.6354L14.5751 18.7501C13.7079 18.7556 12.8632 19.0264 12.1543 19.5259L12.1051 19.5609L9.49441 21.4257C7.9899 22.5003 6.01288 20.9484 6.69954 19.2317C6.79183 19.001 6.62191 18.75 6.37341 18.75H5.77166C3.27441 18.75 1.25 16.7256 1.25 14.2283L1.25 9.96644C1.25 8.59472 1.24999 7.51929 1.32061 6.65494C1.39252 5.77479 1.54138 5.04769 1.87671 4.38955C2.42798 3.30762 3.30762 2.42798 4.38955 1.87671C5.04769 1.54138 5.77479 1.39252 6.65494 1.32061C7.51929 1.24999 8.59472 1.25 9.96644 1.25ZM6.77708 2.81563C5.9897 2.87996 5.48197 3.00359 5.07054 3.21322C4.27085 3.62068 3.62068 4.27085 3.21322 5.07054C3.00359 5.48197 2.87996 5.9897 2.81563 6.77708C2.75058 7.57322 2.75 8.58749 2.75 10V14.2283C2.75 15.8972 4.10284 17.25 5.77166 17.25H6.37341C7.68311 17.25 8.57867 18.5728 8.09226 19.7888C7.96197 20.1145 8.33709 20.409 8.62255 20.2051L11.2333 18.3403L11.2902 18.2997C12.2493 17.6239 13.3922 17.2576 14.5655 17.2501L14.6354 17.25H15.1842C16.9261 17.25 17.6363 17.2424 18.1958 17.0783C19.5848 16.671 20.671 15.5848 21.0783 14.1958C21.2424 13.6363 21.25 12.9261 21.25 11.1842V10C21.25 8.58749 21.2494 7.57322 21.1844 6.77708C21.12 5.9897 20.9964 5.48197 20.7868 5.07054C20.3793 4.27085 19.7291 3.62068 18.9295 3.21322C18.518 3.00359 18.0103 2.87996 17.2229 2.81563C16.4268 2.75058 15.4125 2.75 14 2.75H10C8.58749 2.75 7.57322 2.75058 6.77708 2.81563Z" fill="#2D264B"/>
</svg>
