<svg width="24" height="24" viewBox="0 0 24 24" fill="none" xmlns="http://www.w3.org/2000/svg">
<path d="M11.1079 9.85788C11.1079 9.44367 11.4437 9.10788 11.8579 9.10788L15.8579 9.10788C16.2721 9.10788 16.6079 9.44367 16.6079 9.85788C16.6079 10.2721 16.2721 10.6079 15.8579 10.6079H11.8579C11.4437 10.6079 11.1079 10.2721 11.1079 9.85788Z" fill="#2D264B"/>
<path d="M7.10786 13.8579C7.10786 13.4437 7.44365 13.1079 7.85786 13.1079H15.8579C16.2721 13.1079 16.6079 13.4437 16.6079 13.8579C16.6079 14.2721 16.2721 14.6079 15.8579 14.6079H7.85786C7.44365 14.6079 7.10786 14.2721 7.10786 13.8579Z" fill="#2D264B"/>
<path fill-rule="evenodd" clip-rule="evenodd" d="M4.3986 4.3986C8.59674 0.200466 15.4033 0.200466 19.6014 4.3986C20.835 5.63222 21.963 7.52758 22.4682 9.63953C22.9759 11.762 22.8653 14.1588 21.5286 16.322C21.4592 16.4342 21.4149 16.5061 21.3832 16.5604C21.3618 16.5972 21.3536 16.6136 21.3519 16.617C21.3377 16.6534 21.3362 16.6657 21.336 16.6668C21.3357 16.6685 21.3336 16.6821 21.3368 16.7238C21.3362 16.7165 21.3359 16.7239 21.3459 16.7682C21.3566 16.8152 21.3725 16.877 21.3996 16.9814L21.4064 17.0079C21.5636 17.6143 21.6911 18.1063 21.7658 18.5023C21.8409 18.9006 21.881 19.2871 21.8053 19.659C21.5852 20.7402 20.7402 21.5852 19.659 21.8053C19.2871 21.881 18.9006 21.8409 18.5023 21.7658C18.1063 21.6911 17.6143 21.5636 17.0079 21.4064L16.9814 21.3996C16.877 21.3725 16.8152 21.3566 16.7682 21.3459C16.7384 21.3392 16.7253 21.3372 16.7222 21.3367C16.6813 21.3337 16.6683 21.3359 16.6666 21.3362C16.6651 21.3364 16.6525 21.3381 16.6166 21.3521C16.6132 21.3538 16.597 21.362 16.5606 21.3833C16.5068 21.4149 16.4356 21.459 16.3241 21.5283C14.1701 22.8669 11.7994 23.0062 9.68213 22.5086C7.57586 22.0136 5.67827 20.8811 4.3986 19.6014C0.200466 15.4033 0.200466 8.59674 4.3986 4.3986ZM18.5407 5.45926C14.9284 1.84691 9.07161 1.84691 5.45926 5.45926C1.84691 9.07161 1.84691 14.9284 5.45926 18.5407C6.54798 19.6295 8.19937 20.6193 10.0253 21.0484C11.8402 21.475 13.785 21.3402 15.5323 20.2543C15.5482 20.2445 15.564 20.2346 15.5798 20.2247C15.7457 20.1213 15.91 20.0189 16.0572 19.9603C16.3207 19.8554 16.5559 19.8195 16.8386 19.8412C16.9962 19.8533 17.1598 19.896 17.3166 19.9368C17.3304 19.9404 17.3441 19.944 17.3578 19.9475C17.997 20.1132 18.4399 20.2276 18.7803 20.2918C19.1241 20.3566 19.2786 20.352 19.3598 20.3354C19.8513 20.2354 20.2354 19.8513 20.3354 19.3598C20.352 19.2786 20.3566 19.1241 20.2918 18.7803C20.2276 18.4399 20.1132 17.997 19.9475 17.3578C19.944 17.3441 19.9404 17.3303 19.9368 17.3165C19.896 17.1598 19.8534 16.9965 19.8413 16.8394C19.8194 16.557 19.8547 16.3235 19.959 16.0602C20.0172 15.9133 20.1194 15.7484 20.2229 15.5814C20.2328 15.5654 20.2427 15.5494 20.2526 15.5335C21.332 13.7868 21.4475 11.8201 21.0093 9.98851C20.5687 8.14644 19.5788 6.4973 18.5407 5.45926Z" fill="#2D264B"/>
</svg>
