<svg width="24" height="24" viewBox="0 0 24 24" fill="none" xmlns="http://www.w3.org/2000/svg">
<path fill-rule="evenodd" clip-rule="evenodd" d="M17.4635 2.37373C16.3214 2.24999 14.8818 2.24999 13.0452 2.25H10.9548C9.11821 2.24999 7.67861 2.24999 6.53648 2.37373C5.37094 2.50001 4.42656 2.76232 3.62024 3.34815C3.13209 3.70281 2.70281 4.13209 2.34815 4.62024C2.18647 4.84277 2.04801 5.07781 1.92987 5.32797C1.56808 6.09404 1.40671 6.98237 1.32806 8.04168C1.25 9.09323 1.25 10.3822 1.25 11.9716V12.0452C1.24999 13.8818 1.24999 15.3214 1.37373 16.4635C1.50001 17.6291 1.76232 18.5734 2.34815 19.3798C2.70281 19.8679 3.13209 20.2972 3.62024 20.6518C4.42656 21.2377 5.37094 21.5 6.53648 21.6263C7.67859 21.75 9.11817 21.75 10.9547 21.75H13.0453C14.8818 21.75 16.3214 21.75 17.4635 21.6263C18.6291 21.5 19.5734 21.2377 20.3798 20.6518C20.8679 20.2972 21.2972 19.8679 21.6518 19.3798C22.2377 18.5734 22.5 17.6291 22.6263 16.4635C22.75 15.3214 22.75 13.8818 22.75 12.0453V11.9709C22.75 10.3707 22.75 9.07486 22.6702 8.01904C22.5899 6.95506 22.4248 6.06379 22.0546 5.29546C21.9399 5.05734 21.8065 4.83304 21.6518 4.62024C21.2972 4.13209 20.8679 3.70281 20.3798 3.34815C19.5734 2.76232 18.6291 2.50001 17.4635 2.37373ZM4.50191 4.56168C5.00992 4.19259 5.66013 3.97745 6.69804 3.865C7.74999 3.75103 9.10843 3.75 11 3.75H13C14.8916 3.75 16.25 3.75103 17.302 3.865C18.3399 3.97745 18.9901 4.19259 19.4981 4.56168C19.8587 4.82369 20.1759 5.14081 20.4379 5.50139L18.5407 7.39861C16.8591 9.08026 15.6501 10.287 14.6072 11.0827C13.5817 11.8651 12.8056 12.1789 12 12.1789C11.1944 12.1789 10.4183 11.8651 9.39275 11.0827C8.34994 10.287 7.14092 9.08026 5.45926 7.3986L3.56205 5.50139C3.82412 5.14081 4.14128 4.82369 4.50191 4.56168ZM21.0373 7.02337C21.0977 7.34361 21.1425 7.70891 21.1745 8.13204C21.2495 9.12493 21.25 10.3648 21.25 12C21.25 13.8916 21.249 15.25 21.135 16.302C21.0225 17.3399 20.8074 17.9901 20.4383 18.4981C20.1762 18.8589 19.8589 19.1762 19.4981 19.4383C18.9901 19.8074 18.3399 20.0225 17.302 20.135C16.25 20.249 14.8916 20.25 13 20.25H11C9.10843 20.25 7.74999 20.249 6.69804 20.135C5.66013 20.0225 5.00992 19.8074 4.50191 19.4383C4.14111 19.1762 3.82382 18.8589 3.56168 18.4981C3.19259 17.9901 2.97745 17.3399 2.865 16.302C2.75103 15.25 2.75 13.8916 2.75 12C2.75 10.3764 2.75047 9.14244 2.82395 8.15274C2.85601 7.72084 2.90131 7.34885 2.96271 7.02337L4.43917 8.49983C6.07144 10.1321 7.35062 11.4113 8.48288 12.2752C9.64181 13.1594 10.7345 13.6789 12 13.6789C13.2655 13.6789 14.3582 13.1594 15.5171 12.2752C16.6494 11.4113 17.9285 10.1321 19.5608 8.49986L21.0373 7.02337Z" fill="#2D264B"/>
</svg>
