<svg width="24" height="24" viewBox="0 0 24 24" fill="none" xmlns="http://www.w3.org/2000/svg">
<path d="M11.2885 10.2372C11.0054 9.38779 9.92735 9.13331 9.29426 9.7664L8.53033 10.5303C8.23744 10.8232 7.76256 10.8232 7.46967 10.5303C7.17678 10.2374 7.17678 9.76256 7.46967 9.46967L8.2336 8.70574C9.65517 7.28417 12.0758 7.8556 12.7115 9.76283C12.9946 10.6122 14.0726 10.8667 14.7057 10.2336L15.4697 9.46967C15.7626 9.17678 16.2374 9.17678 16.5303 9.46967C16.8232 9.76256 16.8232 10.2374 16.5303 10.5303L15.7664 11.2943C14.3448 12.7158 11.9242 12.1444 11.2885 10.2372Z" fill="#2D264B"/>
<path fill-rule="evenodd" clip-rule="evenodd" d="M10.9664 1.25H13.0336C14.4053 1.25 15.4807 1.24999 16.3451 1.32061C17.2252 1.39252 17.9523 1.54138 18.6104 1.87671C19.6924 2.42798 20.572 3.30762 21.1233 4.38955C21.4586 5.04769 21.6075 5.77479 21.6794 6.65494C21.75 7.51928 21.75 8.59471 21.75 9.96642V12.7232C21.75 12.9797 21.75 13.1358 21.7436 13.2719C21.6033 16.2338 19.2338 18.6033 16.2719 18.7436C16.1358 18.75 15.9639 18.75 15.6788 18.75H15.6504L15.5751 18.7501C14.7079 18.7556 13.8632 19.0264 13.1543 19.5259L13.1051 19.5609L10.4944 21.4257C8.9899 22.5003 7.01288 20.9484 7.69954 19.2317C7.79183 19.001 7.62191 18.75 7.37341 18.75H6.77166C4.27441 18.75 2.25 16.7256 2.25 14.2283L2.25 9.96644C2.25 8.59472 2.24999 7.51929 2.32061 6.65494C2.39252 5.77479 2.54138 5.04769 2.87671 4.38955C3.42798 3.30762 4.30762 2.42798 5.38955 1.87671C6.04769 1.54138 6.77479 1.39252 7.65494 1.32061C8.51929 1.24999 9.59472 1.25 10.9664 1.25ZM7.77708 2.81563C6.9897 2.87996 6.48197 3.00359 6.07054 3.21322C5.27085 3.62068 4.62068 4.27085 4.21322 5.07054C4.00359 5.48197 3.87996 5.9897 3.81563 6.77708C3.75058 7.57322 3.75 8.58749 3.75 10V14.2283C3.75 15.8972 5.10284 17.25 6.77166 17.25H7.37341C8.68311 17.25 9.57867 18.5728 9.09226 19.7888C8.96197 20.1145 9.33709 20.409 9.62255 20.2051L12.2333 18.3403L12.2902 18.2997C13.2493 17.6239 14.3922 17.2576 15.5655 17.2501L15.6504 17.25C15.9721 17.25 16.1053 17.2498 16.201 17.2452C18.3902 17.1416 20.1416 15.3902 20.2452 13.201C20.2498 13.105 20.25 12.9871 20.25 12.6988V10C20.25 8.58749 20.2494 7.57322 20.1844 6.77708C20.12 5.9897 19.9964 5.48197 19.7868 5.07054C19.3793 4.27085 18.7291 3.62068 17.9295 3.21322C17.518 3.00359 17.0103 2.87996 16.2229 2.81563C15.4268 2.75058 14.4125 2.75 13 2.75H11C9.58749 2.75 8.57322 2.75058 7.77708 2.81563Z" fill="#2D264B"/>
</svg>
