<svg width="24" height="24" viewBox="0 0 24 24" fill="none" xmlns="http://www.w3.org/2000/svg">
<path fill-rule="evenodd" clip-rule="evenodd" d="M20.7803 1.78033C21.0732 1.48744 21.0732 1.01256 20.7803 0.71967C20.4874 0.426777 20.0126 0.426777 19.7197 0.71967L16.2408 4.1985C15.5978 2.337 13.8301 1 11.75 1C9.12665 1 7 3.12665 7 5.75V9.75C7 10.791 7.33488 11.7538 7.9028 12.5365L6.12048 14.3189C5.10727 13.0719 4.5 11.4819 4.5 9.75C4.5 9.33579 4.16421 9 3.75 9C3.33579 9 3 9.33579 3 9.75C3 11.8962 3.77271 13.862 5.05512 15.3842L2.71967 17.7197C2.42678 18.0126 2.42678 18.4874 2.71967 18.7803C3.01256 19.0732 3.48744 19.0732 3.78033 18.7803L20.7803 1.78033ZM11.75 2.5C13.4447 2.5 14.8365 3.79714 14.9866 5.45275L8.98327 11.4561C8.67684 10.9602 8.5 10.3757 8.5 9.75V5.75C8.5 3.95507 9.95507 2.5 11.75 2.5Z" fill="#2D264B"/>
<path d="M7.98542 16.5752C7.62989 16.9308 7.70492 17.5272 8.16344 17.7335C8.97426 18.0984 9.85069 18.3433 10.7701 18.4457C10.9103 18.4614 11 18.609 11 18.75V20.0465C11 20.4222 10.7199 20.7345 10.3554 20.8256L9.5681 21.0224C9.16625 21.1229 8.92193 21.5301 9.02239 21.9319C9.12285 22.3337 9.53006 22.5781 9.9319 22.4776L10.7192 22.2808C11.396 22.1116 12.104 22.1116 12.7808 22.2808L13.5681 22.4776C13.9699 22.5781 14.3771 22.3337 14.4776 21.9319C14.5781 21.5301 14.3337 21.1229 13.9319 21.0224L13.1446 20.8256C12.7801 20.7345 12.5 20.4222 12.5 20.0465V18.75C12.5 18.609 12.5901 18.4613 12.7303 18.4457C17.1013 17.9584 20.5 14.2511 20.5 9.75C20.5 9.33579 20.1642 9 19.75 9C19.3358 9 19 9.33579 19 9.75C19 13.7541 15.7541 17 11.75 17C10.7376 17 9.77373 16.7925 8.89849 16.4177C8.58837 16.2849 8.22397 16.3367 7.98542 16.5752Z" fill="#2D264B"/>
<path d="M11.683 14.4995C11.0351 14.4906 10.8335 13.7271 11.2917 13.269L11.4355 13.1252C11.5184 13.0423 11.6327 13 11.75 13C13.5449 13 15 11.5449 15 9.75C15 9.62877 15.0482 9.5125 15.1339 9.42678L15.3055 9.2552C15.7463 8.81439 16.5 9.12659 16.5 9.75C16.5 12.3734 14.3734 14.5 11.75 14.5C11.7276 14.5 11.7053 14.4998 11.683 14.4995Z" fill="#2D264B"/>
</svg>
