<svg width="24" height="24" viewBox="0 0 24 24" fill="none" xmlns="http://www.w3.org/2000/svg">
<path fill-rule="evenodd" clip-rule="evenodd" d="M11.6713 4.0347C11.3964 5.88815 11.0511 8.77773 12.9193 12.0134C14.7874 15.2491 17.4625 16.3949 19.205 17.0836C19.2652 17.1074 19.3253 17.131 19.3851 17.1545C19.7456 17.2962 20.0927 17.4327 20.3621 17.5665C20.5219 17.646 20.6922 17.7424 20.8398 17.8629C20.9849 17.9814 21.1629 18.1676 21.2469 18.4401C21.4378 19.0593 21.0141 19.5295 20.7544 19.7657C20.4459 20.0464 19.9793 20.3503 19.3768 20.6982C14.2351 23.6667 7.66055 21.9051 4.69202 16.7634C1.72349 11.6218 3.48515 5.04718 8.6268 2.07865C9.22929 1.7308 9.72585 1.47873 10.1232 1.35182C10.4575 1.24503 11.0766 1.11318 11.5174 1.58811C11.7114 1.79715 11.7837 2.04435 11.8137 2.22926C11.8443 2.41736 11.8426 2.61306 11.8315 2.7912C11.8128 3.09144 11.7574 3.46023 11.6999 3.84335C11.6903 3.90682 11.6807 3.97068 11.6713 4.0347ZM10.3184 2.88253C10.0915 2.98286 9.78534 3.14182 9.3768 3.37769C4.95259 5.93201 3.43674 11.5892 5.99106 16.0134C8.54538 20.4376 14.2026 21.9535 18.6268 19.3992C19.0353 19.1633 19.3261 18.9776 19.5264 18.8313C19.3449 18.7509 19.1211 18.6627 18.8444 18.5538C18.7835 18.5298 18.7199 18.5048 18.6537 18.4786C16.8345 17.7596 13.7521 16.4559 11.6202 12.7634C9.48835 9.07091 9.90056 5.74965 10.1875 3.81468C10.1979 3.74426 10.208 3.67674 10.2177 3.61194C10.2617 3.31787 10.2973 3.07999 10.3184 2.88253ZM10.7183 2.7476C10.7179 2.74815 10.7111 2.74928 10.6993 2.74934C10.7129 2.74708 10.7188 2.74705 10.7183 2.7476ZM19.8322 18.568C19.8382 18.5578 19.8425 18.5525 19.8432 18.5524C19.844 18.5523 19.841 18.5574 19.8322 18.568Z" fill="#2D264B"/>
</svg>
