<svg width="24" height="24" viewBox="0 0 24 24" fill="none" xmlns="http://www.w3.org/2000/svg">
<path fill-rule="evenodd" clip-rule="evenodd" d="M10.75 10.0367L19.25 7.48669V12.4784C18.6233 12.0076 17.8442 11.7287 17 11.7287C14.9289 11.7287 13.25 13.4076 13.25 15.4787C13.25 17.5497 14.9289 19.2287 17 19.2287C19.0711 19.2287 20.75 17.5497 20.75 15.4787V3.47867C20.75 1.98023 19.3001 0.909335 17.8679 1.35L13.2867 2.7596L11.2445 3.34308C10.0639 3.68039 9.25 4.75945 9.25 5.98727V15.4784C8.62325 15.0076 7.8442 14.7287 7 14.7287C4.92893 14.7287 3.25 16.4076 3.25 18.4787C3.25 20.5497 4.92893 22.2287 7 22.2287C9.07107 22.2287 10.75 20.5497 10.75 18.4787V10.0367ZM18.309 2.78367C18.7766 2.6398 19.25 2.98944 19.25 3.47867V5.92064L10.75 8.47064V5.98727C10.75 5.42917 11.12 4.93869 11.6566 4.78536L13.7133 4.19773L18.309 2.78367ZM17 13.2287C18.2426 13.2287 19.25 14.236 19.25 15.4787C19.25 16.7213 18.2426 17.7287 17 17.7287C15.7574 17.7287 14.75 16.7213 14.75 15.4787C14.75 14.236 15.7574 13.2287 17 13.2287ZM7 16.2287C8.24264 16.2287 9.25 17.236 9.25 18.4787C9.25 19.7213 8.24264 20.7287 7 20.7287C5.75736 20.7287 4.75 19.7213 4.75 18.4787C4.75 17.236 5.75736 16.2287 7 16.2287Z" fill="#2D264B"/>
</svg>
