<svg width="24" height="24" viewBox="0 0 24 24" fill="none" xmlns="http://www.w3.org/2000/svg">
<path fill-rule="evenodd" clip-rule="evenodd" d="M9 2.25C6.37665 2.25 4.25 4.37665 4.25 7C4.25 9.62335 6.37665 11.75 9 11.75C11.6234 11.75 13.75 9.62335 13.75 7C13.75 4.37665 11.6234 2.25 9 2.25ZM5.75 7C5.75 5.20507 7.20507 3.75 9 3.75C10.7949 3.75 12.25 5.20507 12.25 7C12.25 8.79493 10.7949 10.25 9 10.25C7.20507 10.25 5.75 8.79493 5.75 7Z" fill="#2D264B"/>
<path d="M16 11.25C15.5858 11.25 15.25 11.5858 15.25 12C15.25 12.4142 15.5858 12.75 16 12.75H22C22.4142 12.75 22.75 12.4142 22.75 12C22.75 11.5858 22.4142 11.25 22 11.25H16Z" fill="#2D264B"/>
<path fill-rule="evenodd" clip-rule="evenodd" d="M6 13.25C3.37665 13.25 1.25 15.3766 1.25 18C1.25 20.6234 3.37665 22.75 6 22.75H12C14.6234 22.75 16.75 20.6234 16.75 18C16.75 15.3766 14.6234 13.25 12 13.25H6ZM2.75 18C2.75 16.2051 4.20507 14.75 6 14.75H12C13.7949 14.75 15.25 16.2051 15.25 18C15.25 19.7949 13.7949 21.25 12 21.25H6C4.20507 21.25 2.75 19.7949 2.75 18Z" fill="#2D264B"/>
</svg>
