<svg width="24" height="24" viewBox="0 0 24 24" fill="none" xmlns="http://www.w3.org/2000/svg">
<path fill-rule="evenodd" clip-rule="evenodd" d="M17.6775 17.0434C15.8692 18.4354 13.25 17.1463 13.25 14.8642V12.7496L3 12.7496C2.58579 12.7496 2.25 12.4138 2.25 11.9996C2.25 11.5854 2.58579 11.2496 3 11.2496L13.25 11.2496V9.13495C13.25 6.85289 15.8692 5.56379 17.6775 6.95583L21.3988 9.82048C22.8288 10.9213 22.8288 13.0779 21.3988 14.1787L17.6775 17.0434ZM14.75 9.13495C14.75 8.09765 15.9405 7.51169 16.7625 8.14444L20.4838 11.0091C21.1338 11.5095 21.1338 12.4897 20.4838 12.9901L16.7625 15.8547C15.9405 16.4875 14.75 15.9015 14.75 14.8642L14.75 11.9996L14.75 9.13495Z" fill="#2D264B"/>
</svg>
