<svg width="24" height="24" viewBox="0 0 24 24" fill="none" xmlns="http://www.w3.org/2000/svg">
<path fill-rule="evenodd" clip-rule="evenodd" d="M22.4689 7.36382C23.08 4.17722 20.2824 1.3796 17.0958 1.99074L7.94673 3.74539C5.95789 4.12681 4.36735 5.63226 3.86202 7.58843C2.85311 11.494 6.47515 15.0635 10.3642 13.9198C10.4716 13.8882 10.5714 13.988 10.5398 14.0954C9.39617 17.9845 12.9656 21.6065 16.8712 20.5976C18.8274 20.0923 20.3328 18.5017 20.7142 16.5129L22.4689 7.36382ZM17.3783 3.46389C19.5237 3.05245 21.4072 4.93593 20.9957 7.08129L19.2411 16.2304C18.9697 17.6453 17.8955 18.7838 16.496 19.1453C13.6989 19.8679 11.1695 17.271 11.9789 14.5186C12.3454 13.2722 11.1874 12.1142 9.94105 12.4807C7.18864 13.2901 4.59178 10.7607 5.31435 7.9636C5.67585 6.56417 6.81437 5.48989 8.22926 5.21854L17.3783 3.46389Z" fill="#2D264B"/>
<path d="M4.94454 16.3331C5.23744 16.0402 5.23744 15.5653 4.94454 15.2725C4.65165 14.9796 4.17678 14.9796 3.88388 15.2725L2.46967 16.6867C2.17678 16.9796 2.17678 17.4544 2.46967 17.7473C2.76256 18.0402 3.23744 18.0402 3.53033 17.7473L4.94454 16.3331Z" fill="#2D264B"/>
<path d="M8.48008 17.0402C8.77297 16.7473 8.77297 16.2725 8.48008 15.9796C8.18718 15.6867 7.71231 15.6867 7.41942 15.9796L6.0052 17.3938C5.71231 17.6867 5.71231 18.1615 6.0052 18.4544C6.2981 18.7473 6.77297 18.7473 7.06586 18.4544L8.48008 17.0402Z" fill="#2D264B"/>
<path d="M9.18718 20.5758C9.48008 20.2829 9.48008 19.808 9.18718 19.5151C8.89429 19.2222 8.41942 19.2222 8.12652 19.5151L6.71231 20.9293C6.41942 21.2222 6.41942 21.6971 6.71231 21.99C7.0052 22.2829 7.48008 22.2829 7.77297 21.99L9.18718 20.5758Z" fill="#2D264B"/>
</svg>
