<svg width="24" height="24" viewBox="0 0 24 24" fill="none" xmlns="http://www.w3.org/2000/svg">
<path d="M12.75 9C12.75 8.58579 12.4142 8.25 12 8.25C11.5857 8.25 11.25 8.58579 11.25 9V11.25H8.99996C8.58574 11.25 8.24996 11.5858 8.24996 12C8.24996 12.4142 8.58574 12.75 8.99996 12.75H11.25V15C11.25 15.4142 11.5857 15.75 12 15.75C12.4142 15.75 12.75 15.4142 12.75 15V12.75H15C15.4142 12.75 15.75 12.4142 15.75 12C15.75 11.5858 15.4142 11.25 15 11.25H12.75V9Z" fill="#2D264B"/>
<path fill-rule="evenodd" clip-rule="evenodd" d="M9.56284 1.25C8.02104 1.25 6.77117 2.49987 6.77117 4.04167C6.77117 4.75503 6.19287 5.33333 5.4795 5.33333H5.17064C3.59458 5.33333 2.19067 6.55273 2.27617 8.24648C2.3777 10.2575 2.82435 13.3918 4.4535 16.3608C4.9098 17.1923 5.51919 18.0092 6.17795 18.7703L6.22755 18.8276C7.17522 19.9226 7.96537 20.8356 8.81485 21.4579C9.72853 22.1273 10.7037 22.4607 12 22.4607C13.2963 22.4607 14.2715 22.1273 15.1852 21.4579C16.0346 20.8356 16.8248 19.9226 17.7725 18.8276L17.8221 18.7703C18.4808 18.0092 19.0902 17.1923 19.5465 16.3608C21.2298 13.2931 21.6496 9.82667 21.7324 7.66561C21.7969 5.97999 20.403 4.75 18.8182 4.75H18.2288C17.6766 4.75 17.2288 4.30228 17.2288 3.75C17.2288 2.36929 16.1096 1.25 14.7288 1.25H9.56284ZM8.27117 4.04167C8.27117 3.3283 8.84947 2.75 9.56284 2.75H14.7288C15.2811 2.75 15.7288 3.19772 15.7288 3.75C15.7288 5.13071 16.8481 6.25 18.2288 6.25H18.8182C19.6558 6.25 20.2616 6.8731 20.2335 7.60819C20.1544 9.67293 19.7518 12.8686 18.2315 15.6392C17.8425 16.348 17.304 17.0768 16.6879 17.7886C15.6778 18.9557 14.9957 19.7373 14.2987 20.2479C13.6512 20.7223 12.9888 20.9607 12 20.9607C11.0112 20.9607 10.3489 20.7223 9.70131 20.2479C9.00433 19.7373 8.32224 18.9557 7.31212 17.7886C6.69604 17.0768 6.15747 16.348 5.76853 15.6392C4.29005 12.9448 3.86972 10.0616 3.77427 8.17085C3.73795 7.45149 4.3305 6.83333 5.17064 6.83333H5.4795C7.0213 6.83333 8.27117 5.58346 8.27117 4.04167Z" fill="#2D264B"/>
</svg>
