<svg width="24" height="24" viewBox="0 0 24 24" fill="none" xmlns="http://www.w3.org/2000/svg">
<g clip-path="url(#clip0_311_3110)">
<path d="M9 12C9 13.6569 10.3431 15 12 15C13.6569 15 15 13.6569 15 12C15 10.3431 13.6569 9 12 9C10.3431 9 9 10.3431 9 12Z" fill="#2D264B"/>
<path d="M18 5C18 4.44772 18.4477 4 19 4C19.5523 4 20 4.44772 20 5C20 5.55229 19.5523 6 19 6C18.4477 6 18 5.55229 18 5Z" fill="#2D264B"/>
<path d="M18 19C18 18.4477 18.4477 18 19 18C19.5523 18 20 18.4477 20 19C20 19.5523 19.5523 20 19 20C18.4477 20 18 19.5523 18 19Z" fill="#2D264B"/>
<path d="M4 5C4 4.44772 4.44772 4 5 4C5.55229 4 6 4.44772 6 5C6 5.55229 5.55229 6 5 6C4.44772 6 4 5.55229 4 5Z" fill="#2D264B"/>
<path d="M4 19C4 18.4477 4.44772 18 5 18C5.55229 18 6 18.4477 6 19C6 19.5523 5.55229 20 5 20C4.44772 20 4 19.5523 4 19Z" fill="#2D264B"/>
<path fill-rule="evenodd" clip-rule="evenodd" d="M12 5.25C8.27208 5.25 5.25 8.27208 5.25 12C5.25 15.7279 8.27208 18.75 12 18.75C15.7279 18.75 18.75 15.7279 18.75 12C18.75 8.27208 15.7279 5.25 12 5.25ZM6.75 12C6.75 9.10051 9.10051 6.75 12 6.75C14.8995 6.75 17.25 9.10051 17.25 12C17.25 14.8995 14.8995 17.25 12 17.25C9.10051 17.25 6.75 14.8995 6.75 12Z" fill="#2D264B"/>
<path fill-rule="evenodd" clip-rule="evenodd" d="M18.5863 0.439747C17.1748 0.249978 15.3658 0.249988 13.0574 0.25H10.9426C8.63423 0.249988 6.82519 0.249978 5.41371 0.439747C3.96897 0.633987 2.82895 1.03933 1.93414 1.93414C1.03933 2.82895 0.633987 3.96897 0.439747 5.41371C0.249978 6.82519 0.249988 8.63422 0.25 10.9426V13.0574C0.249988 15.3658 0.249978 17.1748 0.439747 18.5863C0.633987 20.031 1.03933 21.1711 1.93414 22.0659C2.82895 22.9607 3.96897 23.366 5.41371 23.5603C6.82519 23.75 8.63423 23.75 10.9426 23.75H13.0574C15.3658 23.75 17.1748 23.75 18.5863 23.5603C20.031 23.366 21.1711 22.9607 22.0659 22.0659C22.9607 21.1711 23.366 20.031 23.5603 18.5863C23.75 17.1748 23.75 15.3658 23.75 13.0574V10.9426C23.75 8.63423 23.75 6.82519 23.5603 5.41371C23.366 3.96897 22.9607 2.82895 22.0659 1.93414C21.1711 1.03933 20.031 0.633987 18.5863 0.439747ZM2.9948 2.9948C3.56445 2.42514 4.33517 2.09825 5.61358 1.92637C6.91356 1.75159 8.62177 1.75 11 1.75H13C15.3782 1.75 17.0864 1.75159 18.3864 1.92637C19.6648 2.09825 20.4355 2.42514 21.0052 2.9948C21.5749 3.56445 21.9018 4.33517 22.0736 5.61358C22.2484 6.91356 22.25 8.62177 22.25 11V13C22.25 15.3782 22.2484 17.0864 22.0736 18.3864C21.9018 19.6648 21.5749 20.4355 21.0052 21.0052C20.4355 21.5749 19.6648 21.9018 18.3864 22.0736C17.0864 22.2484 15.3782 22.25 13 22.25H11C8.62178 22.25 6.91356 22.2484 5.61358 22.0736C4.33517 21.9018 3.56445 21.5749 2.9948 21.0052C2.42514 20.4355 2.09825 19.6648 1.92637 18.3864C1.75159 17.0864 1.75 15.3782 1.75 13V11C1.75 8.62178 1.75159 6.91356 1.92637 5.61358C2.09825 4.33517 2.42514 3.56445 2.9948 2.9948Z" fill="#2D264B"/>
</g>
<defs>
<clipPath id="clip0_311_3110">
<rect width="24" height="24" fill="white"/>
</clipPath>
</defs>
</svg>
