<svg width="24" height="24" viewBox="0 0 24 24" fill="none" xmlns="http://www.w3.org/2000/svg">
<path d="M5.96852 1.83568C6.29197 1.57692 6.34441 1.10495 6.08565 0.781506C5.82689 0.45806 5.35493 0.405619 5.03148 0.664376L2.53148 2.66438C2.20803 2.92313 2.15559 3.3951 2.41435 3.71855C2.67311 4.042 3.14507 4.09444 3.46852 3.83568L5.96852 1.83568Z" fill="#2D264B"/>
<path d="M18.9685 0.664376C18.6451 0.405619 18.1731 0.45806 17.9143 0.781506C17.6556 1.10495 17.708 1.57692 18.0315 1.83568L20.5315 3.83568C20.8549 4.09444 21.3269 4.042 21.5857 3.71855C21.8444 3.3951 21.792 2.92313 21.4685 2.66438L18.9685 0.664376Z" fill="#2D264B"/>
<path d="M12.75 8.00003C12.75 7.58581 12.4142 7.25003 12 7.25003C11.5858 7.25003 11.25 7.58581 11.25 8.00003L11.25 11.1894L10.5303 10.4697C10.2374 10.1768 9.76256 10.1768 9.46967 10.4697C9.17678 10.7626 9.17678 11.2375 9.46967 11.5304L10.9697 13.0304C11.6267 13.6873 12.75 13.222 12.75 12.2929L12.75 8.00003Z" fill="#2D264B"/>
<path fill-rule="evenodd" clip-rule="evenodd" d="M12 1.25003C6.06294 1.25003 1.25 6.06297 1.25 12C1.25 17.9371 6.06294 22.75 12 22.75C17.9371 22.75 22.75 17.9371 22.75 12C22.75 6.06297 17.9371 1.25003 12 1.25003ZM2.75 12C2.75 6.89139 6.89137 2.75003 12 2.75003C17.1086 2.75003 21.25 6.89139 21.25 12C21.25 17.1087 17.1086 21.25 12 21.25C6.89137 21.25 2.75 17.1087 2.75 12Z" fill="#2D264B"/>
</svg>
