<svg width="24" height="24" viewBox="0 0 24 24" fill="none" xmlns="http://www.w3.org/2000/svg">
<path fill-rule="evenodd" clip-rule="evenodd" d="M14.1787 3.60084C13.0779 2.17082 10.9213 2.17081 9.82048 3.60084L6.95583 7.32212C5.56379 9.13043 6.85289 11.7496 9.13495 11.7496L11.2496 11.7496L11.2496 21.9997C11.2496 22.4139 11.5854 22.7497 11.9996 22.7497C12.4138 22.7497 12.7496 22.4139 12.7496 21.9997L12.7496 11.7496H14.8642C17.1463 11.7496 18.4354 9.13043 17.0434 7.32212L14.1787 3.60084ZM11.0091 4.51583C11.5095 3.86582 12.4897 3.86582 12.9901 4.51583L15.8547 8.23711C16.4875 9.05907 15.9015 10.2496 14.8642 10.2496L9.13495 10.2496C8.09765 10.2496 7.51169 9.05907 8.14444 8.23711L11.0091 4.51583Z" fill="#2D264B"/>
</svg>
