<svg width="24" height="24" viewBox="0 0 24 24" fill="none" xmlns="http://www.w3.org/2000/svg">
<path fill-rule="evenodd" clip-rule="evenodd" d="M10.7807 8.61986C10.0837 8.19088 9.5146 7.84061 9.04534 7.60993C8.5738 7.37812 8.08281 7.20329 7.56605 7.26118C6.81915 7.34486 6.15604 7.76076 5.73207 8.38278C5.44434 8.80493 5.34363 9.31731 5.29674 9.86218C5.24998 10.4054 5.24999 11.1017 5.25 11.9641V12.0359C5.24999 12.8983 5.24998 13.5946 5.29674 14.1378C5.34363 14.6827 5.44434 15.1951 5.73207 15.6172C6.15604 16.2392 6.81915 16.6551 7.56605 16.7388C8.08281 16.7967 8.5738 16.6219 9.04534 16.3901C9.5146 16.1594 10.0837 15.8091 10.7808 15.3801L10.8467 15.3395C11.5445 14.9101 12.1134 14.56 12.5349 14.2426C12.9627 13.9204 13.3337 13.5645 13.5328 13.0877C13.8224 12.3944 13.8224 11.6056 13.5328 10.9123C13.3337 10.4355 12.9627 10.0796 12.5349 9.7574C12.1134 9.44 11.5445 9.08987 10.8468 8.66049L10.7807 8.61986ZM7.73306 8.75186C7.81155 8.74306 7.9809 8.7581 8.38359 8.95606C8.78109 9.15147 9.2894 9.46335 10.028 9.91788C10.7662 10.3722 11.2742 10.6858 11.6325 10.9556C11.9909 11.2255 12.1044 11.3843 12.1487 11.4904C12.2838 11.8138 12.2838 12.1862 12.1487 12.5096C12.1044 12.6157 11.9909 12.7745 11.6325 13.0444C11.2742 13.3142 10.7662 13.6278 10.028 14.0821C9.2894 14.5366 8.78109 14.8485 8.38359 15.0439C7.9809 15.2419 7.81155 15.2569 7.73306 15.2481C7.44154 15.2155 7.16131 15.0508 6.97155 14.7724C6.90747 14.6784 6.83227 14.4862 6.79121 14.0092C6.75066 13.538 6.75 12.9068 6.75 12C6.75 11.0932 6.75066 10.462 6.79121 9.9908C6.83227 9.51375 6.90747 9.32161 6.97155 9.22759C7.16131 8.94918 7.44154 8.78452 7.73306 8.75186Z" fill="#2D264B"/>
<path fill-rule="evenodd" clip-rule="evenodd" d="M12.3451 3.32061C11.4807 3.24999 10.4053 3.25 9.03356 3.25H8.96644C7.59472 3.25 6.51929 3.24999 5.65494 3.32061C4.7748 3.39252 4.04769 3.54138 3.38955 3.87671C2.30762 4.42798 1.42798 5.30762 0.876713 6.38955C0.541379 7.04769 0.392522 7.7748 0.320612 8.65494C0.249992 9.51929 0.249995 10.5947 0.25 11.9664V12.0336C0.249995 13.4053 0.249992 14.4807 0.320612 15.3451C0.392522 16.2252 0.541379 16.9523 0.876713 17.6104C1.42798 18.6924 2.30762 19.572 3.38955 20.1233C4.04769 20.4586 4.77479 20.6075 5.65494 20.6794C6.51927 20.75 7.59469 20.75 8.96637 20.75H9.03358C10.4053 20.75 11.4807 20.75 12.3451 20.6794C13.2252 20.6075 13.9523 20.4586 14.6104 20.1233C15.6924 19.572 16.572 18.6924 17.1233 17.6104C17.1733 17.5123 17.2192 17.4125 17.2613 17.3109C18.428 17.8206 19.3834 18.2344 20.159 18.4448C20.9839 18.6686 21.7874 18.7147 22.5057 18.2446C23.2241 17.7746 23.5036 17.0198 23.6288 16.1743C23.7501 15.3556 23.75 14.2757 23.75 12.9502V11.0498C23.75 9.72426 23.7501 8.64436 23.6288 7.82567C23.5036 6.98019 23.2241 6.2254 22.5057 5.75537C21.7874 5.28534 20.9839 5.33144 20.159 5.55522C19.3834 5.76561 18.428 6.17938 17.2613 6.68909C17.2192 6.58748 17.1733 6.48774 17.1233 6.38955C16.572 5.30762 15.6924 4.42798 14.6104 3.87671C13.9523 3.54138 13.2252 3.39252 12.3451 3.32061ZM17.6987 15.8651L17.6285 15.8344C17.7501 14.8802 17.7501 13.6835 17.75 12.1059V11.8942C17.7501 10.3166 17.7501 9.11976 17.6285 8.1656L17.6987 8.13494C18.9854 7.57271 19.873 7.18703 20.5517 7.0029C21.217 6.82242 21.4978 6.88845 21.6844 7.01054C21.871 7.13264 22.044 7.36358 22.145 8.04545C22.248 8.74113 22.25 9.70889 22.25 11.113V12.887C22.25 14.2911 22.248 15.2589 22.145 15.9546C22.044 16.6364 21.871 16.8674 21.6844 16.9895C21.4978 17.1116 21.217 17.1776 20.5517 16.9971C19.873 16.813 18.9854 16.4273 17.6987 15.8651ZM4.07054 5.21322C4.48197 5.00359 4.9897 4.87996 5.77708 4.81563C6.57322 4.75058 7.58749 4.75 9 4.75C10.4125 4.75 11.4268 4.75058 12.2229 4.81563C13.0103 4.87996 13.518 5.00359 13.9295 5.21322C14.7291 5.62068 15.3793 6.27085 15.7868 7.07054C15.9026 7.2978 15.9918 7.55403 16.0593 7.86848C16.2458 8.73685 16.25 9.93241 16.25 12C16.25 14.067 16.2458 15.2625 16.0595 16.1308C15.9919 16.4456 15.9027 16.702 15.7868 16.9295C15.3793 17.7291 14.7291 18.3793 13.9295 18.7868C13.518 18.9964 13.0103 19.12 12.2229 19.1844C11.4268 19.2494 10.4125 19.25 9 19.25C7.58749 19.25 6.57322 19.2494 5.77708 19.1844C4.9897 19.12 4.48197 18.9964 4.07054 18.7868C3.27085 18.3793 2.62068 17.7291 2.21322 16.9295C2.00359 16.518 1.87996 16.0103 1.81563 15.2229C1.75058 14.4268 1.75 13.4125 1.75 12C1.75 10.5875 1.75058 9.57322 1.81563 8.77708C1.87996 7.9897 2.00359 7.48197 2.21322 7.07054C2.62068 6.27085 3.27085 5.62068 4.07054 5.21322Z" fill="#2D264B"/>
</svg>
