<svg width="24" height="24" viewBox="0 0 24 24" fill="none" xmlns="http://www.w3.org/2000/svg">
<path d="M21.2802 4.53033C21.5731 4.23743 21.5731 3.76256 21.2802 3.46967C20.9873 3.17678 20.5124 3.17678 20.2195 3.46967L4.21962 19.4697C3.92673 19.7626 3.92673 20.2374 4.21963 20.5303C4.51252 20.8232 4.98739 20.8232 5.28029 20.5303L21.2802 4.53033Z" fill="#2D264B"/>
<path d="M11.138 7.59719C12.3658 6.58521 13.2306 5.87441 13.913 5.44393C14.6084 5.00523 14.9194 4.98742 15.0998 5.04C15.2258 5.07672 15.3452 5.13304 15.4536 5.2069C15.6089 5.31268 15.793 5.56399 15.8967 6.37963C15.9492 6.79203 15.975 7.28911 15.9877 7.89177C16.0017 8.555 16.8018 8.88738 17.2709 8.4183C17.413 8.27616 17.4921 8.08251 17.4879 7.88153C17.4743 7.23225 17.4455 6.66834 17.3847 6.19036C17.2699 5.28777 17.0169 4.45669 16.298 3.9671C16.0594 3.80461 15.7967 3.6807 15.5195 3.59993C14.6845 3.35654 13.8822 3.68981 13.1127 4.17527C12.3398 4.66284 11.4018 5.43596 10.2282 6.40324L9.18797 7.26054C8.98851 7.42493 8.90785 7.49114 8.82791 7.55071C8.15104 8.0551 7.3393 8.3465 6.49617 8.38776C6.3966 8.39264 6.29225 8.39284 6.03377 8.39284L5.9922 8.39284C5.76938 8.39277 5.5977 8.39272 5.44421 8.4099C4.16758 8.55275 3.15992 9.5604 3.01707 10.837C2.9999 10.9905 2.99994 11.1622 3.00001 11.385V12.615C2.99994 12.8378 2.9999 13.0094 3.01707 13.1629C3.15992 14.4396 4.16758 15.4472 5.44421 15.5901C5.59771 15.6072 5.76939 15.6072 5.99221 15.6071L6.03377 15.6071C6.29225 15.6071 6.3966 15.6073 6.49617 15.6122C7.3393 15.6535 8.15104 15.9449 8.82791 16.4493C8.96136 16.5487 9.14704 16.5422 9.26472 16.4245L9.76151 15.9277C9.95528 15.734 9.94394 15.4102 9.7242 15.2465C8.80843 14.5641 7.71019 14.1698 6.56949 14.114C6.42886 14.1071 6.28609 14.1071 6.05402 14.1071H6.03377C5.74997 14.1071 5.66982 14.106 5.61101 14.0994C5.03072 14.0344 4.5727 13.5764 4.50777 12.9961C4.50119 12.9373 4.50002 12.8572 4.50002 12.5734V11.4266C4.50002 11.1428 4.50119 11.0626 4.50777 11.0038C4.5727 10.4236 5.03072 9.96553 5.61101 9.9006C5.66982 9.89402 5.74997 9.89284 6.03377 9.89284H6.05403C6.28607 9.89285 6.42887 9.89285 6.56949 9.88597C7.71019 9.83015 8.80843 9.4359 9.7242 8.75349C9.83711 8.66935 9.94728 8.57854 10.1264 8.43094L11.138 7.59719Z" fill="#2D264B"/>
<path d="M11.8122 16.9573C11.5133 16.7125 11.0774 16.7331 10.8043 17.0063L10.2275 17.5831C10.2236 17.5869 10.2239 17.5933 10.2281 17.5967C11.4018 18.564 12.3398 19.3371 13.1127 19.8247C13.8822 20.3102 14.6845 20.6434 15.5195 20.4C15.7967 20.3193 16.0594 20.1954 16.298 20.0329C17.0169 19.5433 17.2699 18.7122 17.3847 17.8096C17.5 16.9031 17.5 15.6875 17.5 14.1667V12.1212C17.5 11.453 16.6922 11.1184 16.2197 11.5909C16.079 11.7315 16 11.9223 16 12.1212V14.1094C16 15.7006 15.9985 16.82 15.8967 17.6203C15.793 18.436 15.6089 18.6873 15.4536 18.7931C15.3452 18.8669 15.2258 18.9233 15.0998 18.96C14.9194 19.0126 14.6084 18.9947 13.913 18.556C13.3628 18.209 12.6941 17.6797 11.8122 16.9573Z" fill="#2D264B"/>
</svg>
