<svg width="24" height="24" viewBox="0 0 24 24" fill="none" xmlns="http://www.w3.org/2000/svg">
<path fill-rule="evenodd" clip-rule="evenodd" d="M13.6982 7.51236C13.1688 5.82926 10.8317 5.82926 10.3023 7.51236C10.2582 7.65249 10.142 7.72477 10.0353 7.72477C8.25979 7.72477 7.63541 9.99755 8.97786 11.0051C9.07935 11.0812 9.13311 11.2295 9.08789 11.3733C8.82955 12.1946 9.162 12.9661 9.72842 13.3912C10.2983 13.819 11.1413 13.9181 11.8432 13.3912C11.9386 13.3197 12.0619 13.3197 12.1573 13.3912C12.8592 13.9181 13.7021 13.819 14.2721 13.3912C14.8385 12.9661 15.1709 12.1946 14.9126 11.3733C14.8674 11.2295 14.9211 11.0812 15.0226 11.0051C16.3651 9.99755 15.7407 7.72477 13.9652 7.72477C13.8585 7.72477 13.7422 7.65249 13.6982 7.51236ZM11.7332 7.96244C11.8223 7.67923 12.1782 7.67923 12.2673 7.96244C12.4998 8.70168 13.1768 9.22477 13.9652 9.22477C14.042 9.22477 14.0913 9.24757 14.128 9.27688C14.1698 9.31031 14.2095 9.3649 14.2323 9.43717C14.2782 9.58313 14.2386 9.71801 14.1222 9.80537C13.4996 10.2727 13.2503 11.0877 13.4817 11.8233C13.5326 11.9852 13.475 12.114 13.3717 12.1915C13.3188 12.2312 13.2636 12.2485 13.2176 12.2499C13.1779 12.2512 13.1248 12.2419 13.0576 12.1915C12.4288 11.7196 11.5717 11.7196 10.9428 12.1915C10.8757 12.2419 10.8226 12.2512 10.7829 12.2499C10.7369 12.2485 10.6817 12.2312 10.6288 12.1915C10.5255 12.114 10.4679 11.9852 10.5188 11.8233C10.7502 11.0877 10.5009 10.2727 9.87826 9.80537C9.76185 9.71801 9.72232 9.58313 9.76823 9.43717C9.79096 9.3649 9.8307 9.31031 9.87254 9.27688C9.90922 9.24757 9.95845 9.22477 10.0353 9.22477C10.8236 9.22477 11.5007 8.70168 11.7332 7.96244Z" fill="#2D264B"/>
<path fill-rule="evenodd" clip-rule="evenodd" d="M11.8385 1.25002C10.1322 1.24975 9.09102 1.24958 8.2235 1.53146C6.47298 2.10024 5.10055 3.47267 4.53177 5.22319L4.52316 5.25003H4.23112C0.525578 5.25003 -1.06623 9.95211 1.8773 12.203L1.88795 12.2112L4.35486 13.9615C4.44426 14.025 4.53703 14.0834 4.63274 14.1365C4.6341 14.14 4.63547 14.1436 4.63684 14.1472C4.64646 14.1723 4.6563 14.1973 4.66638 14.2224C4.92186 14.857 5.42056 15.6184 5.90018 16.1063C6.6818 16.9012 7.49068 17.2538 8.78234 17.8167L8.86818 17.8541C9.42453 18.0967 9.9871 18.3167 10.5094 18.4772C10.7568 18.5532 11.0066 18.6196 11.2503 18.6678V21.25H8.00035C7.58614 21.25 7.25035 21.5858 7.25035 22C7.25035 22.4142 7.58614 22.75 8.00035 22.75H16.0003C16.4146 22.75 16.7503 22.4142 16.7503 22C16.7503 21.5858 16.4146 21.25 16.0003 21.25H12.7503V18.6678C12.9941 18.6196 13.2439 18.5532 13.4913 18.4772C14.0136 18.3167 14.5762 18.0967 15.1325 17.8541L15.2184 17.8167C16.51 17.2538 17.3189 16.9012 18.1005 16.1063C18.5801 15.6184 19.0788 14.857 19.3343 14.2224C19.3455 14.1945 19.3564 14.1667 19.3671 14.1388C19.4648 14.0832 19.5598 14.0227 19.6516 13.9576L22.1129 12.2112L22.1235 12.203C25.0671 9.95211 23.4753 5.25003 19.7697 5.25003H19.4775L19.4689 5.22319C18.9001 3.47267 17.5277 2.10024 15.7772 1.53146C14.9097 1.24958 13.8685 1.24975 12.1622 1.25002H11.8385ZM2.77849 11.0038C0.988013 9.62126 1.96421 6.75003 4.23112 6.75003H4.28341C4.25029 7.33514 4.25031 8.03687 4.25035 8.91608L4.25034 10.416C4.25027 11.0411 4.2502 11.5801 4.27033 12.0623L2.77849 11.0038ZM21.2224 11.0038L19.7304 12.0624C19.7505 11.5804 19.7504 11.0416 19.7504 10.4169L19.7504 8.91603C19.7504 8.03693 19.7504 7.33509 19.7173 6.75003H19.7697C22.0366 6.75003 23.0128 9.62126 21.2224 11.0038ZM8.68703 2.95804C9.29874 2.75929 10.0807 2.75003 12.0003 2.75003C13.92 2.75003 14.702 2.75929 15.3137 2.95804C16.6075 3.37844 17.6219 4.39285 18.0423 5.68671C18.0846 5.81689 18.1192 5.95938 18.1471 6.12463C18.2477 6.72223 18.2503 7.52818 18.2503 9.00003V10.3004C18.2503 11.9475 18.2429 12.7174 18.0389 13.3896C18.0111 13.4814 17.9793 13.5717 17.9429 13.6622C17.7612 14.1134 17.3719 14.7078 17.0309 15.0546C16.4714 15.6237 15.9295 15.8703 14.533 16.4791C14.0068 16.7085 13.5003 16.9052 13.0506 17.0434C12.59 17.185 12.2364 17.25 12.0003 17.25C11.7643 17.25 11.4107 17.185 10.9501 17.0434C10.5004 16.9052 9.99386 16.7085 9.46766 16.4791C8.0712 15.8703 7.52926 15.6237 6.96979 15.0546C6.6288 14.7078 6.23949 14.1134 6.05785 13.6622C6.02035 13.569 5.98776 13.4761 5.95929 13.3814C5.75765 12.7107 5.75035 11.9405 5.75035 10.3004V9.00003C5.75035 7.52818 5.75297 6.72223 5.85364 6.12463C5.88148 5.95938 5.91606 5.81688 5.95836 5.68671C6.37876 4.39285 7.39317 3.37844 8.68703 2.95804Z" fill="#2D264B"/>
</svg>
