<svg width="24" height="24" viewBox="0 0 24 24" fill="none" xmlns="http://www.w3.org/2000/svg">
<path fill-rule="evenodd" clip-rule="evenodd" d="M4.56818 2C4.56818 1.58579 4.2324 1.25 3.81818 1.25C3.40397 1.25 3.06818 1.58579 3.06818 2V3.06818H2C1.58579 3.06818 1.25 3.40397 1.25 3.81818C1.25 4.2324 1.58579 4.56818 2 4.56818H3.06818L3.06818 10.2392C3.06817 12.5476 3.06816 14.3566 3.25793 15.7681C3.45217 17.2128 3.85751 18.3529 4.75232 19.2477C5.64713 20.1425 6.78715 20.5478 8.23189 20.7421C9.64337 20.9318 11.4524 20.9318 13.7608 20.9318H19.4318L19.4319 22C19.4319 22.4142 19.7677 22.75 20.1819 22.75C20.5961 22.75 20.9319 22.4142 20.9319 22L20.9318 20.9318H22C22.4142 20.9318 22.75 20.596 22.75 20.1818C22.75 19.7676 22.4142 19.4318 22 19.4318H20.9318V13.7608C20.9318 11.4524 20.9318 9.64338 20.7421 8.23189C20.5478 6.78715 20.1425 5.64713 19.2477 4.75232C18.3529 3.85751 17.2128 3.45217 15.7681 3.25793C14.3566 3.06816 12.5476 3.06817 10.2392 3.06818L4.56818 3.06818V2ZM4.74455 15.5682C4.56977 14.2683 4.56818 12.56 4.56818 10.1818V4.56818H10.1818C12.56 4.56818 14.2683 4.56977 15.5682 4.74455C16.8466 4.91643 17.6174 5.24332 18.187 5.81298C18.7567 6.38263 19.0836 7.15336 19.2554 8.43176C19.4302 9.73174 19.4318 11.44 19.4318 13.8182V19.4318H13.8182C11.44 19.4318 9.73174 19.4302 8.43176 19.2554C7.15336 19.0836 6.38263 18.7567 5.81298 18.187C5.24332 17.6174 4.91643 16.8466 4.74455 15.5682Z" fill="#2D264B"/>
</svg>
