<svg width="24" height="24" viewBox="0 0 24 24" fill="none" xmlns="http://www.w3.org/2000/svg">
<path d="M12.75 3C12.75 2.58579 12.4142 2.25 12 2.25C11.5858 2.25 11.25 2.58579 11.25 3V15.8105C10.9273 15.483 10.5438 15.001 9.98554 14.297L8.58769 12.534C8.33034 12.2095 7.85861 12.155 7.53404 12.4123C7.20947 12.6697 7.15498 13.1414 7.41232 13.466L8.83857 15.2648C9.37175 15.9372 9.81172 16.4922 10.2055 16.8875C10.6096 17.2932 11.0582 17.6294 11.6313 17.7208C11.7534 17.7402 11.8766 17.75 12 17.75C12.1234 17.75 12.2466 17.7402 12.3687 17.7208C12.9419 17.6294 13.3904 17.2932 13.7945 16.8875C14.1883 16.4922 14.6283 15.9372 15.1614 15.2648L16.5877 13.466C16.845 13.1414 16.7905 12.6697 16.466 12.4123C16.1414 12.155 15.6697 12.2095 15.4123 12.534L14.0145 14.297C13.4563 15.001 13.0727 15.483 12.75 15.8105V3Z" fill="#2D264B"/>
<path d="M20.6 10.5496C20.3513 10.2184 19.8811 10.1516 19.5499 10.4003C19.2188 10.6491 19.1519 11.1192 19.4007 11.4504C19.9342 12.1607 20.25 13.0424 20.25 14V15C20.25 15.9577 20.2477 16.3492 20.1977 16.6648C19.9097 18.4834 18.4834 19.9096 16.6649 20.1977C16.3492 20.2477 15.9577 20.25 15 20.25H9.00001C8.04234 20.25 7.65083 20.2477 7.33516 20.1977C5.51662 19.9096 4.09036 18.4834 3.80233 16.6648C3.75234 16.3492 3.75001 15.9577 3.75001 15V14C3.75001 13.0424 4.06583 12.1607 4.59932 11.4504C4.84808 11.1192 4.78127 10.6491 4.45008 10.4003C4.11888 10.1516 3.64874 10.2184 3.39997 10.5496C2.67807 11.5106 2.25001 12.7064 2.25001 14L2.25 15.0808C2.24994 15.9328 2.2499 16.4518 2.3208 16.8995C2.71049 19.3599 4.64013 21.2895 7.10051 21.6792C7.54819 21.7501 8.06718 21.7501 8.91921 21.75H15.0808C15.9328 21.7501 16.4518 21.7501 16.8995 21.6792C19.3599 21.2895 21.2895 19.3599 21.6792 16.8995C21.7501 16.4518 21.7501 15.9328 21.75 15.0808L21.75 14C21.75 12.7064 21.3219 11.5106 20.6 10.5496Z" fill="#2D264B"/>
</svg>
