<svg width="24" height="24" viewBox="0 0 24 24" fill="none" xmlns="http://www.w3.org/2000/svg">
<path fill-rule="evenodd" clip-rule="evenodd" d="M8.23248 4.17545L10.5005 3.36538C11.0703 3.16135 11.5208 3 12 3C12.4793 3 12.9298 3.16135 13.4996 3.36539L15.7676 4.17544C17.9151 4.94242 19.603 5.54521 20.7481 6.13759C21.0248 6.28073 21.2917 6.43408 21.5363 6.60203C21.8408 6.81114 22.1109 7.04288 22.3227 7.30574C22.6212 7.67625 22.8039 8.10857 22.8039 8.62643C22.8039 8.6663 22.8027 8.70569 22.8006 8.74459C22.7703 9.29513 22.5289 9.74611 22.163 10.1283C22.0372 10.2605 21.8972 10.3837 21.7472 10.4989C21.2453 10.8842 20.5657 11.2327 19.75 11.5817L19.75 13.7884C19.7503 15.4946 19.7504 16.5358 19.4686 17.4033C18.8998 19.1539 17.5274 20.5263 15.7768 21.0951C14.9093 21.3769 13.8681 21.3768 12.1618 21.3765H11.8382C10.1319 21.3768 9.09067 21.3769 8.22315 21.0951C6.47263 20.5263 5.1002 19.1539 4.53142 17.4033C4.24955 16.5358 4.24971 15.4946 4.24998 13.7883L4.24999 11.5804C3.88186 11.4229 3.54872 11.2687 3.25201 11.1152C3.07983 11.0262 2.91148 10.9331 2.74993 10.8351V15.6264C2.74993 16.0406 2.41415 16.3764 1.99993 16.3764C1.58572 16.3764 1.19629 16.0523 1.19629 15.6381V8.62638C1.19629 7.44609 2.14511 6.71014 3.25195 6.13759C4.39712 5.54521 6.08494 4.94242 8.23248 4.17545ZM2.97464 9.14579C3.0122 9.18194 3.05461 9.2195 3.10247 9.25853C3.28839 9.41014 3.55646 9.58388 3.94113 9.78286C4.98519 10.3229 6.57621 10.893 8.79954 11.687L10.9069 12.4397C11.622 12.6951 11.8135 12.7528 12 12.7528C12.1865 12.7528 12.3781 12.6951 13.0931 12.4397L15.2005 11.687C17.4239 10.893 19.0149 10.3229 20.059 9.78286C21.1524 9.21721 21.3038 8.85552 21.3038 8.62638C21.3038 8.52478 21.274 8.39712 21.1456 8.23718C21.0387 8.10403 20.8634 7.94851 20.5799 7.76703C20.4359 7.67485 20.264 7.57599 20.059 7.46995C19.0149 6.92987 17.4239 6.35983 15.2006 5.56578L13.0932 4.81312C12.3782 4.55775 12.1866 4.50005 12.0001 4.50005C11.8136 4.50005 11.622 4.55775 10.907 4.81312L8.7996 5.56577C6.57627 6.35983 4.98525 6.92987 3.94119 7.46995C2.84769 8.0356 2.69635 8.39729 2.69635 8.62643L2.69635 8.62781L2.69816 8.66921C2.70864 8.79126 2.76833 8.94719 2.97464 9.14579ZM5.74999 13.6265V12.1767C6.49023 12.4551 7.31986 12.7514 8.23252 13.0774L10.5005 13.8874C11.0703 14.0915 11.5209 14.2528 12.0001 14.2528C12.4793 14.2528 12.9299 14.0915 13.4997 13.8874L15.7993 13.0661C16.7035 12.7431 17.5226 12.4506 18.25 12.1774V13.6265C18.25 15.5461 18.2407 16.3281 18.042 16.9398C17.6216 18.2337 16.6072 19.2481 15.3133 19.6685C14.7016 19.8672 13.9197 19.8765 12 19.8765C10.0803 19.8765 9.29838 19.8672 8.68667 19.6685C7.39281 19.2481 6.37841 18.2337 5.958 16.9398C5.75925 16.3281 5.74999 15.5461 5.74999 13.6265Z" fill="#2D264B"/>
</svg>
