<svg width="24" height="24" viewBox="0 0 24 24" fill="none" xmlns="http://www.w3.org/2000/svg">
<path fill-rule="evenodd" clip-rule="evenodd" d="M6 2.25C4.48122 2.25 3.25 3.48122 3.25 5C3.25 6.51878 4.48122 7.75 6 7.75C7.51878 7.75 8.75 6.51878 8.75 5C8.75 3.48122 7.51878 2.25 6 2.25ZM4.75 5C4.75 4.30964 5.30964 3.75 6 3.75C6.69036 3.75 7.25 4.30964 7.25 5C7.25 5.69036 6.69036 6.25 6 6.25C5.30964 6.25 4.75 5.69036 4.75 5Z" fill="#2D264B"/>
<path d="M12 4.25C11.5858 4.25 11.25 4.58579 11.25 5C11.25 5.41421 11.5858 5.75 12 5.75L20 5.75C20.4142 5.75 20.75 5.41421 20.75 5C20.75 4.58579 20.4142 4.25 20 4.25L12 4.25Z" fill="#2D264B"/>
<path fill-rule="evenodd" clip-rule="evenodd" d="M18 9.25C16.4812 9.25 15.25 10.4812 15.25 12C15.25 13.5188 16.4812 14.75 18 14.75C19.5188 14.75 20.75 13.5188 20.75 12C20.75 10.4812 19.5188 9.25 18 9.25ZM16.75 12C16.75 11.3096 17.3096 10.75 18 10.75C18.6904 10.75 19.25 11.3096 19.25 12C19.25 12.6904 18.6904 13.25 18 13.25C17.3096 13.25 16.75 12.6904 16.75 12Z" fill="#2D264B"/>
<path d="M4 11.25C3.58579 11.25 3.25 11.5858 3.25 12C3.25 12.4142 3.58579 12.75 4 12.75L12 12.75C12.4142 12.75 12.75 12.4142 12.75 12C12.75 11.5858 12.4142 11.25 12 11.25L4 11.25Z" fill="#2D264B"/>
<path fill-rule="evenodd" clip-rule="evenodd" d="M6 16.25C4.48122 16.25 3.25 17.4812 3.25 19C3.25 20.5188 4.48122 21.75 6 21.75C7.51878 21.75 8.75 20.5188 8.75 19C8.75 17.4812 7.51878 16.25 6 16.25ZM4.75 19C4.75 18.3096 5.30964 17.75 6 17.75C6.69036 17.75 7.25 18.3096 7.25 19C7.25 19.6904 6.69036 20.25 6 20.25C5.30964 20.25 4.75 19.6904 4.75 19Z" fill="#2D264B"/>
<path d="M12 18.25C11.5858 18.25 11.25 18.5858 11.25 19C11.25 19.4142 11.5858 19.75 12 19.75H20C20.4142 19.75 20.75 19.4142 20.75 19C20.75 18.5858 20.4142 18.25 20 18.25H12Z" fill="#2D264B"/>
</svg>
