<svg width="24" height="24" viewBox="0 0 24 24" fill="none" xmlns="http://www.w3.org/2000/svg">
<path fill-rule="evenodd" clip-rule="evenodd" d="M12 12.25C10.4812 12.25 9.25003 13.4812 9.25003 15C9.25003 16.5188 10.4812 17.75 12 17.75C13.5188 17.75 14.75 16.5188 14.75 15C14.75 13.4812 13.5188 12.25 12 12.25ZM10.75 15C10.75 14.3096 11.3097 13.75 12 13.75C12.6904 13.75 13.25 14.3096 13.25 15C13.25 15.6904 12.6904 16.25 12 16.25C11.3097 16.25 10.75 15.6904 10.75 15Z" fill="#2D264B"/>
<path fill-rule="evenodd" clip-rule="evenodd" d="M12 1.25C8.8244 1.25 6.25003 3.82436 6.25003 7V7.52281L6.22319 7.53142C4.47267 8.1002 3.10024 9.47263 2.53146 11.2232C2.24958 12.0907 2.24975 13.1319 2.25002 14.8382V15.1618C2.24975 16.8681 2.24958 17.9093 2.53146 18.7768C3.10024 20.5274 4.47267 21.8998 6.22319 22.4686C7.0907 22.7505 8.13191 22.7503 9.83817 22.75H14.1619C15.8682 22.7503 16.9094 22.7505 17.7769 22.4686C19.5274 21.8998 20.8998 20.5274 21.4686 18.7768C21.7505 17.9093 21.7503 16.8681 21.75 15.1619V14.8381C21.7503 13.1319 21.7505 12.0907 21.4686 11.2232C20.8998 9.47263 19.5274 8.1002 17.7769 7.53142L17.75 7.52281V7C17.75 3.82436 15.1757 1.25 12 1.25ZM9.91606 7.25C9.03686 7.24997 8.33514 7.24994 7.75003 7.28306V7C7.75003 4.65279 9.65282 2.75 12 2.75C14.3472 2.75 16.25 4.65279 16.25 7V7.28306C15.6649 7.24994 14.9632 7.24997 14.084 7.25H9.91606ZM7.12463 8.85329C7.72223 8.75262 8.52818 8.75 10 8.75H14C15.4719 8.75 16.2778 8.75262 16.8754 8.85329C17.0407 8.88113 17.1832 8.91571 17.3134 8.95801C18.6072 9.37841 19.6216 10.3928 20.042 11.6867C20.2408 12.2984 20.25 13.0803 20.25 15C20.25 16.9197 20.2408 17.7016 20.042 18.3133C19.6216 19.6072 18.6072 20.6216 17.3134 21.042C16.7016 21.2407 15.9197 21.25 14 21.25H10C8.08038 21.25 7.29842 21.2407 6.68671 21.042C5.39285 20.6216 4.37844 19.6072 3.95804 18.3133C3.75929 17.7016 3.75003 16.9197 3.75003 15C3.75003 13.0803 3.75929 12.2984 3.95804 11.6867C4.37844 10.3928 5.39285 9.37841 6.68671 8.95801C6.81688 8.91571 6.95938 8.88113 7.12463 8.85329Z" fill="#2D264B"/>
</svg>
