<svg width="24" height="24" viewBox="0 0 24 24" fill="none" xmlns="http://www.w3.org/2000/svg">
<path fill-rule="evenodd" clip-rule="evenodd" d="M8.5 12.25C6.70507 12.25 5.25 13.7051 5.25 15.5C5.25 17.2949 6.70507 18.75 8.5 18.75C10.2949 18.75 11.75 17.2949 11.75 15.5C11.75 13.7051 10.2949 12.25 8.5 12.25ZM6.75 15.5C6.75 14.5335 7.5335 13.75 8.5 13.75C9.4665 13.75 10.25 14.5335 10.25 15.5C10.25 16.4665 9.4665 17.25 8.5 17.25C7.5335 17.25 6.75 16.4665 6.75 15.5Z" fill="#2D264B"/>
<path d="M14 13.25C13.5858 13.25 13.25 13.5858 13.25 14C13.25 14.4142 13.5858 14.75 14 14.75H18C18.4142 14.75 18.75 14.4142 18.75 14C18.75 13.5858 18.4142 13.25 18 13.25H14Z" fill="#2D264B"/>
<path d="M14 16.25C13.5858 16.25 13.25 16.5858 13.25 17C13.25 17.4142 13.5858 17.75 14 17.75H18C18.4142 17.75 18.75 17.4142 18.75 17C18.75 16.5858 18.4142 16.25 18 16.25H14Z" fill="#2D264B"/>
<path fill-rule="evenodd" clip-rule="evenodd" d="M16.75 2C16.75 1.58579 16.4142 1.25 16 1.25C15.5858 1.25 15.25 1.58579 15.25 2V3.28791C14.3413 3.25 13.2786 3.25 12.0313 3.25L11.9547 3.25C10.1182 3.24999 8.67861 3.24999 7.53648 3.37373C6.37094 3.50001 5.42656 3.76232 4.62024 4.34815C4.13209 4.70281 3.70281 5.13209 3.34815 5.62023C2.69696 6.51653 2.44466 7.58508 2.33592 8.94C2.24999 10.0106 2.25 11.3304 2.25 12.9687V13.0452C2.24999 14.8818 2.24999 16.3214 2.37373 17.4635C2.50001 18.6291 2.76232 19.5734 3.34815 20.3798C3.70281 20.8679 4.13209 21.2972 4.62024 21.6518C5.42656 22.2377 6.37094 22.5 7.53648 22.6263C8.67859 22.75 10.1182 22.75 11.9547 22.75H12.0453C13.8818 22.75 15.3214 22.75 16.4635 22.6263C17.6291 22.5 18.5734 22.2377 19.3798 21.6518C19.8679 21.2972 20.2972 20.8679 20.6518 20.3798C21.2377 19.5734 21.5 18.6291 21.6263 17.4635C21.75 16.3214 21.75 14.8818 21.75 13.0453V12.9687C21.75 11.3304 21.75 10.0106 21.6641 8.94C21.5553 7.58508 21.303 6.51653 20.6518 5.62023C20.2972 5.13209 19.8679 4.70281 19.3798 4.34815C18.6414 3.81167 17.786 3.54592 16.75 3.40814V2ZM5.50191 5.56168C6.00992 5.19259 6.66013 4.97745 7.69804 4.865C8.74999 4.75103 10.1084 4.75 12 4.75C13.676 4.75 14.9363 4.75055 15.94 4.83111C17.1925 4.93163 17.9325 5.15077 18.4981 5.56168C18.8589 5.82382 19.1762 6.14111 19.4383 6.50191C19.7517 6.9332 19.9535 7.46593 20.0763 8.25H3.92375C4.0465 7.46593 4.24833 6.9332 4.56168 6.50191C4.82382 6.14111 5.14111 5.82382 5.50191 5.56168ZM3.75 13C3.75 11.687 3.75034 10.6292 3.78921 9.75H20.2108C20.2497 10.6292 20.25 11.687 20.25 13C20.25 14.8916 20.249 16.25 20.135 17.302C20.0225 18.3399 19.8074 18.9901 19.4383 19.4981C19.1762 19.8589 18.8589 20.1762 18.4981 20.4383C17.9901 20.8074 17.3399 21.0225 16.302 21.135C15.25 21.249 13.8916 21.25 12 21.25C10.1084 21.25 8.74999 21.249 7.69804 21.135C6.66013 21.0225 6.00992 20.8074 5.50191 20.4383C5.14111 20.1762 4.82382 19.8589 4.56168 19.4981C4.19259 18.9901 3.97745 18.3399 3.865 17.302C3.75103 16.25 3.75 14.8916 3.75 13Z" fill="#2D264B"/>
</svg>
