<svg width="24" height="24" viewBox="0 0 24 24" fill="none" xmlns="http://www.w3.org/2000/svg">
<path fill-rule="evenodd" clip-rule="evenodd" d="M11.9999 8.24953C9.92888 8.24953 8.24995 9.92846 8.24995 11.9995C8.24995 14.0706 9.92888 15.7495 11.9999 15.7495C14.071 15.7495 15.7499 14.0706 15.7499 11.9995C15.7499 9.92846 14.071 8.24953 11.9999 8.24953ZM9.74995 11.9995C9.74995 10.7569 10.7573 9.74953 11.9999 9.74953C13.2426 9.74953 14.2499 10.7569 14.2499 11.9995C14.2499 13.2422 13.2426 14.2495 11.9999 14.2495C10.7573 14.2495 9.74995 13.2422 9.74995 11.9995Z" fill="#2D264B"/>
<path fill-rule="evenodd" clip-rule="evenodd" d="M15.4147 3.23181C14.4342 -0.203572 9.56564 -0.203571 8.58523 3.23181C8.28146 4.29621 7.18792 4.92757 6.11423 4.65844C2.6489 3.78981 0.214599 8.00615 2.69952 10.5729C3.46944 11.3682 3.46944 12.6309 2.69952 13.4262C0.214599 15.9929 2.6489 20.2092 6.11423 19.3406C7.18792 19.0715 8.28146 19.7028 8.58523 20.7673C9.56564 24.2026 14.4342 24.2026 15.4147 20.7673C15.7184 19.7028 16.812 19.0715 17.8857 19.3406C21.351 20.2092 23.7853 15.9929 21.3004 13.4262C20.5305 12.6309 20.5305 11.3682 21.3004 10.5729C23.7853 8.00615 21.351 3.78981 17.8857 4.65844C16.812 4.92757 15.7184 4.29621 15.4147 3.23181ZM10.0276 3.64345C10.5939 1.65921 13.406 1.65921 13.9722 3.64345C14.4982 5.48629 16.3915 6.57938 18.2504 6.11343C20.2519 5.61172 21.6579 8.04703 20.2227 9.52956C18.8897 10.9064 18.8897 13.0926 20.2227 14.4695C21.6579 15.952 20.2519 18.3873 18.2504 17.8856C16.3915 17.4197 14.4982 18.5128 13.9722 20.3556C13.406 22.3398 10.5939 22.3398 10.0276 20.3556C9.50172 18.5128 7.60843 17.4197 5.74952 17.8856C3.74798 18.3873 2.34196 15.952 3.77722 14.4695C5.1102 13.0926 5.1102 10.9064 3.77722 9.52956C2.34196 8.04703 3.74798 5.61172 5.74952 6.11343C7.60843 6.57938 9.50172 5.48629 10.0276 3.64345Z" fill="#2D264B"/>
</svg>
