<svg width="24" height="24" viewBox="0 0 24 24" fill="none" xmlns="http://www.w3.org/2000/svg">
<path fill-rule="evenodd" clip-rule="evenodd" d="M20.0913 3.46967C20.3842 3.76256 20.3842 4.23743 20.0913 4.53033L4.09137 20.5303C3.79847 20.8232 3.3236 20.8232 3.03071 20.5303C2.73781 20.2374 2.73781 19.7626 3.0307 19.4697L6.06253 16.4378C5.38876 15.9404 4.58293 15.6531 3.74617 15.6122C3.6466 15.6073 3.54225 15.6071 3.28377 15.6071L3.24221 15.6071C3.01939 15.6072 2.84771 15.6072 2.69421 15.59C1.41758 15.4472 0.409921 14.4395 0.267071 13.1629C0.249896 13.0094 0.249945 12.8377 0.250007 12.6149V11.385C0.249945 11.1622 0.249896 10.9905 0.267071 10.837C0.409921 9.56037 1.41758 8.55272 2.69421 8.40987C2.84769 8.39269 3.01937 8.39274 3.24216 8.3928L3.28377 8.39281C3.54225 8.39281 3.6466 8.3926 3.74617 8.38773C4.5893 8.34647 5.40104 8.05507 6.07791 7.55068C6.15785 7.49111 6.23851 7.4249 6.43797 7.26051L7.47816 6.40321C8.65177 5.43593 9.5898 4.66281 10.3627 4.17524C11.1322 3.68978 11.9345 3.35651 12.7695 3.5999C13.0467 3.68067 13.3094 3.80458 13.548 3.96707C14.2669 4.45666 14.5199 5.28773 14.6347 6.19033C14.6919 6.63952 14.7207 7.16458 14.7352 7.76508L19.0306 3.46967C19.3235 3.17678 19.7984 3.17678 20.0913 3.46967ZM13.2497 9.25066C13.2476 7.99274 13.2343 7.06813 13.1467 6.3796C13.043 5.56396 12.8589 5.31265 12.7036 5.20687C12.5952 5.13301 12.4758 5.07669 12.3498 5.03997C12.1694 4.98739 11.8584 5.0052 11.163 5.4439C10.4806 5.87438 9.61585 6.58518 8.38797 7.59716L7.37636 8.43091C7.19728 8.57851 7.08711 8.66932 6.9742 8.75345C6.05843 9.43587 4.96019 9.83011 3.81949 9.88594C3.67887 9.89282 3.53607 9.89282 3.30403 9.89281H3.28377C2.99997 9.89281 2.91982 9.89398 2.86101 9.90057C2.28072 9.9655 1.8227 10.4235 1.75777 11.0038C1.75119 11.0626 1.75002 11.1428 1.75002 11.4266V12.5733C1.75002 12.8571 1.75119 12.9373 1.75777 12.9961C1.8227 13.5764 2.28072 14.0344 2.86101 14.0993C2.91982 14.1059 2.99997 14.1071 3.28377 14.1071H3.30402C3.53598 14.1071 3.67889 14.1071 3.81949 14.114C4.96019 14.1698 6.05843 14.564 6.9742 15.2465C7.02504 15.2843 7.07533 15.3236 7.1316 15.3688L13.2497 9.25066Z" fill="#2D264B"/>
<path d="M17.6386 9.92418C17.4495 9.58668 17.4672 9.15437 17.7407 8.88081C18.0559 8.56559 18.578 8.58592 18.8136 8.96435C20.1814 11.161 19.9277 14.0776 18.0526 16.0072C18.0241 16.0366 17.9909 16.0698 17.9366 16.1241L17.5303 16.5303C17.2375 16.8232 16.7626 16.8232 16.4697 16.5303C16.1768 16.2374 16.1768 15.7625 16.4697 15.4696L16.8697 15.0696C16.8774 15.0619 16.8845 15.0548 16.8912 15.0481C16.9376 15.0017 16.9591 14.9801 16.9769 14.9618C18.3155 13.5843 18.5361 11.5261 17.6386 9.92418Z" fill="#2D264B"/>
<path d="M13.4697 13.1519C13.329 13.2925 13.25 13.4833 13.25 13.6822V14.1094C13.25 15.7005 13.2485 16.8199 13.1467 17.6203C13.043 18.436 12.8589 18.6873 12.7036 18.793C12.5952 18.8669 12.4758 18.9232 12.3498 18.9599C12.1694 19.0125 11.8584 18.9947 11.163 18.556C10.8073 18.3316 10.4021 18.0311 9.92181 17.6515C9.62002 17.413 9.1871 17.4345 8.91511 17.7065C8.60063 18.0209 8.62615 18.5394 8.97504 18.8152C9.49164 19.2236 9.95063 19.5647 10.3627 19.8247C11.1322 20.3101 11.9345 20.6434 12.7695 20.4C13.0467 20.3192 13.3094 20.1953 13.548 20.0328C14.2669 19.5433 14.5199 18.7122 14.6347 17.8096C14.75 16.9031 14.75 15.6875 14.75 14.1666V13.6822C14.75 13.014 13.9422 12.6794 13.4697 13.1519Z" fill="#2D264B"/>
<path d="M20.2496 7.35102C20.0034 7.05646 19.9974 6.62416 20.2688 6.35273L20.3038 6.3177C20.5988 6.0227 21.0846 6.01928 21.3558 6.33624C21.371 6.35398 21.3859 6.37161 21.4006 6.38917C24.1149 9.63729 24.1149 14.3626 21.4006 17.6107C21.1497 17.9109 20.8295 18.2311 20.266 18.7946L19.5303 19.5303C19.2375 19.8232 18.7626 19.8232 18.4697 19.5303C18.1768 19.2374 18.1768 18.7625 18.4697 18.4696L19.1697 17.7696C19.7784 17.1609 20.0473 16.891 20.2496 16.6489C22.4986 13.9576 22.4986 10.0423 20.2496 7.35102Z" fill="#2D264B"/>
</svg>
