<svg width="24" height="24" viewBox="0 0 24 24" fill="none" xmlns="http://www.w3.org/2000/svg">
<path fill-rule="evenodd" clip-rule="evenodd" d="M17.7695 3.33159C16.9345 3.0882 16.1322 3.42147 15.3627 3.90693C14.5898 4.39449 13.6518 5.16762 12.4782 6.1349L11.438 6.9922C11.2385 7.15659 11.1578 7.2228 11.0779 7.28237C10.401 7.78676 9.5893 8.07816 8.74617 8.11942C8.6466 8.12429 8.54225 8.1245 8.28377 8.1245L8.2422 8.12449C8.01938 8.12443 7.8477 8.12438 7.69421 8.14156C6.41758 8.28441 5.40992 9.29206 5.26707 10.5687C5.2499 10.7222 5.24994 10.8939 5.25001 11.1167V12.3466C5.24994 12.5694 5.2499 12.7411 5.26707 12.8946C5.40992 14.1712 6.41758 15.1789 7.69421 15.3217C7.84771 15.3389 8.01939 15.3389 8.24221 15.3388L8.28377 15.3388C8.54225 15.3388 8.6466 15.339 8.74617 15.3439C9.5893 15.3851 10.401 15.6765 11.0779 16.1809C11.1579 16.2405 11.2385 16.3067 11.438 16.4711L12.4781 17.3284C13.6518 18.2957 14.5898 19.0688 15.3627 19.5564C16.1322 20.0418 16.9345 20.3751 17.7695 20.1317C18.0467 20.0509 18.3094 19.927 18.548 19.7645C19.2669 19.2749 19.5199 18.4439 19.6347 17.5413C19.75 16.6348 19.75 15.4192 19.75 13.8983V9.56497C19.75 8.04411 19.75 6.82853 19.6347 5.92202C19.5199 5.01942 19.2669 4.18835 18.548 3.69876C18.3094 3.53627 18.0467 3.41236 17.7695 3.33159ZM13.388 7.32885C14.6158 6.31687 15.4806 5.60607 16.163 5.17559C16.8584 4.73689 17.1694 4.71908 17.3498 4.77166C17.4758 4.80838 17.5952 4.8647 17.7036 4.93856C17.8589 5.04434 18.043 5.29565 18.1467 6.11129C18.2485 6.91168 18.25 8.03107 18.25 9.62223V13.8411C18.25 15.4322 18.2485 16.5516 18.1467 17.352C18.043 18.1676 17.8589 18.419 17.7036 18.5247C17.5952 18.5986 17.4758 18.6549 17.3498 18.6916C17.1694 18.7442 16.8584 18.7264 16.163 18.2877C15.4806 17.8572 14.6158 17.1464 13.388 16.1344L12.3764 15.3007C12.1973 15.1531 12.0871 15.0623 11.9742 14.9781C11.0584 14.2957 9.96019 13.9015 8.81949 13.8457C8.67886 13.8388 8.53609 13.8388 8.30402 13.8388H8.28377C7.99997 13.8388 7.91982 13.8376 7.86101 13.831C7.28072 13.7661 6.8227 13.3081 6.75777 12.7278C6.75119 12.669 6.75002 12.5888 6.75002 12.305V11.1583C6.75002 10.8745 6.75119 10.7943 6.75777 10.7355C6.8227 10.1552 7.28072 9.69719 7.86101 9.63225C7.91982 9.62567 7.99997 9.6245 8.28377 9.6245H8.30403C8.53607 9.62451 8.67887 9.62451 8.81949 9.61763C9.96019 9.5618 11.0584 9.16756 11.9742 8.48514C12.0871 8.40101 12.1973 8.3102 12.3764 8.1626L13.388 7.32885Z" fill="#2D264B"/>
</svg>
