<svg width="24" height="24" viewBox="0 0 24 24" fill="none" xmlns="http://www.w3.org/2000/svg">
<path fill-rule="evenodd" clip-rule="evenodd" d="M14.7695 3.33159C13.9345 3.0882 13.1322 3.42147 12.3627 3.90693C11.5898 4.39449 10.6518 5.16762 9.47816 6.1349L8.43797 6.9922C8.23851 7.15659 8.15785 7.2228 8.07791 7.28237C7.40104 7.78676 6.5893 8.07816 5.74617 8.11942C5.6466 8.12429 5.54225 8.1245 5.28377 8.1245L5.2422 8.12449C5.01938 8.12443 4.8477 8.12438 4.69421 8.14156C3.41758 8.28441 2.40992 9.29206 2.26707 10.5687C2.2499 10.7222 2.24994 10.8939 2.25001 11.1167V12.3466C2.24994 12.5694 2.2499 12.7411 2.26707 12.8946C2.40992 14.1712 3.41758 15.1789 4.69421 15.3217C4.84771 15.3389 5.01939 15.3389 5.24221 15.3388L5.28377 15.3388C5.54225 15.3388 5.6466 15.339 5.74617 15.3439C6.5893 15.3851 7.40104 15.6765 8.07791 16.1809C8.15785 16.2405 8.23851 16.3067 8.43797 16.4711L9.47814 17.3284C10.6518 18.2957 11.5898 19.0688 12.3627 19.5564C13.1322 20.0418 13.9345 20.3751 14.7695 20.1317C15.0467 20.0509 15.3094 19.927 15.548 19.7645C16.2669 19.2749 16.5199 18.4439 16.6347 17.5413C16.75 16.6348 16.75 15.4192 16.75 13.8983V9.56497C16.75 8.04411 16.75 6.82853 16.6347 5.92202C16.5199 5.01942 16.2669 4.18835 15.548 3.69876C15.3094 3.53627 15.0467 3.41236 14.7695 3.33159ZM10.388 7.32885C11.6158 6.31687 12.4806 5.60607 13.163 5.17559C13.8584 4.73689 14.1694 4.71908 14.3498 4.77166C14.4758 4.80838 14.5952 4.8647 14.7036 4.93856C14.8589 5.04434 15.043 5.29565 15.1467 6.11129C15.2485 6.91168 15.25 8.03107 15.25 9.62223V13.8411C15.25 15.4322 15.2485 16.5516 15.1467 17.352C15.043 18.1676 14.8589 18.419 14.7036 18.5247C14.5952 18.5986 14.4758 18.6549 14.3498 18.6916C14.1694 18.7442 13.8584 18.7264 13.163 18.2877C12.4806 17.8572 11.6158 17.1464 10.388 16.1344L9.37636 15.3007C9.19728 15.1531 9.0871 15.0623 8.9742 14.9781C8.05843 14.2957 6.96019 13.9015 5.81949 13.8457C5.67886 13.8388 5.53609 13.8388 5.30402 13.8388H5.28377C4.99997 13.8388 4.91982 13.8376 4.86101 13.831C4.28072 13.7661 3.8227 13.3081 3.75777 12.7278C3.75119 12.669 3.75002 12.5888 3.75002 12.305V11.1583C3.75002 10.8745 3.75119 10.7943 3.75777 10.7355C3.8227 10.1552 4.28072 9.69719 4.86101 9.63225C4.91982 9.62567 4.99997 9.6245 5.28377 9.6245H5.30403C5.53607 9.62451 5.67887 9.62451 5.81949 9.61763C6.96019 9.5618 8.05843 9.16756 8.9742 8.48514C9.08711 8.40101 9.19728 8.3102 9.37636 8.1626L10.388 7.32885Z" fill="#2D264B"/>
<path d="M20.5303 7.20131C20.2375 6.90842 19.7626 6.90842 19.4697 7.20131C19.1768 7.49421 19.1768 7.96908 19.4697 8.26197L19.8697 8.66197C19.8774 8.66969 19.8845 8.67683 19.8912 8.68347C19.9376 8.72992 19.9592 8.75154 19.9769 8.76979C21.5796 10.4191 21.5796 13.0442 19.9769 14.6935C19.9566 14.7144 19.9314 14.7396 19.8697 14.8013L19.4697 15.2013C19.1768 15.4942 19.1768 15.9691 19.4697 16.262C19.7626 16.5549 20.2375 16.5549 20.5303 16.262L20.9357 15.8566C20.9425 15.8498 20.9493 15.8431 20.9555 15.8369C20.9989 15.7934 21.0275 15.7647 21.0526 15.7389C23.2211 13.5074 23.2211 9.95587 21.0526 7.72442C21.0239 7.69487 20.9905 7.66146 20.9357 7.60663L20.5303 7.20131Z" fill="#2D264B"/>
</svg>
